<svg width="24" height="24" viewBox="0 0 24 24" fill="none" xmlns="http://www.w3.org/2000/svg">
<path d="M17.1568 16.8614C15.8769 16.8614 14.8215 17.8943 14.8215 19.1967C14.8215 20.4766 15.8545 21.532 17.1568 21.532C18.4367 21.532 19.4921 20.4991 19.4921 19.1967C19.4697 17.9168 18.4367 16.8614 17.1568 16.8614Z" fill="white"/>
<path d="M21.2661 5.72389C21.2212 5.72389 21.1539 5.70144 21.0865 5.70144H6.94004L6.71549 4.19697C6.58076 3.20896 5.72748 2.46796 4.71702 2.46796H2.89819C2.40418 2.46796 2 2.87214 2 3.36615C2 3.86015 2.40418 4.26434 2.89819 4.26434H4.71702C4.82929 4.26434 4.91911 4.35415 4.94157 4.46643L6.33376 13.9423C6.5134 15.1324 7.54631 16.0306 8.75887 16.0306H18.1C19.2677 16.0306 20.2781 15.1998 20.5251 14.0546L21.9847 6.75681C22.0745 6.28526 21.7601 5.81371 21.2661 5.72389Z" fill="white"/>
<path d="M11.4309 19.0844C11.386 17.8494 10.353 16.8614 9.11804 16.8614C7.81566 16.9288 6.82766 18.0066 6.87257 19.2865C6.91748 20.5215 7.92794 21.5095 9.16295 21.5095H9.20786C10.4878 21.4422 11.4982 20.3644 11.4309 19.0844Z" fill="white"/>
</svg>
