<svg width="154" height="50" viewBox="0 0 154 50" fill="none" xmlns="http://www.w3.org/2000/svg">
<mask id="path-1-outside-1" maskUnits="userSpaceOnUse" x="0" y="0" width="112" height="50" fill="black">
<rect fill="white" width="112" height="50"/>
<path fill-rule="evenodd" clip-rule="evenodd" d="M61.587 1.00182C61.6568 0.999677 61.7263 1.01165 61.7914 1.03703C61.8564 1.0624 61.9157 1.10065 61.9656 1.14949C62.0189 1.19764 62.0621 1.25592 62.0927 1.32092C62.1232 1.38593 62.1405 1.45636 62.1436 1.52813C62.1541 1.6618 62.1195 1.79515 62.0451 1.90676C56.3529 9.92128 51.4609 17.4638 47.3691 24.5342H47.8803C50.7073 24.6494 53.5343 24.3155 56.2559 23.545C56.293 23.4825 56.332 23.4209 56.3731 23.3604C56.7924 22.6789 57.3738 22.1117 58.0656 21.7096C58.1603 21.6566 58.2625 21.6036 58.3799 21.5506C58.5204 21.5029 58.6671 21.4761 58.8153 21.471C59.0021 21.4815 59.1809 21.5504 59.3265 21.6679C59.4746 21.8096 59.565 22.0012 59.5802 22.2056C59.5918 22.3536 59.5658 22.5021 59.5045 22.6372C59.4615 22.7563 59.3973 22.8666 59.3152 22.9629C59.1836 23.121 59.0378 23.2667 58.8797 23.3983C58.3267 23.8295 57.6769 24.1193 56.9865 24.2427C56.7621 24.6726 56.66 25.1559 56.6912 25.6398C56.6957 25.7133 56.7097 25.7858 56.7328 25.8557V25.973L56.7518 26.0526C56.7863 26.1365 56.8409 26.2106 56.9108 26.2684C57.1609 26.3905 57.4428 26.4316 57.7173 26.3858C58.4123 26.3202 59.0945 26.1557 59.743 25.8973C60.4059 25.6252 61.0497 25.309 61.6703 24.9507C61.9353 24.7955 62.2345 24.6024 62.5752 24.379C62.7381 24.2654 62.8957 24.1445 63.0476 24.0169C62.9742 23.9371 62.9037 23.8545 62.8365 23.7693C62.7402 23.6489 62.6517 23.5224 62.5714 23.3907C62.4274 23.1646 62.3524 22.9015 62.3556 22.6334C62.3484 22.3579 62.4164 22.0856 62.5525 21.8459C62.6926 21.5873 62.9252 21.3912 63.2038 21.2968C63.354 21.2419 63.5155 21.2256 63.6737 21.2494C63.8318 21.2732 63.9814 21.3364 64.1087 21.4331C64.3272 21.6129 64.4759 21.8633 64.529 22.1412C64.5903 22.3927 64.5731 22.657 64.4798 22.8985C64.357 23.2341 64.1417 23.5282 63.8588 23.7466C63.9173 23.8009 63.9705 23.8604 64.0178 23.9246C64.1201 24.042 64.2072 24.148 64.2715 24.2388C64.3594 24.4011 64.4 24.5848 64.3889 24.7689C64.3895 24.8579 64.3701 24.9459 64.3321 25.0264C64.3107 25.1 64.2788 25.1702 64.2375 25.2347C64.1853 25.3473 64.1191 25.4529 64.0406 25.5489C63.9762 25.6398 63.8891 25.7534 63.7831 25.8821C63.6771 26.0109 63.5862 26.132 63.5105 26.2381C63.4355 26.3366 63.3696 26.4418 63.3136 26.5523C63.2104 26.7067 63.1241 26.8717 63.0561 27.0446C63.0444 27.0704 63.0342 27.097 63.0258 27.1241C63.0186 27.1573 63.0098 27.1902 62.9993 27.2225C62.9914 27.2506 62.9772 27.2766 62.9577 27.2982L62.9198 27.4383C62.9162 27.4774 62.9162 27.5167 62.9198 27.5557C62.8866 27.7117 62.8866 27.873 62.9198 28.029C62.9587 28.1639 63.0188 28.2917 63.0978 28.4077C63.1804 28.5186 63.2919 28.6048 63.42 28.6568C63.5482 28.7089 63.6881 28.7249 63.8247 28.703C64.215 28.673 64.5925 28.551 64.9266 28.3471C65.2731 28.1378 65.6023 27.901 65.911 27.639C66.5437 27.0988 67.1243 26.5005 67.6452 25.8518C67.7443 25.7285 67.8409 25.6033 67.9351 25.4764C68.0688 25.1582 68.2249 24.8496 68.4025 24.5531C68.5565 24.3007 68.8177 23.888 69.1863 23.315C69.2152 23.2662 69.2541 23.2242 69.3004 23.1915C69.3467 23.1589 69.3995 23.1365 69.4551 23.1257C69.5677 23.1065 69.6832 23.1324 69.7769 23.1976C69.8233 23.2225 69.8633 23.2576 69.8942 23.3003C69.925 23.3429 69.9457 23.3919 69.9549 23.4437C69.9811 23.5459 69.9675 23.6541 69.917 23.7466L69.895 23.7863L69.8943 23.7875C69.8022 23.9533 69.6816 24.1704 69.5384 24.4358C69.4345 24.6283 69.3425 24.7768 69.2771 24.8823C69.2448 24.9345 69.2189 24.9762 69.2014 25.0075C68.9808 25.4085 68.7836 25.8219 68.6107 26.2457C68.5408 26.4207 68.5011 26.6064 68.4934 26.7947C68.4901 26.8524 68.4978 26.9102 68.5161 26.9651C68.5322 27.0009 68.5586 27.0312 68.5918 27.0522C68.8152 27.196 69.1976 27.1847 69.7277 27.0143C70.1735 26.8649 70.6014 26.6668 71.0037 26.4236C71.3596 26.2002 71.761 25.9314 72.204 25.6171C72.4956 25.4051 72.8666 25.106 73.3399 24.7122L73.8889 24.2389C73.958 24.1721 74.0251 24.1035 74.0904 24.0331L74.1237 23.9625C75.3278 21.471 76.6454 19.0452 78.0767 16.685C78.7204 15.6223 79.4082 14.5596 80.1403 13.4969C79.258 13.5764 78.425 13.6559 77.6412 13.743L77.3936 13.7705C76.7039 13.847 76.0628 13.918 75.5247 13.9891C74.9226 14.0686 74.3698 14.1481 73.9306 14.2352C73.6085 14.2911 73.2899 14.3657 72.9764 14.4586C72.9094 14.4933 72.8359 14.514 72.7606 14.5192C72.7271 14.5186 72.6941 14.5112 72.6635 14.4975C72.633 14.4839 72.6055 14.4642 72.5826 14.4397C72.5405 14.4047 72.5102 14.3575 72.496 14.3047C72.4817 14.2518 72.4842 14.1958 72.5031 14.1444C72.5296 14.0421 72.7417 13.8945 73.143 13.7014C73.5444 13.5082 73.9533 13.3416 74.3736 13.1902C74.6436 13.0866 74.9192 12.9981 75.199 12.9251C75.2702 12.9265 75.3391 12.9503 75.3959 12.9933C75.4277 13.0148 75.4546 13.0428 75.4748 13.0754C75.495 13.108 75.5082 13.1446 75.5133 13.1826C75.5218 13.2299 75.5171 13.2785 75.4997 13.3233C75.4823 13.368 75.453 13.4071 75.4149 13.4363C76.831 13.2546 78.5437 13.0779 80.553 12.9062L80.8975 12.361C80.9531 12.2895 81.0271 12.1885 81.1209 12.0606L81.1217 12.0595L81.1734 11.989L81.2535 11.8801L81.3566 11.7404C81.4525 11.6105 81.5097 11.5331 81.5299 11.5015C81.9549 10.9358 82.422 10.4029 82.927 9.90739C82.9667 9.86406 83.0154 9.83004 83.0697 9.80778C83.1241 9.78552 83.1827 9.77557 83.2413 9.77866C83.2974 9.7811 83.3524 9.79475 83.4032 9.81881C83.4539 9.84288 83.4993 9.87686 83.5366 9.91875C83.6122 9.99848 83.6543 10.1042 83.654 10.2141C83.6541 10.2668 83.6437 10.319 83.6236 10.3678C83.6034 10.4165 83.5739 10.4608 83.5366 10.4981L83.5139 10.5359C83.0525 11.0092 82.626 11.5154 82.2379 12.0505C82.2172 12.083 82.1642 12.157 82.0789 12.2762L81.9994 12.3875C81.8669 12.573 81.7646 12.7093 81.6851 12.8002C88.2936 12.3054 93.125 12.236 96.1794 12.5919C96.2294 12.5904 96.2782 12.608 96.3157 12.6412C96.3551 12.6723 96.3863 12.7126 96.4066 12.7585C96.4252 12.8055 96.4342 12.8557 96.4331 12.9062C96.4236 12.9796 96.3855 13.0463 96.327 13.0917C96.2672 13.137 96.1939 13.161 96.1188 13.1599C93.8776 12.9688 91.6273 12.9069 89.379 12.9744C86.8548 13.0349 84.1627 13.1763 81.3027 13.3984L81.0869 13.7316C80.1024 15.2285 79.3678 16.3834 78.8832 17.1962C77.3484 19.7659 76.0308 22.1639 74.9302 24.3903C74.4683 25.3218 74.1792 25.9389 74.0631 26.2419L73.8662 26.6924L73.7034 27.1506C73.5801 27.4519 73.4752 27.7605 73.3891 28.0745C73.1544 28.8898 73.22 29.3618 73.586 29.4906C73.8686 29.5703 74.1667 29.5781 74.4531 29.5133C74.7762 29.4354 75.0917 29.329 75.3959 29.1952C76.6006 28.5811 77.708 27.7926 78.6825 26.8553C79.5217 26.0617 80.2868 25.1938 80.9684 24.2625C80.9826 24.2176 80.9981 24.1731 81.0149 24.1291C81.4568 23.1662 82.1683 22.3521 83.0634 21.7853C83.284 21.6322 83.5216 21.5051 83.7714 21.4066C84.0554 21.2801 84.3662 21.2255 84.6764 21.2476C84.8647 21.2788 85.0412 21.3598 85.1875 21.4824C85.3504 21.6012 85.4626 21.7769 85.5018 21.9746C85.5343 22.1266 85.5353 22.2837 85.5047 22.4361C85.4741 22.5885 85.4126 22.733 85.3238 22.8606C85.3091 22.8874 85.2887 22.9105 85.2639 22.9285C85.2392 22.9465 85.2109 22.9588 85.1809 22.9645C85.1509 22.9703 85.12 22.9694 85.0904 22.9619C85.0608 22.9545 85.0332 22.9405 85.0096 22.9212C84.979 22.8983 84.9542 22.8685 84.9371 22.8344C84.92 22.8002 84.9111 22.7625 84.9111 22.7243C84.941 22.5436 84.9132 22.3582 84.8316 22.1942C84.8049 22.1654 84.7709 22.1445 84.7332 22.1336C84.6835 22.1138 84.6312 22.101 84.5779 22.0958C84.414 22.1163 84.2543 22.1623 84.1046 22.2321C83.914 22.3229 83.7304 22.4279 83.5556 22.5463C83.1978 22.7999 82.8679 23.0906 82.5711 23.4134C82.2759 23.7163 82.0362 24.0687 81.8631 24.4547C81.7911 24.6226 81.75 24.8022 81.7419 24.9848V25.0454H81.7836C81.9611 25.0673 82.1411 25.0545 82.3137 25.0075C82.5276 24.9491 82.7375 24.877 82.9422 24.7917C83.3635 24.6083 83.772 24.397 84.1652 24.1593C84.4378 23.9776 84.6688 23.811 84.8543 23.6671L84.8808 23.6406C84.8846 23.6309 84.8846 23.6201 84.8808 23.6103C85.0247 23.4134 85.1875 23.1976 85.3731 22.9591C85.5586 22.7205 85.7934 22.463 85.9221 22.3305C85.9581 22.2873 86.0033 22.2526 86.0544 22.229C86.1055 22.2055 86.1612 22.1936 86.2174 22.1942C86.3235 22.1968 86.4255 22.2359 86.5062 22.3049C86.5869 22.3738 86.6413 22.4685 86.6604 22.5729C86.6677 22.6785 86.6368 22.7833 86.5734 22.8682L86.5544 22.8909C86.4068 23.0613 86.2515 23.2695 86.0811 23.5005L85.6268 24.148C85.3806 24.4774 85.0853 24.9053 84.7445 25.4467C84.4718 25.859 84.2469 26.3011 84.0743 26.7644C84.049 26.8543 84.0363 26.9473 84.0365 27.0408V27.1847C84.0655 27.2279 84.1062 27.262 84.1539 27.2831C84.2447 27.3048 84.3394 27.3048 84.4303 27.2831C84.9327 27.225 85.4162 27.0569 85.8464 26.7909C86.2975 26.5315 86.7313 26.2431 87.1451 25.9276C87.9137 25.3439 88.6222 24.6857 89.2606 23.9626C89.3163 23.7973 89.385 23.6365 89.4662 23.4816C89.7625 22.9416 90.1552 22.4603 90.6248 22.0617C90.864 21.8668 91.1171 21.6896 91.3821 21.5316C91.5207 21.4551 91.665 21.3893 91.8137 21.3347C91.9048 21.3111 91.9971 21.2922 92.0901 21.2779C92.1927 21.2516 92.2991 21.2439 92.4044 21.2552C92.5355 21.272 92.6632 21.3091 92.783 21.365C92.914 21.4218 93.0314 21.5057 93.1276 21.6111C93.2221 21.7117 93.2933 21.8319 93.3358 21.9633C93.4075 22.131 93.4376 22.3136 93.4238 22.4955C93.41 22.6774 93.3525 22.8533 93.2563 23.0083C93.2439 23.0346 93.2259 23.0579 93.2036 23.0766C93.1813 23.0952 93.1551 23.1088 93.127 23.1164C93.0989 23.1239 93.0695 23.1253 93.0409 23.1204C93.0122 23.1154 92.9849 23.1043 92.961 23.0878C92.9235 23.0663 92.8937 23.0335 92.876 22.994C92.8583 22.9546 92.8536 22.9105 92.8625 22.8682V22.8493C92.8837 22.6494 92.8341 22.4484 92.7224 22.2813C92.6764 22.2255 92.6186 22.1805 92.5531 22.1497C92.4877 22.119 92.4162 22.1031 92.3438 22.1034C92.1502 22.1141 91.9642 22.1827 91.8099 22.3002C91.5956 22.4348 91.3919 22.5854 91.2003 22.7508C90.8206 23.0863 90.4949 23.4784 90.2348 23.9132C89.9913 24.2923 89.9006 24.7497 89.9811 25.193C89.9899 25.2253 89.9962 25.2582 90 25.2915C90 25.318 90.0644 25.3218 90.1591 25.2915C90.3867 25.2738 90.6076 25.2066 90.8065 25.0946C91.2811 24.8555 91.7237 24.5578 92.1242 24.2086C92.5372 23.857 92.9256 23.4774 93.2866 23.0727C93.646 22.6643 93.975 22.2302 94.2711 21.7739C94.2924 21.7371 94.3246 21.7079 94.3633 21.6902C94.4019 21.6726 94.4452 21.6674 94.4869 21.6755C94.5206 21.6752 94.5541 21.6816 94.5853 21.6944C94.6094 21.7067 94.6306 21.7237 94.6478 21.7445C94.6649 21.7654 94.6776 21.7895 94.6851 21.8154C94.6925 21.8413 94.6946 21.8685 94.6911 21.8952C94.6876 21.9219 94.6787 21.9477 94.6649 21.9708C93.7999 24.1164 92.8269 26.2167 91.7493 28.2638C92.6152 27.716 93.3308 27.244 93.8962 26.8477C94.7217 26.2848 95.3843 25.8064 95.8841 25.4127C96.3682 25.0279 96.8192 24.6037 97.2324 24.1445C97.332 23.8694 97.4662 23.6058 97.6334 23.3604C98.0526 22.6789 98.6341 22.1117 99.3259 21.7096C99.4279 21.6513 99.5328 21.5982 99.6402 21.5506C99.7794 21.5032 99.9248 21.4764 100.072 21.471C100.26 21.4823 100.439 21.551 100.587 21.6679C100.734 21.8087 100.824 21.9987 100.84 22.2018C100.852 22.3502 100.825 22.4991 100.761 22.6335C100.717 22.7505 100.65 22.8574 100.564 22.9477C100.435 23.1067 100.29 23.2525 100.132 23.3832C99.5786 23.813 98.9291 24.1027 98.2392 24.2275C98.0148 24.6575 97.9126 25.1407 97.9439 25.6247C97.9479 25.6979 97.9606 25.7703 97.9817 25.8405L98.0044 25.9579L98.0234 26.0374C98.0567 26.121 98.11 26.1951 98.1786 26.2532C98.4289 26.3746 98.7106 26.4156 98.9851 26.3706C99.6814 26.3051 100.365 26.1406 101.015 25.8822C101.677 25.6101 102.321 25.2938 102.942 24.9356C103.203 24.7803 103.506 24.5872 103.847 24.3638C104.006 24.2536 104.16 24.1365 104.309 24.013C104.259 23.6055 104.266 23.1923 104.328 22.7849C104.362 22.4543 104.468 22.1352 104.638 21.8495C104.808 21.5638 105.038 21.3184 105.312 21.1302C105.62 20.9289 105.988 20.8393 106.353 20.8766C106.539 20.9028 106.718 20.9618 106.884 21.0507C107.051 21.1541 107.193 21.2955 107.296 21.4634C107.472 21.7683 107.522 22.1294 107.436 22.4706C107.382 22.7935 107.239 23.0949 107.024 23.3415C107.008 23.3654 106.987 23.3854 106.962 23.3997C106.937 23.4141 106.909 23.4226 106.881 23.4244C106.852 23.4263 106.823 23.4214 106.797 23.4103C106.771 23.3992 106.747 23.3821 106.728 23.3604C106.692 23.3305 106.666 23.2896 106.655 23.2438C106.644 23.198 106.649 23.1498 106.668 23.1067V23.0764C106.776 22.8773 106.837 22.6556 106.846 22.429C106.857 22.232 106.801 22.037 106.687 21.8762C106.635 21.8183 106.571 21.7727 106.5 21.7426C106.428 21.7125 106.351 21.6986 106.274 21.702C106.098 21.7044 105.927 21.7584 105.782 21.8572C105.611 21.9831 105.472 22.1459 105.373 22.3334C105.275 22.521 105.22 22.7284 105.214 22.9401C105.149 23.4139 105.182 23.896 105.312 24.3562C105.339 24.4623 105.501 24.9659 105.804 25.8708C105.854 26.0033 105.907 26.1661 105.96 26.363C106.888 26.1328 107.801 25.8444 108.693 25.4997C109.686 25.1405 110.568 24.5268 111.249 23.7201C111.266 23.6944 111.289 23.6728 111.315 23.6572C111.342 23.6416 111.372 23.6324 111.403 23.6302C111.433 23.628 111.464 23.6329 111.493 23.6446C111.521 23.6562 111.547 23.6743 111.567 23.6974C111.592 23.7106 111.614 23.7299 111.629 23.7534C111.645 23.777 111.655 23.804 111.657 23.8322C111.66 23.8604 111.656 23.8888 111.644 23.9149C111.633 23.9409 111.616 23.9638 111.594 23.9814V24.0041C110.829 24.8122 109.886 25.4317 108.841 25.814C108.316 26.021 107.385 26.3226 106.047 26.7189C106.11 27.0163 106.136 27.3201 106.126 27.6239C106.084 28.2525 105.871 28.8576 105.509 29.3732C105.319 29.6473 105.074 29.8783 104.789 30.0511C104.504 30.224 104.185 30.3349 103.854 30.3766C103.776 30.3865 103.698 30.3865 103.62 30.3766H103.362C103.178 30.3649 102.999 30.3186 102.832 30.2403C102.492 30.0977 102.214 29.8404 102.045 29.5133C101.969 29.3457 101.923 29.1664 101.908 28.9832C101.902 28.8022 101.928 28.6216 101.984 28.4493C102.089 28.1341 102.288 27.859 102.556 27.6618C102.784 27.4904 103.027 27.3396 103.283 27.2112C103.537 27.0872 103.8 26.9822 104.07 26.8969C104.387 26.7817 104.709 26.6831 105.036 26.6016C104.998 26.4312 104.956 26.2797 104.918 26.1472C104.9 26.0813 104.876 26.0192 104.848 25.9459C104.82 25.8718 104.788 25.7863 104.752 25.6739C104.74 25.6386 104.729 25.604 104.718 25.57C104.66 25.3888 104.607 25.2255 104.562 25.0757C104.547 25.0223 104.531 24.9692 104.515 24.9165C104.478 24.7935 104.442 24.6724 104.407 24.5531C104.399 24.5213 104.392 24.4893 104.385 24.4573C104.275 24.5392 104.162 24.6179 104.048 24.6933C103.824 24.8371 103.51 25.034 103.105 25.2801C102.578 25.6096 101.935 25.9617 101.174 26.3441C100.508 26.6901 99.802 26.9533 99.0722 27.1279C98.865 27.1662 98.6539 27.1789 98.4437 27.1658C98.2011 27.1587 97.9642 27.091 97.7545 26.9689C97.5058 26.8405 97.3101 26.6287 97.2017 26.3706C97.2017 26.3464 97.1878 26.3129 97.1708 26.2721C97.1612 26.2491 97.1507 26.2237 97.1411 26.1964L97.1033 26.0374C97.0897 25.9315 97.0694 25.8265 97.0427 25.7231C97.0133 25.452 97.0156 25.1804 97.0484 24.9134C96.7507 25.1942 96.4405 25.4619 96.1188 25.7156C95.5168 26.1851 94.8466 26.6735 94.112 27.1695C93.4835 27.5911 92.5722 28.1881 91.3783 28.9605C91.0224 29.6155 90.6702 30.2517 90.3143 30.8537C89.4953 32.2962 88.5886 33.6871 87.5995 35.0187C87.0869 35.7056 86.5073 36.3398 85.8691 36.9119C85.6915 37.0567 85.5 37.1835 85.2973 37.2905C85.0737 37.4259 84.8274 37.5195 84.5704 37.5669H84.3545C84.2752 37.5737 84.1954 37.5737 84.116 37.5669C83.9821 37.5344 83.8543 37.4807 83.7374 37.4079C83.5987 37.3396 83.4763 37.2425 83.3784 37.123C83.2804 37.0034 83.2092 36.8643 83.1694 36.715C82.9321 35.8871 83.1618 35.0036 83.8585 34.0645C84.388 33.4029 84.9958 32.8079 85.6684 32.2925C86.456 31.6791 87.8203 30.7489 89.7615 29.5019C89.839 29.4422 89.9213 29.389 90.0076 29.3429C90.1174 29.2786 90.178 29.2369 90.1931 29.2255C90.6399 28.438 91.2167 27.4018 91.9235 26.1169L92.7906 24.5418L92.6997 24.6402C92.671 24.6796 92.635 24.713 92.5937 24.7387C92.1665 25.1493 91.6909 25.5066 91.1776 25.8027C90.8917 25.9667 90.5766 26.0734 90.2499 26.1169C90.0271 26.1464 89.8007 26.1054 89.6025 25.9995C89.4842 25.9312 89.3832 25.8366 89.3071 25.7231C89.2506 25.6236 89.2049 25.5182 89.1708 25.4089C89.1067 25.1746 89.0838 24.9319 89.1022 24.6913C88.5555 25.2245 87.9886 25.7367 87.4026 26.2267C86.9909 26.5751 86.5571 26.8963 86.1038 27.1885C85.8695 27.3466 85.6268 27.4919 85.3769 27.6239C85.1179 27.7715 84.8403 27.8836 84.5514 27.9571C84.3826 27.9892 84.2091 27.9892 84.0403 27.9571C83.9302 27.948 83.823 27.9173 83.7249 27.8666C83.6267 27.8159 83.5396 27.7463 83.4685 27.6618C83.395 27.581 83.3349 27.489 83.2906 27.3891C83.2364 27.292 83.2089 27.1823 83.211 27.0711C83.1986 26.8922 83.2192 26.7125 83.2716 26.541C83.4317 26.0381 83.6517 25.5563 83.9267 25.1059C83.6919 25.2498 83.4685 25.3748 83.2603 25.4846C83.0546 25.593 82.7604 25.6977 82.538 25.7769L82.5295 25.7799C82.2524 25.8764 81.9591 25.9176 81.6662 25.9011C81.4396 25.8848 81.228 25.7817 81.0755 25.6133C80.9331 25.4464 80.8564 25.2336 80.8591 25.0148C80.2564 25.7559 79.6105 26.4616 78.9248 27.1279C77.9212 28.098 76.7885 28.9249 75.5587 29.5852C75.237 29.7518 74.9012 29.8899 74.5553 29.998C74.1819 30.1275 73.7806 30.155 73.3929 30.0775C73.1557 30.0294 72.9449 29.8944 72.8022 29.6988C72.666 29.512 72.5729 29.2974 72.5296 29.0703C72.4456 28.678 72.4586 28.2712 72.5675 27.8851L72.7038 27.3513C72.7263 27.2481 72.7567 27.1469 72.7947 27.0484C72.8178 26.9766 72.8469 26.9069 72.8818 26.8401L73.0597 26.3479L73.2566 25.8556C73.3389 25.6579 73.4831 25.3363 73.6893 24.8907L73.5747 24.9848C73.4156 25.1325 73.037 25.4392 72.4388 25.9125C71.6443 26.5246 70.8009 27.0704 69.917 27.5444C69.677 27.6675 69.4227 27.7604 69.1598 27.8208C68.8461 27.8899 68.5192 27.8689 68.2169 27.7602C68.0219 27.6982 67.8588 27.5623 67.7626 27.3816C67.6693 27.2198 67.616 27.038 67.6073 26.8515C67.602 26.6983 67.612 26.5454 67.6367 26.3949C67.182 26.9279 66.6995 27.4367 66.1912 27.9192C65.8703 28.2123 65.5286 28.4818 65.1689 28.7257C64.8006 29.002 64.3884 29.2145 63.9497 29.3543C63.6923 29.4277 63.4195 29.4277 63.1621 29.3543C62.869 29.2957 62.6091 29.1278 62.4351 28.8847C62.2646 28.6715 62.1466 28.4212 62.0906 28.154C62.0319 27.8969 62.0216 27.6311 62.0603 27.3702C62.0603 27.3453 62.0724 27.3123 62.0879 27.2705C62.0983 27.2422 62.1102 27.2099 62.1209 27.1733L62.1587 26.9953C62.2082 26.8947 62.2475 26.7895 62.2761 26.6811C62.3686 26.4603 62.4814 26.2486 62.6131 26.0487C62.6821 25.9254 62.7605 25.8077 62.8479 25.6966C62.9387 25.5805 63.041 25.4543 63.1545 25.318C63.2375 25.2262 63.3122 25.1274 63.3779 25.0226C63.4307 24.9548 63.4776 24.8826 63.518 24.8068C63.5554 24.7692 63.5816 24.722 63.5938 24.6705C63.5796 24.6236 63.5564 24.5799 63.5256 24.5418C63.4935 24.4963 63.458 24.4533 63.4196 24.413C63.3885 24.3758 63.3566 24.3392 63.324 24.3033C63.1514 24.4416 62.9723 24.5717 62.7873 24.6933C62.5676 24.8371 62.2496 25.034 61.8445 25.2801C61.3181 25.6096 60.6782 25.9617 59.9172 26.3441C59.2462 26.6907 58.5354 26.9539 57.8006 27.1279C57.5921 27.1661 57.3798 27.1788 57.1683 27.1658C56.9269 27.1587 56.6912 27.091 56.4829 26.9689C56.238 26.8389 56.0464 26.6272 55.9415 26.3706C55.9415 26.3482 55.9296 26.3179 55.9152 26.2813C55.9052 26.2559 55.894 26.2273 55.8847 26.1964L55.843 26.0374C55.8296 25.9317 55.8107 25.8268 55.7862 25.7231C55.7295 25.2086 55.7873 24.6919 55.951 24.2087C53.3037 24.8852 50.5711 25.1737 47.8386 25.0643C47.6834 25.0643 47.4259 25.0454 47.0814 25.0075C45.8394 27.1556 44.5306 29.5032 43.1549 32.0502C41.7792 34.5971 40.6306 36.7428 39.7093 38.487C38.793 40.254 37.4614 42.8325 35.7146 46.2226L35.5594 46.518C35.5151 46.6152 35.4428 46.697 35.3517 46.753C35.2607 46.809 35.155 46.8366 35.0482 46.8322C34.9589 46.8319 34.8708 46.8112 34.7907 46.7716C34.7226 46.7364 34.6623 46.6877 34.6135 46.6284C34.5647 46.5692 34.5284 46.5007 34.5068 46.4271C34.4834 46.3571 34.4757 46.2828 34.4842 46.2096C34.4927 46.1363 34.5172 46.0658 34.556 46.003L34.6923 45.7077C36.3709 42.4438 37.6596 39.9549 38.5582 38.2409C39.4568 36.5269 40.5928 34.4053 41.9659 31.876C43.329 29.3517 44.6202 27.0244 45.8394 24.8939C45.0519 24.7992 44.2681 24.6781 43.4805 24.5153L41.3336 24.1026L39.1792 23.7201C37.3541 23.392 35.5442 23.1029 33.7495 22.853C31.5963 25.9882 29.4507 28.992 27.3126 31.8646C25.374 34.4293 23.5464 36.715 21.83 38.7218C19.9413 40.9751 17.9021 43.0978 15.7263 45.0753C14.6162 46.0748 13.4173 46.9708 12.1444 47.7523C11.4786 48.1455 10.7729 48.4666 10.0391 48.7103C9.65455 48.8338 9.25893 48.9201 8.85779 48.9677C8.4586 49.0056 8.05671 49.0056 7.65751 48.9677C6.84245 48.8941 6.05502 48.635 5.35539 48.2105C4.66944 47.7892 4.06946 47.2419 3.58715 46.5975C2.68003 45.3597 2.02401 43.9563 1.65609 42.4665C1.2791 41.0165 1.06074 39.5298 1.00483 38.0327C0.986704 37.274 1.01959 36.515 1.10328 35.7608C1.12325 35.5683 1.15614 35.3772 1.20172 35.1891C1.2375 35.0174 1.26989 34.8322 1.29571 34.6845L1.30017 34.659C1.31332 34.5839 1.33206 34.4509 1.35732 34.2718C1.38297 34.0898 1.41535 33.8602 1.45541 33.595C1.63452 32.1043 1.97216 30.637 2.46259 29.218C3.00876 27.7781 3.87794 26.4828 5.00325 25.4316C6.10349 24.396 7.3877 23.5754 8.78964 23.0121C9.48091 22.7148 10.1904 22.4619 10.9138 22.2548C11.6253 22.0475 12.3469 21.8769 13.0758 21.7436C15.9794 21.2416 18.9266 21.0373 21.8716 21.134C24.7972 21.2116 27.7168 21.4429 30.6182 21.8269L32.765 22.1033C33.9211 20.4121 35.1012 18.6451 36.3053 16.8024C39.5565 11.8422 42.5932 6.99567 45.4153 2.26268C45.0749 2.24233 44.7335 2.24233 44.393 2.26268L44.109 2.30055L43.7645 2.34977C43.6668 2.36595 43.5681 2.37607 43.4691 2.38006L43.0905 2.45958L42.5566 2.55802C41.3348 2.83793 40.138 3.21785 38.9785 3.69394C37.811 4.16012 36.6796 4.71191 35.5935 5.3448C34.5238 5.95761 33.5321 6.69754 32.6401 7.54848H32.6211C32.575 7.60358 32.5169 7.64752 32.4513 7.67702C32.3858 7.70653 32.3144 7.72083 32.2425 7.71887C32.0909 7.71293 31.9473 7.64927 31.8412 7.54091C31.7865 7.48924 31.7439 7.42614 31.7164 7.35611C31.6889 7.28607 31.6772 7.21083 31.6821 7.13576C31.6905 6.99367 31.7497 6.85932 31.8487 6.75712L31.8714 6.73819C32.8514 5.86613 33.9289 5.11015 35.0823 4.48529C36.2312 3.8644 37.4262 3.33274 38.6566 2.89501C39.8765 2.45647 41.1302 2.11836 42.4052 1.88405L42.7194 1.83482L43.0754 1.77424L43.3707 1.72502L44.3514 1.6455C44.9168 1.61693 45.4836 1.64356 46.0439 1.72502C46.1197 1.71187 46.1977 1.72667 46.2635 1.76667H46.3392C46.4019 1.77152 46.4601 1.80088 46.5012 1.84837C46.5423 1.89587 46.563 1.95767 46.5588 2.02036C46.6089 2.10387 46.6353 2.1994 46.6353 2.29676C46.6353 2.39412 46.6089 2.48966 46.5588 2.57317C42.2524 9.8405 38.1 16.4187 34.1016 22.3078C35.885 22.5804 37.6116 22.872 39.2776 23.1711L41.4207 23.5497L43.5676 24.0041C44.4208 24.1606 45.2727 24.2868 46.1234 24.3827C49.9805 17.7187 54.408 10.806 59.406 3.64472C59.3449 3.60819 59.291 3.5607 59.247 3.50462C59.1956 3.44992 59.1567 3.38464 59.1332 3.31335C59.1096 3.24205 59.102 3.16647 59.1107 3.0919C59.1254 2.94512 59.1959 2.80958 59.3076 2.71326L61.2008 1.1192C61.3099 1.03245 61.448 0.990483 61.587 1.00182ZM26.3509 31.1263C28.2895 28.5389 30.3089 25.7118 32.4091 22.6448C28.9186 22.183 25.4036 21.9301 21.883 21.8875C18.9877 21.8199 16.0932 22.0534 13.2462 22.5842C12.5117 22.7331 11.8162 22.9048 11.1599 23.0992C10.482 23.3093 9.818 23.5622 9.17206 23.8564C7.87868 24.3992 6.6926 25.1686 5.66966 26.1283C4.6759 27.102 3.91035 28.284 3.42812 29.589C2.98004 30.9378 2.67544 32.33 2.51939 33.7427C2.43987 34.2652 2.38686 34.6287 2.36036 34.8256C2.33385 35.0225 2.30356 35.2042 2.26191 35.3936C2.23541 35.5261 2.2089 35.6889 2.18618 35.8858C2.12077 36.5855 2.10558 37.2891 2.14075 37.991C2.19065 39.3988 2.40154 40.7962 2.76929 42.156C3.09373 43.5045 3.68323 44.7748 4.50345 45.8932C4.89724 46.4233 5.39123 46.871 5.95742 47.2109C6.50462 47.5501 7.12538 47.7527 7.76732 47.8015C8.09415 47.8432 8.42494 47.8432 8.75178 47.8015C9.07251 47.772 9.38883 47.7059 9.69459 47.6046C10.3486 47.3882 10.976 47.0986 11.5651 46.7413C12.7772 45.9947 13.9179 45.1378 14.9728 44.1818C17.1023 42.2372 19.1008 40.1539 20.9553 37.9456C22.639 35.9539 24.4375 33.6808 26.3509 31.1263ZM58.5011 22.4896C57.9836 22.8209 57.5465 23.2632 57.2213 23.7845C57.7065 23.6493 58.1303 23.3511 58.4216 22.9402C58.5228 22.8259 58.6081 22.6986 58.6753 22.5615L58.7548 22.4063V22.3836C58.6651 22.4052 58.5795 22.441 58.5011 22.4896ZM63.2038 23.0575C63.1176 22.9366 63.0689 22.7931 63.0637 22.6448C63.0625 22.5045 63.0895 22.3654 63.1432 22.2359C63.2037 22.1214 63.3011 22.0307 63.4196 21.9784C63.4689 21.9559 63.5225 21.9442 63.5767 21.9442C63.631 21.9442 63.6845 21.9559 63.7339 21.9784C63.7946 22.0147 63.847 22.0635 63.8875 22.1216C63.9279 22.1797 63.9556 22.2458 63.9686 22.3154C64.0102 22.4627 64.0102 22.6186 63.9686 22.7659C63.8877 23.0288 63.7309 23.262 63.518 23.4361C63.3992 23.3223 63.2937 23.1953 63.2038 23.0575ZM89.6441 30.1797L89.5267 30.3955C89.0951 31.1301 88.6672 31.8268 88.2394 32.4667C87.7244 33.2543 87.265 33.9232 86.8611 34.4735C86.4051 35.1107 85.8836 35.6982 85.3049 36.2266C85.0627 36.46 84.7659 36.6292 84.4416 36.7188H84.2826C84.2251 36.7132 84.1702 36.6923 84.1236 36.6582C84.0241 36.6107 83.9467 36.5266 83.9077 36.4235C83.8174 36.107 83.824 35.7707 83.9267 35.4579C84.0435 35.1071 84.2203 34.7791 84.4492 34.4886C84.9149 33.843 85.4564 33.2557 86.0622 32.7393C86.6633 32.204 87.2955 31.7046 87.9554 31.2437C88.4123 30.9029 89.008 30.4902 89.7426 30.0055L89.6441 30.1797ZM99.7575 22.4896C99.242 22.822 98.8063 23.2642 98.4815 23.7845C98.9667 23.6493 99.3906 23.3511 99.6818 22.9402C99.7818 22.825 99.867 22.6978 99.9355 22.5615C99.9593 22.5084 99.9858 22.4566 100.015 22.4063V22.3836C99.9244 22.406 99.8376 22.4417 99.7575 22.4896ZM104.319 29.2839C104.145 29.3938 103.949 29.4643 103.745 29.4906H103.733C103.688 29.5125 103.639 29.5266 103.589 29.5322H103.434C103.353 29.5174 103.274 29.4972 103.196 29.4717C103.032 29.3967 102.891 29.2821 102.783 29.1384C102.674 28.9876 102.629 28.7998 102.658 28.6159C102.675 28.4013 102.762 28.198 102.904 28.0366C103.073 27.8595 103.272 27.7134 103.491 27.605C103.725 27.4775 103.969 27.371 104.222 27.2869C104.456 27.196 104.748 27.09 105.127 26.9726C105.162 27.1676 105.181 27.3652 105.183 27.5633C105.165 28.0259 105.015 28.4736 104.752 28.8545C104.64 29.0275 104.493 29.174 104.319 29.2839Z"/>
<path d="M70.6402 22.5085C70.5607 22.6637 70.4509 22.6372 70.3032 22.429C70.2009 22.264 70.1594 22.0685 70.1859 21.8762C70.3191 21.4632 70.5564 21.0916 70.875 20.797C70.9129 20.7554 70.9734 20.7743 71.0529 20.8538C71.1377 20.9424 71.2046 21.0466 71.2498 21.1605C71.2707 21.2083 71.2814 21.2599 71.2814 21.312C71.2814 21.3641 71.2707 21.4157 71.2498 21.4635C71.1755 21.6584 71.0721 21.8409 70.9431 22.0049C70.8337 22.1675 70.7326 22.3356 70.6402 22.5085Z"/>
</mask>
<path fill-rule="evenodd" clip-rule="evenodd" d="M61.587 1.00182C61.6568 0.999677 61.7263 1.01165 61.7914 1.03703C61.8564 1.0624 61.9157 1.10065 61.9656 1.14949C62.0189 1.19764 62.0621 1.25592 62.0927 1.32092C62.1232 1.38593 62.1405 1.45636 62.1436 1.52813C62.1541 1.6618 62.1195 1.79515 62.0451 1.90676C56.3529 9.92128 51.4609 17.4638 47.3691 24.5342H47.8803C50.7073 24.6494 53.5343 24.3155 56.2559 23.545C56.293 23.4825 56.332 23.4209 56.3731 23.3604C56.7924 22.6789 57.3738 22.1117 58.0656 21.7096C58.1603 21.6566 58.2625 21.6036 58.3799 21.5506C58.5204 21.5029 58.6671 21.4761 58.8153 21.471C59.0021 21.4815 59.1809 21.5504 59.3265 21.6679C59.4746 21.8096 59.565 22.0012 59.5802 22.2056C59.5918 22.3536 59.5658 22.5021 59.5045 22.6372C59.4615 22.7563 59.3973 22.8666 59.3152 22.9629C59.1836 23.121 59.0378 23.2667 58.8797 23.3983C58.3267 23.8295 57.6769 24.1193 56.9865 24.2427C56.7621 24.6726 56.66 25.1559 56.6912 25.6398C56.6957 25.7133 56.7097 25.7858 56.7328 25.8557V25.973L56.7518 26.0526C56.7863 26.1365 56.8409 26.2106 56.9108 26.2684C57.1609 26.3905 57.4428 26.4316 57.7173 26.3858C58.4123 26.3202 59.0945 26.1557 59.743 25.8973C60.4059 25.6252 61.0497 25.309 61.6703 24.9507C61.9353 24.7955 62.2345 24.6024 62.5752 24.379C62.7381 24.2654 62.8957 24.1445 63.0476 24.0169C62.9742 23.9371 62.9037 23.8545 62.8365 23.7693C62.7402 23.6489 62.6517 23.5224 62.5714 23.3907C62.4274 23.1646 62.3524 22.9015 62.3556 22.6334C62.3484 22.3579 62.4164 22.0856 62.5525 21.8459C62.6926 21.5873 62.9252 21.3912 63.2038 21.2968C63.354 21.2419 63.5155 21.2256 63.6737 21.2494C63.8318 21.2732 63.9814 21.3364 64.1087 21.4331C64.3272 21.6129 64.4759 21.8633 64.529 22.1412C64.5903 22.3927 64.5731 22.657 64.4798 22.8985C64.357 23.2341 64.1417 23.5282 63.8588 23.7466C63.9173 23.8009 63.9705 23.8604 64.0178 23.9246C64.1201 24.042 64.2072 24.148 64.2715 24.2388C64.3594 24.4011 64.4 24.5848 64.3889 24.7689C64.3895 24.8579 64.3701 24.9459 64.3321 25.0264C64.3107 25.1 64.2788 25.1702 64.2375 25.2347C64.1853 25.3473 64.1191 25.4529 64.0406 25.5489C63.9762 25.6398 63.8891 25.7534 63.7831 25.8821C63.6771 26.0109 63.5862 26.132 63.5105 26.2381C63.4355 26.3366 63.3696 26.4418 63.3136 26.5523C63.2104 26.7067 63.1241 26.8717 63.0561 27.0446C63.0444 27.0704 63.0342 27.097 63.0258 27.1241C63.0186 27.1573 63.0098 27.1902 62.9993 27.2225C62.9914 27.2506 62.9772 27.2766 62.9577 27.2982L62.9198 27.4383C62.9162 27.4774 62.9162 27.5167 62.9198 27.5557C62.8866 27.7117 62.8866 27.873 62.9198 28.029C62.9587 28.1639 63.0188 28.2917 63.0978 28.4077C63.1804 28.5186 63.2919 28.6048 63.42 28.6568C63.5482 28.7089 63.6881 28.7249 63.8247 28.703C64.215 28.673 64.5925 28.551 64.9266 28.3471C65.2731 28.1378 65.6023 27.901 65.911 27.639C66.5437 27.0988 67.1243 26.5005 67.6452 25.8518C67.7443 25.7285 67.8409 25.6033 67.9351 25.4764C68.0688 25.1582 68.2249 24.8496 68.4025 24.5531C68.5565 24.3007 68.8177 23.888 69.1863 23.315C69.2152 23.2662 69.2541 23.2242 69.3004 23.1915C69.3467 23.1589 69.3995 23.1365 69.4551 23.1257C69.5677 23.1065 69.6832 23.1324 69.7769 23.1976C69.8233 23.2225 69.8633 23.2576 69.8942 23.3003C69.925 23.3429 69.9457 23.3919 69.9549 23.4437C69.9811 23.5459 69.9675 23.6541 69.917 23.7466L69.895 23.7863L69.8943 23.7875C69.8022 23.9533 69.6816 24.1704 69.5384 24.4358C69.4345 24.6283 69.3425 24.7768 69.2771 24.8823C69.2448 24.9345 69.2189 24.9762 69.2014 25.0075C68.9808 25.4085 68.7836 25.8219 68.6107 26.2457C68.5408 26.4207 68.5011 26.6064 68.4934 26.7947C68.4901 26.8524 68.4978 26.9102 68.5161 26.9651C68.5322 27.0009 68.5586 27.0312 68.5918 27.0522C68.8152 27.196 69.1976 27.1847 69.7277 27.0143C70.1735 26.8649 70.6014 26.6668 71.0037 26.4236C71.3596 26.2002 71.761 25.9314 72.204 25.6171C72.4956 25.4051 72.8666 25.106 73.3399 24.7122L73.8889 24.2389C73.958 24.1721 74.0251 24.1035 74.0904 24.0331L74.1237 23.9625C75.3278 21.471 76.6454 19.0452 78.0767 16.685C78.7204 15.6223 79.4082 14.5596 80.1403 13.4969C79.258 13.5764 78.425 13.6559 77.6412 13.743L77.3936 13.7705C76.7039 13.847 76.0628 13.918 75.5247 13.9891C74.9226 14.0686 74.3698 14.1481 73.9306 14.2352C73.6085 14.2911 73.2899 14.3657 72.9764 14.4586C72.9094 14.4933 72.8359 14.514 72.7606 14.5192C72.7271 14.5186 72.6941 14.5112 72.6635 14.4975C72.633 14.4839 72.6055 14.4642 72.5826 14.4397C72.5405 14.4047 72.5102 14.3575 72.496 14.3047C72.4817 14.2518 72.4842 14.1958 72.5031 14.1444C72.5296 14.0421 72.7417 13.8945 73.143 13.7014C73.5444 13.5082 73.9533 13.3416 74.3736 13.1902C74.6436 13.0866 74.9192 12.9981 75.199 12.9251C75.2702 12.9265 75.3391 12.9503 75.3959 12.9933C75.4277 13.0148 75.4546 13.0428 75.4748 13.0754C75.495 13.108 75.5082 13.1446 75.5133 13.1826C75.5218 13.2299 75.5171 13.2785 75.4997 13.3233C75.4823 13.368 75.453 13.4071 75.4149 13.4363C76.831 13.2546 78.5437 13.0779 80.553 12.9062L80.8975 12.361C80.9531 12.2895 81.0271 12.1885 81.1209 12.0606L81.1217 12.0595L81.1734 11.989L81.2535 11.8801L81.3566 11.7404C81.4525 11.6105 81.5097 11.5331 81.5299 11.5015C81.9549 10.9358 82.422 10.4029 82.927 9.90739C82.9667 9.86406 83.0154 9.83004 83.0697 9.80778C83.1241 9.78552 83.1827 9.77557 83.2413 9.77866C83.2974 9.7811 83.3524 9.79475 83.4032 9.81881C83.4539 9.84288 83.4993 9.87686 83.5366 9.91875C83.6122 9.99848 83.6543 10.1042 83.654 10.2141C83.6541 10.2668 83.6437 10.319 83.6236 10.3678C83.6034 10.4165 83.5739 10.4608 83.5366 10.4981L83.5139 10.5359C83.0525 11.0092 82.626 11.5154 82.2379 12.0505C82.2172 12.083 82.1642 12.157 82.0789 12.2762L81.9994 12.3875C81.8669 12.573 81.7646 12.7093 81.6851 12.8002C88.2936 12.3054 93.125 12.236 96.1794 12.5919C96.2294 12.5904 96.2782 12.608 96.3157 12.6412C96.3551 12.6723 96.3863 12.7126 96.4066 12.7585C96.4252 12.8055 96.4342 12.8557 96.4331 12.9062C96.4236 12.9796 96.3855 13.0463 96.327 13.0917C96.2672 13.137 96.1939 13.161 96.1188 13.1599C93.8776 12.9688 91.6273 12.9069 89.379 12.9744C86.8548 13.0349 84.1627 13.1763 81.3027 13.3984L81.0869 13.7316C80.1024 15.2285 79.3678 16.3834 78.8832 17.1962C77.3484 19.7659 76.0308 22.1639 74.9302 24.3903C74.4683 25.3218 74.1792 25.9389 74.0631 26.2419L73.8662 26.6924L73.7034 27.1506C73.5801 27.4519 73.4752 27.7605 73.3891 28.0745C73.1544 28.8898 73.22 29.3618 73.586 29.4906C73.8686 29.5703 74.1667 29.5781 74.4531 29.5133C74.7762 29.4354 75.0917 29.329 75.3959 29.1952C76.6006 28.5811 77.708 27.7926 78.6825 26.8553C79.5217 26.0617 80.2868 25.1938 80.9684 24.2625C80.9826 24.2176 80.9981 24.1731 81.0149 24.1291C81.4568 23.1662 82.1683 22.3521 83.0634 21.7853C83.284 21.6322 83.5216 21.5051 83.7714 21.4066C84.0554 21.2801 84.3662 21.2255 84.6764 21.2476C84.8647 21.2788 85.0412 21.3598 85.1875 21.4824C85.3504 21.6012 85.4626 21.7769 85.5018 21.9746C85.5343 22.1266 85.5353 22.2837 85.5047 22.4361C85.4741 22.5885 85.4126 22.733 85.3238 22.8606C85.3091 22.8874 85.2887 22.9105 85.2639 22.9285C85.2392 22.9465 85.2109 22.9588 85.1809 22.9645C85.1509 22.9703 85.12 22.9694 85.0904 22.9619C85.0608 22.9545 85.0332 22.9405 85.0096 22.9212C84.979 22.8983 84.9542 22.8685 84.9371 22.8344C84.92 22.8002 84.9111 22.7625 84.9111 22.7243C84.941 22.5436 84.9132 22.3582 84.8316 22.1942C84.8049 22.1654 84.7709 22.1445 84.7332 22.1336C84.6835 22.1138 84.6312 22.101 84.5779 22.0958C84.414 22.1163 84.2543 22.1623 84.1046 22.2321C83.914 22.3229 83.7304 22.4279 83.5556 22.5463C83.1978 22.7999 82.8679 23.0906 82.5711 23.4134C82.2759 23.7163 82.0362 24.0687 81.8631 24.4547C81.7911 24.6226 81.75 24.8022 81.7419 24.9848V25.0454H81.7836C81.9611 25.0673 82.1411 25.0545 82.3137 25.0075C82.5276 24.9491 82.7375 24.877 82.9422 24.7917C83.3635 24.6083 83.772 24.397 84.1652 24.1593C84.4378 23.9776 84.6688 23.811 84.8543 23.6671L84.8808 23.6406C84.8846 23.6309 84.8846 23.6201 84.8808 23.6103C85.0247 23.4134 85.1875 23.1976 85.3731 22.9591C85.5586 22.7205 85.7934 22.463 85.9221 22.3305C85.9581 22.2873 86.0033 22.2526 86.0544 22.229C86.1055 22.2055 86.1612 22.1936 86.2174 22.1942C86.3235 22.1968 86.4255 22.2359 86.5062 22.3049C86.5869 22.3738 86.6413 22.4685 86.6604 22.5729C86.6677 22.6785 86.6368 22.7833 86.5734 22.8682L86.5544 22.8909C86.4068 23.0613 86.2515 23.2695 86.0811 23.5005L85.6268 24.148C85.3806 24.4774 85.0853 24.9053 84.7445 25.4467C84.4718 25.859 84.2469 26.3011 84.0743 26.7644C84.049 26.8543 84.0363 26.9473 84.0365 27.0408V27.1847C84.0655 27.2279 84.1062 27.262 84.1539 27.2831C84.2447 27.3048 84.3394 27.3048 84.4303 27.2831C84.9327 27.225 85.4162 27.0569 85.8464 26.7909C86.2975 26.5315 86.7313 26.2431 87.1451 25.9276C87.9137 25.3439 88.6222 24.6857 89.2606 23.9626C89.3163 23.7973 89.385 23.6365 89.4662 23.4816C89.7625 22.9416 90.1552 22.4603 90.6248 22.0617C90.864 21.8668 91.1171 21.6896 91.3821 21.5316C91.5207 21.4551 91.665 21.3893 91.8137 21.3347C91.9048 21.3111 91.9971 21.2922 92.0901 21.2779C92.1927 21.2516 92.2991 21.2439 92.4044 21.2552C92.5355 21.272 92.6632 21.3091 92.783 21.365C92.914 21.4218 93.0314 21.5057 93.1276 21.6111C93.2221 21.7117 93.2933 21.8319 93.3358 21.9633C93.4075 22.131 93.4376 22.3136 93.4238 22.4955C93.41 22.6774 93.3525 22.8533 93.2563 23.0083C93.2439 23.0346 93.2259 23.0579 93.2036 23.0766C93.1813 23.0952 93.1551 23.1088 93.127 23.1164C93.0989 23.1239 93.0695 23.1253 93.0409 23.1204C93.0122 23.1154 92.9849 23.1043 92.961 23.0878C92.9235 23.0663 92.8937 23.0335 92.876 22.994C92.8583 22.9546 92.8536 22.9105 92.8625 22.8682V22.8493C92.8837 22.6494 92.8341 22.4484 92.7224 22.2813C92.6764 22.2255 92.6186 22.1805 92.5531 22.1497C92.4877 22.119 92.4162 22.1031 92.3438 22.1034C92.1502 22.1141 91.9642 22.1827 91.8099 22.3002C91.5956 22.4348 91.3919 22.5854 91.2003 22.7508C90.8206 23.0863 90.4949 23.4784 90.2348 23.9132C89.9913 24.2923 89.9006 24.7497 89.9811 25.193C89.9899 25.2253 89.9962 25.2582 90 25.2915C90 25.318 90.0644 25.3218 90.1591 25.2915C90.3867 25.2738 90.6076 25.2066 90.8065 25.0946C91.2811 24.8555 91.7237 24.5578 92.1242 24.2086C92.5372 23.857 92.9256 23.4774 93.2866 23.0727C93.646 22.6643 93.975 22.2302 94.2711 21.7739C94.2924 21.7371 94.3246 21.7079 94.3633 21.6902C94.4019 21.6726 94.4452 21.6674 94.4869 21.6755C94.5206 21.6752 94.5541 21.6816 94.5853 21.6944C94.6094 21.7067 94.6306 21.7237 94.6478 21.7445C94.6649 21.7654 94.6776 21.7895 94.6851 21.8154C94.6925 21.8413 94.6946 21.8685 94.6911 21.8952C94.6876 21.9219 94.6787 21.9477 94.6649 21.9708C93.7999 24.1164 92.8269 26.2167 91.7493 28.2638C92.6152 27.716 93.3308 27.244 93.8962 26.8477C94.7217 26.2848 95.3843 25.8064 95.8841 25.4127C96.3682 25.0279 96.8192 24.6037 97.2324 24.1445C97.332 23.8694 97.4662 23.6058 97.6334 23.3604C98.0526 22.6789 98.6341 22.1117 99.3259 21.7096C99.4279 21.6513 99.5328 21.5982 99.6402 21.5506C99.7794 21.5032 99.9248 21.4764 100.072 21.471C100.26 21.4823 100.439 21.551 100.587 21.6679C100.734 21.8087 100.824 21.9987 100.84 22.2018C100.852 22.3502 100.825 22.4991 100.761 22.6335C100.717 22.7505 100.65 22.8574 100.564 22.9477C100.435 23.1067 100.29 23.2525 100.132 23.3832C99.5786 23.813 98.9291 24.1027 98.2392 24.2275C98.0148 24.6575 97.9126 25.1407 97.9439 25.6247C97.9479 25.6979 97.9606 25.7703 97.9817 25.8405L98.0044 25.9579L98.0234 26.0374C98.0567 26.121 98.11 26.1951 98.1786 26.2532C98.4289 26.3746 98.7106 26.4156 98.9851 26.3706C99.6814 26.3051 100.365 26.1406 101.015 25.8822C101.677 25.6101 102.321 25.2938 102.942 24.9356C103.203 24.7803 103.506 24.5872 103.847 24.3638C104.006 24.2536 104.16 24.1365 104.309 24.013C104.259 23.6055 104.266 23.1923 104.328 22.7849C104.362 22.4543 104.468 22.1352 104.638 21.8495C104.808 21.5638 105.038 21.3184 105.312 21.1302C105.62 20.9289 105.988 20.8393 106.353 20.8766C106.539 20.9028 106.718 20.9618 106.884 21.0507C107.051 21.1541 107.193 21.2955 107.296 21.4634C107.472 21.7683 107.522 22.1294 107.436 22.4706C107.382 22.7935 107.239 23.0949 107.024 23.3415C107.008 23.3654 106.987 23.3854 106.962 23.3997C106.937 23.4141 106.909 23.4226 106.881 23.4244C106.852 23.4263 106.823 23.4214 106.797 23.4103C106.771 23.3992 106.747 23.3821 106.728 23.3604C106.692 23.3305 106.666 23.2896 106.655 23.2438C106.644 23.198 106.649 23.1498 106.668 23.1067V23.0764C106.776 22.8773 106.837 22.6556 106.846 22.429C106.857 22.232 106.801 22.037 106.687 21.8762C106.635 21.8183 106.571 21.7727 106.5 21.7426C106.428 21.7125 106.351 21.6986 106.274 21.702C106.098 21.7044 105.927 21.7584 105.782 21.8572C105.611 21.9831 105.472 22.1459 105.373 22.3334C105.275 22.521 105.22 22.7284 105.214 22.9401C105.149 23.4139 105.182 23.896 105.312 24.3562C105.339 24.4623 105.501 24.9659 105.804 25.8708C105.854 26.0033 105.907 26.1661 105.96 26.363C106.888 26.1328 107.801 25.8444 108.693 25.4997C109.686 25.1405 110.568 24.5268 111.249 23.7201C111.266 23.6944 111.289 23.6728 111.315 23.6572C111.342 23.6416 111.372 23.6324 111.403 23.6302C111.433 23.628 111.464 23.6329 111.493 23.6446C111.521 23.6562 111.547 23.6743 111.567 23.6974C111.592 23.7106 111.614 23.7299 111.629 23.7534C111.645 23.777 111.655 23.804 111.657 23.8322C111.66 23.8604 111.656 23.8888 111.644 23.9149C111.633 23.9409 111.616 23.9638 111.594 23.9814V24.0041C110.829 24.8122 109.886 25.4317 108.841 25.814C108.316 26.021 107.385 26.3226 106.047 26.7189C106.11 27.0163 106.136 27.3201 106.126 27.6239C106.084 28.2525 105.871 28.8576 105.509 29.3732C105.319 29.6473 105.074 29.8783 104.789 30.0511C104.504 30.224 104.185 30.3349 103.854 30.3766C103.776 30.3865 103.698 30.3865 103.62 30.3766H103.362C103.178 30.3649 102.999 30.3186 102.832 30.2403C102.492 30.0977 102.214 29.8404 102.045 29.5133C101.969 29.3457 101.923 29.1664 101.908 28.9832C101.902 28.8022 101.928 28.6216 101.984 28.4493C102.089 28.1341 102.288 27.859 102.556 27.6618C102.784 27.4904 103.027 27.3396 103.283 27.2112C103.537 27.0872 103.8 26.9822 104.07 26.8969C104.387 26.7817 104.709 26.6831 105.036 26.6016C104.998 26.4312 104.956 26.2797 104.918 26.1472C104.9 26.0813 104.876 26.0192 104.848 25.9459C104.82 25.8718 104.788 25.7863 104.752 25.6739C104.74 25.6386 104.729 25.604 104.718 25.57C104.66 25.3888 104.607 25.2255 104.562 25.0757C104.547 25.0223 104.531 24.9692 104.515 24.9165C104.478 24.7935 104.442 24.6724 104.407 24.5531C104.399 24.5213 104.392 24.4893 104.385 24.4573C104.275 24.5392 104.162 24.6179 104.048 24.6933C103.824 24.8371 103.51 25.034 103.105 25.2801C102.578 25.6096 101.935 25.9617 101.174 26.3441C100.508 26.6901 99.802 26.9533 99.0722 27.1279C98.865 27.1662 98.6539 27.1789 98.4437 27.1658C98.2011 27.1587 97.9642 27.091 97.7545 26.9689C97.5058 26.8405 97.3101 26.6287 97.2017 26.3706C97.2017 26.3464 97.1878 26.3129 97.1708 26.2721C97.1612 26.2491 97.1507 26.2237 97.1411 26.1964L97.1033 26.0374C97.0897 25.9315 97.0694 25.8265 97.0427 25.7231C97.0133 25.452 97.0156 25.1804 97.0484 24.9134C96.7507 25.1942 96.4405 25.4619 96.1188 25.7156C95.5168 26.1851 94.8466 26.6735 94.112 27.1695C93.4835 27.5911 92.5722 28.1881 91.3783 28.9605C91.0224 29.6155 90.6702 30.2517 90.3143 30.8537C89.4953 32.2962 88.5886 33.6871 87.5995 35.0187C87.0869 35.7056 86.5073 36.3398 85.8691 36.9119C85.6915 37.0567 85.5 37.1835 85.2973 37.2905C85.0737 37.4259 84.8274 37.5195 84.5704 37.5669H84.3545C84.2752 37.5737 84.1954 37.5737 84.116 37.5669C83.9821 37.5344 83.8543 37.4807 83.7374 37.4079C83.5987 37.3396 83.4763 37.2425 83.3784 37.123C83.2804 37.0034 83.2092 36.8643 83.1694 36.715C82.9321 35.8871 83.1618 35.0036 83.8585 34.0645C84.388 33.4029 84.9958 32.8079 85.6684 32.2925C86.456 31.6791 87.8203 30.7489 89.7615 29.5019C89.839 29.4422 89.9213 29.389 90.0076 29.3429C90.1174 29.2786 90.178 29.2369 90.1931 29.2255C90.6399 28.438 91.2167 27.4018 91.9235 26.1169L92.7906 24.5418L92.6997 24.6402C92.671 24.6796 92.635 24.713 92.5937 24.7387C92.1665 25.1493 91.6909 25.5066 91.1776 25.8027C90.8917 25.9667 90.5766 26.0734 90.2499 26.1169C90.0271 26.1464 89.8007 26.1054 89.6025 25.9995C89.4842 25.9312 89.3832 25.8366 89.3071 25.7231C89.2506 25.6236 89.2049 25.5182 89.1708 25.4089C89.1067 25.1746 89.0838 24.9319 89.1022 24.6913C88.5555 25.2245 87.9886 25.7367 87.4026 26.2267C86.9909 26.5751 86.5571 26.8963 86.1038 27.1885C85.8695 27.3466 85.6268 27.4919 85.3769 27.6239C85.1179 27.7715 84.8403 27.8836 84.5514 27.9571C84.3826 27.9892 84.2091 27.9892 84.0403 27.9571C83.9302 27.948 83.823 27.9173 83.7249 27.8666C83.6267 27.8159 83.5396 27.7463 83.4685 27.6618C83.395 27.581 83.3349 27.489 83.2906 27.3891C83.2364 27.292 83.2089 27.1823 83.211 27.0711C83.1986 26.8922 83.2192 26.7125 83.2716 26.541C83.4317 26.0381 83.6517 25.5563 83.9267 25.1059C83.6919 25.2498 83.4685 25.3748 83.2603 25.4846C83.0546 25.593 82.7604 25.6977 82.538 25.7769L82.5295 25.7799C82.2524 25.8764 81.9591 25.9176 81.6662 25.9011C81.4396 25.8848 81.228 25.7817 81.0755 25.6133C80.9331 25.4464 80.8564 25.2336 80.8591 25.0148C80.2564 25.7559 79.6105 26.4616 78.9248 27.1279C77.9212 28.098 76.7885 28.9249 75.5587 29.5852C75.237 29.7518 74.9012 29.8899 74.5553 29.998C74.1819 30.1275 73.7806 30.155 73.3929 30.0775C73.1557 30.0294 72.9449 29.8944 72.8022 29.6988C72.666 29.512 72.5729 29.2974 72.5296 29.0703C72.4456 28.678 72.4586 28.2712 72.5675 27.8851L72.7038 27.3513C72.7263 27.2481 72.7567 27.1469 72.7947 27.0484C72.8178 26.9766 72.8469 26.9069 72.8818 26.8401L73.0597 26.3479L73.2566 25.8556C73.3389 25.6579 73.4831 25.3363 73.6893 24.8907L73.5747 24.9848C73.4156 25.1325 73.037 25.4392 72.4388 25.9125C71.6443 26.5246 70.8009 27.0704 69.917 27.5444C69.677 27.6675 69.4227 27.7604 69.1598 27.8208C68.8461 27.8899 68.5192 27.8689 68.2169 27.7602C68.0219 27.6982 67.8588 27.5623 67.7626 27.3816C67.6693 27.2198 67.616 27.038 67.6073 26.8515C67.602 26.6983 67.612 26.5454 67.6367 26.3949C67.182 26.9279 66.6995 27.4367 66.1912 27.9192C65.8703 28.2123 65.5286 28.4818 65.1689 28.7257C64.8006 29.002 64.3884 29.2145 63.9497 29.3543C63.6923 29.4277 63.4195 29.4277 63.1621 29.3543C62.869 29.2957 62.6091 29.1278 62.4351 28.8847C62.2646 28.6715 62.1466 28.4212 62.0906 28.154C62.0319 27.8969 62.0216 27.6311 62.0603 27.3702C62.0603 27.3453 62.0724 27.3123 62.0879 27.2705C62.0983 27.2422 62.1102 27.2099 62.1209 27.1733L62.1587 26.9953C62.2082 26.8947 62.2475 26.7895 62.2761 26.6811C62.3686 26.4603 62.4814 26.2486 62.6131 26.0487C62.6821 25.9254 62.7605 25.8077 62.8479 25.6966C62.9387 25.5805 63.041 25.4543 63.1545 25.318C63.2375 25.2262 63.3122 25.1274 63.3779 25.0226C63.4307 24.9548 63.4776 24.8826 63.518 24.8068C63.5554 24.7692 63.5816 24.722 63.5938 24.6705C63.5796 24.6236 63.5564 24.5799 63.5256 24.5418C63.4935 24.4963 63.458 24.4533 63.4196 24.413C63.3885 24.3758 63.3566 24.3392 63.324 24.3033C63.1514 24.4416 62.9723 24.5717 62.7873 24.6933C62.5676 24.8371 62.2496 25.034 61.8445 25.2801C61.3181 25.6096 60.6782 25.9617 59.9172 26.3441C59.2462 26.6907 58.5354 26.9539 57.8006 27.1279C57.5921 27.1661 57.3798 27.1788 57.1683 27.1658C56.9269 27.1587 56.6912 27.091 56.4829 26.9689C56.238 26.8389 56.0464 26.6272 55.9415 26.3706C55.9415 26.3482 55.9296 26.3179 55.9152 26.2813C55.9052 26.2559 55.894 26.2273 55.8847 26.1964L55.843 26.0374C55.8296 25.9317 55.8107 25.8268 55.7862 25.7231C55.7295 25.2086 55.7873 24.6919 55.951 24.2087C53.3037 24.8852 50.5711 25.1737 47.8386 25.0643C47.6834 25.0643 47.4259 25.0454 47.0814 25.0075C45.8394 27.1556 44.5306 29.5032 43.1549 32.0502C41.7792 34.5971 40.6306 36.7428 39.7093 38.487C38.793 40.254 37.4614 42.8325 35.7146 46.2226L35.5594 46.518C35.5151 46.6152 35.4428 46.697 35.3517 46.753C35.2607 46.809 35.155 46.8366 35.0482 46.8322C34.9589 46.8319 34.8708 46.8112 34.7907 46.7716C34.7226 46.7364 34.6623 46.6877 34.6135 46.6284C34.5647 46.5692 34.5284 46.5007 34.5068 46.4271C34.4834 46.3571 34.4757 46.2828 34.4842 46.2096C34.4927 46.1363 34.5172 46.0658 34.556 46.003L34.6923 45.7077C36.3709 42.4438 37.6596 39.9549 38.5582 38.2409C39.4568 36.5269 40.5928 34.4053 41.9659 31.876C43.329 29.3517 44.6202 27.0244 45.8394 24.8939C45.0519 24.7992 44.2681 24.6781 43.4805 24.5153L41.3336 24.1026L39.1792 23.7201C37.3541 23.392 35.5442 23.1029 33.7495 22.853C31.5963 25.9882 29.4507 28.992 27.3126 31.8646C25.374 34.4293 23.5464 36.715 21.83 38.7218C19.9413 40.9751 17.9021 43.0978 15.7263 45.0753C14.6162 46.0748 13.4173 46.9708 12.1444 47.7523C11.4786 48.1455 10.7729 48.4666 10.0391 48.7103C9.65455 48.8338 9.25893 48.9201 8.85779 48.9677C8.4586 49.0056 8.05671 49.0056 7.65751 48.9677C6.84245 48.8941 6.05502 48.635 5.35539 48.2105C4.66944 47.7892 4.06946 47.2419 3.58715 46.5975C2.68003 45.3597 2.02401 43.9563 1.65609 42.4665C1.2791 41.0165 1.06074 39.5298 1.00483 38.0327C0.986704 37.274 1.01959 36.515 1.10328 35.7608C1.12325 35.5683 1.15614 35.3772 1.20172 35.1891C1.2375 35.0174 1.26989 34.8322 1.29571 34.6845L1.30017 34.659C1.31332 34.5839 1.33206 34.4509 1.35732 34.2718C1.38297 34.0898 1.41535 33.8602 1.45541 33.595C1.63452 32.1043 1.97216 30.637 2.46259 29.218C3.00876 27.7781 3.87794 26.4828 5.00325 25.4316C6.10349 24.396 7.3877 23.5754 8.78964 23.0121C9.48091 22.7148 10.1904 22.4619 10.9138 22.2548C11.6253 22.0475 12.3469 21.8769 13.0758 21.7436C15.9794 21.2416 18.9266 21.0373 21.8716 21.134C24.7972 21.2116 27.7168 21.4429 30.6182 21.8269L32.765 22.1033C33.9211 20.4121 35.1012 18.6451 36.3053 16.8024C39.5565 11.8422 42.5932 6.99567 45.4153 2.26268C45.0749 2.24233 44.7335 2.24233 44.393 2.26268L44.109 2.30055L43.7645 2.34977C43.6668 2.36595 43.5681 2.37607 43.4691 2.38006L43.0905 2.45958L42.5566 2.55802C41.3348 2.83793 40.138 3.21785 38.9785 3.69394C37.811 4.16012 36.6796 4.71191 35.5935 5.3448C34.5238 5.95761 33.5321 6.69754 32.6401 7.54848H32.6211C32.575 7.60358 32.5169 7.64752 32.4513 7.67702C32.3858 7.70653 32.3144 7.72083 32.2425 7.71887C32.0909 7.71293 31.9473 7.64927 31.8412 7.54091C31.7865 7.48924 31.7439 7.42614 31.7164 7.35611C31.6889 7.28607 31.6772 7.21083 31.6821 7.13576C31.6905 6.99367 31.7497 6.85932 31.8487 6.75712L31.8714 6.73819C32.8514 5.86613 33.9289 5.11015 35.0823 4.48529C36.2312 3.8644 37.4262 3.33274 38.6566 2.89501C39.8765 2.45647 41.1302 2.11836 42.4052 1.88405L42.7194 1.83482L43.0754 1.77424L43.3707 1.72502L44.3514 1.6455C44.9168 1.61693 45.4836 1.64356 46.0439 1.72502C46.1197 1.71187 46.1977 1.72667 46.2635 1.76667H46.3392C46.4019 1.77152 46.4601 1.80088 46.5012 1.84837C46.5423 1.89587 46.563 1.95767 46.5588 2.02036C46.6089 2.10387 46.6353 2.1994 46.6353 2.29676C46.6353 2.39412 46.6089 2.48966 46.5588 2.57317C42.2524 9.8405 38.1 16.4187 34.1016 22.3078C35.885 22.5804 37.6116 22.872 39.2776 23.1711L41.4207 23.5497L43.5676 24.0041C44.4208 24.1606 45.2727 24.2868 46.1234 24.3827C49.9805 17.7187 54.408 10.806 59.406 3.64472C59.3449 3.60819 59.291 3.5607 59.247 3.50462C59.1956 3.44992 59.1567 3.38464 59.1332 3.31335C59.1096 3.24205 59.102 3.16647 59.1107 3.0919C59.1254 2.94512 59.1959 2.80958 59.3076 2.71326L61.2008 1.1192C61.3099 1.03245 61.448 0.990483 61.587 1.00182ZM26.3509 31.1263C28.2895 28.5389 30.3089 25.7118 32.4091 22.6448C28.9186 22.183 25.4036 21.9301 21.883 21.8875C18.9877 21.8199 16.0932 22.0534 13.2462 22.5842C12.5117 22.7331 11.8162 22.9048 11.1599 23.0992C10.482 23.3093 9.818 23.5622 9.17206 23.8564C7.87868 24.3992 6.6926 25.1686 5.66966 26.1283C4.6759 27.102 3.91035 28.284 3.42812 29.589C2.98004 30.9378 2.67544 32.33 2.51939 33.7427C2.43987 34.2652 2.38686 34.6287 2.36036 34.8256C2.33385 35.0225 2.30356 35.2042 2.26191 35.3936C2.23541 35.5261 2.2089 35.6889 2.18618 35.8858C2.12077 36.5855 2.10558 37.2891 2.14075 37.991C2.19065 39.3988 2.40154 40.7962 2.76929 42.156C3.09373 43.5045 3.68323 44.7748 4.50345 45.8932C4.89724 46.4233 5.39123 46.871 5.95742 47.2109C6.50462 47.5501 7.12538 47.7527 7.76732 47.8015C8.09415 47.8432 8.42494 47.8432 8.75178 47.8015C9.07251 47.772 9.38883 47.7059 9.69459 47.6046C10.3486 47.3882 10.976 47.0986 11.5651 46.7413C12.7772 45.9947 13.9179 45.1378 14.9728 44.1818C17.1023 42.2372 19.1008 40.1539 20.9553 37.9456C22.639 35.9539 24.4375 33.6808 26.3509 31.1263ZM58.5011 22.4896C57.9836 22.8209 57.5465 23.2632 57.2213 23.7845C57.7065 23.6493 58.1303 23.3511 58.4216 22.9402C58.5228 22.8259 58.6081 22.6986 58.6753 22.5615L58.7548 22.4063V22.3836C58.6651 22.4052 58.5795 22.441 58.5011 22.4896ZM63.2038 23.0575C63.1176 22.9366 63.0689 22.7931 63.0637 22.6448C63.0625 22.5045 63.0895 22.3654 63.1432 22.2359C63.2037 22.1214 63.3011 22.0307 63.4196 21.9784C63.4689 21.9559 63.5225 21.9442 63.5767 21.9442C63.631 21.9442 63.6845 21.9559 63.7339 21.9784C63.7946 22.0147 63.847 22.0635 63.8875 22.1216C63.9279 22.1797 63.9556 22.2458 63.9686 22.3154C64.0102 22.4627 64.0102 22.6186 63.9686 22.7659C63.8877 23.0288 63.7309 23.262 63.518 23.4361C63.3992 23.3223 63.2937 23.1953 63.2038 23.0575ZM89.6441 30.1797L89.5267 30.3955C89.0951 31.1301 88.6672 31.8268 88.2394 32.4667C87.7244 33.2543 87.265 33.9232 86.8611 34.4735C86.4051 35.1107 85.8836 35.6982 85.3049 36.2266C85.0627 36.46 84.7659 36.6292 84.4416 36.7188H84.2826C84.2251 36.7132 84.1702 36.6923 84.1236 36.6582C84.0241 36.6107 83.9467 36.5266 83.9077 36.4235C83.8174 36.107 83.824 35.7707 83.9267 35.4579C84.0435 35.1071 84.2203 34.7791 84.4492 34.4886C84.9149 33.843 85.4564 33.2557 86.0622 32.7393C86.6633 32.204 87.2955 31.7046 87.9554 31.2437C88.4123 30.9029 89.008 30.4902 89.7426 30.0055L89.6441 30.1797ZM99.7575 22.4896C99.242 22.822 98.8063 23.2642 98.4815 23.7845C98.9667 23.6493 99.3906 23.3511 99.6818 22.9402C99.7818 22.825 99.867 22.6978 99.9355 22.5615C99.9593 22.5084 99.9858 22.4566 100.015 22.4063V22.3836C99.9244 22.406 99.8376 22.4417 99.7575 22.4896ZM104.319 29.2839C104.145 29.3938 103.949 29.4643 103.745 29.4906H103.733C103.688 29.5125 103.639 29.5266 103.589 29.5322H103.434C103.353 29.5174 103.274 29.4972 103.196 29.4717C103.032 29.3967 102.891 29.2821 102.783 29.1384C102.674 28.9876 102.629 28.7998 102.658 28.6159C102.675 28.4013 102.762 28.198 102.904 28.0366C103.073 27.8595 103.272 27.7134 103.491 27.605C103.725 27.4775 103.969 27.371 104.222 27.2869C104.456 27.196 104.748 27.09 105.127 26.9726C105.162 27.1676 105.181 27.3652 105.183 27.5633C105.165 28.0259 105.015 28.4736 104.752 28.8545C104.64 29.0275 104.493 29.174 104.319 29.2839Z" fill="white"/>
<path d="M70.6402 22.5085C70.5607 22.6637 70.4509 22.6372 70.3032 22.429C70.2009 22.264 70.1594 22.0685 70.1859 21.8762C70.3191 21.4632 70.5564 21.0916 70.875 20.797C70.9129 20.7554 70.9734 20.7743 71.0529 20.8538C71.1377 20.9424 71.2046 21.0466 71.2498 21.1605C71.2707 21.2083 71.2814 21.2599 71.2814 21.312C71.2814 21.3641 71.2707 21.4157 71.2498 21.4635C71.1755 21.6584 71.0721 21.8409 70.9431 22.0049C70.8337 22.1675 70.7326 22.3356 70.6402 22.5085Z" fill="white"/>
<path fill-rule="evenodd" clip-rule="evenodd" d="M61.587 1.00182C61.6568 0.999677 61.7263 1.01165 61.7914 1.03703C61.8564 1.0624 61.9157 1.10065 61.9656 1.14949C62.0189 1.19764 62.0621 1.25592 62.0927 1.32092C62.1232 1.38593 62.1405 1.45636 62.1436 1.52813C62.1541 1.6618 62.1195 1.79515 62.0451 1.90676C56.3529 9.92128 51.4609 17.4638 47.3691 24.5342H47.8803C50.7073 24.6494 53.5343 24.3155 56.2559 23.545C56.293 23.4825 56.332 23.4209 56.3731 23.3604C56.7924 22.6789 57.3738 22.1117 58.0656 21.7096C58.1603 21.6566 58.2625 21.6036 58.3799 21.5506C58.5204 21.5029 58.6671 21.4761 58.8153 21.471C59.0021 21.4815 59.1809 21.5504 59.3265 21.6679C59.4746 21.8096 59.565 22.0012 59.5802 22.2056C59.5918 22.3536 59.5658 22.5021 59.5045 22.6372C59.4615 22.7563 59.3973 22.8666 59.3152 22.9629C59.1836 23.121 59.0378 23.2667 58.8797 23.3983C58.3267 23.8295 57.6769 24.1193 56.9865 24.2427C56.7621 24.6726 56.66 25.1559 56.6912 25.6398C56.6957 25.7133 56.7097 25.7858 56.7328 25.8557V25.973L56.7518 26.0526C56.7863 26.1365 56.8409 26.2106 56.9108 26.2684C57.1609 26.3905 57.4428 26.4316 57.7173 26.3858C58.4123 26.3202 59.0945 26.1557 59.743 25.8973C60.4059 25.6252 61.0497 25.309 61.6703 24.9507C61.9353 24.7955 62.2345 24.6024 62.5752 24.379C62.7381 24.2654 62.8957 24.1445 63.0476 24.0169C62.9742 23.9371 62.9037 23.8545 62.8365 23.7693C62.7402 23.6489 62.6517 23.5224 62.5714 23.3907C62.4274 23.1646 62.3524 22.9015 62.3556 22.6334C62.3484 22.3579 62.4164 22.0856 62.5525 21.8459C62.6926 21.5873 62.9252 21.3912 63.2038 21.2968C63.354 21.2419 63.5155 21.2256 63.6737 21.2494C63.8318 21.2732 63.9814 21.3364 64.1087 21.4331C64.3272 21.6129 64.4759 21.8633 64.529 22.1412C64.5903 22.3927 64.5731 22.657 64.4798 22.8985C64.357 23.2341 64.1417 23.5282 63.8588 23.7466C63.9173 23.8009 63.9705 23.8604 64.0178 23.9246C64.1201 24.042 64.2072 24.148 64.2715 24.2388C64.3594 24.4011 64.4 24.5848 64.3889 24.7689C64.3895 24.8579 64.3701 24.9459 64.3321 25.0264C64.3107 25.1 64.2788 25.1702 64.2375 25.2347C64.1853 25.3473 64.1191 25.4529 64.0406 25.5489C63.9762 25.6398 63.8891 25.7534 63.7831 25.8821C63.6771 26.0109 63.5862 26.132 63.5105 26.2381C63.4355 26.3366 63.3696 26.4418 63.3136 26.5523C63.2104 26.7067 63.1241 26.8717 63.0561 27.0446C63.0444 27.0704 63.0342 27.097 63.0258 27.1241C63.0186 27.1573 63.0098 27.1902 62.9993 27.2225C62.9914 27.2506 62.9772 27.2766 62.9577 27.2982L62.9198 27.4383C62.9162 27.4774 62.9162 27.5167 62.9198 27.5557C62.8866 27.7117 62.8866 27.873 62.9198 28.029C62.9587 28.1639 63.0188 28.2917 63.0978 28.4077C63.1804 28.5186 63.2919 28.6048 63.42 28.6568C63.5482 28.7089 63.6881 28.7249 63.8247 28.703C64.215 28.673 64.5925 28.551 64.9266 28.3471C65.2731 28.1378 65.6023 27.901 65.911 27.639C66.5437 27.0988 67.1243 26.5005 67.6452 25.8518C67.7443 25.7285 67.8409 25.6033 67.9351 25.4764C68.0688 25.1582 68.2249 24.8496 68.4025 24.5531C68.5565 24.3007 68.8177 23.888 69.1863 23.315C69.2152 23.2662 69.2541 23.2242 69.3004 23.1915C69.3467 23.1589 69.3995 23.1365 69.4551 23.1257C69.5677 23.1065 69.6832 23.1324 69.7769 23.1976C69.8233 23.2225 69.8633 23.2576 69.8942 23.3003C69.925 23.3429 69.9457 23.3919 69.9549 23.4437C69.9811 23.5459 69.9675 23.6541 69.917 23.7466L69.895 23.7863L69.8943 23.7875C69.8022 23.9533 69.6816 24.1704 69.5384 24.4358C69.4345 24.6283 69.3425 24.7768 69.2771 24.8823C69.2448 24.9345 69.2189 24.9762 69.2014 25.0075C68.9808 25.4085 68.7836 25.8219 68.6107 26.2457C68.5408 26.4207 68.5011 26.6064 68.4934 26.7947C68.4901 26.8524 68.4978 26.9102 68.5161 26.9651C68.5322 27.0009 68.5586 27.0312 68.5918 27.0522C68.8152 27.196 69.1976 27.1847 69.7277 27.0143C70.1735 26.8649 70.6014 26.6668 71.0037 26.4236C71.3596 26.2002 71.761 25.9314 72.204 25.6171C72.4956 25.4051 72.8666 25.106 73.3399 24.7122L73.8889 24.2389C73.958 24.1721 74.0251 24.1035 74.0904 24.0331L74.1237 23.9625C75.3278 21.471 76.6454 19.0452 78.0767 16.685C78.7204 15.6223 79.4082 14.5596 80.1403 13.4969C79.258 13.5764 78.425 13.6559 77.6412 13.743L77.3936 13.7705C76.7039 13.847 76.0628 13.918 75.5247 13.9891C74.9226 14.0686 74.3698 14.1481 73.9306 14.2352C73.6085 14.2911 73.2899 14.3657 72.9764 14.4586C72.9094 14.4933 72.8359 14.514 72.7606 14.5192C72.7271 14.5186 72.6941 14.5112 72.6635 14.4975C72.633 14.4839 72.6055 14.4642 72.5826 14.4397C72.5405 14.4047 72.5102 14.3575 72.496 14.3047C72.4817 14.2518 72.4842 14.1958 72.5031 14.1444C72.5296 14.0421 72.7417 13.8945 73.143 13.7014C73.5444 13.5082 73.9533 13.3416 74.3736 13.1902C74.6436 13.0866 74.9192 12.9981 75.199 12.9251C75.2702 12.9265 75.3391 12.9503 75.3959 12.9933C75.4277 13.0148 75.4546 13.0428 75.4748 13.0754C75.495 13.108 75.5082 13.1446 75.5133 13.1826C75.5218 13.2299 75.5171 13.2785 75.4997 13.3233C75.4823 13.368 75.453 13.4071 75.4149 13.4363C76.831 13.2546 78.5437 13.0779 80.553 12.9062L80.8975 12.361C80.9531 12.2895 81.0271 12.1885 81.1209 12.0606L81.1217 12.0595L81.1734 11.989L81.2535 11.8801L81.3566 11.7404C81.4525 11.6105 81.5097 11.5331 81.5299 11.5015C81.9549 10.9358 82.422 10.4029 82.927 9.90739C82.9667 9.86406 83.0154 9.83004 83.0697 9.80778C83.1241 9.78552 83.1827 9.77557 83.2413 9.77866C83.2974 9.7811 83.3524 9.79475 83.4032 9.81881C83.4539 9.84288 83.4993 9.87686 83.5366 9.91875C83.6122 9.99848 83.6543 10.1042 83.654 10.2141C83.6541 10.2668 83.6437 10.319 83.6236 10.3678C83.6034 10.4165 83.5739 10.4608 83.5366 10.4981L83.5139 10.5359C83.0525 11.0092 82.626 11.5154 82.2379 12.0505C82.2172 12.083 82.1642 12.157 82.0789 12.2762L81.9994 12.3875C81.8669 12.573 81.7646 12.7093 81.6851 12.8002C88.2936 12.3054 93.125 12.236 96.1794 12.5919C96.2294 12.5904 96.2782 12.608 96.3157 12.6412C96.3551 12.6723 96.3863 12.7126 96.4066 12.7585C96.4252 12.8055 96.4342 12.8557 96.4331 12.9062C96.4236 12.9796 96.3855 13.0463 96.327 13.0917C96.2672 13.137 96.1939 13.161 96.1188 13.1599C93.8776 12.9688 91.6273 12.9069 89.379 12.9744C86.8548 13.0349 84.1627 13.1763 81.3027 13.3984L81.0869 13.7316C80.1024 15.2285 79.3678 16.3834 78.8832 17.1962C77.3484 19.7659 76.0308 22.1639 74.9302 24.3903C74.4683 25.3218 74.1792 25.9389 74.0631 26.2419L73.8662 26.6924L73.7034 27.1506C73.5801 27.4519 73.4752 27.7605 73.3891 28.0745C73.1544 28.8898 73.22 29.3618 73.586 29.4906C73.8686 29.5703 74.1667 29.5781 74.4531 29.5133C74.7762 29.4354 75.0917 29.329 75.3959 29.1952C76.6006 28.5811 77.708 27.7926 78.6825 26.8553C79.5217 26.0617 80.2868 25.1938 80.9684 24.2625C80.9826 24.2176 80.9981 24.1731 81.0149 24.1291C81.4568 23.1662 82.1683 22.3521 83.0634 21.7853C83.284 21.6322 83.5216 21.5051 83.7714 21.4066C84.0554 21.2801 84.3662 21.2255 84.6764 21.2476C84.8647 21.2788 85.0412 21.3598 85.1875 21.4824C85.3504 21.6012 85.4626 21.7769 85.5018 21.9746C85.5343 22.1266 85.5353 22.2837 85.5047 22.4361C85.4741 22.5885 85.4126 22.733 85.3238 22.8606C85.3091 22.8874 85.2887 22.9105 85.2639 22.9285C85.2392 22.9465 85.2109 22.9588 85.1809 22.9645C85.1509 22.9703 85.12 22.9694 85.0904 22.9619C85.0608 22.9545 85.0332 22.9405 85.0096 22.9212C84.979 22.8983 84.9542 22.8685 84.9371 22.8344C84.92 22.8002 84.9111 22.7625 84.9111 22.7243C84.941 22.5436 84.9132 22.3582 84.8316 22.1942C84.8049 22.1654 84.7709 22.1445 84.7332 22.1336C84.6835 22.1138 84.6312 22.101 84.5779 22.0958C84.414 22.1163 84.2543 22.1623 84.1046 22.2321C83.914 22.3229 83.7304 22.4279 83.5556 22.5463C83.1978 22.7999 82.8679 23.0906 82.5711 23.4134C82.2759 23.7163 82.0362 24.0687 81.8631 24.4547C81.7911 24.6226 81.75 24.8022 81.7419 24.9848V25.0454H81.7836C81.9611 25.0673 82.1411 25.0545 82.3137 25.0075C82.5276 24.9491 82.7375 24.877 82.9422 24.7917C83.3635 24.6083 83.772 24.397 84.1652 24.1593C84.4378 23.9776 84.6688 23.811 84.8543 23.6671L84.8808 23.6406C84.8846 23.6309 84.8846 23.6201 84.8808 23.6103C85.0247 23.4134 85.1875 23.1976 85.3731 22.9591C85.5586 22.7205 85.7934 22.463 85.9221 22.3305C85.9581 22.2873 86.0033 22.2526 86.0544 22.229C86.1055 22.2055 86.1612 22.1936 86.2174 22.1942C86.3235 22.1968 86.4255 22.2359 86.5062 22.3049C86.5869 22.3738 86.6413 22.4685 86.6604 22.5729C86.6677 22.6785 86.6368 22.7833 86.5734 22.8682L86.5544 22.8909C86.4068 23.0613 86.2515 23.2695 86.0811 23.5005L85.6268 24.148C85.3806 24.4774 85.0853 24.9053 84.7445 25.4467C84.4718 25.859 84.2469 26.3011 84.0743 26.7644C84.049 26.8543 84.0363 26.9473 84.0365 27.0408V27.1847C84.0655 27.2279 84.1062 27.262 84.1539 27.2831C84.2447 27.3048 84.3394 27.3048 84.4303 27.2831C84.9327 27.225 85.4162 27.0569 85.8464 26.7909C86.2975 26.5315 86.7313 26.2431 87.1451 25.9276C87.9137 25.3439 88.6222 24.6857 89.2606 23.9626C89.3163 23.7973 89.385 23.6365 89.4662 23.4816C89.7625 22.9416 90.1552 22.4603 90.6248 22.0617C90.864 21.8668 91.1171 21.6896 91.3821 21.5316C91.5207 21.4551 91.665 21.3893 91.8137 21.3347C91.9048 21.3111 91.9971 21.2922 92.0901 21.2779C92.1927 21.2516 92.2991 21.2439 92.4044 21.2552C92.5355 21.272 92.6632 21.3091 92.783 21.365C92.914 21.4218 93.0314 21.5057 93.1276 21.6111C93.2221 21.7117 93.2933 21.8319 93.3358 21.9633C93.4075 22.131 93.4376 22.3136 93.4238 22.4955C93.41 22.6774 93.3525 22.8533 93.2563 23.0083C93.2439 23.0346 93.2259 23.0579 93.2036 23.0766C93.1813 23.0952 93.1551 23.1088 93.127 23.1164C93.0989 23.1239 93.0695 23.1253 93.0409 23.1204C93.0122 23.1154 92.9849 23.1043 92.961 23.0878C92.9235 23.0663 92.8937 23.0335 92.876 22.994C92.8583 22.9546 92.8536 22.9105 92.8625 22.8682V22.8493C92.8837 22.6494 92.8341 22.4484 92.7224 22.2813C92.6764 22.2255 92.6186 22.1805 92.5531 22.1497C92.4877 22.119 92.4162 22.1031 92.3438 22.1034C92.1502 22.1141 91.9642 22.1827 91.8099 22.3002C91.5956 22.4348 91.3919 22.5854 91.2003 22.7508C90.8206 23.0863 90.4949 23.4784 90.2348 23.9132C89.9913 24.2923 89.9006 24.7497 89.9811 25.193C89.9899 25.2253 89.9962 25.2582 90 25.2915C90 25.318 90.0644 25.3218 90.1591 25.2915C90.3867 25.2738 90.6076 25.2066 90.8065 25.0946C91.2811 24.8555 91.7237 24.5578 92.1242 24.2086C92.5372 23.857 92.9256 23.4774 93.2866 23.0727C93.646 22.6643 93.975 22.2302 94.2711 21.7739C94.2924 21.7371 94.3246 21.7079 94.3633 21.6902C94.4019 21.6726 94.4452 21.6674 94.4869 21.6755C94.5206 21.6752 94.5541 21.6816 94.5853 21.6944C94.6094 21.7067 94.6306 21.7237 94.6478 21.7445C94.6649 21.7654 94.6776 21.7895 94.6851 21.8154C94.6925 21.8413 94.6946 21.8685 94.6911 21.8952C94.6876 21.9219 94.6787 21.9477 94.6649 21.9708C93.7999 24.1164 92.8269 26.2167 91.7493 28.2638C92.6152 27.716 93.3308 27.244 93.8962 26.8477C94.7217 26.2848 95.3843 25.8064 95.8841 25.4127C96.3682 25.0279 96.8192 24.6037 97.2324 24.1445C97.332 23.8694 97.4662 23.6058 97.6334 23.3604C98.0526 22.6789 98.6341 22.1117 99.3259 21.7096C99.4279 21.6513 99.5328 21.5982 99.6402 21.5506C99.7794 21.5032 99.9248 21.4764 100.072 21.471C100.26 21.4823 100.439 21.551 100.587 21.6679C100.734 21.8087 100.824 21.9987 100.84 22.2018C100.852 22.3502 100.825 22.4991 100.761 22.6335C100.717 22.7505 100.65 22.8574 100.564 22.9477C100.435 23.1067 100.29 23.2525 100.132 23.3832C99.5786 23.813 98.9291 24.1027 98.2392 24.2275C98.0148 24.6575 97.9126 25.1407 97.9439 25.6247C97.9479 25.6979 97.9606 25.7703 97.9817 25.8405L98.0044 25.9579L98.0234 26.0374C98.0567 26.121 98.11 26.1951 98.1786 26.2532C98.4289 26.3746 98.7106 26.4156 98.9851 26.3706C99.6814 26.3051 100.365 26.1406 101.015 25.8822C101.677 25.6101 102.321 25.2938 102.942 24.9356C103.203 24.7803 103.506 24.5872 103.847 24.3638C104.006 24.2536 104.16 24.1365 104.309 24.013C104.259 23.6055 104.266 23.1923 104.328 22.7849C104.362 22.4543 104.468 22.1352 104.638 21.8495C104.808 21.5638 105.038 21.3184 105.312 21.1302C105.62 20.9289 105.988 20.8393 106.353 20.8766C106.539 20.9028 106.718 20.9618 106.884 21.0507C107.051 21.1541 107.193 21.2955 107.296 21.4634C107.472 21.7683 107.522 22.1294 107.436 22.4706C107.382 22.7935 107.239 23.0949 107.024 23.3415C107.008 23.3654 106.987 23.3854 106.962 23.3997C106.937 23.4141 106.909 23.4226 106.881 23.4244C106.852 23.4263 106.823 23.4214 106.797 23.4103C106.771 23.3992 106.747 23.3821 106.728 23.3604C106.692 23.3305 106.666 23.2896 106.655 23.2438C106.644 23.198 106.649 23.1498 106.668 23.1067V23.0764C106.776 22.8773 106.837 22.6556 106.846 22.429C106.857 22.232 106.801 22.037 106.687 21.8762C106.635 21.8183 106.571 21.7727 106.5 21.7426C106.428 21.7125 106.351 21.6986 106.274 21.702C106.098 21.7044 105.927 21.7584 105.782 21.8572C105.611 21.9831 105.472 22.1459 105.373 22.3334C105.275 22.521 105.22 22.7284 105.214 22.9401C105.149 23.4139 105.182 23.896 105.312 24.3562C105.339 24.4623 105.501 24.9659 105.804 25.8708C105.854 26.0033 105.907 26.1661 105.96 26.363C106.888 26.1328 107.801 25.8444 108.693 25.4997C109.686 25.1405 110.568 24.5268 111.249 23.7201C111.266 23.6944 111.289 23.6728 111.315 23.6572C111.342 23.6416 111.372 23.6324 111.403 23.6302C111.433 23.628 111.464 23.6329 111.493 23.6446C111.521 23.6562 111.547 23.6743 111.567 23.6974C111.592 23.7106 111.614 23.7299 111.629 23.7534C111.645 23.777 111.655 23.804 111.657 23.8322C111.66 23.8604 111.656 23.8888 111.644 23.9149C111.633 23.9409 111.616 23.9638 111.594 23.9814V24.0041C110.829 24.8122 109.886 25.4317 108.841 25.814C108.316 26.021 107.385 26.3226 106.047 26.7189C106.11 27.0163 106.136 27.3201 106.126 27.6239C106.084 28.2525 105.871 28.8576 105.509 29.3732C105.319 29.6473 105.074 29.8783 104.789 30.0511C104.504 30.224 104.185 30.3349 103.854 30.3766C103.776 30.3865 103.698 30.3865 103.62 30.3766H103.362C103.178 30.3649 102.999 30.3186 102.832 30.2403C102.492 30.0977 102.214 29.8404 102.045 29.5133C101.969 29.3457 101.923 29.1664 101.908 28.9832C101.902 28.8022 101.928 28.6216 101.984 28.4493C102.089 28.1341 102.288 27.859 102.556 27.6618C102.784 27.4904 103.027 27.3396 103.283 27.2112C103.537 27.0872 103.8 26.9822 104.07 26.8969C104.387 26.7817 104.709 26.6831 105.036 26.6016C104.998 26.4312 104.956 26.2797 104.918 26.1472C104.9 26.0813 104.876 26.0192 104.848 25.9459C104.82 25.8718 104.788 25.7863 104.752 25.6739C104.74 25.6386 104.729 25.604 104.718 25.57C104.66 25.3888 104.607 25.2255 104.562 25.0757C104.547 25.0223 104.531 24.9692 104.515 24.9165C104.478 24.7935 104.442 24.6724 104.407 24.5531C104.399 24.5213 104.392 24.4893 104.385 24.4573C104.275 24.5392 104.162 24.6179 104.048 24.6933C103.824 24.8371 103.51 25.034 103.105 25.2801C102.578 25.6096 101.935 25.9617 101.174 26.3441C100.508 26.6901 99.802 26.9533 99.0722 27.1279C98.865 27.1662 98.6539 27.1789 98.4437 27.1658C98.2011 27.1587 97.9642 27.091 97.7545 26.9689C97.5058 26.8405 97.3101 26.6287 97.2017 26.3706C97.2017 26.3464 97.1878 26.3129 97.1708 26.2721C97.1612 26.2491 97.1507 26.2237 97.1411 26.1964L97.1033 26.0374C97.0897 25.9315 97.0694 25.8265 97.0427 25.7231C97.0133 25.452 97.0156 25.1804 97.0484 24.9134C96.7507 25.1942 96.4405 25.4619 96.1188 25.7156C95.5168 26.1851 94.8466 26.6735 94.112 27.1695C93.4835 27.5911 92.5722 28.1881 91.3783 28.9605C91.0224 29.6155 90.6702 30.2517 90.3143 30.8537C89.4953 32.2962 88.5886 33.6871 87.5995 35.0187C87.0869 35.7056 86.5073 36.3398 85.8691 36.9119C85.6915 37.0567 85.5 37.1835 85.2973 37.2905C85.0737 37.4259 84.8274 37.5195 84.5704 37.5669H84.3545C84.2752 37.5737 84.1954 37.5737 84.116 37.5669C83.9821 37.5344 83.8543 37.4807 83.7374 37.4079C83.5987 37.3396 83.4763 37.2425 83.3784 37.123C83.2804 37.0034 83.2092 36.8643 83.1694 36.715C82.9321 35.8871 83.1618 35.0036 83.8585 34.0645C84.388 33.4029 84.9958 32.8079 85.6684 32.2925C86.456 31.6791 87.8203 30.7489 89.7615 29.5019C89.839 29.4422 89.9213 29.389 90.0076 29.3429C90.1174 29.2786 90.178 29.2369 90.1931 29.2255C90.6399 28.438 91.2167 27.4018 91.9235 26.1169L92.7906 24.5418L92.6997 24.6402C92.671 24.6796 92.635 24.713 92.5937 24.7387C92.1665 25.1493 91.6909 25.5066 91.1776 25.8027C90.8917 25.9667 90.5766 26.0734 90.2499 26.1169C90.0271 26.1464 89.8007 26.1054 89.6025 25.9995C89.4842 25.9312 89.3832 25.8366 89.3071 25.7231C89.2506 25.6236 89.2049 25.5182 89.1708 25.4089C89.1067 25.1746 89.0838 24.9319 89.1022 24.6913C88.5555 25.2245 87.9886 25.7367 87.4026 26.2267C86.9909 26.5751 86.5571 26.8963 86.1038 27.1885C85.8695 27.3466 85.6268 27.4919 85.3769 27.6239C85.1179 27.7715 84.8403 27.8836 84.5514 27.9571C84.3826 27.9892 84.2091 27.9892 84.0403 27.9571C83.9302 27.948 83.823 27.9173 83.7249 27.8666C83.6267 27.8159 83.5396 27.7463 83.4685 27.6618C83.395 27.581 83.3349 27.489 83.2906 27.3891C83.2364 27.292 83.2089 27.1823 83.211 27.0711C83.1986 26.8922 83.2192 26.7125 83.2716 26.541C83.4317 26.0381 83.6517 25.5563 83.9267 25.1059C83.6919 25.2498 83.4685 25.3748 83.2603 25.4846C83.0546 25.593 82.7604 25.6977 82.538 25.7769L82.5295 25.7799C82.2524 25.8764 81.9591 25.9176 81.6662 25.9011C81.4396 25.8848 81.228 25.7817 81.0755 25.6133C80.9331 25.4464 80.8564 25.2336 80.8591 25.0148C80.2564 25.7559 79.6105 26.4616 78.9248 27.1279C77.9212 28.098 76.7885 28.9249 75.5587 29.5852C75.237 29.7518 74.9012 29.8899 74.5553 29.998C74.1819 30.1275 73.7806 30.155 73.3929 30.0775C73.1557 30.0294 72.9449 29.8944 72.8022 29.6988C72.666 29.512 72.5729 29.2974 72.5296 29.0703C72.4456 28.678 72.4586 28.2712 72.5675 27.8851L72.7038 27.3513C72.7263 27.2481 72.7567 27.1469 72.7947 27.0484C72.8178 26.9766 72.8469 26.9069 72.8818 26.8401L73.0597 26.3479L73.2566 25.8556C73.3389 25.6579 73.4831 25.3363 73.6893 24.8907L73.5747 24.9848C73.4156 25.1325 73.037 25.4392 72.4388 25.9125C71.6443 26.5246 70.8009 27.0704 69.917 27.5444C69.677 27.6675 69.4227 27.7604 69.1598 27.8208C68.8461 27.8899 68.5192 27.8689 68.2169 27.7602C68.0219 27.6982 67.8588 27.5623 67.7626 27.3816C67.6693 27.2198 67.616 27.038 67.6073 26.8515C67.602 26.6983 67.612 26.5454 67.6367 26.3949C67.182 26.9279 66.6995 27.4367 66.1912 27.9192C65.8703 28.2123 65.5286 28.4818 65.1689 28.7257C64.8006 29.002 64.3884 29.2145 63.9497 29.3543C63.6923 29.4277 63.4195 29.4277 63.1621 29.3543C62.869 29.2957 62.6091 29.1278 62.4351 28.8847C62.2646 28.6715 62.1466 28.4212 62.0906 28.154C62.0319 27.8969 62.0216 27.6311 62.0603 27.3702C62.0603 27.3453 62.0724 27.3123 62.0879 27.2705C62.0983 27.2422 62.1102 27.2099 62.1209 27.1733L62.1587 26.9953C62.2082 26.8947 62.2475 26.7895 62.2761 26.6811C62.3686 26.4603 62.4814 26.2486 62.6131 26.0487C62.6821 25.9254 62.7605 25.8077 62.8479 25.6966C62.9387 25.5805 63.041 25.4543 63.1545 25.318C63.2375 25.2262 63.3122 25.1274 63.3779 25.0226C63.4307 24.9548 63.4776 24.8826 63.518 24.8068C63.5554 24.7692 63.5816 24.722 63.5938 24.6705C63.5796 24.6236 63.5564 24.5799 63.5256 24.5418C63.4935 24.4963 63.458 24.4533 63.4196 24.413C63.3885 24.3758 63.3566 24.3392 63.324 24.3033C63.1514 24.4416 62.9723 24.5717 62.7873 24.6933C62.5676 24.8371 62.2496 25.034 61.8445 25.2801C61.3181 25.6096 60.6782 25.9617 59.9172 26.3441C59.2462 26.6907 58.5354 26.9539 57.8006 27.1279C57.5921 27.1661 57.3798 27.1788 57.1683 27.1658C56.9269 27.1587 56.6912 27.091 56.4829 26.9689C56.238 26.8389 56.0464 26.6272 55.9415 26.3706C55.9415 26.3482 55.9296 26.3179 55.9152 26.2813C55.9052 26.2559 55.894 26.2273 55.8847 26.1964L55.843 26.0374C55.8296 25.9317 55.8107 25.8268 55.7862 25.7231C55.7295 25.2086 55.7873 24.6919 55.951 24.2087C53.3037 24.8852 50.5711 25.1737 47.8386 25.0643C47.6834 25.0643 47.4259 25.0454 47.0814 25.0075C45.8394 27.1556 44.5306 29.5032 43.1549 32.0502C41.7792 34.5971 40.6306 36.7428 39.7093 38.487C38.793 40.254 37.4614 42.8325 35.7146 46.2226L35.5594 46.518C35.5151 46.6152 35.4428 46.697 35.3517 46.753C35.2607 46.809 35.155 46.8366 35.0482 46.8322C34.9589 46.8319 34.8708 46.8112 34.7907 46.7716C34.7226 46.7364 34.6623 46.6877 34.6135 46.6284C34.5647 46.5692 34.5284 46.5007 34.5068 46.4271C34.4834 46.3571 34.4757 46.2828 34.4842 46.2096C34.4927 46.1363 34.5172 46.0658 34.556 46.003L34.6923 45.7077C36.3709 42.4438 37.6596 39.9549 38.5582 38.2409C39.4568 36.5269 40.5928 34.4053 41.9659 31.876C43.329 29.3517 44.6202 27.0244 45.8394 24.8939C45.0519 24.7992 44.2681 24.6781 43.4805 24.5153L41.3336 24.1026L39.1792 23.7201C37.3541 23.392 35.5442 23.1029 33.7495 22.853C31.5963 25.9882 29.4507 28.992 27.3126 31.8646C25.374 34.4293 23.5464 36.715 21.83 38.7218C19.9413 40.9751 17.9021 43.0978 15.7263 45.0753C14.6162 46.0748 13.4173 46.9708 12.1444 47.7523C11.4786 48.1455 10.7729 48.4666 10.0391 48.7103C9.65455 48.8338 9.25893 48.9201 8.85779 48.9677C8.4586 49.0056 8.05671 49.0056 7.65751 48.9677C6.84245 48.8941 6.05502 48.635 5.35539 48.2105C4.66944 47.7892 4.06946 47.2419 3.58715 46.5975C2.68003 45.3597 2.02401 43.9563 1.65609 42.4665C1.2791 41.0165 1.06074 39.5298 1.00483 38.0327C0.986704 37.274 1.01959 36.515 1.10328 35.7608C1.12325 35.5683 1.15614 35.3772 1.20172 35.1891C1.2375 35.0174 1.26989 34.8322 1.29571 34.6845L1.30017 34.659C1.31332 34.5839 1.33206 34.4509 1.35732 34.2718C1.38297 34.0898 1.41535 33.8602 1.45541 33.595C1.63452 32.1043 1.97216 30.637 2.46259 29.218C3.00876 27.7781 3.87794 26.4828 5.00325 25.4316C6.10349 24.396 7.3877 23.5754 8.78964 23.0121C9.48091 22.7148 10.1904 22.4619 10.9138 22.2548C11.6253 22.0475 12.3469 21.8769 13.0758 21.7436C15.9794 21.2416 18.9266 21.0373 21.8716 21.134C24.7972 21.2116 27.7168 21.4429 30.6182 21.8269L32.765 22.1033C33.9211 20.4121 35.1012 18.6451 36.3053 16.8024C39.5565 11.8422 42.5932 6.99567 45.4153 2.26268C45.0749 2.24233 44.7335 2.24233 44.393 2.26268L44.109 2.30055L43.7645 2.34977C43.6668 2.36595 43.5681 2.37607 43.4691 2.38006L43.0905 2.45958L42.5566 2.55802C41.3348 2.83793 40.138 3.21785 38.9785 3.69394C37.811 4.16012 36.6796 4.71191 35.5935 5.3448C34.5238 5.95761 33.5321 6.69754 32.6401 7.54848H32.6211C32.575 7.60358 32.5169 7.64752 32.4513 7.67702C32.3858 7.70653 32.3144 7.72083 32.2425 7.71887C32.0909 7.71293 31.9473 7.64927 31.8412 7.54091C31.7865 7.48924 31.7439 7.42614 31.7164 7.35611C31.6889 7.28607 31.6772 7.21083 31.6821 7.13576C31.6905 6.99367 31.7497 6.85932 31.8487 6.75712L31.8714 6.73819C32.8514 5.86613 33.9289 5.11015 35.0823 4.48529C36.2312 3.8644 37.4262 3.33274 38.6566 2.89501C39.8765 2.45647 41.1302 2.11836 42.4052 1.88405L42.7194 1.83482L43.0754 1.77424L43.3707 1.72502L44.3514 1.6455C44.9168 1.61693 45.4836 1.64356 46.0439 1.72502C46.1197 1.71187 46.1977 1.72667 46.2635 1.76667H46.3392C46.4019 1.77152 46.4601 1.80088 46.5012 1.84837C46.5423 1.89587 46.563 1.95767 46.5588 2.02036C46.6089 2.10387 46.6353 2.1994 46.6353 2.29676C46.6353 2.39412 46.6089 2.48966 46.5588 2.57317C42.2524 9.8405 38.1 16.4187 34.1016 22.3078C35.885 22.5804 37.6116 22.872 39.2776 23.1711L41.4207 23.5497L43.5676 24.0041C44.4208 24.1606 45.2727 24.2868 46.1234 24.3827C49.9805 17.7187 54.408 10.806 59.406 3.64472C59.3449 3.60819 59.291 3.5607 59.247 3.50462C59.1956 3.44992 59.1567 3.38464 59.1332 3.31335C59.1096 3.24205 59.102 3.16647 59.1107 3.0919C59.1254 2.94512 59.1959 2.80958 59.3076 2.71326L61.2008 1.1192C61.3099 1.03245 61.448 0.990483 61.587 1.00182ZM26.3509 31.1263C28.2895 28.5389 30.3089 25.7118 32.4091 22.6448C28.9186 22.183 25.4036 21.9301 21.883 21.8875C18.9877 21.8199 16.0932 22.0534 13.2462 22.5842C12.5117 22.7331 11.8162 22.9048 11.1599 23.0992C10.482 23.3093 9.818 23.5622 9.17206 23.8564C7.87868 24.3992 6.6926 25.1686 5.66966 26.1283C4.6759 27.102 3.91035 28.284 3.42812 29.589C2.98004 30.9378 2.67544 32.33 2.51939 33.7427C2.43987 34.2652 2.38686 34.6287 2.36036 34.8256C2.33385 35.0225 2.30356 35.2042 2.26191 35.3936C2.23541 35.5261 2.2089 35.6889 2.18618 35.8858C2.12077 36.5855 2.10558 37.2891 2.14075 37.991C2.19065 39.3988 2.40154 40.7962 2.76929 42.156C3.09373 43.5045 3.68323 44.7748 4.50345 45.8932C4.89724 46.4233 5.39123 46.871 5.95742 47.2109C6.50462 47.5501 7.12538 47.7527 7.76732 47.8015C8.09415 47.8432 8.42494 47.8432 8.75178 47.8015C9.07251 47.772 9.38883 47.7059 9.69459 47.6046C10.3486 47.3882 10.976 47.0986 11.5651 46.7413C12.7772 45.9947 13.9179 45.1378 14.9728 44.1818C17.1023 42.2372 19.1008 40.1539 20.9553 37.9456C22.639 35.9539 24.4375 33.6808 26.3509 31.1263ZM58.5011 22.4896C57.9836 22.8209 57.5465 23.2632 57.2213 23.7845C57.7065 23.6493 58.1303 23.3511 58.4216 22.9402C58.5228 22.8259 58.6081 22.6986 58.6753 22.5615L58.7548 22.4063V22.3836C58.6651 22.4052 58.5795 22.441 58.5011 22.4896ZM63.2038 23.0575C63.1176 22.9366 63.0689 22.7931 63.0637 22.6448C63.0625 22.5045 63.0895 22.3654 63.1432 22.2359C63.2037 22.1214 63.3011 22.0307 63.4196 21.9784C63.4689 21.9559 63.5225 21.9442 63.5767 21.9442C63.631 21.9442 63.6845 21.9559 63.7339 21.9784C63.7946 22.0147 63.847 22.0635 63.8875 22.1216C63.9279 22.1797 63.9556 22.2458 63.9686 22.3154C64.0102 22.4627 64.0102 22.6186 63.9686 22.7659C63.8877 23.0288 63.7309 23.262 63.518 23.4361C63.3992 23.3223 63.2937 23.1953 63.2038 23.0575ZM89.6441 30.1797L89.5267 30.3955C89.0951 31.1301 88.6672 31.8268 88.2394 32.4667C87.7244 33.2543 87.265 33.9232 86.8611 34.4735C86.4051 35.1107 85.8836 35.6982 85.3049 36.2266C85.0627 36.46 84.7659 36.6292 84.4416 36.7188H84.2826C84.2251 36.7132 84.1702 36.6923 84.1236 36.6582C84.0241 36.6107 83.9467 36.5266 83.9077 36.4235C83.8174 36.107 83.824 35.7707 83.9267 35.4579C84.0435 35.1071 84.2203 34.7791 84.4492 34.4886C84.9149 33.843 85.4564 33.2557 86.0622 32.7393C86.6633 32.204 87.2955 31.7046 87.9554 31.2437C88.4123 30.9029 89.008 30.4902 89.7426 30.0055L89.6441 30.1797ZM99.7575 22.4896C99.242 22.822 98.8063 23.2642 98.4815 23.7845C98.9667 23.6493 99.3906 23.3511 99.6818 22.9402C99.7818 22.825 99.867 22.6978 99.9355 22.5615C99.9593 22.5084 99.9858 22.4566 100.015 22.4063V22.3836C99.9244 22.406 99.8376 22.4417 99.7575 22.4896ZM104.319 29.2839C104.145 29.3938 103.949 29.4643 103.745 29.4906H103.733C103.688 29.5125 103.639 29.5266 103.589 29.5322H103.434C103.353 29.5174 103.274 29.4972 103.196 29.4717C103.032 29.3967 102.891 29.2821 102.783 29.1384C102.674 28.9876 102.629 28.7998 102.658 28.6159C102.675 28.4013 102.762 28.198 102.904 28.0366C103.073 27.8595 103.272 27.7134 103.491 27.605C103.725 27.4775 103.969 27.371 104.222 27.2869C104.456 27.196 104.748 27.09 105.127 26.9726C105.162 27.1676 105.181 27.3652 105.183 27.5633C105.165 28.0259 105.015 28.4736 104.752 28.8545C104.64 29.0275 104.493 29.174 104.319 29.2839Z" stroke="white" stroke-width="0.6" mask="url(#path-1-outside-1)"/>
<path d="M70.6402 22.5085C70.5607 22.6637 70.4509 22.6372 70.3032 22.429C70.2009 22.264 70.1594 22.0685 70.1859 21.8762C70.3191 21.4632 70.5564 21.0916 70.875 20.797C70.9129 20.7554 70.9734 20.7743 71.0529 20.8538C71.1377 20.9424 71.2046 21.0466 71.2498 21.1605C71.2707 21.2083 71.2814 21.2599 71.2814 21.312C71.2814 21.3641 71.2707 21.4157 71.2498 21.4635C71.1755 21.6584 71.0721 21.8409 70.9431 22.0049C70.8337 22.1675 70.7326 22.3356 70.6402 22.5085Z" stroke="white" stroke-width="0.6" mask="url(#path-1-outside-1)"/>
<path d="M65.8438 38.8651H64.7801V37H65.8438V38.8651Z" fill="white"/>
<path d="M65.8438 47.8011H64.7801V39.8196H65.8438V47.8011Z" fill="white"/>
<path d="M58.4765 47.8158L54 37.0146H55.1622L59.0133 46.4863L62.8791 37.0146H64.0266L59.5501 47.8158H58.4765Z" fill="white"/>
<path fill-rule="evenodd" clip-rule="evenodd" d="M73.6592 47.2265C74.3806 46.7271 74.9182 46.0092 75.1907 45.1812H74.0433C73.8222 45.7136 73.442 46.1667 72.9537 46.48C72.4653 46.7932 71.892 46.9517 71.3101 46.9343C70.5247 46.9561 69.7603 46.681 69.1728 46.1649C68.8765 45.9164 68.6326 45.6126 68.4552 45.2709C68.2777 44.9291 68.1701 44.5561 68.1387 44.1731H75.3877V43.5985C75.3848 43.0978 75.282 42.6026 75.0851 42.1413C74.8882 41.68 74.6011 41.2617 74.2403 40.9104C73.5131 40.1306 72.5089 39.6594 71.4382 39.5956C70.8587 39.5553 70.2775 39.6423 69.7359 39.8503C69.1945 40.0582 68.7062 40.382 68.3061 40.7984C67.8996 41.1897 67.577 41.6579 67.3577 42.1753C67.1383 42.6926 67.0267 43.2483 67.0295 43.8093C67.0323 44.3702 67.1493 44.9248 67.3738 45.44C67.5982 45.9552 67.9253 46.4204 68.3357 46.8077C68.7167 47.1924 69.173 47.4962 69.6769 47.7005C70.1807 47.9048 70.7214 48.0053 71.2658 47.9959C72.1251 47.9918 72.9617 47.7228 73.6592 47.2265ZM73.2652 41.3877C73.8186 41.8516 74.1941 42.4894 74.329 43.1943H68.1387C68.238 42.6578 68.4785 42.1566 68.8358 41.7411C69.1932 41.3256 69.6549 41.0104 70.1744 40.8273C70.694 40.6442 71.2532 40.5996 71.7957 40.698C72.3383 40.7963 72.8451 41.0342 73.2652 41.3877Z" fill="white"/>
<path d="M79.2979 47.9716C77.328 47.9716 76.3431 47.1454 76.3431 45.4929V37.0146H77.4364V39.805H79.2881V40.779H77.4364V45.2884C77.4364 46.4814 78.0569 47.0658 79.2881 47.0658L79.2979 47.9716Z" fill="white"/>
<path d="M86.2663 47.8158H87.3744L87.3547 43.2625C87.3689 42.7874 87.2859 42.3143 87.1107 41.8716C86.9356 41.429 86.6718 41.0259 86.3353 40.6864C85.6542 40.022 84.736 39.6496 83.7793 39.6496C82.8227 39.6496 81.9045 40.022 81.2234 40.6864C80.8862 41.0256 80.6217 41.4286 80.4457 41.8712C80.2697 42.3139 80.1858 42.7871 80.1991 43.2625V47.8158H81.2924V43.1505C81.3001 42.4994 81.5651 41.877 82.0307 41.4165C82.4964 40.9561 83.1258 40.694 83.7843 40.6864C84.1077 40.6839 84.4282 40.7475 84.7257 40.8732C85.0231 40.9989 85.2911 41.184 85.5128 41.4169C85.7524 41.6389 85.943 41.9076 86.0727 42.2059C86.2023 42.5042 86.2683 42.8258 86.2663 43.1505V47.8158Z" fill="white"/>
<path fill-rule="evenodd" clip-rule="evenodd" d="M96.7952 47.8158H95.7463V46.5691C95.3759 47.0031 94.9168 47.3545 94.3992 47.6004C93.8816 47.8463 93.3172 47.9811 92.7431 47.9958C92.1691 48.0105 91.5984 47.9049 91.0686 47.6858C90.5388 47.4668 90.0619 47.1393 89.6693 46.7249C88.8998 45.9267 88.4776 44.862 88.4933 43.7594C88.5089 42.6567 88.9612 41.6042 89.753 40.8276C90.1386 40.4242 90.6083 40.1085 91.1296 39.9025C91.6509 39.6965 92.2112 39.6051 92.7718 39.6345C93.3167 39.6461 93.8536 39.7664 94.3503 39.9882C94.847 40.2099 95.2934 40.5286 95.6626 40.925C96.0449 41.3014 96.3433 41.7529 96.5384 42.2502C96.7334 42.7476 96.821 43.2799 96.7952 43.8128V47.8158ZM89.5855 43.7398C89.5577 44.5587 89.8587 45.3552 90.4227 45.9555C90.6891 46.2504 91.0133 46.4888 91.3756 46.6562C91.7379 46.8237 92.1308 46.9166 92.5305 46.9295C92.9529 46.9547 93.3757 46.886 93.7677 46.7284C94.1597 46.5708 94.5111 46.3283 94.7958 46.0188C95.3825 45.4194 95.7105 44.6178 95.7105 43.7836C95.7105 42.9494 95.3825 42.1478 94.7958 41.5484C94.5276 41.2614 94.2013 41.0333 93.8382 40.879C93.4751 40.7246 93.0833 40.6474 92.6881 40.6523C92.2792 40.6433 91.8729 40.7182 91.4948 40.8724C91.1167 41.0267 90.7751 41.2568 90.4917 41.5484C90.2005 41.8324 89.9702 42.1715 89.8144 42.5455C89.6588 42.9195 89.5809 43.3207 89.5855 43.7252V43.7398Z" fill="white"/>
<path d="M108.427 47.8158H109.545L109.565 43.0385C109.604 42.153 109.287 41.2881 108.683 40.6328C108.122 40.0516 107.358 39.7034 106.546 39.6589C105.986 39.605 105.422 39.7147 104.924 39.9743C104.426 40.234 104.016 40.6322 103.744 41.1198C103.471 40.6318 103.06 40.2334 102.562 39.9738C102.063 39.7142 101.498 39.6047 100.937 39.6589C100.129 39.7002 99.368 40.0492 98.8143 40.6328C98.2151 41.2899 97.9035 42.1548 97.9476 43.0385V47.8158H99.0704V42.8973C99.0412 42.3296 99.2136 41.7697 99.558 41.3146C99.7236 41.1041 99.9369 40.9349 100.181 40.8207C100.424 40.7066 100.692 40.6506 100.961 40.6572C101.526 40.6505 102.071 40.8559 102.488 41.2318C102.698 41.407 102.866 41.6265 102.98 41.8742C103.093 42.122 103.149 42.3917 103.143 42.6636V47.8158H104.276V42.6636C104.27 42.3935 104.323 42.1254 104.433 41.8781C104.543 41.6307 104.706 41.4102 104.911 41.2318C105.337 40.8571 105.888 40.6523 106.457 40.6572C106.731 40.6483 107.003 40.7031 107.251 40.8173C107.499 40.9315 107.716 41.1019 107.886 41.3146C108.247 41.7639 108.438 42.3235 108.427 42.8973V47.8158Z" fill="white"/>
<path d="M118.227 47.8158H117.139V38.0762H114.677V37.0682H120.714V38.0762H118.252L118.227 47.8158Z" fill="white"/>
<path d="M121.374 47.8158H122.507L122.487 43.0482C122.463 42.6209 122.557 42.1952 122.758 41.8162C122.935 41.5664 123.149 41.3447 123.393 41.1588C123.743 40.8925 124.173 40.7502 124.615 40.7546V39.6881C124.18 39.6751 123.751 39.776 123.369 39.9803C122.939 40.195 122.587 40.535 122.359 40.9542V39.8196H121.374V47.8158Z" fill="white"/>
<path fill-rule="evenodd" clip-rule="evenodd" d="M133.755 47.8158H132.706V46.5691C132.317 47.0395 131.823 47.4136 131.262 47.6613C130.701 47.909 130.089 48.0237 129.475 47.9959C128.939 47.9849 128.41 47.8666 127.921 47.6481C127.431 47.4297 126.992 47.1157 126.629 46.7249C125.861 45.9255 125.441 44.8607 125.457 43.7584C125.474 42.6562 125.926 41.6041 126.717 40.8276C127.102 40.4243 127.571 40.1087 128.091 39.9026C128.612 39.6966 129.171 39.6051 129.731 39.6345C130.276 39.6461 130.813 39.7664 131.31 39.9882C131.807 40.2099 132.253 40.5286 132.622 40.925C133.005 41.3009 133.304 41.7522 133.499 42.2497C133.694 42.7473 133.781 43.2798 133.755 43.8128V47.8158ZM126.545 43.7398C126.517 44.5587 126.818 45.3552 127.382 45.9555C127.649 46.2504 127.973 46.4888 128.335 46.6562C128.697 46.8237 129.09 46.9166 129.49 46.9295C129.913 46.9547 130.337 46.8861 130.729 46.7285C131.122 46.5709 131.475 46.3285 131.76 46.0188C132.063 45.7143 132.301 45.3525 132.459 44.9551C132.617 44.5576 132.693 44.1327 132.681 43.7057C132.672 42.8969 132.345 42.1233 131.77 41.5484C131.502 41.2609 131.176 41.0325 130.813 40.8781C130.45 40.7237 130.058 40.6468 129.662 40.6523C129.254 40.645 128.848 40.7207 128.47 40.8749C128.092 41.029 127.751 41.2582 127.466 41.5484C127.172 41.8311 126.939 42.1697 126.781 42.5438C126.623 42.9179 126.542 43.3197 126.545 43.7252V43.7398Z" fill="white"/>
<path d="M138.202 47.8158H139.325L142.678 39.8342H141.491L138.753 46.4132L136.005 39.8342H134.887L138.202 47.8158Z" fill="white"/>
<path fill-rule="evenodd" clip-rule="evenodd" d="M151.764 45.1812C151.492 46.0079 150.956 46.7253 150.238 47.2265C149.538 47.7221 148.7 47.9909 147.839 47.9959C147.295 48.0053 146.754 47.9048 146.25 47.7005C145.746 47.4962 145.29 47.1924 144.909 46.8077C144.499 46.4204 144.172 45.9552 143.947 45.44C143.723 44.9248 143.606 44.3702 143.603 43.8093C143.6 43.2483 143.712 42.6926 143.931 42.1753C144.15 41.6579 144.473 41.1897 144.88 40.7984C145.28 40.382 145.768 40.0582 146.309 39.8503C146.851 39.6423 147.432 39.5553 148.012 39.5956C149.084 39.6592 150.09 40.1303 150.819 40.9104C151.544 41.6217 151.955 42.5883 151.961 43.5985V44.1731H144.707C144.739 44.5561 144.846 44.9291 145.024 45.2709C145.201 45.6126 145.445 45.9164 145.741 46.1649C146.329 46.681 147.093 46.9561 147.879 46.9343C148.46 46.9517 149.034 46.7932 149.522 46.48C150.011 46.1667 150.391 45.7136 150.612 45.1812H151.764ZM150.902 43.1943C150.768 42.4894 150.392 41.8516 149.839 41.3877C149.419 41.0342 148.912 40.7963 148.369 40.698C147.827 40.5996 147.267 40.6442 146.748 40.8273C146.228 41.0104 145.767 41.3256 145.409 41.7411C145.052 42.1566 144.811 42.6578 144.712 43.1943H150.902Z" fill="white"/>
<path d="M152.922 47.8158H154V37H152.922V47.8158Z" fill="white"/>
</svg>
