<svg width="14" height="14" viewBox="0 0 14 14" fill="none" xmlns="http://www.w3.org/2000/svg">
<path d="M13.2405 12.4779L10.0672 9.17743C10.8831 8.2075 11.3301 6.98712 11.3301 5.71666C11.3301 2.74834 8.91513 0.333328 5.94681 0.333328C2.97848 0.333328 0.563477 2.74834 0.563477 5.71666C0.563477 8.68498 2.97848 11.1 5.94681 11.1C7.06115 11.1 8.12307 10.7639 9.03098 10.1258L12.2284 13.4513C12.3621 13.5901 12.5419 13.6667 12.7345 13.6667C12.9168 13.6667 13.0898 13.5971 13.2211 13.4708C13.5001 13.2023 13.509 12.7571 13.2405 12.4779ZM5.94681 1.73767C8.14086 1.73767 9.92579 3.5226 9.92579 5.71666C9.92579 7.91071 8.14086 9.69564 5.94681 9.69564C3.75275 9.69564 1.96782 7.91071 1.96782 5.71666C1.96782 3.5226 3.75275 1.73767 5.94681 1.73767Z" fill="#F6F6F6"/>
</svg>
