<svg width="170" height="168" viewBox="0 0 170 168" fill="none" xmlns="http://www.w3.org/2000/svg">
<g clip-path="url(#clip0)">
<path d="M87.1785 17.0309C51.3375 15.9813 20.2947 41.7745 15.6044 75.6185C10.475 112.622 38.701 145.915 73.4303 151.249C116.629 157.882 158.527 119.51 154.765 77.8822C151.93 46.5193 123.61 18.0979 87.1785 17.0309Z" fill="#F4F7FA"/>
<path d="M85.7856 118.781L96.7462 123.591C96.7462 123.591 101.263 118.842 100.308 113.672C98.3607 103.125 107.681 102.145 111.526 101.148C117.321 99.6433 121.131 96.0851 117.172 90.9551C112.693 85.1506 121.598 78.8412 131.306 77.7685C140.806 76.7184 144.432 59.1283 123.663 59.502C111.26 59.7252 108.097 71.4591 105.099 77.0038C102.101 82.5484 93.3728 79.2848 93.2347 87.6037C93.1168 94.71 95.9475 101.171 90.542 103.72C85.1365 106.268 82.7511 110.739 85.7856 118.781Z" fill="#D8DEE8"/>
<g style="mix-blend-mode:soft-light" opacity="0.5">
<g style="mix-blend-mode:soft-light" opacity="0.5">
<path d="M90.0859 121.886L90.3314 121.944C90.3673 121.791 93.9939 106.474 102.141 92.3801C109.647 79.3956 122.637 64.8228 141.899 69.1332L141.954 68.8854C133.379 66.9664 125.314 68.5652 117.981 73.6369C112.123 77.6869 106.72 83.9547 101.922 92.2567C93.7551 106.383 90.1214 121.732 90.0859 121.886Z" fill="#BEB8F2"/>
</g>
<g style="mix-blend-mode:soft-light" opacity="0.5">
<path d="M115.008 75.8895L115.25 75.9613C117.633 67.8579 125.282 58.2184 125.359 58.122L125.162 57.9634C125.085 58.0588 117.405 67.7384 115.008 75.8895Z" fill="#BEB8F2"/>
</g>
<g style="mix-blend-mode:soft-light" opacity="0.5">
<path d="M119.984 72.6447C129.891 71.1823 136.152 76.7183 136.214 76.7742L136.383 76.5857C136.32 76.5283 129.975 70.9133 119.947 72.3935L119.984 72.6447Z" fill="#BEB8F2"/>
</g>
<g style="mix-blend-mode:soft-light" opacity="0.5">
<path d="M97.3132 101.886C104.661 92.0504 120.665 95.8704 120.818 95.9206L120.914 95.6853C120.77 95.6216 104.526 91.8098 97.1133 101.734L97.3132 101.886Z" fill="#BEB8F2"/>
</g>
<g style="mix-blend-mode:soft-light" opacity="0.5">
<path d="M99.2593 97.2056L99.5067 97.2577C101.106 89.5737 95.6113 81.3918 95.5557 81.3098L95.3477 81.4545C95.4028 81.5345 100.837 89.6287 99.2593 97.2056Z" fill="#BEB8F2"/>
</g>
<g style="mix-blend-mode:soft-light" opacity="0.5">
<path d="M90.9553 119.546C93.1418 115.422 100.671 114.702 100.747 114.695L100.724 114.442C100.409 114.47 92.9836 115.181 90.7324 119.427L90.9553 119.546Z" fill="#BEB8F2"/>
</g>
<g style="mix-blend-mode:soft-light" opacity="0.5">
<path d="M91.7646 115.908L92.0095 115.969C92.8916 112.381 89.4875 106.46 88.3663 104.514C88.2085 104.239 88.0719 104.002 88.0561 103.955L87.8164 104.033C87.838 104.1 87.9281 104.258 88.1486 104.641C89.2555 106.565 92.6222 112.419 91.7646 115.908Z" fill="#BEB8F2"/>
</g>
</g>
<path d="M70.1476 102.901C73.2971 104.202 74.2013 107.396 74.4956 109.81C74.2458 110.023 74.1562 110.209 73.9525 110.479C72.1131 112.915 70.8125 113.559 68.6227 115.673C68.1515 116.127 66.3643 117.039 65.6103 117.365L64.1951 117.948C64.1951 117.948 57.3659 114.083 59.1137 109.955C60.8615 105.828 54.8362 101.329 51.9373 98.5503C50.1574 96.844 49.887 95.4901 49.3329 94.7578C43.4691 87.0025 39.391 86.7248 39.0262 83.0253C38.6211 78.9406 43.4748 78.1074 43.2677 73.6432C43.0343 68.5995 36.6882 66.2727 37.5276 61.4498C37.6714 60.623 37.8421 59.7778 38.449 58.839C39.9475 56.5247 42.5741 56.2924 42.5894 53.4043C42.6215 47.5993 46.366 42.3719 52.2293 43.3786C58.0125 44.3723 60.4943 53.965 56.7249 66.5307C55.0581 75.7734 56.1564 77.1952 59.4876 80.102C61.8217 82.1386 69.4918 86.1042 68.1855 91.3688C66.8792 96.6333 66.5474 101.413 70.1476 102.901Z" fill="#D8DEE8"/>
<g style="mix-blend-mode:soft-light" opacity="0.5">
<g style="mix-blend-mode:soft-light" opacity="0.5">
<path d="M69.9074 114.738L69.7204 114.862C69.032 113.831 68.3518 112.782 67.6979 111.744C62.859 104.063 58.9679 96.1713 56.1319 88.2936C53.7292 81.6173 52.049 74.8553 51.1377 68.1954C50.4052 62.8393 50.1636 57.5198 50.4186 52.385C50.5994 48.7752 51.0217 45.2931 51.6756 42.0358C51.7892 41.4678 51.9378 40.8912 52.0821 40.3338C52.2738 39.5908 52.4718 38.8228 52.5888 38.0677L52.8059 38.0856C52.689 38.8507 52.4872 39.6241 52.2954 40.3719C52.1516 40.9269 52.0039 41.5006 51.8913 42.0628C51.2398 45.31 50.8184 48.7814 50.6387 52.3806C50.3827 57.5029 50.6238 62.8094 51.3549 68.153C52.2657 74.7993 53.9406 81.5479 56.3404 88.2101C59.1688 96.0763 63.0565 103.954 67.8882 111.623C68.5402 112.661 69.2199 113.708 69.9074 114.738Z" fill="#FCFDFE"/>
</g>
<g style="mix-blend-mode:soft-light" opacity="0.5">
<path d="M52.8145 76.1884L52.6011 76.2525C50.3677 67.5484 37.7403 58.6292 37.6133 58.5405L37.7499 58.365C37.8779 58.4547 50.5633 67.4148 52.8145 76.1884Z" fill="#FCFDFE"/>
</g>
<g style="mix-blend-mode:soft-light" opacity="0.5">
<path d="M61.309 99.863L61.1033 99.9503C58.8574 94.2538 64.8171 83.3747 64.8775 83.2653L65.0692 83.3559C65.0088 83.4644 59.0971 94.2557 61.309 99.863Z" fill="#FCFDFE"/>
</g>
<g style="mix-blend-mode:soft-light" opacity="0.5">
<path d="M62.8785 102.97L62.6896 103.09C60.5487 99.7256 55.6907 96.3675 49.0134 93.6352C48.6778 93.4973 48.6778 93.4973 48.6562 93.4645L48.8437 93.3421L48.7478 93.4033L48.8135 93.3146C48.8346 93.3261 48.9611 93.3782 49.1083 93.438C55.8263 96.1862 60.716 99.5713 62.8785 102.97Z" fill="#FCFDFE"/>
</g>
<g style="mix-blend-mode:soft-light" opacity="0.5">
<path d="M68.6807 112.838L68.4678 112.903C67.3509 108.626 71.509 103.064 71.5512 103.008L71.7257 103.126C71.684 103.181 67.5886 108.659 68.6807 112.838Z" fill="#FCFDFE"/>
</g>
<g style="mix-blend-mode:soft-light" opacity="0.5">
<path d="M69.6614 114.968C66.7295 112.914 63.0349 111.65 58.3672 111.103L58.4079 110.891C63.1116 111.443 66.8374 112.719 69.7976 114.793L69.6614 114.968Z" fill="#FCFDFE"/>
</g>
<g style="mix-blend-mode:soft-light" opacity="0.5">
<path d="M50.5413 55.4047L50.3251 55.4572C49.3664 50.5326 47.1646 45.6509 46.4422 44.0463C46.2672 43.6582 46.2058 43.5212 46.1934 43.4677L46.4072 43.4065C46.4172 43.4455 46.5174 43.6678 46.6445 43.9489C47.3693 45.5602 49.5787 50.4574 50.5413 55.4047Z" fill="#FCFDFE"/>
</g>
<g style="mix-blend-mode:soft-light" opacity="0.5">
<path d="M50.8587 63.7143L50.6406 63.7037C51.2063 58.943 58.943 52.5619 59.2724 52.2928L59.4071 52.4515C59.3275 52.5161 51.4139 59.0428 50.8587 63.7143Z" fill="#FCFDFE"/>
</g>
</g>
<path d="M112.621 120.678C111.932 120.935 110.951 117.184 106.841 113.88C105.815 113.055 100.525 108.165 95.6531 110.511L92.8157 111.877C90.9255 110.199 89.4533 108.266 91.8526 105.98C95.5788 102.43 91.763 95.084 89.1709 93.1381C85.9629 90.7274 78.6183 84.9691 84.2928 79.397C89.0171 74.7583 93.0132 72.6591 89.7289 65.6154C86.4447 58.5718 88.1058 52.2302 94.8952 49.1816C102.038 45.9739 103.038 34.3074 110.267 34.2351C122.862 34.1064 122.024 53.8748 112.367 64.5513C102.71 75.2279 111.791 75.6888 115.126 81.1134C115.54 81.879 115.861 82.6911 116.085 83.5328C117.824 90.1122 112.244 94.3391 110.38 101.455C107.842 111.157 113.781 120.245 112.621 120.678Z" fill="url(#paint0_linear)"/>
<g style="mix-blend-mode:soft-light" opacity="0.5">
<g style="mix-blend-mode:soft-light" opacity="0.5">
<path d="M101.032 106.872L100.679 106.978C93.6027 82.3927 99.0922 54.1565 115.005 33.2878L115.297 33.4894C99.4517 54.2698 93.9853 82.3884 101.032 106.872Z" fill="#FCFDFE"/>
</g>
<g style="mix-blend-mode:soft-light" opacity="0.5">
<path d="M98.38 93.1044L98.0525 93.2751C93.323 84.4066 81.5906 81.6902 81.4727 81.6637L81.5685 81.3204C81.6879 81.347 93.5751 84.0961 98.38 93.1044Z" fill="#FCFDFE"/>
</g>
<g style="mix-blend-mode:soft-light" opacity="0.5">
<path d="M99.8604 102.31L99.4941 102.313C99.7981 92.0408 116.512 81.8912 116.681 81.7899L116.866 82.0869C116.699 82.1858 100.158 92.2327 99.8604 102.31Z" fill="#FCFDFE"/>
</g>
<g style="mix-blend-mode:soft-light" opacity="0.5">
<path d="M99.7514 67.8343L99.3857 67.8686C98.9063 59.756 89.0079 52.0475 88.9082 51.9708L89.1431 51.6917C89.2443 51.7698 99.2605 59.5733 99.7514 67.8343Z" fill="#FCFDFE"/>
</g>
<g style="mix-blend-mode:soft-light" opacity="0.5">
<path d="M104.63 51.9781L104.318 51.8046C109.386 43.7219 122.004 40.1453 122.132 40.1101L122.22 40.4476C122.094 40.4833 109.619 44.0213 104.63 51.9781Z" fill="#FCFDFE"/>
</g>
</g>
<path d="M100.932 119.423C100.766 120.143 97.1129 118.898 92.1081 120.525C90.8579 120.931 83.8853 122.673 83.1437 128.055L82.7123 131.189C80.2789 131.85 77.8633 132.019 77.2905 128.745C76.4007 123.661 68.2033 122.812 65.1597 123.914C61.3932 125.277 52.5654 128.263 51.0726 120.43C49.831 113.911 50.2931 109.398 42.6398 108.27C34.9865 107.142 30.6394 102.25 31.8537 94.8715C33.1327 87.109 24.0062 79.8368 27.9309 73.7314C34.7693 63.0929 50.7044 74.6957 54.2351 88.6866C57.7657 102.677 63.1564 95.3098 69.4938 95.5036C70.3571 95.5788 71.2086 95.7569 72.0302 96.034C78.4458 98.2036 78.8748 105.215 83.7501 110.702C90.4001 118.183 101.212 118.211 100.932 119.423Z" fill="url(#paint1_linear)"/>
<g style="mix-blend-mode:soft-light" opacity="0.5">
<g style="mix-blend-mode:soft-light" opacity="0.5">
<path d="M83.089 121.534L82.9826 121.888C58.6885 114.271 38.2947 94.0934 29.7598 69.235L30.0877 69.101C38.5857 93.8537 58.8956 113.946 83.089 121.534Z" fill="#FCFDFE"/>
</g>
<g style="mix-blend-mode:soft-light" opacity="0.5">
<path d="M70.2069 116.167L70.1681 116.536C60.2051 115.614 51.4804 123.96 51.3946 124.044L51.1621 123.774C51.2503 123.689 60.0858 115.231 70.2069 116.167Z" fill="#FCFDFE"/>
</g>
<g style="mix-blend-mode:soft-light" opacity="0.5">
<path d="M78.6583 120.002L78.4594 120.311C70.1061 114.393 70.9038 94.7696 70.9129 94.5729L71.2615 94.5816C71.2528 94.7768 70.4638 114.195 78.6583 120.002Z" fill="#FCFDFE"/>
</g>
<g style="mix-blend-mode:soft-light" opacity="0.5">
<path d="M50.0031 101.082L49.8296 101.408C42.835 97.3393 30.9842 101.392 30.8653 101.433L30.7637 101.082C30.884 101.04 42.8791 96.9396 50.0031 101.082Z" fill="#FCFDFE"/>
</g>
<g style="mix-blend-mode:soft-light" opacity="0.5">
<path d="M39.5411 88.2454L39.2252 88.4112C35.3153 79.7023 39.3067 67.1429 39.3474 67.0166L39.6772 67.1289C39.637 67.2533 35.6921 79.6724 39.5411 88.2454Z" fill="#FCFDFE"/>
</g>
</g>
<path d="M85.3167 141.686C84.9945 141.7 84.6858 141.706 84.3905 141.706C72.6936 141.706 43.2001 143.98 34.4869 118.51C26.4812 95.1174 56.3289 59.2493 61.2479 53.5591C61.6846 53.0528 61.9252 52.7876 61.9252 52.7876C61.9252 52.7876 60.6256 51.8234 86.9336 50.8065C117.147 74.1114 121.921 92.5601 121.921 92.5601C131.533 130.36 97.8496 141.168 85.3167 141.686Z" fill="url(#paint2_linear)"/>
<path style="mix-blend-mode:multiply" opacity="0.3" d="M85.3167 141.686C84.9945 141.699 84.6858 141.706 84.3905 141.706C72.6936 141.706 43.2001 143.98 34.4869 118.51C26.4812 95.1173 56.3289 59.2492 61.2479 53.559C62.5015 53.3632 63.7095 53.423 64.8581 53.7817C65.2982 53.9201 3.61136 133.307 85.3167 141.686Z" fill="url(#paint3_linear)"/>
<path d="M56.9238 32.7999C56.9238 32.7999 61.8303 24.4078 68.7568 27.4997C75.6834 30.5917 81.2634 32.9108 84.9192 30.7021C88.5749 28.4934 90.4876 26.7433 91.5034 31.5936C92.5192 36.444 78.6661 48.3693 78.6661 48.3693C78.6661 48.3693 57.501 48.3693 56.9238 32.7999Z" fill="url(#paint4_linear)"/>
<path style="mix-blend-mode:multiply" opacity="0.2" d="M56.9238 36.4816C56.9238 36.4816 61.8303 28.0894 68.7568 31.1814C75.6834 34.2734 81.2634 36.592 84.9192 34.3838C88.5749 32.1756 90.4876 30.4249 91.5034 35.2753C92.5192 40.1256 78.6661 52.0519 78.6661 52.0519C78.6661 52.0519 57.501 52.0519 56.9238 36.4816Z" fill="url(#paint5_linear)"/>
<path d="M92.5444 44.7069C90.5814 47.6407 88.2914 50.1551 86.2756 51.1912C83.7473 52.4887 79.245 53.276 74.7608 53.6048C70.2767 53.9337 65.8041 53.8006 63.3515 53.262L63.3467 53.2596C62.7384 53.1261 62.2557 52.9674 61.9263 52.7857C61.9263 52.7857 53.9988 40.1256 53.8842 34.2188C53.8454 32.3433 54.5961 31.149 56.6344 31.2551C65.1018 31.6944 65.294 36.4439 71.0638 35.1185C76.8337 33.7931 81.0685 24.9593 84.918 30.7026C88.7674 36.4459 92.9025 28.2731 96.3665 30.9239C98.6048 32.6336 96.1177 39.3638 92.5444 44.7069Z" fill="url(#paint6_linear)"/>
<path d="M61.462 52.0252C61.462 52.0252 77.0442 56.5168 87.2335 50.6039C88.1112 51.7191 88.5671 52.0778 88.5671 52.0778C88.5671 52.0778 81.0816 58.9521 60.834 54.0435C60.834 54.0435 61.3263 52.5884 61.462 52.0252Z" fill="url(#paint7_linear)"/>
<path style="mix-blend-mode:multiply" opacity="0.2" d="M92.5448 44.7068C90.5818 47.6406 88.2918 50.155 86.276 51.1911C83.7477 52.4886 79.2454 53.2759 74.7613 53.6047L63.352 53.2619L63.3472 53.2595C62.7389 53.126 62.2562 52.9674 61.9268 52.7856C61.9268 52.7856 53.9993 40.1255 53.8848 34.2187C53.9806 34.1151 57.0966 30.8037 60.8329 37.9028C64.631 45.1118 66.0035 51.3956 70.5015 48.3701C74.9995 45.3447 81.9405 33.4545 83.1624 39.0532C84.3844 44.6518 79.8815 50.0383 83.1624 49.1478C85.7199 48.4526 90.6475 44.6099 92.5448 44.7068Z" fill="url(#paint8_linear)"/>
<g opacity="0.9">
<path opacity="0.9" d="M81.5502 71.7893C82.5089 71.7551 83.3167 72.421 83.3526 73.2772L83.4768 76.2092C85.4077 76.1652 87.3395 76.2257 89.2639 76.3904C90.688 76.5119 92.1044 76.6902 93.5131 76.9251C94.3569 77.0664 94.9609 77.7448 94.9158 78.5239L94.6987 82.2682C94.6407 83.2653 93.5803 83.9813 92.5328 83.7017C91.5864 83.4495 90.626 83.2543 89.6565 83.1168C87.8675 82.8694 86.0589 82.7958 84.2558 82.897L83.7616 82.9225L84.123 91.4859C89.2318 92.0977 93.0122 93.318 95.5064 95.1501C97.9915 96.9755 99.3194 99.4971 99.4901 102.715C99.6785 106.22 98.5117 109.224 95.9676 111.731C93.3947 114.268 89.6781 116.022 84.7855 116.982L84.9293 120.448C84.9682 121.371 84.1935 122.208 83.1964 122.316L83.1642 122.319C82.1643 122.426 81.322 121.76 81.2855 120.831L81.1518 117.405L80.3498 117.486C78.1265 117.715 75.8918 117.814 73.6571 117.783C72.0988 117.758 70.5428 117.654 68.9951 117.469C68.0752 117.36 67.4256 116.659 67.4851 115.802L67.8408 110.681C67.9175 109.579 69.1092 108.782 70.2655 109.032C71.6132 109.324 72.9762 109.538 74.3479 109.675C76.4988 109.888 78.6638 109.917 80.8196 109.761L80.4677 99.9508C75.5095 99.5116 71.7612 98.381 69.2636 96.558C66.7571 94.7284 65.4567 92.151 65.3624 88.8259C65.2684 85.4094 66.5073 82.6225 69.079 80.465C71.6198 78.3311 75.2631 76.983 79.9835 76.4107L79.8647 73.4084C79.8325 72.5487 80.5876 71.8241 81.5502 71.7893ZM80.2558 83.2725C78.7614 83.5567 77.6061 84.0689 76.7899 84.8091C75.9737 85.5494 75.5836 86.4606 75.6197 87.5429C75.6565 88.5666 76.0779 89.3729 76.8839 89.9618C77.6899 90.5507 78.9174 90.9446 80.5665 91.1435L80.2558 83.2725ZM84.0837 100.254L84.46 109.233C86.1139 109.008 87.3657 108.475 88.2155 107.636C89.0653 106.797 89.459 105.729 89.3967 104.433C89.342 103.249 88.8901 102.323 88.041 101.656C87.1919 100.988 85.8726 100.521 84.0832 100.254H84.0837Z" fill="url(#paint9_linear)"/>
</g>
<path d="M26.9434 142.221V147.271C26.9434 148.903 37.0799 150.227 49.5841 150.227C62.0883 150.227 72.2253 148.903 72.2253 147.271V142.221H26.9434Z" fill="url(#paint10_linear)"/>
<path d="M72.2253 142.221C72.2253 143.853 62.0883 145.176 49.5841 145.176C37.0799 145.176 26.9434 143.852 26.9434 142.221C26.9434 140.59 37.0799 139.266 49.5841 139.266C62.0883 139.266 72.2253 140.589 72.2253 142.221Z" fill="url(#paint11_linear)"/>
<path d="M49.5853 145.38C38.5116 145.38 26.9316 144.316 26.9316 142.264C26.9316 142.151 26.9714 141.953 27.0836 141.953C27.1958 141.953 27.1474 142.108 27.1474 142.221C27.1474 143.522 36.3625 144.972 49.5853 144.972C62.8081 144.972 72.0238 143.522 72.0238 142.221C72.0238 142.108 72.0424 142.002 72.1546 142.002C72.2668 142.002 72.24 142.153 72.24 142.266C72.239 144.318 60.6595 145.38 49.5853 145.38Z" fill="url(#paint12_linear)"/>
<path d="M47.4452 142.385C47.6677 142.231 47.904 142.078 48.1571 141.928C48.4643 141.754 48.7908 141.617 49.1298 141.52C49.6183 141.38 50.1174 141.28 50.6221 141.223C51.2194 141.147 51.9644 141.106 52.8579 141.102C53.733 141.097 54.5543 141.125 55.322 141.186C56.0022 141.234 56.6789 141.324 57.3483 141.455C57.93 141.575 58.4042 141.723 58.7711 141.899C59.138 142.075 59.3547 142.277 59.4212 142.505L61.9705 142.531C62.1346 142.53 62.2984 142.546 62.4595 142.577C62.6033 142.606 62.6709 142.643 62.6709 142.687V142.899L59.3938 142.867C59.2788 143.124 58.9859 143.361 58.5151 143.576C58.0444 143.792 57.4453 143.978 56.7179 144.134L55.5243 143.967C55.4345 143.955 55.3462 143.934 55.2606 143.904C55.1921 143.879 55.1585 143.852 55.1585 143.822C55.1585 143.781 55.2505 143.735 55.4351 143.683C55.6197 143.631 55.8282 143.566 56.0583 143.49C56.2915 143.413 56.5199 143.322 56.7424 143.218C56.9648 143.114 57.1134 142.989 57.1911 142.843L49.4553 142.766C49.2358 142.926 49.0078 143.074 48.7722 143.21C48.5191 143.354 48.1854 143.485 47.7688 143.602C47.2578 143.735 46.7375 143.83 46.2123 143.884C45.5891 143.956 44.8086 143.995 43.8633 144C43.1538 144.003 42.464 143.976 41.7876 143.919C41.1824 143.871 40.5808 143.785 39.9865 143.661C39.4621 143.546 39.0307 143.404 38.6922 143.235C38.3566 143.066 38.1687 142.872 38.1299 142.653L36.0312 142.631C35.8648 142.631 35.6988 142.617 35.535 142.587C35.3912 142.559 35.3164 142.522 35.3164 142.474V142.264L38.186 142.291C38.313 142.068 38.5728 141.875 38.9703 141.71C39.4424 141.522 39.9296 141.374 40.4266 141.269L41.3854 141.402C41.6773 141.443 41.8226 141.491 41.8226 141.546C41.8226 141.576 41.7636 141.613 41.6428 141.658C41.522 141.702 41.3777 141.754 41.2114 141.816C41.0469 141.878 40.8868 141.95 40.732 142.033C40.596 142.1 40.4765 142.196 40.382 142.315L47.4452 142.385ZM40.3662 142.674C40.4237 142.813 40.5522 142.932 40.7497 143.032C40.9813 143.146 41.2263 143.229 41.4789 143.28C41.8028 143.349 42.1309 143.397 42.4611 143.422C42.8264 143.453 43.2083 143.467 43.6068 143.465C44.013 143.465 44.4189 143.445 44.823 143.404C45.1297 143.373 45.434 143.321 45.7339 143.249C45.9679 143.193 46.1967 143.117 46.4179 143.022C46.5992 142.942 46.7741 142.848 46.9409 142.741L40.3662 142.674ZM57.2064 142.486C57.1489 142.346 57.0084 142.223 56.7898 142.117C56.5216 141.995 56.2402 141.906 55.9514 141.851C55.559 141.771 55.1619 141.718 54.7625 141.69C54.3113 141.655 53.8132 141.639 53.2683 141.642C52.8502 141.641 52.4324 141.663 52.0166 141.707C51.7095 141.741 51.4051 141.796 51.1058 141.874C50.8802 141.931 50.6612 142.011 50.4524 142.115C50.2793 142.203 50.1118 142.302 49.951 142.412L57.2064 142.486Z" fill="#FCB048"/>
<path d="M49.5887 139.585C39.4934 139.585 28.982 140.479 27.3008 142.208C27.3661 142.269 27.4276 142.333 27.4849 142.401C28.9029 141.2 37.5797 139.995 49.5887 139.995C61.9045 139.995 70.7227 141.267 71.7912 142.497C71.8435 142.429 71.9 142.365 71.9604 142.304C70.5717 140.512 59.8633 139.585 49.5887 139.585Z" fill="url(#paint13_linear)"/>
<path d="M20.6504 136.915V141.966C20.6504 143.598 30.7869 144.921 43.2911 144.921C55.7953 144.921 65.9318 143.598 65.9318 141.966V136.915H20.6504Z" fill="url(#paint14_linear)"/>
<path d="M65.9318 136.915C65.9318 138.547 55.7953 139.87 43.2911 139.87C30.7869 139.87 20.6504 138.548 20.6504 136.915C20.6504 135.282 30.7869 133.96 43.2911 133.96C55.7953 133.96 65.9318 135.283 65.9318 136.915Z" fill="url(#paint15_linear)"/>
<path d="M43.2909 140.074C32.2171 140.074 20.6367 139.011 20.6367 136.959C20.6367 136.846 20.677 136.648 20.7887 136.648C20.9004 136.648 20.8529 136.803 20.8529 136.915C20.8529 138.217 30.0676 139.666 43.2909 139.666C56.5141 139.666 65.7288 138.217 65.7288 136.915C65.7288 136.803 65.748 136.697 65.8602 136.697C65.9723 136.697 65.945 136.848 65.945 136.96C65.945 139.012 54.3651 140.074 43.2909 140.074Z" fill="url(#paint16_linear)"/>
<path d="M41.1524 137.08C41.3742 136.925 41.6113 136.773 41.8638 136.623C42.1709 136.449 42.4974 136.312 42.8364 136.215C43.3251 136.075 43.8244 135.976 44.3292 135.918C44.9261 135.841 45.6715 135.801 46.5646 135.796C47.4396 135.792 48.2611 135.82 49.0291 135.88C49.7093 135.929 50.386 136.019 51.0554 136.15C51.6371 136.27 52.1112 136.418 52.4778 136.594C52.8443 136.771 53.0612 136.972 53.1283 137.198L55.6776 137.224C55.8416 137.223 56.0052 137.238 56.1661 137.27C56.3099 137.299 56.3775 137.336 56.378 137.381V137.592L53.1005 137.56C52.9857 137.817 52.6928 138.054 52.2218 138.27C51.7507 138.486 51.1526 138.672 50.4274 138.829L49.2343 138.662C49.1446 138.65 49.0562 138.629 48.9706 138.599C48.9016 138.574 48.8685 138.547 48.868 138.517C48.868 138.476 48.9601 138.43 49.1451 138.378C49.3301 138.326 49.5382 138.261 49.7683 138.185C50.0012 138.108 50.2295 138.017 50.4519 137.913C50.6743 137.809 50.8234 137.684 50.9006 137.539L43.1653 137.462C42.9459 137.622 42.7178 137.77 42.4822 137.905C42.2291 138.049 41.8954 138.181 41.4784 138.297C40.9674 138.43 40.447 138.525 39.9218 138.58C39.2986 138.652 38.5187 138.691 37.5728 138.695C36.8638 138.699 36.1735 138.672 35.4976 138.614C34.8925 138.567 34.2911 138.48 33.697 138.355C33.1721 138.241 32.7426 138.099 32.4051 137.93C32.0676 137.761 31.8816 137.567 31.8423 137.347L29.7436 137.326C29.5774 137.326 29.4114 137.312 29.2479 137.282C29.1041 137.254 29.0293 137.216 29.0293 137.169V136.958L31.8989 136.986C32.0259 136.763 32.2857 136.57 32.6836 136.407C33.1556 136.219 33.6426 136.071 34.1395 135.966L35.0983 136.099C35.3902 136.14 35.535 136.189 35.5355 136.244C35.5355 136.274 35.4765 136.311 35.3557 136.355C35.2349 136.399 35.0906 136.451 34.9243 136.514C34.7598 136.576 34.5996 136.648 34.4449 136.731C34.3089 136.798 34.1895 136.894 34.0954 137.013L41.1524 137.08ZM34.0729 137.369C34.1304 137.508 34.2593 137.627 34.4564 137.727C34.688 137.84 34.933 137.924 35.1855 137.975C35.5096 138.045 35.8379 138.093 36.1682 138.12C36.5335 138.15 36.9153 138.164 37.3135 138.162C37.7197 138.163 38.1256 138.142 38.5297 138.101C38.8363 138.07 39.1406 138.018 39.4405 137.947C39.6745 137.891 39.9034 137.815 40.1246 137.719C40.3058 137.64 40.4805 137.546 40.6471 137.438L34.0729 137.369ZM50.9135 137.18C50.8555 137.04 50.7151 136.917 50.4965 136.812C50.2283 136.69 49.9469 136.601 49.658 136.545C49.2656 136.466 48.8685 136.413 48.4692 136.385C48.0186 136.35 47.5205 136.334 46.9749 136.337C46.5568 136.335 46.139 136.357 45.7233 136.402C45.4161 136.435 45.1117 136.491 44.8125 136.568C44.587 136.625 44.3682 136.706 44.1595 136.809C43.9863 136.897 43.8189 136.996 43.6581 137.106L50.9135 137.18Z" fill="#FCB048"/>
<path d="M43.2932 134.28C33.1984 134.28 22.687 135.174 21.0059 136.903C21.0711 136.963 21.1325 137.028 21.1895 137.096C22.6065 135.895 31.2862 134.685 43.2932 134.685C55.609 134.685 64.4277 135.958 65.4958 137.188C65.5483 137.121 65.6048 137.056 65.665 136.995C64.2762 135.207 53.5678 134.28 43.2932 134.28Z" fill="url(#paint17_linear)"/>
<path d="M26.082 131.626V136.677C26.082 138.309 36.2186 139.632 48.7227 139.632C61.2269 139.632 71.3634 138.309 71.3634 136.677V131.626H26.082Z" fill="url(#paint18_linear)"/>
<path d="M71.3634 131.626C71.3634 133.258 61.2269 134.581 48.7227 134.581C36.2186 134.581 26.082 133.258 26.082 131.626C26.082 129.994 36.2186 128.671 48.7227 128.671C61.2269 128.671 71.3634 129.994 71.3634 131.626Z" fill="url(#paint19_linear)"/>
<path d="M48.7225 134.785C37.6488 134.785 26.0684 133.721 26.0684 131.669C26.0684 131.556 26.1086 131.358 26.2203 131.358C26.332 131.358 26.2846 131.513 26.2846 131.626C26.2846 132.927 35.4992 134.377 48.7225 134.377C61.9457 134.377 71.1604 132.927 71.1604 131.626C71.1604 131.513 71.1796 131.408 71.2918 131.408C71.4039 131.408 71.3766 131.558 71.3766 131.67C71.3761 133.722 59.7967 134.785 48.7225 134.785Z" fill="url(#paint20_linear)"/>
<path d="M46.582 131.79C46.8039 131.636 47.0403 131.483 47.2934 131.332C47.6005 131.159 47.927 131.022 48.266 130.925C48.7547 130.785 49.254 130.686 49.7588 130.628C50.3557 130.551 51.1011 130.511 51.9942 130.507C52.8692 130.502 53.6906 130.53 54.4582 130.59C55.1386 130.639 55.8155 130.729 56.485 130.86C57.0667 130.98 57.5408 131.128 57.9074 131.304C58.2739 131.48 58.4908 131.682 58.5579 131.911L61.1072 131.937C61.2712 131.935 61.4348 131.951 61.5957 131.982C61.7395 132.011 61.8071 132.048 61.8076 132.093V132.304L58.5301 132.272C58.415 132.529 58.1221 132.766 57.6514 132.982C57.1806 133.198 56.5816 133.384 55.8542 133.539L54.6605 133.372C54.571 133.36 54.4828 133.339 54.3973 133.31C54.3283 133.285 54.2952 133.257 54.2947 133.227C54.2947 133.186 54.3868 133.14 54.5718 133.088C54.7569 133.037 54.9644 132.972 55.195 132.896C55.428 132.818 55.6562 132.728 55.8786 132.624C56.1011 132.519 56.2501 132.394 56.3273 132.249L48.592 132.172C48.3725 132.332 48.1443 132.48 47.9084 132.615C47.6558 132.76 47.3221 132.891 46.9051 133.007C46.394 133.14 45.8737 133.235 45.3485 133.29C44.7253 133.362 43.9454 133.401 42.9995 133.405C42.2905 133.409 41.6002 133.382 40.9243 133.325C40.3191 133.277 39.7175 133.191 39.1233 133.066C38.5983 132.951 38.1688 132.81 37.8289 132.64C37.4891 132.471 37.3054 132.277 37.2666 132.058L35.1679 132.036C35.0017 132.037 34.8358 132.022 34.6722 131.993C34.5284 131.965 34.4536 131.927 34.4531 131.88V131.669L37.3227 131.696C37.4497 131.474 37.7096 131.28 38.1075 131.115C38.5795 130.927 39.0665 130.78 39.5633 130.675L40.5245 130.807C40.8164 130.848 40.9612 130.897 40.9617 130.952C40.9617 130.982 40.9027 131.019 40.7819 131.063C40.6611 131.108 40.5168 131.16 40.3505 131.223C40.1861 131.284 40.0259 131.356 39.8711 131.439C39.7354 131.506 39.616 131.602 39.5216 131.721L46.582 131.79ZM39.5025 132.08C39.56 132.218 39.6889 132.337 39.886 132.438C40.1177 132.551 40.3627 132.634 40.6151 132.685C40.9391 132.754 41.2674 132.802 41.5978 132.827C41.9631 132.858 42.3449 132.872 42.7431 132.87C43.1492 132.871 43.5552 132.85 43.9593 132.809C44.2659 132.778 44.5702 132.726 44.8701 132.654C45.1043 132.599 45.3333 132.523 45.5547 132.427C45.7357 132.347 45.9104 132.253 46.0772 132.146L39.5025 132.08ZM56.3427 131.891C56.2851 131.75 56.1447 131.628 55.9261 131.522C55.6579 131.4 55.3765 131.311 55.0876 131.256C54.6952 131.177 54.2981 131.123 53.8988 131.095C53.4482 131.06 52.9501 131.044 52.4045 131.047C51.9864 131.046 51.5686 131.068 51.1529 131.113C50.8457 131.146 50.5413 131.201 50.242 131.278C50.0166 131.336 49.7977 131.416 49.5891 131.52C49.4159 131.608 49.2484 131.707 49.0877 131.817L56.3427 131.891Z" fill="#FCB048"/>
<path d="M48.7249 128.991C38.6301 128.991 28.1187 129.884 26.4375 131.614C26.5029 131.674 26.5642 131.738 26.6211 131.806C28.0382 130.605 36.7178 129.396 48.7249 129.396C61.0407 129.396 69.8594 130.668 70.9275 131.899C70.9802 131.831 71.0367 131.767 71.0967 131.706C69.708 129.918 58.9995 128.991 48.7249 128.991Z" fill="url(#paint21_linear)"/>
<path d="M29.377 126.321V131.371C29.377 133.004 39.5135 134.327 52.0177 134.327C64.5219 134.327 74.6584 133.004 74.6584 131.371V126.321H29.377Z" fill="url(#paint22_linear)"/>
<path d="M52.0177 129.276C64.5218 129.276 74.6584 127.953 74.6584 126.321C74.6584 124.689 64.5218 123.366 52.0177 123.366C39.5135 123.366 29.377 124.689 29.377 126.321C29.377 127.953 39.5135 129.276 52.0177 129.276Z" fill="url(#paint23_linear)"/>
<path d="M52.017 129.48C40.9432 129.48 29.3633 128.416 29.3633 126.364C29.3633 126.251 29.4031 126.053 29.5152 126.053C29.6274 126.053 29.579 126.208 29.579 126.321C29.579 127.622 38.7942 129.072 52.017 129.072C65.2398 129.072 74.4554 127.622 74.4554 126.321C74.4554 126.208 74.4746 126.102 74.5863 126.102C74.698 126.102 74.6716 126.253 74.6716 126.366C74.6716 128.418 63.0912 129.48 52.017 129.48Z" fill="url(#paint24_linear)"/>
<path d="M49.8779 126.485C50.0999 126.331 50.3362 126.178 50.5893 126.027C50.8964 125.854 51.2229 125.717 51.562 125.62C52.0505 125.48 52.5496 125.381 53.0543 125.323C53.6516 125.246 54.3965 125.206 55.2901 125.202C56.1651 125.197 56.9865 125.225 57.7541 125.285C58.4344 125.334 59.1111 125.424 59.7805 125.555C60.3624 125.675 60.8367 125.823 61.2033 125.999C61.5698 126.175 61.7867 126.377 61.8538 126.605L64.4027 126.631C64.5668 126.631 64.7306 126.647 64.8916 126.679C65.0354 126.708 65.103 126.745 65.103 126.79V127.001L61.8255 126.97C61.7105 127.227 61.4176 127.463 60.9468 127.679C60.4761 127.894 59.8775 128.08 59.151 128.234L57.9574 128.067C57.8677 128.055 57.7793 128.034 57.6937 128.004C57.6252 127.979 57.5916 127.952 57.5916 127.922C57.5916 127.881 57.6838 127.835 57.8682 127.783C58.0526 127.731 58.2604 127.667 58.4914 127.59C58.7246 127.513 58.953 127.422 59.1755 127.318C59.3979 127.214 59.5465 127.089 59.6242 126.943L51.8884 126.866C51.6691 127.026 51.441 127.174 51.2053 127.309C50.9522 127.454 50.6185 127.585 50.202 127.701C49.6909 127.835 49.1706 127.929 48.6454 127.984C48.0222 128.056 47.2423 128.095 46.2964 128.1C45.5874 128.103 44.8971 128.076 44.2212 128.019C43.6158 127.971 43.0141 127.885 42.4197 127.761C41.8952 127.646 41.4646 127.504 41.1278 127.335C40.7922 127.166 40.6043 126.972 40.5654 126.753L38.4667 126.731C38.3004 126.731 38.1343 126.716 37.9706 126.687C37.8267 126.659 37.7524 126.621 37.752 126.574V126.364L40.6215 126.391C40.7486 126.168 41.0084 125.974 41.4058 125.81C41.878 125.622 42.3652 125.474 42.8622 125.369L43.8233 125.501C44.1153 125.543 44.26 125.591 44.26 125.646C44.26 125.676 44.2011 125.713 44.0807 125.757C43.9604 125.802 43.8156 125.854 43.6493 125.916C43.4849 125.978 43.3247 126.05 43.1699 126.133C43.034 126.2 42.9146 126.296 42.8205 126.415L49.8779 126.485ZM42.7984 126.774C42.8559 126.913 42.9844 127.032 43.1819 127.132C43.4135 127.245 43.6585 127.329 43.911 127.38C44.2351 127.45 44.5634 127.498 44.8938 127.524C45.2591 127.555 45.6408 127.569 46.039 127.567C46.4452 127.568 46.8511 127.548 47.2552 127.507C47.5618 127.475 47.8661 127.423 48.166 127.352C48.4 127.296 48.6289 127.22 48.8501 127.124C49.0314 127.044 49.2062 126.951 49.3731 126.844L42.7984 126.774ZM59.6386 126.586C59.5811 126.445 59.4406 126.323 59.222 126.216C58.9538 126.095 58.6724 126.006 58.3836 125.951C57.9912 125.871 57.594 125.818 57.1947 125.79C56.7441 125.755 56.246 125.739 55.7005 125.742C55.2824 125.741 54.8645 125.763 54.4488 125.807C54.1416 125.841 53.8372 125.896 53.538 125.973C53.3124 126.031 53.0934 126.111 52.8846 126.215C52.7115 126.303 52.5442 126.402 52.3836 126.512L59.6386 126.586Z" fill="#FCB048"/>
<path d="M52.0203 123.685C41.925 123.685 31.4141 124.579 29.7324 126.308C29.7978 126.368 29.8593 126.433 29.9165 126.501C31.3336 125.3 40.0128 124.09 52.0203 124.09C64.3361 124.09 73.1544 125.362 74.2229 126.593C74.2752 126.525 74.3317 126.46 74.3921 126.4C73.0053 124.614 62.2949 123.685 52.0203 123.685Z" fill="url(#paint25_linear)"/>
<path d="M26.9434 120.597V125.648C26.9434 127.28 37.0799 128.603 49.5841 128.603C62.0883 128.603 72.2253 127.28 72.2253 125.648V120.597H26.9434Z" fill="url(#paint26_linear)"/>
<path d="M72.2253 120.597C72.2253 122.229 62.0883 123.552 49.5841 123.552C37.0799 123.552 26.9434 122.229 26.9434 120.597C26.9434 118.965 37.0799 117.642 49.5841 117.642C62.0883 117.642 72.2253 118.965 72.2253 120.597Z" fill="url(#paint27_linear)"/>
<path d="M49.5853 123.756C38.5116 123.756 26.9316 122.692 26.9316 120.64C26.9316 120.527 26.9714 120.329 27.0836 120.329C27.1958 120.329 27.1474 120.484 27.1474 120.597C27.1474 121.898 36.3625 123.348 49.5853 123.348C62.8081 123.348 72.0238 121.898 72.0238 120.597C72.0238 120.484 72.0424 120.379 72.1546 120.379C72.2668 120.379 72.24 120.529 72.24 120.642C72.239 122.694 60.6595 123.756 49.5853 123.756Z" fill="url(#paint28_linear)"/>
<path d="M47.4463 120.762C47.6687 120.607 47.905 120.454 48.1581 120.304C48.4653 120.13 48.7918 119.993 49.1308 119.896C49.6193 119.756 50.1185 119.657 50.6231 119.599C51.2204 119.522 51.9654 119.482 52.859 119.478C53.734 119.473 54.5553 119.501 55.323 119.562C56.0032 119.61 56.6799 119.7 57.3493 119.832C57.931 119.951 58.4052 120.099 58.7721 120.276C59.139 120.452 59.3557 120.654 59.4222 120.882L61.9715 120.908C62.1356 120.906 62.2994 120.922 62.4605 120.953C62.6043 120.982 62.6719 121.019 62.6719 121.064V121.275L59.3948 121.243C59.2798 121.5 58.9869 121.737 58.5161 121.953C58.0454 122.169 57.4463 122.355 56.7189 122.51L55.5253 122.343C55.4356 122.331 55.3473 122.31 55.2616 122.281C55.1931 122.256 55.1595 122.228 55.1595 122.198C55.1595 122.158 55.2516 122.112 55.4361 122.059C55.6207 122.007 55.8292 121.943 56.0593 121.867C56.2924 121.789 56.5208 121.699 56.7434 121.595C56.9658 121.49 57.1144 121.365 57.1921 121.22L49.4592 121.143C49.2398 121.303 49.0118 121.451 48.7761 121.586C48.523 121.731 48.1893 121.862 47.7727 121.978C47.2617 122.111 46.7413 122.206 46.2162 122.261C45.593 122.333 44.8125 122.372 43.8672 122.377C43.1577 122.38 42.4679 122.353 41.7915 122.296C41.1863 122.248 40.5847 122.162 39.9904 122.037C39.466 121.923 39.0346 121.781 38.6961 121.612C38.3606 121.443 38.1726 121.249 38.1338 121.029L36.0351 121.007C35.8687 121.008 35.7026 120.994 35.5389 120.964C35.3951 120.936 35.3203 120.898 35.3203 120.851V120.64L38.1899 120.668C38.3169 120.445 38.5768 120.251 38.9742 120.086C39.4464 119.898 39.9336 119.751 40.4305 119.646L41.3893 119.778C41.6812 119.82 41.8265 119.868 41.8265 119.923C41.8265 119.953 41.7675 119.99 41.6467 120.034C41.5259 120.078 41.3816 120.13 41.2153 120.193C41.0508 120.254 40.8906 120.327 40.7359 120.41C40.5998 120.477 40.4803 120.573 40.3859 120.692L47.4463 120.762ZM40.3672 121.051C40.4248 121.189 40.5532 121.308 40.7507 121.409C40.9823 121.522 41.2273 121.605 41.4799 121.656C41.8038 121.726 42.1319 121.775 42.4621 121.801C42.8274 121.831 43.2093 121.845 43.6079 121.843C44.014 121.844 44.4199 121.824 44.824 121.783C45.1307 121.751 45.4349 121.7 45.7349 121.628C45.9689 121.572 46.1978 121.496 46.419 121.401C46.6003 121.321 46.7752 121.227 46.942 121.12L40.3672 121.051ZM57.2074 120.862C57.1499 120.722 57.0094 120.599 56.7908 120.493C56.5227 120.372 56.2413 120.282 55.9524 120.227C55.5599 120.148 55.1628 120.094 54.7635 120.066C54.3123 120.032 53.8142 120.016 53.2693 120.018C52.8512 120.017 52.4334 120.038 52.0176 120.083C51.7105 120.117 51.4061 120.172 51.1068 120.249C50.8813 120.306 50.6624 120.387 50.4534 120.49C50.2804 120.579 50.1129 120.678 49.952 120.787L57.2074 120.862Z" fill="#FCB048"/>
<path d="M49.5887 117.961C39.4934 117.961 28.982 118.854 27.3008 120.584C27.3661 120.644 27.4276 120.708 27.4849 120.777C28.9019 119.576 37.5811 118.366 49.5887 118.366C61.9045 118.366 70.7227 119.638 71.7912 120.869C71.8435 120.801 71.9 120.736 71.9604 120.676C70.5717 118.888 59.8633 117.961 49.5887 117.961Z" fill="url(#paint29_linear)"/>
<path d="M20.6504 115.292V120.343C20.6504 121.975 30.7869 123.298 43.2911 123.298C55.7953 123.298 65.9318 121.975 65.9318 120.343V115.292H20.6504Z" fill="url(#paint30_linear)"/>
<path d="M43.2911 118.247C55.7952 118.247 65.9318 116.924 65.9318 115.292C65.9318 113.66 55.7952 112.337 43.2911 112.337C30.787 112.337 20.6504 113.66 20.6504 115.292C20.6504 116.924 30.787 118.247 43.2911 118.247Z" fill="url(#paint31_linear)"/>
<path d="M43.2909 118.451C32.2171 118.451 20.6367 117.386 20.6367 115.335C20.6367 115.222 20.677 115.024 20.7887 115.024C20.9004 115.024 20.8529 115.179 20.8529 115.292C20.8529 116.593 30.0676 118.043 43.2909 118.043C56.5141 118.043 65.7288 116.593 65.7288 115.292C65.7288 115.179 65.748 115.073 65.8602 115.073C65.9723 115.073 65.945 115.224 65.945 115.336C65.945 117.388 54.3651 118.451 43.2909 118.451Z" fill="url(#paint32_linear)"/>
<path d="M41.1524 115.457C41.3742 115.302 41.6113 115.149 41.8638 114.999C42.1709 114.825 42.4974 114.688 42.8364 114.591C43.3252 114.451 43.8245 114.352 44.3292 114.294C44.9261 114.217 45.6715 114.177 46.5646 114.173C47.4396 114.168 48.2611 114.196 49.0291 114.256C49.7094 114.305 50.3861 114.395 51.0554 114.526C51.6371 114.646 52.1112 114.794 52.4778 114.97C52.8443 115.146 53.0612 115.348 53.1283 115.577L55.6776 115.602C55.8416 115.602 56.0052 115.618 56.1661 115.65C56.3099 115.679 56.3775 115.716 56.378 115.761V115.973L53.1005 115.941C52.9857 116.198 52.6928 116.434 52.2218 116.65C51.7507 116.866 51.1526 117.051 50.4274 117.205L49.2343 117.039C49.1446 117.026 49.0563 117.005 48.9706 116.976C48.9016 116.95 48.8685 116.923 48.868 116.893C48.868 116.852 48.9601 116.806 49.1451 116.755C49.3301 116.703 49.5382 116.637 49.7683 116.562C50.0012 116.485 50.2295 116.394 50.4519 116.29C50.6743 116.185 50.8234 116.06 50.9006 115.915L43.1653 115.838C42.9459 115.998 42.7178 116.146 42.4822 116.281C42.2291 116.426 41.8954 116.557 41.4784 116.673C40.9673 116.807 40.447 116.901 39.9218 116.956C39.2986 117.028 38.5187 117.067 37.5728 117.071C36.8638 117.075 36.1735 117.048 35.4976 116.99C34.8925 116.943 34.2911 116.856 33.697 116.731C33.1721 116.617 32.7426 116.475 32.4051 116.306C32.0676 116.136 31.8816 115.943 31.8423 115.723L29.7436 115.702C29.5774 115.702 29.4115 115.687 29.2479 115.658C29.1041 115.629 29.0293 115.592 29.0293 115.545V115.334L31.8989 115.362C32.0259 115.139 32.2857 114.945 32.6836 114.78C33.1557 114.592 33.6428 114.445 34.1395 114.339L35.0983 114.472C35.3902 114.513 35.535 114.562 35.5355 114.617C35.5355 114.647 35.4765 114.684 35.3557 114.729C35.2349 114.773 35.0906 114.825 34.9243 114.887C34.7599 114.949 34.5997 115.021 34.4449 115.104C34.309 115.171 34.1897 115.267 34.0954 115.386L41.1524 115.457ZM34.0729 115.746C34.1304 115.885 34.2593 116.004 34.4564 116.104C34.6881 116.217 34.9331 116.3 35.1855 116.351C35.5095 116.422 35.8378 116.47 36.1682 116.496C36.5335 116.526 36.9153 116.541 37.3135 116.539C37.7196 116.54 38.1256 116.519 38.5297 116.478C38.8363 116.447 39.1406 116.395 39.4405 116.324C39.6745 116.267 39.9033 116.191 40.1246 116.096C40.3057 116.016 40.4804 115.922 40.6471 115.815L34.0729 115.746ZM50.9135 115.557C50.8555 115.417 50.7151 115.294 50.4965 115.189C50.2283 115.067 49.9469 114.978 49.658 114.922C49.2656 114.843 48.8685 114.79 48.4692 114.762C48.0186 114.727 47.5205 114.711 46.9749 114.714C46.5569 114.712 46.139 114.734 45.7233 114.779C45.4161 114.812 45.1118 114.868 44.8125 114.945C44.587 115.002 44.3682 115.083 44.1595 115.186C43.9863 115.274 43.8188 115.374 43.6581 115.483L50.9135 115.557Z" fill="#FCB048"/>
<path d="M43.2932 112.657C33.1984 112.657 22.687 113.551 21.0059 115.281C21.0713 115.341 21.1326 115.405 21.1895 115.473C22.6065 114.273 31.2862 113.063 43.2932 113.063C55.609 113.063 64.4277 114.335 65.4958 115.565C65.5483 115.497 65.6048 115.433 65.665 115.372C64.2762 113.583 53.5678 112.657 43.2932 112.657Z" fill="url(#paint33_linear)"/>
<path d="M26.082 110.002V115.053C26.082 116.685 36.2186 118.008 48.7227 118.008C61.2269 118.008 71.3634 116.685 71.3634 115.053V110.002H26.082Z" fill="url(#paint34_linear)"/>
<path d="M48.7227 112.957C61.2269 112.957 71.3634 111.634 71.3634 110.002C71.3634 108.37 61.2269 107.047 48.7227 107.047C36.2186 107.047 26.082 108.37 26.082 110.002C26.082 111.634 36.2186 112.957 48.7227 112.957Z" fill="url(#paint35_linear)"/>
<path d="M48.7225 113.161C37.6488 113.161 26.0684 112.097 26.0684 110.045C26.0684 109.933 26.1086 109.735 26.2203 109.735C26.332 109.735 26.2846 109.889 26.2846 110.002C26.2846 111.304 35.4992 112.753 48.7225 112.753C61.9457 112.753 71.1604 111.303 71.1604 110.002C71.1604 109.889 71.1796 109.784 71.2918 109.784C71.4039 109.784 71.3766 109.934 71.3766 110.047C71.3761 112.099 59.7967 113.161 48.7225 113.161Z" fill="url(#paint36_linear)"/>
<path d="M46.582 110.166C46.8039 110.012 47.0403 109.859 47.2934 109.709C47.6005 109.535 47.927 109.398 48.266 109.301C48.7547 109.161 49.254 109.062 49.7588 109.004C50.3557 108.928 51.1011 108.887 51.9942 108.883C52.8692 108.879 53.6906 108.907 54.4582 108.967C55.1386 109.015 55.8155 109.105 56.485 109.236C57.0667 109.356 57.5408 109.504 57.9074 109.68C58.2739 109.857 58.4908 110.059 58.5579 110.286L61.1072 110.312C61.2712 110.312 61.4349 110.329 61.5957 110.361C61.7395 110.39 61.8071 110.427 61.8076 110.472V110.682L58.5301 110.651C58.415 110.908 58.1221 111.145 57.6514 111.36C57.1806 111.576 56.5816 111.762 55.8542 111.918L54.6605 111.751C54.5709 111.739 54.4828 111.718 54.3973 111.688C54.3283 111.663 54.2952 111.636 54.2947 111.606C54.2947 111.565 54.3868 111.519 54.5718 111.467C54.7569 111.415 54.9644 111.35 55.195 111.274C55.4281 111.197 55.6563 111.106 55.8786 111.001C56.1011 110.897 56.2501 110.772 56.3273 110.627L48.592 110.55C48.3724 110.71 48.1442 110.858 47.9084 110.993C47.6558 111.138 47.3221 111.269 46.9051 111.385C46.3941 111.519 45.8737 111.613 45.3485 111.668C44.7253 111.741 43.9454 111.779 42.9995 111.784C42.2905 111.787 41.6002 111.76 40.9243 111.703C40.3191 111.655 39.7175 111.569 39.1233 111.445C38.5983 111.33 38.1688 111.188 37.8289 111.019C37.4891 110.85 37.3054 110.656 37.2666 110.436L35.1679 110.415C35.0017 110.415 34.8358 110.4 34.6722 110.371C34.5284 110.342 34.4536 110.305 34.4531 110.258V110.047L37.3227 110.075C37.4497 109.852 37.7096 109.658 38.1075 109.493C38.5795 109.305 39.0665 109.158 39.5633 109.053L40.5245 109.185C40.8164 109.227 40.9612 109.275 40.9617 109.33C40.9617 109.36 40.9027 109.397 40.7819 109.441C40.6611 109.486 40.5168 109.538 40.3505 109.6C40.1861 109.661 40.0259 109.734 39.8711 109.817C39.7353 109.883 39.6159 109.98 39.5216 110.098L46.582 110.166ZM39.5025 110.456C39.56 110.594 39.6889 110.713 39.886 110.813C40.1175 110.927 40.3626 111.01 40.6151 111.061C40.9391 111.131 41.2674 111.18 41.5978 111.206C41.9631 111.236 42.3449 111.251 42.7431 111.248C43.1492 111.249 43.5552 111.229 43.9593 111.188C44.2659 111.156 44.5702 111.105 44.8701 111.033C45.1042 110.977 45.3332 110.901 45.5547 110.806C45.7358 110.726 45.9105 110.632 46.0772 110.525L39.5025 110.456ZM56.3427 110.267C56.2851 110.127 56.1447 110.004 55.9261 109.898C55.658 109.777 55.3766 109.687 55.0876 109.632C54.6953 109.553 54.2981 109.499 53.8988 109.472C53.4482 109.436 52.9501 109.42 52.4045 109.423C51.9865 109.422 51.5686 109.444 51.1529 109.488C50.8457 109.522 50.5413 109.578 50.242 109.655C50.0166 109.712 49.7977 109.793 49.5891 109.896C49.4159 109.984 49.2484 110.083 49.0877 110.193L56.3427 110.267Z" fill="#FCB048"/>
<path d="M48.7249 107.367C38.6301 107.367 28.1187 108.26 26.4375 109.99C26.5026 110.05 26.564 110.114 26.6211 110.182C28.0382 108.982 36.7178 107.772 48.7249 107.772C61.0407 107.772 69.8594 109.044 70.9275 110.274C70.98 110.206 71.0366 110.142 71.0967 110.081C69.708 108.293 58.9995 107.367 48.7249 107.367Z" fill="url(#paint37_linear)"/>
<path d="M23.2559 104.697V109.747C23.2559 111.38 33.3924 112.703 45.8966 112.703C58.4008 112.703 68.5378 111.38 68.5378 109.747V104.697H23.2559Z" fill="url(#paint38_linear)"/>
<path d="M45.8966 107.652C58.4007 107.652 68.5373 106.329 68.5373 104.697C68.5373 103.065 58.4007 101.742 45.8966 101.742C33.3925 101.742 23.2559 103.065 23.2559 104.697C23.2559 106.329 33.3925 107.652 45.8966 107.652Z" fill="url(#paint39_linear)"/>
<path d="M45.8978 107.856C34.8241 107.856 23.2441 106.792 23.2441 104.74C23.2441 104.627 23.2839 104.429 23.3961 104.429C23.5083 104.429 23.4599 104.584 23.4599 104.697C23.4599 105.999 32.675 107.448 45.8978 107.448C59.1206 107.448 68.3357 105.998 68.3357 104.697C68.3357 104.584 68.3549 104.479 68.4671 104.479C68.5793 104.479 68.5519 104.629 68.5519 104.741C68.5519 106.793 56.972 107.856 45.8978 107.856Z" fill="url(#paint40_linear)"/>
<path d="M43.7573 104.861C43.9797 104.707 44.2161 104.554 44.4692 104.404C44.7763 104.23 45.1028 104.093 45.4418 103.996C45.9304 103.856 46.4295 103.757 46.9342 103.699C47.5315 103.622 48.2764 103.582 49.1695 103.577C50.0449 103.573 50.8664 103.601 51.634 103.661C52.3143 103.71 52.991 103.8 53.6604 103.931C54.2417 104.051 54.716 104.199 55.0832 104.375C55.4504 104.552 55.667 104.754 55.7332 104.981L58.2825 105.008C58.4466 105.007 58.6104 105.022 58.7715 105.053C58.9153 105.082 58.9829 105.119 58.9829 105.164V105.375L55.7059 105.343C55.5908 105.6 55.2979 105.837 54.8272 106.053C54.3564 106.269 53.7573 106.455 53.03 106.611L51.8363 106.443C51.7466 106.431 51.6583 106.41 51.5726 106.381C51.5036 106.356 51.4705 106.328 51.4705 106.298C51.4705 106.258 51.5626 106.211 51.7471 106.159C51.9317 106.107 52.1402 106.043 52.3703 105.966C52.6034 105.889 52.8318 105.798 53.0544 105.695C53.2768 105.59 53.4255 105.465 53.5031 105.32L45.7673 105.243C45.548 105.403 45.3199 105.551 45.0842 105.686C44.8311 105.831 44.4975 105.962 44.0809 106.078C43.5696 106.212 43.0492 106.306 42.5238 106.361C41.9006 106.433 41.1207 106.472 40.1749 106.477C39.4659 106.48 38.776 106.453 38.0996 106.396C37.4944 106.348 36.8928 106.262 36.2986 106.137C35.7742 106.022 35.3435 105.881 35.0067 105.712C34.6711 105.543 34.4832 105.349 34.4439 105.129L32.3451 105.107C32.1789 105.108 32.013 105.093 31.8495 105.063C31.7056 105.035 31.6309 104.998 31.6309 104.951V104.74L34.5004 104.767C34.627 104.545 34.8868 104.351 35.2847 104.189C35.7568 104.001 36.244 103.853 36.7411 103.748L37.6998 103.881C37.9918 103.922 38.1365 103.97 38.137 104.025C38.137 104.055 38.0781 104.092 37.9573 104.136C37.8365 104.181 37.6922 104.233 37.5258 104.295C37.3613 104.357 37.2012 104.429 37.0464 104.512C36.9105 104.579 36.7911 104.675 36.697 104.794L43.7573 104.861ZM36.6783 105.151C36.7358 105.289 36.8643 105.408 37.0618 105.508C37.2933 105.622 37.5384 105.705 37.7909 105.756C38.1148 105.826 38.4429 105.875 38.7732 105.901C39.1385 105.931 39.5204 105.945 39.9189 105.943C40.325 105.944 40.7309 105.924 41.1351 105.883C41.4417 105.851 41.746 105.799 42.0459 105.728C42.2799 105.672 42.5088 105.596 42.73 105.501C42.9113 105.421 43.0862 105.327 43.253 105.22L36.6783 105.151ZM53.5185 104.962C53.4609 104.821 53.3205 104.698 53.1014 104.593C52.8332 104.472 52.5518 104.382 52.263 104.327C51.8707 104.248 51.4737 104.194 51.0746 104.166C50.6233 104.131 50.1252 104.115 49.5803 104.118C49.1622 104.117 48.7444 104.138 48.3287 104.183C48.0215 104.216 47.7171 104.272 47.4178 104.349C47.1922 104.406 46.9732 104.487 46.7645 104.59C46.5913 104.679 46.4238 104.778 46.263 104.887L53.5185 104.962Z" fill="#FCB048"/>
<path d="M45.9012 102.062C35.8059 102.062 25.2945 102.955 23.6133 104.685C23.6785 104.745 23.7399 104.809 23.7969 104.877C25.2144 103.676 33.8936 102.467 45.9012 102.467C58.2165 102.467 67.0352 103.739 68.1032 104.969C68.1558 104.901 68.2125 104.837 68.2729 104.776C66.8842 102.988 56.1753 102.062 45.9012 102.062Z" fill="url(#paint41_linear)"/>
<path d="M74.9774 108.257L70.8849 111.185C69.5628 112.131 74.3662 121.206 81.6139 131.454C88.8617 141.701 95.8094 149.245 97.1315 148.297L101.224 145.369L74.9774 108.257Z" fill="url(#paint42_linear)"/>
<path d="M101.225 145.369C99.9028 146.315 92.9556 138.774 85.7078 128.526C78.4601 118.278 73.6562 109.204 74.9788 108.257C76.3014 107.311 83.2486 114.853 90.4964 125.1C97.7441 135.348 102.548 144.423 101.225 145.369Z" fill="url(#paint43_linear)"/>
<path d="M85.5429 128.644C79.1239 119.568 73.274 109.461 74.9365 108.272C75.0276 108.206 75.2112 108.124 75.2764 108.216C75.3416 108.308 75.1877 108.358 75.0966 108.424C74.042 109.178 78.2088 117.571 85.8731 128.408C93.5375 139.245 100.054 145.958 101.108 145.203C101.199 145.138 101.296 145.092 101.361 145.184C101.426 145.276 101.288 145.341 101.197 145.406C99.5346 146.595 91.9618 137.72 85.5429 128.644Z" fill="url(#paint44_linear)"/>
<path d="M86.727 125.155C86.9811 125.247 87.2414 125.353 87.5103 125.473C87.8292 125.624 88.1293 125.812 88.4044 126.034C88.8008 126.353 89.1706 126.705 89.5098 127.085C89.9182 127.53 90.3831 128.117 90.9043 128.847C91.4157 129.562 91.8692 130.251 92.2648 130.915C92.6197 131.501 92.9389 132.108 93.2207 132.732C93.4604 133.279 93.6154 133.753 93.6857 134.156C93.756 134.558 93.7178 134.853 93.5711 135.04L95.028 137.144C95.1237 137.278 95.2062 137.421 95.2744 137.572C95.3333 137.705 95.3434 137.783 95.307 137.809L95.1368 137.932L93.2629 135.228C92.9868 135.283 92.6253 135.18 92.1785 134.919C91.7317 134.657 91.234 134.274 90.6853 133.769L90.1287 132.694C90.0864 132.614 90.0522 132.529 90.0266 132.442C90.0069 132.371 90.0098 132.328 90.0343 132.31C90.0669 132.286 90.1579 132.335 90.307 132.455C90.4561 132.574 90.6296 132.709 90.8262 132.855C91.024 133.001 91.23 133.135 91.4432 133.258C91.6565 133.379 91.8439 133.429 92.0069 133.408L87.5856 127.025C87.3284 126.939 87.0763 126.837 86.8306 126.722C86.5659 126.6 86.266 126.401 85.9308 126.127C85.5265 125.786 85.1483 125.414 84.7994 125.016C84.3795 124.547 83.8948 123.928 83.3455 123.159C82.9316 122.58 82.5526 121.998 82.2084 121.411C81.896 120.887 81.617 120.344 81.3733 119.785C81.1624 119.289 81.0277 118.853 80.9692 118.48C80.9121 118.107 80.9601 117.84 81.113 117.681L79.9145 115.948C79.8176 115.812 79.7334 115.666 79.6629 115.514C79.6015 115.379 79.589 115.297 79.6269 115.27L79.7976 115.146L81.4385 117.514C81.6921 117.49 81.9998 117.59 82.3642 117.82C82.7893 118.098 83.1902 118.412 83.5626 118.758L84.0123 119.623C84.1478 119.886 84.193 120.033 84.1479 120.065C84.124 120.083 84.0597 120.056 83.9562 119.982C83.8526 119.909 83.7237 119.822 83.578 119.722C83.433 119.623 83.2817 119.534 83.125 119.455C82.9921 119.382 82.8447 119.34 82.6935 119.332L86.727 125.155ZM82.3905 119.52C82.3114 119.647 82.2899 119.822 82.3215 120.04C82.364 120.295 82.4385 120.544 82.5435 120.781C82.6752 121.087 82.827 121.383 82.9979 121.668C83.1849 121.985 83.3947 122.306 83.6273 122.633C83.862 122.966 84.1136 123.287 84.3809 123.595C84.584 123.827 84.8021 124.046 85.0338 124.25C85.215 124.41 85.4094 124.553 85.6149 124.679C85.7844 124.782 85.9616 124.871 86.145 124.945L82.3905 119.52ZM92.3046 133.213C92.3847 133.084 92.4029 132.898 92.3616 132.658C92.3048 132.367 92.2141 132.085 92.0913 131.816C91.9284 131.448 91.7416 131.092 91.5323 130.749C91.2993 130.359 91.0239 129.941 90.7059 129.495C90.4645 129.152 90.2046 128.822 89.9274 128.507C89.7224 128.275 89.5012 128.058 89.2653 127.858C89.0877 127.706 88.895 127.574 88.6901 127.463C88.5182 127.372 88.3408 127.291 88.1589 127.222L92.3046 133.213Z" fill="#FCB048"/>
<path d="M90.2378 125.289C84.3865 117.016 77.5697 108.919 75.1939 108.543C75.1829 108.632 75.1657 108.72 75.1426 108.806C76.9369 109.272 82.9474 115.685 89.9075 125.526C97.046 135.619 101.125 143.584 100.749 145.172C100.834 145.176 100.919 145.185 101.003 145.199C101.649 143.022 96.1931 133.709 90.2378 125.289Z" fill="url(#paint45_linear)"/>
<path d="M123.138 76.1185C122.94 74.6191 122.83 73.6924 123.406 72.9581C124.695 71.3149 128.698 71.5459 131.028 73.4957C132.754 74.9373 132.137 76.1282 133.728 77.3605C136.016 79.1329 138.111 77.185 141.459 78.4724C144.105 79.4897 147.087 82.1058 147.478 85.6684C147.684 87.5487 147.249 90.4368 145.272 91.8924C142.503 93.9304 138.517 91.8297 137.913 93.0934C137.276 94.426 141.739 96.7032 141.275 99.3825C140.945 101.286 138.3 102.399 136.781 102.751C133.137 103.594 128.745 101.73 126.483 98.5137C124.023 95.0162 126.616 93.5201 124.41 84.8613C124.173 83.9375 123.829 81.3315 123.138 76.1185Z" fill="url(#paint46_linear)"/>
<path d="M119.17 147.935C119.17 147.935 119.488 148.647 119.559 149.282C119.586 149.528 119.516 149.775 119.362 149.969C119.209 150.162 118.985 150.287 118.741 150.315C117.495 150.46 115.244 150.691 113.885 150.668C112.159 150.639 116.101 148.535 117.055 148.039C117.187 147.971 117.333 147.935 117.482 147.935H119.17Z" fill="url(#paint47_linear)"/>
<path d="M118.658 145.615C118.841 145.693 118.921 148.18 118.921 148.18C118.921 148.18 118.116 148.659 117.585 148.349L116.527 145.25L118.658 145.615Z" fill="url(#paint48_linear)"/>
<path d="M141.233 145.003C141.482 145.145 141.672 145.372 141.771 145.642C141.869 145.913 141.868 146.209 141.769 146.48C141.451 147.347 140.938 148.572 140.387 149.216C139.792 149.911 138.741 149.916 138.083 149.836C138.019 149.828 137.958 149.804 137.907 149.766C137.855 149.727 137.814 149.676 137.788 149.617C137.762 149.559 137.752 149.494 137.757 149.43C137.763 149.365 137.786 149.304 137.822 149.251C138.143 148.784 138.611 148.078 138.829 147.634C139.181 146.923 140.009 144.304 140.009 144.304L141.233 145.003Z" fill="url(#paint49_linear)"/>
<path d="M139.134 142.514L140.441 144.596C140.499 144.689 140.524 144.799 140.51 144.908C140.496 145.018 140.445 145.118 140.365 145.194C140.277 145.276 140.16 145.322 140.04 145.321C139.919 145.32 139.803 145.273 139.717 145.188L137.678 143.208L139.134 142.514Z" fill="url(#paint50_linear)"/>
<path d="M115.344 102.636C110.69 104.898 111.503 115.461 112.236 124.994C112.802 132.317 114.064 139.569 116.004 146.651L119.568 146.784C120.135 143.719 120.401 140.605 120.36 137.488C120.278 131.375 119.038 127.848 118.578 124.609C117.938 120.099 118.434 113.503 123.726 104.626C119.142 101.67 116.662 101.995 115.344 102.636Z" fill="url(#paint51_linear)"/>
<path style="mix-blend-mode:multiply" opacity="0.3" d="M118.38 135.631C117.164 130.909 115.247 129.382 115.08 124.278C114.91 119.095 116.775 117.222 116.268 112.594C115.915 109.372 114.62 106.716 113.275 104.707C113.799 103.768 114.474 103.058 115.344 102.636C116.663 101.995 119.142 101.672 123.727 104.628C118.435 113.505 117.938 120.101 118.578 124.61C119.038 127.85 120.279 131.377 120.361 137.489C120.401 140.606 120.136 143.719 119.568 146.784L118.75 146.753C119.518 142.038 119.084 138.363 118.38 135.631Z" fill="url(#paint52_linear)"/>
<path d="M128.017 102.966C128.22 105.51 128.483 108.679 128.809 112.327C129.557 120.707 129.788 122.115 130.525 124.011C131.945 127.661 133.321 128.174 135.872 132.576C137.76 135.841 139.204 139.346 140.162 142.999L137.918 144.857C133 140.545 128.806 135.463 125.497 129.808C119.57 119.661 117.915 110.05 117.391 104.429L128.017 102.966Z" fill="url(#paint53_linear)"/>
<path d="M127.904 82.274C129.489 83.557 129.489 85.9716 129.489 88.4257C129.489 91.0591 128.949 92.3469 128.607 94.2832C128.424 95.3271 127.519 100.985 129.824 105.71C132.029 110.226 135.267 109.989 136.747 114.715C137.466 117.004 137.624 119.995 136.51 120.572C135.264 121.22 133.711 118.162 129.616 116.764C126.01 115.533 125.713 117.394 121.733 116.335C117.579 115.231 117.328 113.052 111.502 111.022C110.328 110.613 109.873 110.54 109.496 110.014C107.998 107.914 112.103 104.656 114.02 98.1919C115.883 91.9101 113.784 88.9898 116.852 85.3993C118.404 83.5826 120.26 82.7866 120.93 82.5064C122.013 82.0576 125.729 80.5118 127.904 82.274Z" fill="url(#paint54_linear)"/>
<g style="mix-blend-mode:multiply" opacity="0.3">
<path style="mix-blend-mode:multiply" opacity="0.3" d="M114.021 98.1929C115.884 91.911 113.785 88.9907 116.853 85.4002C118.405 83.5835 120.261 82.7874 120.932 82.5073C121.754 82.165 124.099 81.1911 126.132 81.5175C125.306 82.5975 124.423 83.8467 123.539 85.2642C121.005 89.3311 119.737 91.3643 119.527 93.8729C119.087 99.1345 123.039 100.941 121.934 105.44C121.167 108.565 118.978 108.851 118.591 111.226C118.397 112.421 118.699 113.909 120.068 115.758C117.373 114.568 116.438 112.742 111.504 111.023C110.329 110.614 109.874 110.541 109.497 110.014C108.001 107.914 112.104 104.656 114.021 98.1929Z" fill="url(#paint55_linear)"/>
</g>
<path d="M124.587 77.4608C124.587 77.4608 124.971 80.5586 126.109 81.2697C127.247 81.9809 126.622 82.681 126.825 82.9327C127.027 83.1843 123.469 84.731 119.878 82.909L118.381 81.8483C119.563 81.8531 121.079 81.7683 121.679 81.424C122.088 81.1902 122.747 80.7326 123.351 79.8691L123.338 78.1541L124.587 77.4608Z" fill="url(#paint56_linear)"/>
<path d="M124.941 78.8137C124.941 78.8137 123.575 80.0413 122.05 79.0755C120.685 78.2115 122.394 74.5549 123.663 74.3707C124.086 74.3095 124.792 74.5298 125.208 74.9363C125.501 75.2217 126.163 76.5466 125.374 77.6995C125.771 77.6715 126.079 77.8441 126.122 78.0461C126.176 78.305 125.79 78.5586 125.703 78.616C125.475 78.7601 125.209 78.8292 124.941 78.8137Z" fill="url(#paint57_linear)"/>
<path d="M104.925 73.6572C104.906 73.5631 104.748 72.5482 104.916 71.7561C105.084 70.9639 105.308 69.7961 104.839 70.6471C104.37 71.4981 104.029 72.0453 103.264 71.3004C102.499 70.5555 102.633 69.7248 102.41 69.7826C102.187 69.8405 101.563 71.259 102.41 72.1635C103.257 73.068 104.24 74.0101 104.24 74.0101L104.925 73.6572Z" fill="url(#paint58_linear)"/>
<path d="M127.55 83.5164C127.694 85.2762 125.722 86.7207 125.338 87.0018C121.651 89.7018 113.752 87.7858 108.827 83.2474C105.472 80.1525 104.046 76.347 103.41 73.7646L105.251 73.1403C107.845 77.5605 110.605 79.1564 112.571 79.8174C117.796 81.5744 123.483 78.7664 126.48 81.5869C126.763 81.8526 127.469 82.5357 127.55 83.5164Z" fill="url(#paint59_linear)"/>
</g>
<defs>
<linearGradient id="paint0_linear" x1="93.8003" y1="68.9192" x2="201.953" y2="118.652" gradientUnits="userSpaceOnUse">
<stop stop-color="#FF9797"/>
<stop offset="1" stop-color="#F67171"/>
</linearGradient>
<linearGradient id="paint1_linear" x1="49.8455" y1="94.4562" x2="149.203" y2="220.314" gradientUnits="userSpaceOnUse">
<stop stop-color="#FF9797"/>
<stop offset="1" stop-color="#F67171"/>
</linearGradient>
<linearGradient id="paint2_linear" x1="33.1321" y1="96.2818" x2="123.624" y2="96.2818" gradientUnits="userSpaceOnUse">
<stop stop-color="#FF2F2F"/>
<stop offset="1" stop-color="#FF7070"/>
</linearGradient>
<linearGradient id="paint3_linear" x1="19771.4" y1="147688" x2="76579.8" y2="147688" gradientUnits="userSpaceOnUse">
<stop stop-color="#6165D7"/>
<stop offset="1" stop-color="#AA80F9"/>
</linearGradient>
<linearGradient id="paint4_linear" x1="43102.8" y1="6488.8" x2="40243.5" y2="23267.6" gradientUnits="userSpaceOnUse">
<stop stop-color="#FF4747"/>
<stop offset="1" stop-color="#FF8181"/>
</linearGradient>
<linearGradient id="paint5_linear" x1="43102.8" y1="8138.69" x2="40243.3" y2="24918.2" gradientUnits="userSpaceOnUse">
<stop stop-color="#D76161"/>
<stop offset="1" stop-color="#F98080"/>
</linearGradient>
<linearGradient id="paint6_linear" x1="35202.8" y1="12620.3" x2="74376.7" y2="12620.3" gradientUnits="userSpaceOnUse">
<stop stop-color="#DF1E1E"/>
<stop offset="1" stop-color="#F98080"/>
</linearGradient>
<linearGradient id="paint7_linear" x1="60.834" y1="53.2074" x2="88.5671" y2="53.2074" gradientUnits="userSpaceOnUse">
<stop stop-color="#8C4444"/>
<stop offset="1" stop-color="#641E1E"/>
</linearGradient>
<linearGradient id="paint8_linear" x1="31411.8" y1="11153.7" x2="62589.6" y2="11153.7" gradientUnits="userSpaceOnUse">
<stop stop-color="#6165D7"/>
<stop offset="1" stop-color="#AA80F9"/>
</linearGradient>
<linearGradient id="paint9_linear" x1="74.6897" y1="72.6447" x2="88.6268" y2="124.579" gradientUnits="userSpaceOnUse">
<stop stop-color="#F2EBEB" stop-opacity="0.5"/>
<stop offset="1" stop-color="white"/>
</linearGradient>
<linearGradient id="paint10_linear" x1="23.0724" y1="146.224" x2="75.1663" y2="146.224" gradientUnits="userSpaceOnUse">
<stop stop-color="#FCB148"/>
<stop offset="0.05" stop-color="#FDBA46"/>
<stop offset="0.14" stop-color="#FFC244"/>
<stop offset="0.32" stop-color="#FFC444"/>
<stop offset="0.48" stop-color="#FDB946"/>
<stop offset="0.78" stop-color="#F99C4D"/>
<stop offset="0.87" stop-color="#F8924F"/>
<stop offset="1" stop-color="#F8924F"/>
</linearGradient>
<linearGradient id="paint11_linear" x1="49.3588" y1="140.322" x2="52.1364" y2="163.441" gradientUnits="userSpaceOnUse">
<stop stop-color="#FFDB44"/>
<stop offset="1" stop-color="#FEEF06"/>
</linearGradient>
<linearGradient id="paint12_linear" x1="32390.4" y1="8833.08" x2="32395" y2="9344.94" gradientUnits="userSpaceOnUse">
<stop stop-color="#FFDB44"/>
<stop offset="1" stop-color="#FEEF06"/>
</linearGradient>
<linearGradient id="paint13_linear" x1="50.0331" y1="145.647" x2="49.1831" y2="138.572" gradientUnits="userSpaceOnUse">
<stop stop-color="#F36F56"/>
<stop offset="0.31" stop-color="#F99C4C"/>
<stop offset="0.55" stop-color="#FDB946"/>
<stop offset="0.68" stop-color="#FFC444"/>
<stop offset="0.8" stop-color="#FFC244"/>
<stop offset="0.87" stop-color="#FEBA46"/>
<stop offset="0.92" stop-color="#FCAD49"/>
<stop offset="0.96" stop-color="#F99A4D"/>
<stop offset="1" stop-color="#F57E53"/>
</linearGradient>
<linearGradient id="paint14_linear" x1="1701.04" y1="20713.5" x2="50907.5" y2="20713.5" gradientUnits="userSpaceOnUse">
<stop stop-color="#FCB148"/>
<stop offset="0.05" stop-color="#FDBA46"/>
<stop offset="0.14" stop-color="#FFC244"/>
<stop offset="0.32" stop-color="#FFC444"/>
<stop offset="0.48" stop-color="#FDB946"/>
<stop offset="0.78" stop-color="#F99C4D"/>
<stop offset="0.87" stop-color="#F8924F"/>
<stop offset="1" stop-color="#F8924F"/>
</linearGradient>
<linearGradient id="paint15_linear" x1="26530.7" y1="14600.4" x2="26575.5" y2="17474.6" gradientUnits="userSpaceOnUse">
<stop stop-color="#FFDB44"/>
<stop offset="1" stop-color="#FEEF06"/>
</linearGradient>
<linearGradient id="paint16_linear" x1="26434.8" y1="8450.77" x2="26439.5" y2="8962.64" gradientUnits="userSpaceOnUse">
<stop stop-color="#FFDB44"/>
<stop offset="1" stop-color="#FEEF06"/>
</linearGradient>
<linearGradient id="paint17_linear" x1="10680.7" y1="2052.36" x2="10684.1" y2="2485.2" gradientUnits="userSpaceOnUse">
<stop stop-color="#F36F56"/>
<stop offset="0.31" stop-color="#F99C4C"/>
<stop offset="0.55" stop-color="#FDB946"/>
<stop offset="0.68" stop-color="#FFC444"/>
<stop offset="0.8" stop-color="#FFC244"/>
<stop offset="0.87" stop-color="#FEBA46"/>
<stop offset="0.92" stop-color="#FCAD49"/>
<stop offset="0.96" stop-color="#F99A4D"/>
<stop offset="1" stop-color="#F57E53"/>
</linearGradient>
<linearGradient id="paint18_linear" x1="6836.41" y1="19830" x2="56042.8" y2="19830" gradientUnits="userSpaceOnUse">
<stop stop-color="#FCB148"/>
<stop offset="0.05" stop-color="#FDBA46"/>
<stop offset="0.14" stop-color="#FFC244"/>
<stop offset="0.32" stop-color="#FFC444"/>
<stop offset="0.48" stop-color="#FDB946"/>
<stop offset="0.78" stop-color="#F99C4D"/>
<stop offset="0.87" stop-color="#F8924F"/>
<stop offset="1" stop-color="#F8924F"/>
</linearGradient>
<linearGradient id="paint19_linear" x1="31665.6" y1="13946.7" x2="31710.4" y2="16820.9" gradientUnits="userSpaceOnUse">
<stop stop-color="#FFDB44"/>
<stop offset="1" stop-color="#FEEF06"/>
</linearGradient>
<linearGradient id="paint20_linear" x1="31573.5" y1="8069.57" x2="31578.2" y2="8581.43" gradientUnits="userSpaceOnUse">
<stop stop-color="#FFDB44"/>
<stop offset="1" stop-color="#FEEF06"/>
</linearGradient>
<linearGradient id="paint21_linear" x1="5626.7" y1="2366.09" x2="5630.07" y2="2798.93" gradientUnits="userSpaceOnUse">
<stop stop-color="#F36F56"/>
<stop offset="0.31" stop-color="#F99C4C"/>
<stop offset="0.55" stop-color="#FDB946"/>
<stop offset="0.68" stop-color="#FFC444"/>
<stop offset="0.8" stop-color="#FFC244"/>
<stop offset="0.87" stop-color="#FEBA46"/>
<stop offset="0.92" stop-color="#FCAD49"/>
<stop offset="0.96" stop-color="#F99A4D"/>
<stop offset="1" stop-color="#F57E53"/>
</linearGradient>
<linearGradient id="paint22_linear" x1="9952.8" y1="18943.7" x2="59159.2" y2="18943.7" gradientUnits="userSpaceOnUse">
<stop stop-color="#FCB148"/>
<stop offset="0.05" stop-color="#FDBA46"/>
<stop offset="0.14" stop-color="#FFC244"/>
<stop offset="0.32" stop-color="#FFC444"/>
<stop offset="0.48" stop-color="#FDB946"/>
<stop offset="0.78" stop-color="#F99C4D"/>
<stop offset="0.87" stop-color="#F8924F"/>
<stop offset="1" stop-color="#F8924F"/>
</linearGradient>
<linearGradient id="paint23_linear" x1="34782" y1="13291.1" x2="34826.8" y2="16165.3" gradientUnits="userSpaceOnUse">
<stop stop-color="#FFDB44"/>
<stop offset="1" stop-color="#FEEF06"/>
</linearGradient>
<linearGradient id="paint24_linear" x1="34691.9" y1="7687.18" x2="34696.5" y2="8199.05" gradientUnits="userSpaceOnUse">
<stop stop-color="#FFDB44"/>
<stop offset="1" stop-color="#FEEF06"/>
</linearGradient>
<linearGradient id="paint25_linear" x1="2559.71" y1="2680.32" x2="2563.07" y2="3113.07" gradientUnits="userSpaceOnUse">
<stop stop-color="#F36F56"/>
<stop offset="0.31" stop-color="#F99C4C"/>
<stop offset="0.55" stop-color="#FDB946"/>
<stop offset="0.68" stop-color="#FFC444"/>
<stop offset="0.8" stop-color="#FFC244"/>
<stop offset="0.87" stop-color="#FEBA46"/>
<stop offset="0.92" stop-color="#FCAD49"/>
<stop offset="0.96" stop-color="#F99A4D"/>
<stop offset="1" stop-color="#F57E53"/>
</linearGradient>
<linearGradient id="paint26_linear" x1="7652.41" y1="17987.6" x2="56859.8" y2="17987.6" gradientUnits="userSpaceOnUse">
<stop stop-color="#FCB148"/>
<stop offset="0.05" stop-color="#FDBA46"/>
<stop offset="0.14" stop-color="#FFC244"/>
<stop offset="0.32" stop-color="#FFC444"/>
<stop offset="0.48" stop-color="#FDB946"/>
<stop offset="0.78" stop-color="#F99C4D"/>
<stop offset="0.87" stop-color="#F8924F"/>
<stop offset="1" stop-color="#F8924F"/>
</linearGradient>
<linearGradient id="paint27_linear" x1="32482.3" y1="12583.8" x2="32527.1" y2="15458" gradientUnits="userSpaceOnUse">
<stop stop-color="#FFDB44"/>
<stop offset="1" stop-color="#FEEF06"/>
</linearGradient>
<linearGradient id="paint28_linear" x1="32390.4" y1="7274.69" x2="32395" y2="7786.55" gradientUnits="userSpaceOnUse">
<stop stop-color="#FFDB44"/>
<stop offset="1" stop-color="#FEEF06"/>
</linearGradient>
<linearGradient id="paint29_linear" x1="4823.75" y1="3020.21" x2="4827.11" y2="3453.05" gradientUnits="userSpaceOnUse">
<stop stop-color="#F36F56"/>
<stop offset="0.31" stop-color="#F99C4C"/>
<stop offset="0.55" stop-color="#FDB946"/>
<stop offset="0.68" stop-color="#FFC444"/>
<stop offset="0.8" stop-color="#FFC244"/>
<stop offset="0.87" stop-color="#FEBA46"/>
<stop offset="0.92" stop-color="#FCAD49"/>
<stop offset="0.96" stop-color="#F99A4D"/>
<stop offset="1" stop-color="#F57E53"/>
</linearGradient>
<linearGradient id="paint30_linear" x1="1701.04" y1="17101.5" x2="50907.5" y2="17101.5" gradientUnits="userSpaceOnUse">
<stop stop-color="#FCB148"/>
<stop offset="0.05" stop-color="#FDBA46"/>
<stop offset="0.14" stop-color="#FFC244"/>
<stop offset="0.32" stop-color="#FFC444"/>
<stop offset="0.48" stop-color="#FDB946"/>
<stop offset="0.78" stop-color="#F99C4D"/>
<stop offset="0.87" stop-color="#F8924F"/>
<stop offset="1" stop-color="#F8924F"/>
</linearGradient>
<linearGradient id="paint31_linear" x1="26530.7" y1="11928.3" x2="26575.5" y2="14802.6" gradientUnits="userSpaceOnUse">
<stop stop-color="#FFDB44"/>
<stop offset="1" stop-color="#FEEF06"/>
</linearGradient>
<linearGradient id="paint32_linear" x1="26434.8" y1="6892.32" x2="26439.4" y2="7404.22" gradientUnits="userSpaceOnUse">
<stop stop-color="#FFDB44"/>
<stop offset="1" stop-color="#FEEF06"/>
</linearGradient>
<linearGradient id="paint33_linear" x1="10680.7" y1="3334.9" x2="10684.1" y2="3767.72" gradientUnits="userSpaceOnUse">
<stop stop-color="#F36F56"/>
<stop offset="0.31" stop-color="#F99C4C"/>
<stop offset="0.55" stop-color="#FDB946"/>
<stop offset="0.68" stop-color="#FFC444"/>
<stop offset="0.8" stop-color="#FFC244"/>
<stop offset="0.87" stop-color="#FEBA46"/>
<stop offset="0.92" stop-color="#FCAD49"/>
<stop offset="0.96" stop-color="#F99A4D"/>
<stop offset="1" stop-color="#F57E53"/>
</linearGradient>
<linearGradient id="paint34_linear" x1="6836.41" y1="16217.6" x2="56042.8" y2="16217.6" gradientUnits="userSpaceOnUse">
<stop stop-color="#FCB148"/>
<stop offset="0.05" stop-color="#FDBA46"/>
<stop offset="0.14" stop-color="#FFC244"/>
<stop offset="0.32" stop-color="#FFC444"/>
<stop offset="0.48" stop-color="#FDB946"/>
<stop offset="0.78" stop-color="#F99C4D"/>
<stop offset="0.87" stop-color="#F8924F"/>
<stop offset="1" stop-color="#F8924F"/>
</linearGradient>
<linearGradient id="paint35_linear" x1="31665.6" y1="11274.6" x2="31710.4" y2="14148.8" gradientUnits="userSpaceOnUse">
<stop stop-color="#FFDB44"/>
<stop offset="1" stop-color="#FEEF06"/>
</linearGradient>
<linearGradient id="paint36_linear" x1="31573.5" y1="6510.93" x2="31578.2" y2="7022.79" gradientUnits="userSpaceOnUse">
<stop stop-color="#FFDB44"/>
<stop offset="1" stop-color="#FEEF06"/>
</linearGradient>
<linearGradient id="paint37_linear" x1="5626.7" y1="3648.01" x2="5630.07" y2="4080.77" gradientUnits="userSpaceOnUse">
<stop stop-color="#F36F56"/>
<stop offset="0.31" stop-color="#F99C4C"/>
<stop offset="0.55" stop-color="#FDB946"/>
<stop offset="0.68" stop-color="#FFC444"/>
<stop offset="0.8" stop-color="#FFC244"/>
<stop offset="0.87" stop-color="#FEBA46"/>
<stop offset="0.92" stop-color="#FCAD49"/>
<stop offset="0.96" stop-color="#F99A4D"/>
<stop offset="1" stop-color="#F57E53"/>
</linearGradient>
<linearGradient id="paint38_linear" x1="4165.19" y1="15330.5" x2="53372.6" y2="15330.5" gradientUnits="userSpaceOnUse">
<stop stop-color="#FCB148"/>
<stop offset="0.05" stop-color="#FDBA46"/>
<stop offset="0.14" stop-color="#FFC244"/>
<stop offset="0.32" stop-color="#FFC444"/>
<stop offset="0.48" stop-color="#FDB946"/>
<stop offset="0.78" stop-color="#F99C4D"/>
<stop offset="0.87" stop-color="#F8924F"/>
<stop offset="1" stop-color="#F8924F"/>
</linearGradient>
<linearGradient id="paint39_linear" x1="28994.8" y1="10618.7" x2="29039.6" y2="13492.8" gradientUnits="userSpaceOnUse">
<stop stop-color="#FFDB44"/>
<stop offset="1" stop-color="#FEEF06"/>
</linearGradient>
<linearGradient id="paint40_linear" x1="28900.7" y1="6128.79" x2="28905.3" y2="6640.64" gradientUnits="userSpaceOnUse">
<stop stop-color="#FFDB44"/>
<stop offset="1" stop-color="#FEEF06"/>
</linearGradient>
<linearGradient id="paint41_linear" x1="8255.73" y1="3962.62" x2="8259.09" y2="4395.39" gradientUnits="userSpaceOnUse">
<stop stop-color="#F36F56"/>
<stop offset="0.31" stop-color="#F99C4C"/>
<stop offset="0.55" stop-color="#FDB946"/>
<stop offset="0.68" stop-color="#FFC444"/>
<stop offset="0.8" stop-color="#FFC244"/>
<stop offset="0.87" stop-color="#FEBA46"/>
<stop offset="0.92" stop-color="#FCAD49"/>
<stop offset="0.96" stop-color="#F99A4D"/>
<stop offset="1" stop-color="#F57E53"/>
</linearGradient>
<linearGradient id="paint42_linear" x1="-27815.5" y1="68654.6" x2="-8408.91" y2="95601.8" gradientUnits="userSpaceOnUse">
<stop stop-color="#FCB148"/>
<stop offset="0.05" stop-color="#FDBA46"/>
<stop offset="0.14" stop-color="#FFC244"/>
<stop offset="0.32" stop-color="#FFC444"/>
<stop offset="0.48" stop-color="#FDB946"/>
<stop offset="0.78" stop-color="#F99C4D"/>
<stop offset="0.87" stop-color="#F8924F"/>
<stop offset="1" stop-color="#F8924F"/>
</linearGradient>
<linearGradient id="paint43_linear" x1="-14946.6" y1="71279.8" x2="-27539.8" y2="83811.1" gradientUnits="userSpaceOnUse">
<stop stop-color="#FFDB44"/>
<stop offset="1" stop-color="#FEEF06"/>
</linearGradient>
<linearGradient id="paint44_linear" x1="-14373.5" y1="70882.2" x2="-18247.7" y2="74737.5" gradientUnits="userSpaceOnUse">
<stop stop-color="#FFDB44"/>
<stop offset="1" stop-color="#FEEF06"/>
</linearGradient>
<linearGradient id="paint45_linear" x1="64251.3" y1="-13937" x2="68032.1" y2="-17714.8" gradientUnits="userSpaceOnUse">
<stop stop-color="#F36F56"/>
<stop offset="0.31" stop-color="#F99C4C"/>
<stop offset="0.55" stop-color="#FDB946"/>
<stop offset="0.68" stop-color="#FFC444"/>
<stop offset="0.8" stop-color="#FFC244"/>
<stop offset="0.87" stop-color="#FEBA46"/>
<stop offset="0.92" stop-color="#FCAD49"/>
<stop offset="0.96" stop-color="#F99A4D"/>
<stop offset="1" stop-color="#F57E53"/>
</linearGradient>
<linearGradient id="paint46_linear" x1="115.832" y1="76.5838" x2="141.197" y2="93.3967" gradientUnits="userSpaceOnUse">
<stop stop-color="#311944"/>
<stop offset="1" stop-color="#6B3976"/>
</linearGradient>
<linearGradient id="paint47_linear" x1="11580.7" y1="7652.12" x2="10801.5" y2="7652.12" gradientUnits="userSpaceOnUse">
<stop stop-color="#444B8C"/>
<stop offset="1" stop-color="#26264F"/>
</linearGradient>
<linearGradient id="paint48_linear" x1="794.774" y1="1432.6" x2="-608.577" y2="1968.7" gradientUnits="userSpaceOnUse">
<stop stop-color="#FFDCC5"/>
<stop offset="1" stop-color="#FFCBEA"/>
</linearGradient>
<linearGradient id="paint49_linear" x1="9598.98" y1="15165.2" x2="9250.35" y2="15165.2" gradientUnits="userSpaceOnUse">
<stop stop-color="#444B8C"/>
<stop offset="1" stop-color="#26264F"/>
</linearGradient>
<linearGradient id="paint50_linear" x1="941.286" y1="1270.42" x2="-562.711" y2="2047.39" gradientUnits="userSpaceOnUse">
<stop stop-color="#FFBB8E"/>
<stop offset="1" stop-color="#FFCBEA"/>
</linearGradient>
<linearGradient id="paint51_linear" x1="21479.5" y1="120682" x2="31498.5" y2="94345.6" gradientUnits="userSpaceOnUse">
<stop stop-color="#444B8C"/>
<stop offset="1" stop-color="#26264F"/>
</linearGradient>
<linearGradient id="paint52_linear" x1="18703" y1="120722" x2="29796.6" y2="95442.8" gradientUnits="userSpaceOnUse">
<stop stop-color="#444B8C"/>
<stop offset="1" stop-color="#26264F"/>
</linearGradient>
<linearGradient id="paint53_linear" x1="46501.2" y1="114523" x2="51677.7" y2="87173.4" gradientUnits="userSpaceOnUse">
<stop stop-color="#444B8C"/>
<stop offset="1" stop-color="#26264F"/>
</linearGradient>
<linearGradient id="paint54_linear" x1="107.409" y1="78.0037" x2="134.242" y2="120.233" gradientUnits="userSpaceOnUse">
<stop stop-color="#FFC444"/>
<stop offset="1" stop-color="#F36F56"/>
</linearGradient>
<linearGradient id="paint55_linear" x1="-27727.8" y1="43731.8" x2="-48197.5" y2="59746.9" gradientUnits="userSpaceOnUse">
<stop stop-color="#FFC444"/>
<stop offset="1" stop-color="#F36F56"/>
</linearGradient>
<linearGradient id="paint56_linear" x1="2513.4" y1="2618.74" x2="-1357.63" y2="5264" gradientUnits="userSpaceOnUse">
<stop stop-color="#FFBB8E"/>
<stop offset="1" stop-color="#FFCBEA"/>
</linearGradient>
<linearGradient id="paint57_linear" x1="1419.41" y1="2117.96" x2="-1119.5" y2="3287.1" gradientUnits="userSpaceOnUse">
<stop stop-color="#FFDCC5"/>
<stop offset="1" stop-color="#FFCBEA"/>
</linearGradient>
<linearGradient id="paint58_linear" x1="991.968" y1="1769.76" x2="-852.451" y2="2469.9" gradientUnits="userSpaceOnUse">
<stop stop-color="#FFBB8E"/>
<stop offset="1" stop-color="#FFCBEA"/>
</linearGradient>
<linearGradient id="paint59_linear" x1="-42403.8" y1="18155.5" x2="-48748.9" y2="34215.4" gradientUnits="userSpaceOnUse">
<stop stop-color="#FFC444"/>
<stop offset="1" stop-color="#F36F56"/>
</linearGradient>
<clipPath id="clip0">
<rect width="140" height="135" fill="white" transform="translate(15 17)"/>
</clipPath>
</defs>
</svg>
