<svg width="170" height="168" viewBox="0 0 170 168" fill="none" xmlns="http://www.w3.org/2000/svg">
<g clip-path="url(#clip0)">
<path d="M121.202 22.893C125.935 29.5164 120.583 40.3934 127.554 45.3404C134.338 50.155 142.526 42.0597 148.916 46.1965C158.395 52.3365 156.976 80.9013 143.399 98.7829C139.317 104.161 135.88 106.272 134.412 112.321C131.259 125.309 142.899 132.893 140.767 139.323C135.966 153.802 59.9203 166.707 28.8981 123.677C14.4125 103.579 11.9692 74.3645 24.4893 52.0258C47.1136 11.6559 110.586 8.02868 121.202 22.893Z" fill="#F4F7FA"/>
<path d="M54.4294 98.4795C49.58 98.0197 45.3033 91.987 43.6923 87.2162C41.812 81.6468 44.3208 80.0333 42.5215 75.8155C39.1713 67.9623 29.1 70.3356 25.0941 62.6845C21.8209 56.4297 27.3063 52.4701 23.3638 45.7082C20.5187 40.8292 16.2943 40.5447 15.2176 35.4823C15.1255 35.0497 14.1999 30.3676 17.026 27.5305C19.8782 24.6667 24.8816 25.3566 27.8365 26.5309C33.2947 28.7018 32.5524 32.8512 38.0781 37.7987C45.6014 44.5349 51.4301 40.8317 55.9446 46.9369C59.671 51.9781 56.558 55.6663 60.8025 61.1738C64.7435 66.288 68.8596 64.9666 71.1836 68.6613C76.5249 77.161 64.322 99.4171 54.4294 98.4795Z" fill="url(#paint0_linear)"/>
<g style="mix-blend-mode:soft-light" opacity="0.7">
<path d="M61.7366 99.6371C61.7259 99.6496 61.7109 99.6577 61.6946 99.6599C61.6783 99.6622 61.6618 99.6583 61.6481 99.6491C61.6345 99.6399 61.6247 99.6259 61.6207 99.61C61.6167 99.594 61.6187 99.5771 61.6263 99.5625C63.7614 95.8281 65.0213 91.8106 65.3718 87.623C65.7032 83.6554 66.0466 79.5533 63.7931 75.9972C62.0891 73.3076 59.9419 72.5628 57.2241 71.6202C54.5794 70.7027 51.2881 69.5611 47.4746 66.1313C45.2971 64.1724 42.59 61.7346 41.2807 57.683C40.5208 55.3222 40.6613 53.6655 40.7857 52.2031C40.9156 50.6698 41.0183 49.4587 40.0167 47.9858C38.3837 45.5838 36.0995 44.7398 33.4553 43.7624C31.8232 43.1581 30.1353 42.5357 28.3592 41.4797C23.3603 38.5087 19.9078 32.6441 18.098 24.0563C18.0956 24.0475 18.0951 24.0383 18.0964 24.0293C18.0977 24.0202 18.1009 24.0116 18.1056 24.0038C18.1104 23.996 18.1167 23.9893 18.1242 23.9841C18.1317 23.9788 18.1401 23.9752 18.1491 23.9733C18.158 23.9715 18.1672 23.9715 18.1761 23.9733C18.1851 23.9751 18.1936 23.9788 18.201 23.984C18.2085 23.9892 18.2148 23.9959 18.2196 24.0037C18.2244 24.0114 18.2276 24.0201 18.2289 24.0291C20.0322 32.5777 23.4635 38.411 28.4292 41.3639C30.1947 42.4138 31.8766 43.0352 33.5031 43.6365C36.169 44.6235 38.4713 45.4725 40.129 47.9097C41.1573 49.4204 41.0475 50.7156 40.9206 52.2137C40.7978 53.663 40.6583 55.3061 41.4101 57.6407C42.7038 61.6586 45.3989 64.0828 47.5642 66.0311C51.3576 69.4437 54.6348 70.5803 57.2679 71.4938C60.0108 72.4455 62.1772 73.1968 63.9064 75.9251C66.1836 79.5191 65.8386 83.6443 65.5053 87.6336C65.1528 91.8414 63.8873 95.8769 61.7426 99.6285C61.7409 99.6316 61.7389 99.6345 61.7366 99.6371Z" fill="white"/>
</g>
<g style="mix-blend-mode:soft-light" opacity="0.7">
<path d="M42.1442 59.5613C42.1365 59.5711 42.1262 59.5786 42.1145 59.5829C42.1027 59.5872 42.09 59.5881 42.0778 59.5854C33.7251 57.8169 28.5041 54.718 25.5955 52.4318C22.4397 49.9512 21.2462 47.8589 21.2326 47.8377C21.2256 47.8225 21.2247 47.8051 21.2299 47.7892C21.235 47.7732 21.2461 47.7598 21.2607 47.7515C21.2753 47.7433 21.2925 47.7409 21.3089 47.7447C21.3252 47.7485 21.3395 47.7584 21.349 47.7723C21.3605 47.7929 22.5469 49.8676 25.6852 52.3326C28.5822 54.6077 33.7825 57.6905 42.1044 59.455C42.1216 59.4589 42.1365 59.4693 42.1459 59.4841C42.1554 59.499 42.1586 59.5169 42.1548 59.5341C42.1532 59.5438 42.1496 59.553 42.1442 59.5613Z" fill="white"/>
</g>
<g style="mix-blend-mode:soft-light" opacity="0.7">
<path d="M50.8635 68.6571C50.8538 68.6701 50.8397 68.6791 50.8239 68.6825C50.808 68.6858 50.7915 68.6833 50.7774 68.6753C50.7633 68.6673 50.7526 68.6545 50.7473 68.6392C50.742 68.6238 50.7425 68.6071 50.7487 68.5921C52.3686 64.3582 53.0651 60.2103 52.8249 56.2638C52.6371 53.1315 51.8369 50.0664 50.4697 47.2419C48.1387 42.4223 44.9018 39.8395 44.8696 39.8118C44.8626 39.8065 44.8568 39.7998 44.8525 39.7921C44.8481 39.7845 44.8453 39.7761 44.8443 39.7674C44.8432 39.7587 44.8438 39.7499 44.8462 39.7414C44.8485 39.733 44.8525 39.7251 44.858 39.7182C44.8634 39.7112 44.8702 39.7055 44.8779 39.7012C44.8855 39.6969 44.894 39.6941 44.9028 39.6931C44.9115 39.6921 44.9204 39.6928 44.9288 39.6952C44.9373 39.6976 44.9452 39.7016 44.9521 39.7071C44.9849 39.7328 48.2454 42.3367 50.5921 47.184C51.9665 50.0245 52.7706 53.1069 52.9588 56.2568C53.202 60.2224 52.5006 64.3894 50.8735 68.641C50.8711 68.6469 50.8677 68.6523 50.8635 68.6571Z" fill="white"/>
</g>
<g style="mix-blend-mode:soft-light" opacity="0.7">
<path d="M65.9255 83.3115C65.9164 83.3234 65.9034 83.3317 65.8888 83.3352C61.6865 84.3423 57.6696 84.6213 53.9497 84.1671C50.9721 83.804 48.1778 82.9726 45.6409 81.696C41.3238 79.5221 39.23 76.7691 39.2093 76.7414C39.2005 76.7272 39.1973 76.7102 39.2004 76.6937C39.2035 76.6772 39.2126 76.6625 39.226 76.6524C39.2394 76.6424 39.2561 76.6377 39.2728 76.6394C39.2895 76.641 39.3049 76.6489 39.3161 76.6613C39.3367 76.689 41.4155 79.4204 45.7079 81.5802C49.6689 83.5733 56.3799 85.4738 65.8555 83.2052C65.8691 83.2018 65.8833 83.2027 65.8963 83.2079C65.9093 83.213 65.9203 83.2221 65.9278 83.2339C65.9354 83.2456 65.939 83.2594 65.9382 83.2734C65.9374 83.2873 65.9323 83.3006 65.9235 83.3115H65.9255Z" fill="white"/>
</g>
<g style="mix-blend-mode:soft-light" opacity="0.7">
<path d="M27.7045 40.7963C27.6951 40.8082 27.6819 40.8166 27.6671 40.82C27.6523 40.8235 27.6368 40.8218 27.6231 40.8152C27.6094 40.8086 27.5983 40.7976 27.5917 40.7839C27.5851 40.7703 27.5833 40.7547 27.5867 40.7399C28.3536 37.3837 28.3823 34.1528 27.6723 31.1364C27.1043 28.7233 26.0649 26.4412 24.5824 24.3534C22.0575 20.7932 19.08 19.0106 19.0523 18.9919C19.037 18.9829 19.026 18.9682 19.0216 18.9511C19.0172 18.9339 19.0198 18.9157 19.0288 18.9005C19.0379 18.8853 19.0525 18.8743 19.0697 18.8699C19.0868 18.8655 19.105 18.8681 19.1202 18.8771C19.1505 18.8947 22.1467 20.6899 24.6882 24.2678C26.1813 26.3702 27.2287 28.6684 27.8012 31.0987C28.5168 34.1362 28.4886 37.3887 27.7171 40.7671C27.715 40.7776 27.7107 40.7876 27.7045 40.7963Z" fill="white"/>
</g>
<path d="M61.7829 94.124C61.0664 94.6049 59.0828 95.0204 58.5213 94.9151C54.7839 94.2172 47.7012 93.3641 45.2337 90.1912C44.8123 89.6493 46.6941 87.1522 46.6034 86.3963C47.4177 84.5125 47.8165 83.9097 47.7113 81.7383C47.3991 75.3289 34.334 74.2352 40.1105 64.7596C44.3404 57.8184 51.0298 55.508 42.4626 47.0033C33.8954 38.4986 26.6068 15.7001 41.7068 13.632C50.3726 12.4456 51.554 25.0297 59.3578 28.2339C66.7733 31.2779 68.3817 37.7276 65.4882 45.9942C62.5947 54.2607 67.8414 54.0648 74.005 57.7328C81.4074 62.1385 72.8891 71.5406 68.5851 75.5459C65.1196 78.7708 58.4705 89.322 61.7829 94.124Z" fill="url(#paint1_linear)"/>
<path d="M61.7829 94.124C61.0664 94.6049 59.0828 95.0204 58.5213 94.9151C54.7839 94.2172 47.7012 93.3641 45.2337 90.1912C44.8123 89.6493 46.6941 87.1522 46.6034 86.3963C47.4177 84.5125 47.8165 83.9097 47.7113 81.7383C47.3991 75.3289 34.334 74.2352 40.1105 64.7596C44.3404 57.8184 51.0298 55.508 42.4626 47.0033C33.8954 38.4986 26.6068 15.7001 41.7068 13.632C50.3726 12.4456 51.554 25.0297 59.3578 28.2339C66.7733 31.2779 68.3817 37.7276 65.4882 45.9942C62.5947 54.2607 67.8414 54.0648 74.005 57.7328C81.4074 62.1385 72.8891 71.5406 68.5851 75.5459C65.1196 78.7708 58.4705 89.322 61.7829 94.124Z" fill="url(#paint2_linear)"/>
<g style="mix-blend-mode:soft-light" opacity="0.7">
<g style="mix-blend-mode:soft-light" opacity="0.7">
<path d="M52.187 92.7402L52.0178 92.6692C62.9613 66.5991 57.2519 36.861 36.7441 13.1204L36.8831 12.9995C46.602 24.2512 53.2354 37.357 56.066 50.8999C59.0416 65.1383 57.7026 79.6062 52.187 92.7402Z" fill="#FCFDFE"/>
</g>
<g style="mix-blend-mode:soft-light" opacity="0.7">
<path d="M77.2916 59.2107C70.1777 62.2426 60.8935 70.2962 56.5951 77.1638L56.4395 77.0661C60.754 70.1718 70.0755 62.086 77.2186 59.042L77.2916 59.2107Z" fill="#FCFDFE"/>
</g>
<g style="mix-blend-mode:soft-light" opacity="0.7">
<path d="M54.277 87.5977L54.0947 87.5766C54.5847 83.394 52.9415 79.1248 49.2101 74.8868C46.4742 71.7798 42.701 68.7614 37.9941 65.9158L38.0893 65.7587C42.8118 68.6139 46.5996 71.6443 49.3476 74.7654C53.1132 79.0442 54.7715 83.3617 54.277 87.5977Z" fill="#FCFDFE"/>
</g>
<g style="mix-blend-mode:soft-light" opacity="0.7">
<path d="M55.5876 48.9938L55.4043 48.9817C55.9225 41.0506 61.1123 34.4997 65.375 30.4001L65.5024 30.5326C61.2653 34.6095 56.1038 41.1216 55.5876 48.9938Z" fill="#FCFDFE"/>
</g>
<g style="mix-blend-mode:soft-light" opacity="0.7">
<path d="M49.4751 31.858L49.3286 31.9688C43.9279 24.8272 34.8762 22.3003 29.9609 21.4261L29.9932 21.2454C34.9347 22.1221 44.0361 24.6666 49.4751 31.858Z" fill="#FCFDFE"/>
</g>
</g>
<path d="M151.195 70.6125C151.195 81.5736 147.753 91.7416 141.916 100.111C141.893 100.146 141.811 100.179 141.811 100.212C132.652 113.631 116.958 122.326 99.3542 122.326C97.9145 122.326 96.5343 122.258 95.1243 122.063C95.1187 122.063 95.1157 122.149 95.1102 122.149C94.4157 122.092 93.7274 122.065 93.042 121.981C92.7983 121.952 92.5546 121.942 92.3119 121.908C92.0968 121.879 91.8833 121.857 91.6698 121.827C91.483 121.799 91.2982 121.776 91.1159 121.746C91.0746 121.739 91.0328 121.735 90.991 121.729C90.5378 121.654 90.0891 121.578 89.6404 121.491H89.6329C65.6984 116.919 47.6133 95.8769 47.6133 70.61C47.6133 65.2676 48.3893 60.1136 49.8924 55.2643C50.1276 54.5044 50.4207 53.7536 50.6155 53.0088C51.2002 51.768 51.592 50.5504 52.1298 49.3559C52.3463 48.8786 52.586 48.4037 52.8136 47.9334C54.0723 45.3594 55.5422 42.8942 57.2082 40.5632C57.3593 40.3522 57.5149 40.1427 57.6685 39.9337C58.2825 39.0988 58.9219 38.2837 59.5866 37.4884C60.5793 36.2953 61.624 35.1487 62.7208 34.0485C65.5812 31.1777 68.7672 28.6508 72.214 26.5192C73.2826 25.8579 74.377 25.2354 75.4973 24.652C82.8815 20.8014 91.0888 18.7972 99.4167 18.8106C111.749 18.8106 123.075 23.1191 131.97 30.3126C138.512 35.6051 143.833 42.4556 147.18 50.3042C147.929 52.0566 148.435 53.8578 149.215 55.7024C149.215 55.7109 149.125 55.7165 149.128 55.725C150.543 60.4384 151.195 65.4363 151.195 70.6125Z" fill="#D8DEE8"/>
<g style="mix-blend-mode:soft-light">
<g style="mix-blend-mode:soft-light">
<path d="M110.704 88.0777C109.592 89.6437 106.153 91.653 108.488 95.604C110.801 99.5439 108.327 100.282 106.735 99.9135C105.144 99.5449 100.165 99.346 100.995 101.604C101.824 103.863 103.245 104.714 101.424 105.587C99.6025 106.46 98.834 108.727 96.9708 111.852C95.1207 114.983 90.7236 112.275 92.0258 115.413C93.328 118.55 94.3392 118.248 94.2173 120.435C94.1886 121.036 94.5874 121.653 95.1263 122.24C94.4323 122.182 93.7354 122.112 93.044 122.027C92.8003 121.998 92.5569 121.967 92.3138 121.932C92.0988 121.904 91.8853 121.873 91.6718 121.841C91.4848 121.814 91.3002 121.785 91.1179 121.755C91.0766 121.748 91.0871 121.741 91.0453 121.735C90.6012 121.66 90.3701 121.579 89.7864 121.495C89.3967 121.125 89.6409 120.723 89.6998 120.29C90.2809 116.252 84.7085 113.477 83.7749 110.647C82.8574 107.827 83.7633 106.141 83.5513 103.802C83.3393 101.463 84.0966 98.3705 82.7531 96.4031C81.4096 94.4357 75.9917 93.7846 74.9604 89.8285C73.9221 85.8806 76.3372 79.9672 77.2768 78.9606C78.2034 77.9534 72.7911 73.371 70.2153 73.227C67.6285 73.0689 68.6633 67.86 64.2889 68.6531C59.9078 69.422 52.0326 66.9767 53.6591 64.3466C55.0011 62.1812 57.2545 57.3974 49.8984 55.2683C50.1336 54.5079 50.4252 53.7576 50.62 53.0123C51.2047 51.7715 51.5965 50.5539 52.1343 49.3594C52.3508 48.8821 52.5905 48.4072 52.8181 47.9369C54.0779 45.3635 55.5478 42.8984 57.2127 40.5667C57.3638 40.3557 57.5194 40.1462 57.673 39.9372C58.2884 39.1023 58.9277 38.2872 59.5911 37.4919C60.5811 36.2964 61.6245 35.1486 62.7212 34.0485C65.5817 31.1777 68.7677 28.6508 72.2145 26.5192C73.6718 27.5404 75.3366 28.1699 76.7723 27.3939C80.2972 25.4219 77.9733 25.1193 76.5306 25.0462C76.1543 25.0226 75.7941 24.885 75.4977 24.652C78.2271 23.2268 81.0792 22.0504 84.0196 21.1371C83.8 23.1262 81.0989 26.3238 83.086 25.931C85.4024 25.4909 86.3461 19.2366 88.0456 21.3148C89.7693 23.4016 86.1592 26.1365 89.5498 24.5517C92.9443 22.9826 93.3975 19.4803 97.1808 21.1844C100.983 22.9096 100.636 24.9516 101.697 24.7496C102.759 24.5477 106.173 26.8475 104.105 28.7379C102.019 30.6338 100.106 28.2187 96.9774 27.4901C93.8482 26.7705 93.9242 29.3301 92.484 29.9152C91.0197 30.4802 83.9566 27.0671 82.2229 30.1519C80.4699 33.2126 79.7242 35.3482 82.3236 35.2691C84.923 35.1901 85.0897 34.5234 84.8862 36.445C84.6828 38.3666 85.1516 39.8083 87.5048 38C89.8579 36.1917 89.3262 34.4332 91.1622 35.2933C92.9982 36.1534 93.2157 35.3754 95.1691 33.9569C97.1224 32.5383 99.6896 32.3908 100.362 35.5733C101.035 38.7558 99.8844 39.4714 96.4511 39.632C93.0178 39.7927 92.6281 38.7156 91.5333 41.5864C90.4385 44.4572 85.9014 48.1479 81.9152 49.6681C77.929 51.1884 76.376 53.4414 76.4656 56.4774C76.5552 59.5134 75.0627 62.7276 74.0631 60.2209C73.059 57.7066 70.2455 53.4731 67.3742 56.3026C64.5029 59.1322 59.4904 64.1502 65.0236 65.0647C70.5452 65.9983 67.6638 60.8256 70.4545 61.8595C73.2413 62.9008 68.689 65.183 70.5522 66.0043C72.4154 66.8256 73.2 66.4459 73.1854 68.9885C73.1708 71.531 73.8037 73.9984 76.0683 72.9198C78.3328 71.8412 81.2384 66.8634 84.5126 69.8103C87.7868 72.7572 87.5587 72.3785 89.2783 71.5224C90.998 70.6663 92.0908 73.2391 92.7947 74.4124C93.4987 75.5857 96.2613 74.3882 98.5001 77.8789C100.739 81.3696 101.615 81.9921 104.166 80.7357C106.718 79.4793 107.757 80.4129 108.423 82.1753C109.089 83.9378 110.657 82.2156 111.415 84.5421C112.172 86.8686 111.808 86.51 110.704 88.0777Z" fill="white"/>
</g>
<g style="mix-blend-mode:soft-light">
<path d="M119.439 45.7856C117.63 41.9046 126.59 42.3402 128.175 42.6388C129.768 42.9042 133.505 39.9825 133.98 38.6244C134.468 37.2562 135.268 37.9058 138.103 37.869C140.937 37.8388 138.433 37.1978 135.314 36.1695C132.194 35.1412 134.86 35.0405 131.99 32.7745C130.755 31.7824 131.144 30.939 131.967 30.312C138.562 35.6429 143.752 42.5063 147.085 50.3036C146.998 50.2761 146.909 50.2607 146.818 50.2578C144.833 50.2462 144.396 45.8576 143.373 45.0031C142.366 44.147 143.402 47.4136 143.649 48.7546C143.895 50.0956 143.105 48.9686 142.115 50.2004C141.126 51.4321 139.327 51.4593 139.165 49.6067C139.003 47.754 137.699 45.9483 135.059 45.1048C132.419 44.2613 130.134 44.9537 127.989 45.7816C125.859 46.5913 121.262 49.6359 119.439 45.7856Z" fill="white"/>
</g>
<g style="mix-blend-mode:soft-light">
<path d="M141.937 100.214C142.116 98.8811 142.408 97.5043 141.851 97.0008C140.499 95.7459 140.204 92.3267 140.673 90.5944C141.142 88.8621 144.785 88.9568 142.312 86.0724C139.832 83.1799 137.598 79.7466 138.639 77.7832C139.681 75.8198 139.365 75.6793 137.413 75.6904C135.461 75.7015 134.602 75.7881 132.656 74.0498C130.708 72.2873 128.029 78.2062 120.699 73.4606C113.371 68.6677 117.544 60.5889 120.29 60.5693C123.054 60.5235 126.283 59.1281 124.017 55.7577C121.759 52.3743 125.287 51.8969 127.011 52.6653C128.737 53.4257 131.8 51.3833 134.92 50.4627C138.041 49.5422 137.911 54.6423 139.647 55.6616C141.394 56.6823 144.667 55.872 146.369 54.2415C147.584 53.0768 147.849 54.4349 149.05 55.724C150.496 60.555 151.228 65.5713 151.223 70.6139C151.223 81.6178 147.79 91.8236 141.937 100.214Z" fill="white"/>
</g>
<g style="mix-blend-mode:soft-light">
<path d="M128.826 39.3258C128.826 39.3228 131.112 38.292 130.286 36.6307C129.466 34.969 128.165 29.8774 127.214 31.4823C126.264 33.0871 127.668 36.2234 127.36 37.5754C127.053 38.9275 127.039 39.638 128.826 39.3258Z" fill="white"/>
</g>
<g style="mix-blend-mode:soft-light">
<path d="M126.546 37.7719C126.514 37.2361 126.848 35.0627 125.14 35.1307C125.143 35.1272 122.666 36.161 124.115 37.9174C125.564 39.6739 126.583 38.3057 126.546 37.7719Z" fill="white"/>
</g>
</g>
<path style="mix-blend-mode:multiply" opacity="0.3" d="M151.058 70.5218C151.058 81.483 147.684 91.651 141.848 100.021C141.826 100.05 141.813 100.085 141.811 100.121C132.458 113.54 116.89 122.194 99.2856 122.194C97.8479 122.191 96.412 122.09 94.9881 121.892C94.9826 121.892 94.9796 122.02 94.9735 122.02C94.2796 121.962 93.5912 121.955 92.9059 121.868C92.6617 121.84 92.4179 121.841 92.1757 121.807C91.9607 121.778 91.7467 121.764 91.5332 121.731C91.3469 121.704 91.1615 121.684 90.9792 121.653C90.9375 121.646 90.8962 121.643 90.8544 121.637C90.4012 121.563 89.9525 121.486 89.5033 121.4H89.4962C67.363 117.17 50.2332 98.8469 47.7793 76.1341C52.9696 91.022 65.804 102.209 81.5827 105.326H81.5882C81.9755 105.521 82.3642 105.482 82.754 105.546C82.7903 105.551 82.8275 105.563 82.8633 105.569C83.0209 105.595 83.1815 105.619 83.3422 105.644C83.526 105.673 83.7108 105.694 83.8961 105.721C84.1056 105.75 84.3151 105.771 84.526 105.793C85.1182 105.866 85.7119 106.001 86.3112 106.05C86.3172 106.05 86.3203 106.106 86.3243 106.106C87.5419 106.106 88.755 106.204 90.0003 106.204C97.6011 106.204 104.765 104.271 111.032 100.937C117.285 97.6029 122.651 92.8254 126.686 87.001C126.686 86.9708 126.736 86.9305 126.754 86.9003C131.795 79.6736 134.745 70.8869 134.745 61.4199C134.749 57.0646 134.116 52.7321 132.867 48.5598C132.867 48.5522 132.849 48.5437 132.849 48.5366C132.459 46.9449 131.831 45.3888 131.187 43.8756C128.696 38.0379 124.992 32.7961 120.322 28.4975C115.652 24.1989 110.122 20.9417 104.099 18.9415C114.256 19.8747 123.908 23.8003 131.833 30.2214C138.375 35.5134 143.667 42.3649 147.016 50.213C147.764 51.9654 148.242 53.7667 149.021 55.6112C149.021 55.6198 148.96 55.6253 148.963 55.6339C150.377 60.3478 151.058 65.3457 151.058 70.5218Z" fill="url(#paint3_linear)"/>
<path d="M129.534 68.1189L129.523 68.1239C129.335 68.2015 129.109 68.07 129.038 67.8797C125.009 57.1144 118.777 49.7634 110.522 46.0586C97.7785 40.3391 84.4738 45.3536 84.3409 45.407C84.1515 45.48 83.9491 45.4106 83.8756 45.2217C83.8021 45.0329 83.9043 44.8501 84.0881 44.774L84.0961 44.771C84.2306 44.7151 97.8087 39.5586 110.829 45.402C119.27 49.1903 125.634 56.6819 129.732 67.6365C129.766 67.7269 129.765 67.8271 129.729 67.9167C129.692 68.0064 129.622 68.0787 129.534 68.1189Z" fill="white"/>
<path d="M130.53 69.7884C131.817 69.3595 132.513 67.9685 132.084 66.6814C131.655 65.3944 130.264 64.6987 128.977 65.1276C127.69 65.5565 126.994 66.9475 127.423 68.2346C127.852 69.5217 129.243 70.2173 130.53 69.7884Z" fill="url(#paint4_linear)"/>
<path d="M85.6764 45.4295C85.8734 44.0872 84.945 42.8394 83.6028 42.6424C82.2605 42.4454 81.0127 43.3738 80.8157 44.716C80.6187 46.0583 81.5471 47.3061 82.8893 47.5031C84.2316 47.7001 85.4794 46.7717 85.6764 45.4295Z" fill="url(#paint5_linear)"/>
<path d="M114.736 19.76C113.685 18.6341 112.413 17.7363 111.001 17.1225C109.588 16.5086 108.065 16.1918 106.524 16.1918H104.718C104.462 16.1917 104.211 16.2566 103.988 16.3804C103.764 16.5042 103.576 16.6829 103.441 16.8995C103.306 17.1161 103.228 17.3636 103.215 17.6186C103.202 17.8736 103.254 18.1277 103.366 18.3571L112.111 36.275H130.148L114.736 19.76Z" fill="#FF8D8D"/>
<path d="M149.423 40.232C148.31 38.0104 146.602 36.1424 144.488 34.8369C142.374 33.5314 139.938 32.84 137.454 32.8401H103.643C102.536 32.8403 101.451 32.5399 100.502 31.971C99.5527 31.4021 98.7761 30.5862 98.2547 29.6102L94.6291 22.8227C94.4023 22.3985 94.0646 22.0438 93.652 21.7964C93.2395 21.5491 92.7675 21.4184 92.2865 21.4182H88.7081C88.6349 21.4183 88.5628 21.437 88.4988 21.4726C88.4348 21.5082 88.3809 21.5596 88.3422 21.6218C88.3036 21.6841 88.2814 21.7552 88.2779 21.8284C88.2743 21.9015 88.2895 21.9744 88.3219 22.0401L96.7007 39.034C97.2778 40.2049 98.1712 41.1908 99.2798 41.8801C100.388 42.5694 101.668 42.9345 102.973 42.9341H147.757C148.075 42.9337 148.387 42.8521 148.665 42.6969C148.943 42.5417 149.176 42.3181 149.343 42.0474C149.51 41.7767 149.605 41.4678 149.619 41.1501C149.633 40.8324 149.565 40.5163 149.423 40.232Z" fill="url(#paint6_linear)"/>
<path d="M126.344 37.3998H113.146C112.835 37.3995 112.531 37.4865 112.268 37.6507C112.005 37.815 111.793 38.05 111.658 38.3289L103.833 54.3624C103.128 55.8026 104.179 57.4845 105.781 57.4845H106.524C108.064 57.4846 109.588 57.1679 111.001 56.554C112.413 55.9402 113.685 55.0423 114.735 53.9162L127.552 40.1845C128.538 39.124 127.789 37.3998 126.344 37.3998Z" fill="#FF8D8D"/>
<path d="M140.259 38.4231H148.328C147.089 36.6958 145.457 35.2884 143.566 34.3176C141.675 33.3467 139.58 32.8402 137.454 32.8401H135.238L137.478 36.8016C137.757 37.2939 138.161 37.7034 138.649 37.9883C139.138 38.2732 139.693 38.4232 140.259 38.4231Z" fill="#B21313"/>
<path d="M76.872 43.0261C76.872 43.0261 76.1036 42.5251 75.7027 41.8568C75.3019 41.1886 75.315 40.2726 75.1916 39.979C75.0683 39.6854 75.7027 40.1341 75.8029 40.7616C75.9032 41.389 77.4063 38.4502 77.8071 37.9154C78.2079 37.3806 79.0096 37.4481 79.1098 37.5125C79.1098 37.5125 78.7498 40.1487 77.5397 41.5874C77.2809 41.8956 77.8419 42.79 77.8419 42.79L76.872 43.0261Z" fill="url(#paint7_linear)"/>
<path d="M76.0174 42.928C76.4117 43.842 78.6087 49.1657 76.0733 54.1072C73.2457 59.6182 65.6378 62.5001 58.0259 60.0145C57.966 60.9995 57.34 73.4598 63.4604 76.4368C70.032 79.6315 82.4036 70.9349 84.4234 60.0145C86.1522 50.6709 79.4885 43.1058 78.4073 41.9174L76.0174 42.928Z" fill="url(#paint8_linear)"/>
<path d="M51.7798 142.121C51.517 142.363 51.5003 142.927 51.4898 143.294C51.4847 143.459 51.4822 143.541 51.5044 143.596C51.6635 144.01 52.4838 144.004 53.774 144.057C55.8129 144.141 56.4253 144.264 56.5658 143.953C56.6972 143.66 56.3095 143.22 56.2636 143.171C56.0295 142.911 55.756 142.827 55.2288 142.689C54.2539 142.432 53.5972 142.299 53.3983 142.259C52.1595 142.009 51.952 141.963 51.7798 142.121Z" fill="url(#paint9_linear)"/>
<path d="M53.2082 140.088L53.2878 142.409C53.2244 142.517 52.5199 142.815 51.9897 142.499L51.5898 140.2L53.2082 140.088Z" fill="url(#paint10_linear)"/>
<path d="M68.9541 141.8C68.6016 142.148 68.4923 142.817 68.7622 143.164C69.0321 143.511 69.4672 143.284 70.6712 143.384C71.9618 143.492 72.2826 143.815 73.1744 143.62C73.5344 143.541 74.1735 143.336 74.1755 143.082C74.1755 142.904 73.8623 142.794 72.8159 142.38C71.3304 141.793 71.3384 141.765 71.0197 141.695C70.22 141.519 69.4174 141.341 68.9541 141.8Z" fill="url(#paint11_linear)"/>
<path d="M69.8939 139.737L70.4272 141.928C70.3723 142.041 69.6925 142.391 69.1401 142.117L68.2891 139.972L69.8939 139.737Z" fill="url(#paint12_linear)"/>
<path d="M66.6555 92.1984C66.0002 108.36 67.2851 124.542 70.4826 140.398L67.9647 140.933C65.9706 138.864 63.488 135.642 62.4432 131.221C61.7946 128.477 62.133 127.103 61.8077 123.753C61.291 118.42 59.8171 115.561 58.3683 111.205C57.0671 107.291 55.5871 101.569 55.0332 93.9966L66.6555 92.1984Z" fill="url(#paint13_linear)"/>
<path style="mix-blend-mode:multiply" opacity="0.3" d="M65.4963 126.092C64.5723 122.434 62.7927 121.466 62.7292 118.012C62.6844 115.569 63.5621 115.37 63.5042 113.031C63.4156 109.485 61.3389 107.626 60.294 105.394C59.1917 103.038 58.7697 99.2539 61.7402 92.9563C59.5047 93.3024 57.269 93.6484 55.0332 93.9941C55.5871 101.566 57.0666 107.288 58.3678 111.203C59.8166 115.559 61.2885 118.417 61.8087 123.751C62.134 127.101 61.7956 128.475 62.4442 131.219C63.4891 135.64 65.9717 138.861 67.9658 140.93L68.6058 140.794C66.4506 138.221 65.6897 135.923 65.4963 134.059C65.1816 131.028 66.4279 129.781 65.4963 126.092Z" fill="url(#paint14_linear)"/>
<path d="M58.2705 91.7452C57.2721 100.936 56.3581 110.301 55.5286 119.841C54.9085 126.999 54.3546 134.068 53.8668 141.049L51.3152 141.227C50.2696 139.009 49.504 136.67 49.0361 134.263C48.3266 130.597 48.6504 128.46 48.455 124.69C48.2354 120.46 47.6397 119.51 46.7806 114.144C45.0373 103.255 44.1651 97.8102 46.9317 94.6C47.8296 93.5576 50.6072 90.9713 58.2705 91.7452Z" fill="url(#paint15_linear)"/>
<path style="mix-blend-mode:multiply" opacity="0.3" d="M83.3409 49.8944C83.3144 50.8594 83.1189 51.8123 82.7633 52.7098C81.6514 55.4669 79.0041 57.4781 79.5535 60.5655C79.828 62.1099 80.675 62.6517 80.3285 63.7757C79.8375 65.3685 77.8238 65.2934 75.6796 67.0957C73.7776 68.6945 73.6709 70.1755 72.6914 71.523C71.365 73.348 68.3698 75.0173 61.1094 74.4875C61.7539 75.3063 62.5274 75.9811 63.459 76.4343C70.0311 79.6289 82.4027 70.9324 84.4225 60.012C85.1195 56.2524 84.4537 52.7813 83.3409 49.8944Z" fill="url(#paint16_linear)"/>
<path d="M32.6973 41.8539C32.6973 41.8539 33.5116 41.4324 33.9774 40.808C34.4432 40.1835 34.5222 39.2701 34.6748 38.9911C34.8274 38.7121 34.1506 39.0918 33.9879 39.7082C33.8253 40.3245 32.6243 37.2493 32.2793 36.6772C31.9344 36.1052 31.1297 36.0916 31.0234 36.148C31.0234 36.148 31.1171 38.8068 32.1766 40.3598C32.4032 40.6921 31.7566 41.526 31.7566 41.526L32.6973 41.8539Z" fill="url(#paint17_linear)"/>
<path d="M33.5582 41.8437C33.0748 42.7134 30.3545 47.7898 32.3814 52.9609C34.6399 58.7278 41.9219 62.3595 49.7469 60.6489C49.7076 61.6349 49.0801 74.0971 42.6924 76.4432C35.8333 78.9611 24.3963 69.069 23.4819 58.0011C22.6983 48.5305 30.0886 41.6725 31.2821 40.5989L33.5582 41.8437Z" fill="url(#paint18_linear)"/>
<path style="mix-blend-mode:multiply" opacity="0.3" d="M25.5752 48.0406C25.5046 49.0033 25.6035 49.9709 25.8673 50.8994C26.6972 53.7541 29.1289 56.0212 28.2728 59.04C27.8448 60.5507 26.9479 61.0039 27.1796 62.1561C27.5084 63.7902 29.5196 63.9186 31.472 65.9263C33.2037 67.7079 33.1619 69.1919 34.0014 70.6311C35.1379 72.5799 37.9503 74.5408 45.2264 74.7422C44.5028 75.492 43.6653 76.0862 42.6929 76.4432C35.8339 78.9611 24.3969 69.069 23.4824 58.0012C23.1651 54.1882 24.1758 50.7997 25.5752 48.0406Z" fill="url(#paint19_linear)"/>
<path d="M36.2441 63.1663C40.8382 61.6088 47.8483 59.8815 56.421 60.234C60.6909 60.4114 64.9257 61.084 69.0404 62.2382C69.4977 64.7967 69.9551 67.355 70.4126 69.9131C70.55 73.2951 70.4996 76.6821 70.2616 80.0585C69.9735 84.1635 69.691 84.225 69.0308 90.02C67.9547 99.4679 68.4049 101.936 66.506 103.071C65.2712 103.809 64.8246 102.92 58.5224 102.293C54.2965 101.874 52.1397 101.68 49.9996 102.404C47.0854 103.39 46.1105 105.046 44.908 104.507C43.7553 103.99 43.6088 102 43.4693 98.5303C43.2548 93.1774 43.2679 89.5391 43.2482 88.2369C43.1571 82.2616 41.6439 77.6987 39.7062 71.8559C38.7246 68.8936 37.5685 65.992 36.2441 63.1663Z" fill="url(#paint20_linear)"/>
<path d="M55.8544 54.3167C55.805 55.4942 55.6373 56.6639 55.3538 57.8079C55.1222 58.7329 54.9787 58.9661 54.7999 59.1539C54.533 59.4359 54.1387 59.6625 51.9588 60.0815C50.7724 60.3091 50.6218 60.293 50.5896 60.4078C50.4345 60.9682 53.5239 63.0706 56.8474 62.7811C58.8818 62.6038 60.7803 61.5504 60.6997 60.9395C60.6192 60.3287 58.5847 60.5437 58.0424 59.4102C57.6652 58.6216 58.1935 57.5591 58.7942 56.6879C58.3118 55.6516 56.3373 55.3495 55.8544 54.3167Z" fill="url(#paint21_linear)"/>
<path d="M59.5688 55.1102C60.0789 54.5029 60.1675 53.3981 59.6554 52.6714C59.2153 52.045 58.4765 51.9196 58.0339 51.8446C56.7518 51.6265 55.096 52.0782 54.4661 53.2354C54.0934 53.9208 54.741 55.4214 54.8402 55.6903C54.953 55.9924 55.1811 56.1088 55.3851 56.3449C55.6671 56.6723 56.1092 57.1929 56.8288 58.0621C56.9172 57.7663 57.0309 57.4787 57.1687 57.2025C57.3477 56.8429 57.5721 56.5079 57.8365 56.2055C58.5526 55.4229 59.0848 55.6858 59.5688 55.1102Z" fill="url(#paint22_linear)"/>
<path d="M55.7755 57.3073C55.7755 57.3073 56.5495 58.7434 58.243 58.7238C59.7597 58.7062 60.1621 55.3282 59.235 54.5573C58.9258 54.3 58.2863 54.166 57.754 54.2848C57.4393 54.3553 57.3275 54.4787 56.8114 54.5835C56.3355 54.6801 56.2071 54.6207 56.056 54.7345C55.8712 54.8745 55.7217 55.2331 55.9649 56.2397C55.692 55.9325 55.3515 55.8021 55.1003 55.9048C55.0137 55.9456 54.9402 56.0098 54.8883 56.0901C54.6586 56.4638 54.986 56.9774 55.7755 57.3073Z" fill="url(#paint23_linear)"/>
<path d="M56.0019 54.5261C56.0719 54.5845 55.8347 54.8443 55.7975 55.2311C55.725 55.9738 56.4335 56.9105 57.1994 57.0288C57.6526 57.0978 57.7936 56.8274 58.5515 56.7901C58.9217 56.7712 59.2925 56.8119 59.6498 56.9105C59.8432 57.7424 59.5763 58.5476 59.0082 58.8975C58.3969 59.2742 57.6567 58.9862 57.3465 58.8658C57.1395 58.7852 56.4763 58.5289 56.1565 57.8909C55.8232 57.2262 56.2069 56.8566 55.804 56.3978C55.6026 56.1662 55.3287 56.0559 55.0794 55.6153C55.026 55.5205 54.9799 55.4219 54.9414 55.3202C55.3569 54.9294 55.9007 54.443 56.0019 54.5261Z" fill="url(#paint24_linear)"/>
<path d="M59.0839 57.1869C59.0839 57.1869 58.7485 57.338 58.186 57.2781C58.1588 57.275 58.1281 57.2816 58.1236 57.2957C58.1079 57.3485 58.4569 57.6079 58.7954 57.5318C59.0356 57.478 59.232 57.2635 59.2033 57.205C59.1912 57.1799 59.1373 57.1804 59.0839 57.1869Z" fill="url(#paint25_linear)"/>
<path style="mix-blend-mode:multiply" opacity="0.3" d="M64.0576 99.9709C60.9581 98.6486 60.9763 95.9112 58.0813 94.7691C53.952 93.139 49.3857 96.9259 48.6731 95.8769C47.9314 94.7842 53.3825 91.4335 52.6573 88.1291C52.0813 85.503 48.2763 85.9683 46.2379 82.3733C44.3047 78.9637 46.179 75.8108 44.4669 74.6259C43.853 74.2009 42.7698 74.0327 40.7168 74.9366C42.1484 79.4083 43.1752 83.3517 43.2497 88.2398C43.2694 89.5421 43.2563 93.1803 43.4708 98.5332C43.6103 102.003 43.7568 103.993 44.9095 104.51C46.112 105.049 47.0869 103.393 50.001 102.407C52.1412 101.683 54.298 101.877 58.5239 102.296C64.826 102.921 65.2717 103.812 66.5074 103.074C67.3131 102.593 67.6943 101.87 67.9501 100.482C66.6867 100.617 65.3462 100.519 64.0576 99.9709Z" fill="url(#paint26_linear)"/>
<path d="M84.931 94.331H82.0204V90.655C82.0194 90.0817 81.8103 89.5283 81.4319 89.0975C81.0536 88.6667 80.5318 88.388 79.9634 88.3129L67.267 86.6602C66.9337 86.6165 66.595 86.6445 66.2734 86.7421C65.9518 86.8398 65.6547 87.0051 65.4021 87.2268C65.1494 87.4485 64.947 87.7215 64.8084 88.0277C64.6697 88.3339 64.598 88.6662 64.5981 89.0023V92.3833H61.6875V89.0023C61.6875 88.2525 61.8475 87.5112 62.1567 86.8281C62.466 86.145 62.9174 85.5356 63.4808 85.0408C64.0442 84.546 64.7067 84.177 65.424 83.9585C66.1414 83.74 66.897 83.6771 67.6406 83.7738L80.337 85.4265C81.6055 85.5948 82.77 86.2174 83.6144 87.1789C84.4588 88.1403 84.9259 89.3754 84.929 90.655L84.931 94.331Z" fill="url(#paint27_linear)"/>
<path d="M37.4184 92.9437L52.8749 90.1404L53.8609 154.37L40.0632 149.524C39.5702 149.443 39.1198 149.196 38.787 148.823C38.4542 148.451 38.2591 147.975 38.2342 147.476L35.6257 95.2027C35.5994 94.6727 35.7667 94.1512 36.0966 93.7356C36.4265 93.3199 36.8963 93.0385 37.4184 92.9437Z" fill="#B31313"/>
<path d="M101.651 94.2998L52.875 90.1404L53.861 154.37L98.2529 145.024C98.9774 144.925 99.6464 144.581 100.149 144.05C100.652 143.519 100.957 142.832 101.016 142.103L104.575 97.7498C104.642 96.9051 104.373 96.0681 103.825 95.4216C103.277 94.7751 102.496 94.3718 101.651 94.2998Z" fill="url(#paint28_linear)"/>
<path d="M44.7213 91.6188L43.2715 91.8816C43.5172 102.619 44.2882 136.391 44.5682 149.662C44.5719 149.832 44.6349 149.995 44.7463 150.123C44.8577 150.251 45.0104 150.336 45.178 150.363C45.2833 150.381 45.3911 150.374 45.4938 150.345C45.5965 150.316 45.6915 150.265 45.7722 150.195C45.8528 150.125 45.9171 150.039 45.9604 149.941C46.0038 149.844 46.0251 149.738 46.023 149.631C45.741 136.237 44.9615 102.192 44.7213 91.6188Z" fill="url(#paint29_linear)"/>
<path d="M60.502 125.685L72.5946 116.906L82.9168 136.126L71.7094 143.837L60.502 125.685Z" fill="url(#paint30_linear)"/>
<path d="M89.1083 102.339L95.9402 108.7L92.0048 126.831L84.9297 121.93L89.1083 102.339Z" fill="url(#paint31_linear)"/>
<path d="M115.987 113.215H113.983V110.685C113.981 110.291 113.837 109.91 113.577 109.614C113.316 109.317 112.957 109.126 112.566 109.074L103.825 107.936C103.595 107.906 103.362 107.925 103.141 107.993C102.92 108.06 102.716 108.174 102.542 108.326C102.368 108.479 102.229 108.666 102.134 108.877C102.038 109.088 101.989 109.316 101.989 109.547V111.875H99.9844V109.547C99.9843 109.031 100.094 108.521 100.307 108.05C100.52 107.58 100.831 107.16 101.219 106.819C101.607 106.479 102.063 106.225 102.557 106.074C103.051 105.924 103.571 105.881 104.083 105.947L112.825 107.085C113.698 107.201 114.5 107.629 115.082 108.291C115.663 108.953 115.985 109.804 115.987 110.685V113.215Z" fill="url(#paint32_linear)"/>
<path d="M83.2746 112.26L93.917 110.329L94.5953 154.552L85.0965 151.216C84.7571 151.16 84.447 150.99 84.2179 150.733C83.9888 150.477 83.8546 150.149 83.8376 149.806L82.0409 113.814C82.023 113.449 82.1383 113.09 82.3653 112.804C82.5923 112.518 82.9154 112.325 83.2746 112.26Z" fill="url(#paint33_linear)"/>
<path d="M127.5 113.194L93.918 110.329L94.5963 154.552L125.163 148.117C125.661 148.049 126.122 147.813 126.468 147.447C126.814 147.081 127.025 146.608 127.065 146.106L129.512 115.569C129.559 114.988 129.373 114.412 128.996 113.966C128.619 113.521 128.081 113.243 127.5 113.194Z" fill="url(#paint34_linear)"/>
<path d="M88.3028 111.346L87.3047 111.527C87.4739 118.92 88.0052 142.172 88.1975 151.309C88.2001 151.426 88.2436 151.538 88.3203 151.626C88.397 151.714 88.5022 151.773 88.6175 151.791C88.6899 151.803 88.7641 151.799 88.8348 151.779C88.9054 151.759 88.9708 151.724 89.0263 151.676C89.0818 151.628 89.1261 151.568 89.1559 151.501C89.1858 151.434 89.2005 151.361 89.1991 151.288C89.0052 142.068 88.47 118.628 88.3028 111.346Z" fill="url(#paint35_linear)"/>
<path d="M103.92 119.504L113.03 124.285L104.322 136.523L96.1406 131.962L103.92 119.504Z" fill="url(#paint36_linear)"/>
<path d="M110.01 139.737L114.178 134.239L123.882 142.545L118.601 145.233L110.01 139.737Z" fill="url(#paint37_linear)"/>
</g>
<defs>
<linearGradient id="paint0_linear" x1="32.7921" y1="54.7981" x2="151.163" y2="153.722" gradientUnits="userSpaceOnUse">
<stop stop-color="#FF9797"/>
<stop offset="1" stop-color="#F67171"/>
</linearGradient>
<linearGradient id="paint1_linear" x1="-126347" y1="152762" x2="-174619" y2="388401" gradientUnits="userSpaceOnUse">
<stop stop-color="#FFC444"/>
<stop offset="1" stop-color="#F36F56"/>
</linearGradient>
<linearGradient id="paint2_linear" x1="51.7689" y1="25.4536" x2="56.9539" y2="60.238" gradientUnits="userSpaceOnUse">
<stop stop-color="#FFC444"/>
<stop offset="1" stop-color="#F36F56"/>
</linearGradient>
<linearGradient id="paint3_linear" x1="47.7768" y1="70.5687" x2="151.058" y2="70.5687" gradientUnits="userSpaceOnUse">
<stop stop-color="#E38D8D"/>
<stop offset="1" stop-color="#F67171"/>
</linearGradient>
<linearGradient id="paint4_linear" x1="65.5347" y1="39.2879" x2="193.84" y2="95.5466" gradientUnits="userSpaceOnUse">
<stop stop-color="#444B8C"/>
<stop offset="1" stop-color="#26264F"/>
</linearGradient>
<linearGradient id="paint5_linear" x1="6168.19" y1="2867.4" x2="18685.5" y2="8355.99" gradientUnits="userSpaceOnUse">
<stop stop-color="#444B8C"/>
<stop offset="1" stop-color="#26264F"/>
</linearGradient>
<linearGradient id="paint6_linear" x1="88.2782" y1="32.176" x2="149.621" y2="32.176" gradientUnits="userSpaceOnUse">
<stop stop-color="#FF2F2F"/>
<stop offset="1" stop-color="#FF7070"/>
</linearGradient>
<linearGradient id="paint7_linear" x1="1189.94" y1="2270.45" x2="-1147" y2="3116.38" gradientUnits="userSpaceOnUse">
<stop stop-color="#FFDCC5"/>
<stop offset="1" stop-color="#FFCBEA"/>
</linearGradient>
<linearGradient id="paint8_linear" x1="-46991.6" y1="42176.9" x2="-68261.6" y2="67749.7" gradientUnits="userSpaceOnUse">
<stop stop-color="#FFC444"/>
<stop offset="1" stop-color="#F36F56"/>
</linearGradient>
<linearGradient id="paint9_linear" x1="-4452.77" y1="6136.14" x2="-4965.66" y2="6182.3" gradientUnits="userSpaceOnUse">
<stop stop-color="#444B8C"/>
<stop offset="1" stop-color="#26264F"/>
</linearGradient>
<linearGradient id="paint10_linear" x1="-440.593" y1="6764.34" x2="-590.276" y2="6585.91" gradientUnits="userSpaceOnUse">
<stop stop-color="#FFC444"/>
<stop offset="1" stop-color="#F36F56"/>
</linearGradient>
<linearGradient id="paint11_linear" x1="-1737.14" y1="6353.04" x2="-2319.02" y2="6477.73" gradientUnits="userSpaceOnUse">
<stop stop-color="#444B8C"/>
<stop offset="1" stop-color="#26264F"/>
</linearGradient>
<linearGradient id="paint12_linear" x1="176.515" y1="6661.25" x2="23.461" y2="6464.72" gradientUnits="userSpaceOnUse">
<stop stop-color="#FFC444"/>
<stop offset="1" stop-color="#F36F56"/>
</linearGradient>
<linearGradient id="paint13_linear" x1="17702.6" y1="112910" x2="700.724" y2="99332.7" gradientUnits="userSpaceOnUse">
<stop stop-color="#AA80F9"/>
<stop offset="1" stop-color="#6165D7"/>
</linearGradient>
<linearGradient id="paint14_linear" x1="14276.9" y1="111923" x2="-1831.79" y2="100395" gradientUnits="userSpaceOnUse">
<stop stop-color="#AA80F9"/>
<stop offset="1" stop-color="#6165D7"/>
</linearGradient>
<linearGradient id="paint15_linear" x1="20808.7" y1="119184" x2="3399.86" y2="110387" gradientUnits="userSpaceOnUse">
<stop stop-color="#AA80F9"/>
<stop offset="1" stop-color="#6165D7"/>
</linearGradient>
<linearGradient id="paint16_linear" x1="18147.5" y1="53318.4" x2="33131" y2="23291.8" gradientUnits="userSpaceOnUse">
<stop stop-color="#E38DDD"/>
<stop offset="1" stop-color="#9571F6"/>
</linearGradient>
<linearGradient id="paint17_linear" x1="1072" y1="2337.87" x2="-1156.55" y2="3068.66" gradientUnits="userSpaceOnUse">
<stop stop-color="#FFDCC5"/>
<stop offset="1" stop-color="#FFCBEA"/>
</linearGradient>
<linearGradient id="paint18_linear" x1="-46313.8" y1="43434.5" x2="-68377" y2="68801.4" gradientUnits="userSpaceOnUse">
<stop stop-color="#FFC444"/>
<stop offset="1" stop-color="#F36F56"/>
</linearGradient>
<linearGradient id="paint19_linear" x1="4670.75" y1="55096.8" x2="-9268.26" y2="23769.5" gradientUnits="userSpaceOnUse">
<stop stop-color="#E38DDD"/>
<stop offset="1" stop-color="#9571F6"/>
</linearGradient>
<linearGradient id="paint20_linear" x1="34.0973" y1="56.2827" x2="63.5292" y2="106.031" gradientUnits="userSpaceOnUse">
<stop stop-color="#FFC444"/>
<stop offset="1" stop-color="#F36F56"/>
</linearGradient>
<linearGradient id="paint21_linear" x1="2917.73" y1="3466.75" x2="-2040.25" y2="6487.22" gradientUnits="userSpaceOnUse">
<stop stop-color="#FFBB8E"/>
<stop offset="1" stop-color="#FFCBEA"/>
</linearGradient>
<linearGradient id="paint22_linear" x1="-413.466" y1="4646.83" x2="158.076" y2="3499.47" gradientUnits="userSpaceOnUse">
<stop stop-color="#311944"/>
<stop offset="1" stop-color="#6B3976"/>
</linearGradient>
<linearGradient id="paint23_linear" x1="1446.99" y1="1855.73" x2="-1065.15" y2="3263.37" gradientUnits="userSpaceOnUse">
<stop stop-color="#FFDCC5"/>
<stop offset="1" stop-color="#FFCBEA"/>
</linearGradient>
<linearGradient id="paint24_linear" x1="-212.269" y1="3451.12" x2="168.686" y2="2575.78" gradientUnits="userSpaceOnUse">
<stop stop-color="#311944"/>
<stop offset="1" stop-color="#6B3976"/>
</linearGradient>
<linearGradient id="paint25_linear" x1="365.014" y1="202.887" x2="146.657" y2="536.365" gradientUnits="userSpaceOnUse">
<stop stop-color="#FFDCC5"/>
<stop offset="1" stop-color="#FFCBEA"/>
</linearGradient>
<linearGradient id="paint26_linear" x1="18616.6" y1="51827.8" x2="32783" y2="22440.7" gradientUnits="userSpaceOnUse">
<stop stop-color="#E38DDD"/>
<stop offset="1" stop-color="#9571F6"/>
</linearGradient>
<linearGradient id="paint27_linear" x1="70.9571" y1="139.378" x2="65.4995" y2="250.161" gradientUnits="userSpaceOnUse">
<stop stop-color="#311944"/>
<stop offset="1" stop-color="#893976"/>
</linearGradient>
<linearGradient id="paint28_linear" x1="52.8757" y1="122.255" x2="104.585" y2="122.255" gradientUnits="userSpaceOnUse">
<stop stop-color="#FF2F2F"/>
<stop offset="1" stop-color="#FF7070"/>
</linearGradient>
<linearGradient id="paint29_linear" x1="783.354" y1="99018.8" x2="7991.2" y2="99488.6" gradientUnits="userSpaceOnUse">
<stop stop-color="#311944"/>
<stop offset="1" stop-color="#893976"/>
</linearGradient>
<linearGradient id="paint30_linear" x1="24819" y1="65875.4" x2="17866" y2="92757.7" gradientUnits="userSpaceOnUse">
<stop stop-color="#FFC444"/>
<stop offset="1" stop-color="#F36F56"/>
</linearGradient>
<linearGradient id="paint31_linear" x1="16374.7" y1="51931.3" x2="7432.92" y2="70603.7" gradientUnits="userSpaceOnUse">
<stop stop-color="#FFC444"/>
<stop offset="1" stop-color="#F36F56"/>
</linearGradient>
<linearGradient id="paint32_linear" x1="59109.8" y1="19045.6" x2="59358.7" y2="30121.7" gradientUnits="userSpaceOnUse">
<stop stop-color="#311944"/>
<stop offset="1" stop-color="#893976"/>
</linearGradient>
<linearGradient id="paint33_linear" x1="13132.6" y1="125491" x2="16916.5" y2="124340" gradientUnits="userSpaceOnUse">
<stop stop-color="#AA80F9"/>
<stop offset="1" stop-color="#6165D7"/>
</linearGradient>
<linearGradient id="paint34_linear" x1="-114699" y1="104516" x2="-139870" y2="104516" gradientUnits="userSpaceOnUse">
<stop stop-color="#8280F9"/>
<stop offset="1" stop-color="#6165D7"/>
</linearGradient>
<linearGradient id="paint35_linear" x1="2426.08" y1="82388.3" x2="5842.89" y2="82611" gradientUnits="userSpaceOnUse">
<stop stop-color="#311944"/>
<stop offset="1" stop-color="#893976"/>
</linearGradient>
<linearGradient id="paint36_linear" x1="18639.8" y1="40734.6" x2="6776.11" y2="43651.7" gradientUnits="userSpaceOnUse">
<stop stop-color="#FFC444"/>
<stop offset="1" stop-color="#F36F56"/>
</linearGradient>
<linearGradient id="paint37_linear" x1="22691.1" y1="23638.1" x2="27072.7" y2="27061.8" gradientUnits="userSpaceOnUse">
<stop stop-color="#E38DDD"/>
<stop offset="1" stop-color="#9571F6"/>
</linearGradient>
<clipPath id="clip0">
<rect width="140" height="141.552" fill="white" transform="translate(15 13)"/>
</clipPath>
</defs>
</svg>
