<svg width="170" height="168" viewBox="0 0 170 168" fill="none" xmlns="http://www.w3.org/2000/svg">
<g clip-path="url(#clip0)">
<path d="M78.786 5.01196C60.8388 5.32898 33.0715 12.1553 25.079 29.6886C22.2874 35.8132 22.4767 44.8169 22.8544 62.8247C22.9657 68.1176 23.1495 75.8323 24.4444 85.404C27.1316 105.288 28.9612 118.824 35.8849 126.707C53.2338 146.456 115.902 145.887 142.663 110.329C157.262 90.9333 159.508 63.3415 146.159 40.5382C131.462 15.4347 102.813 4.58762 78.786 5.01196Z" fill="#F4F7FA"/>
<path d="M96.0901 133.098L81.9864 140.8C81.9864 140.8 75.3777 135.016 76.0451 128.022C77.4055 113.751 64.8119 113.555 59.5483 112.684C51.6119 111.371 46.091 107.088 50.7841 99.7889C56.0939 91.5306 43.4267 84.191 30.3038 83.9172C17.4621 83.6489 10.5275 60.6667 38.3763 58.695C55.0062 57.5174 60.6285 72.76 65.2978 79.7826C69.9671 86.8051 81.2654 81.4223 82.4331 92.4811C83.4308 101.926 80.4053 110.863 87.9431 113.612C95.4809 116.362 99.2022 122.031 96.0901 133.098Z" fill="url(#paint0_linear)"/>
<g style="mix-blend-mode:soft-light" opacity="0.5">
<g style="mix-blend-mode:soft-light" opacity="0.5">
<path d="M90.7013 137.741L90.3793 137.847C90.3132 137.648 83.648 117.691 71.0751 99.9002C59.4921 83.5087 40.3787 65.6569 15.1024 73.6837L15 73.3607C26.2516 69.7871 37.2383 70.9563 47.6542 76.8355C55.9751 81.5316 63.9492 89.228 71.3559 99.7099C83.9565 117.542 90.6352 137.541 90.7013 137.741Z" fill="#BEB8F2"/>
</g>
<g style="mix-blend-mode:soft-light" opacity="0.5">
<path d="M51.901 79.48L51.5855 79.6047C47.4369 69.1014 36.0581 57.179 35.9434 57.0597L36.1883 56.8247C36.3031 56.9445 47.7281 68.9151 51.901 79.48Z" fill="#BEB8F2"/>
</g>
<g style="mix-blend-mode:soft-light" opacity="0.5">
<path d="M44.8528 75.7532C31.4173 74.9845 23.6897 83.0974 23.6137 83.1793L23.3652 82.9483C23.4442 82.8628 31.2722 74.6362 44.8721 75.4143L44.8528 75.7532Z" fill="#BEB8F2"/>
</g>
<g style="mix-blend-mode:soft-light" opacity="0.5">
<path d="M78.6611 111.981C67.662 99.7617 46.6882 106.75 46.4895 106.835L46.3359 106.533C46.5228 106.433 67.8165 99.4273 78.913 111.753L78.6611 111.981Z" fill="#BEB8F2"/>
</g>
<g style="mix-blend-mode:soft-light" opacity="0.5">
<path d="M75.5025 105.981L75.178 106.08C72.1281 96.0429 78.5167 84.4987 78.5818 84.3829L78.8774 84.5494C78.8133 84.6627 72.4953 96.0832 75.5025 105.981Z" fill="#BEB8F2"/>
</g>
<g style="mix-blend-mode:soft-light" opacity="0.5">
<path d="M89.2621 134.73C85.8474 129.501 75.6824 129.436 75.5801 129.436V129.097C76.0049 129.097 86.0303 129.161 89.5458 134.544L89.2621 134.73Z" fill="#BEB8F2"/>
</g>
<g style="mix-blend-mode:soft-light" opacity="0.5">
<path d="M87.7464 129.983L87.4254 130.093C85.8209 125.422 89.6783 117.136 90.9459 114.413C91.1248 114.029 91.2793 113.696 91.2937 113.632L91.6241 113.708C91.6033 113.8 91.5009 114.021 91.252 114.556C89.9998 117.248 86.1866 125.442 87.7464 129.983Z" fill="#BEB8F2"/>
</g>
</g>
<path d="M66.5364 78.2347C64.7163 81.383 66.0221 84.6585 67.3384 86.8806C67.6862 86.897 67.885 86.9949 68.2328 87.0893C71.3677 87.938 72.8862 87.6324 76.108 87.9837C76.8037 88.0593 78.904 87.6608 79.7527 87.4426L81.3284 87.0108C81.3284 87.0108 84.5989 79.309 80.4464 76.9736C76.2939 74.6382 78.4717 66.93 79.1222 62.7029C79.5197 60.1072 78.8737 58.7924 78.8658 57.815C78.7982 47.4692 82.0677 44.5768 79.9788 41.2263C77.6732 37.5275 73.0293 39.9935 70.3083 36.1024C67.2361 31.7079 71.0949 25.6135 67.2584 22.105C66.599 21.5012 65.9069 20.9005 64.7869 20.5079C62.0177 19.5365 59.647 21.0545 57.7614 18.6372C53.9711 13.7761 47.4146 11.8213 43.1081 16.4911C38.8557 21.0992 42.9759 30.7856 54.31 38.8954C61.7136 45.5821 61.7052 47.4916 60.7695 52.1127C60.1156 55.347 56.1981 63.6833 60.7198 67.2589C65.2415 70.8345 68.6174 74.6363 66.5364 78.2347Z" fill="url(#paint1_linear)"/>
<g style="mix-blend-mode:soft-light" opacity="0.5">
<g style="mix-blend-mode:soft-light" opacity="0.5">
<path d="M74.4117 88.0345L74.6502 88.0167C74.5637 86.7009 74.4594 85.3752 74.3396 84.0763C73.4527 74.461 71.6291 65.2884 68.919 56.8124C66.6244 49.6313 63.6604 42.8488 60.1151 36.6521C57.2625 31.6697 54.0183 27.0392 50.472 22.8882C47.9791 19.9704 45.3639 17.3175 42.6996 15.004C42.235 14.6005 41.7356 14.213 41.2522 13.8378C40.6087 13.3379 39.9428 12.8212 39.3555 12.2642L39.1836 12.4207C39.7799 12.9856 40.4487 13.5059 41.0971 14.0107C41.5781 14.3839 42.075 14.77 42.5346 15.169C45.191 17.4756 47.7982 20.12 50.2861 23.0303C53.8235 27.1709 57.0597 31.791 59.9059 36.7614C63.4443 42.9427 66.3988 49.7118 68.6905 56.8795C71.3955 65.3405 73.2161 74.4992 74.1021 84.0997C74.2219 85.3971 74.3262 86.7203 74.4117 88.0345Z" fill="#FCFDFE"/>
</g>
<g style="mix-blend-mode:soft-light" opacity="0.5">
<path d="M63.8787 44.4686L64.1008 44.3831C60.3468 35.607 65.2436 19.8725 65.2933 19.7145L65.0647 19.6559C65.0155 19.8149 60.0944 35.6219 63.8787 44.4686Z" fill="#FCFDFE"/>
</g>
<g style="mix-blend-mode:soft-light" opacity="0.5">
<path d="M72.0413 69.9169L72.2723 69.8563C70.4785 63.6004 58.3848 58.3378 58.2601 58.2852L58.1562 58.4864C58.282 58.5386 70.2778 63.7594 72.0413 69.9169Z" fill="#FCFDFE"/>
</g>
<g style="mix-blend-mode:soft-light" opacity="0.5">
<path d="M72.7272 73.5542L72.9647 73.5319C72.5945 69.3083 74.5259 63.3153 78.4027 56.6624C78.598 56.328 78.598 56.328 78.5945 56.2863L78.3565 56.3057L78.4757 56.2962L78.3624 56.2639C78.3525 56.2873 78.279 56.413 78.1935 56.5621C74.2944 63.2507 72.353 69.2859 72.7272 73.5542Z" fill="#FCFDFE"/>
</g>
<g style="mix-blend-mode:soft-light" opacity="0.5">
<path d="M74.2172 85.6362L74.4399 85.5517C72.6118 81.2287 65.4883 79.2605 65.4168 79.2411L65.3457 79.4538C65.4163 79.4726 72.4314 81.4101 74.2172 85.6362Z" fill="#FCFDFE"/>
</g>
<g style="mix-blend-mode:soft-light" opacity="0.5">
<path d="M74.773 88.0663C75.9213 84.4276 78.2264 80.9553 81.8194 77.4513L81.6485 77.3022C78.0277 80.8331 75.7037 84.3357 74.543 88.0096L74.773 88.0663Z" fill="#FCFDFE"/>
</g>
<g style="mix-blend-mode:soft-light" opacity="0.5">
<path d="M52.3266 25.5069L52.5432 25.41C50.1582 20.6438 48.8588 15.102 48.431 13.2808C48.3276 12.8401 48.2904 12.6846 48.2675 12.6349L48.0469 12.7228C48.0638 12.7626 48.1229 13.0145 48.1959 13.334C48.6267 15.1591 49.9331 20.7188 52.3266 25.5069Z" fill="#FCFDFE"/>
</g>
<g style="mix-blend-mode:soft-light" opacity="0.5">
<path d="M57.4472 32.7013L57.625 32.5522C54.0589 28.9159 43.3777 28.5944 42.9235 28.5825L42.9121 28.8036C43.0229 28.8066 53.9481 29.1346 57.4472 32.7013Z" fill="#FCFDFE"/>
</g>
</g>
<path d="M74.5835 112.125C75.385 111.926 73.9375 107.839 75.6831 102.187C76.1189 100.775 77.9613 92.9095 83.9663 91.9967L87.4629 91.4651C88.165 88.7188 88.3185 85.9993 84.65 85.403C78.9536 84.4783 77.8813 75.2739 79.0674 71.8379C80.5352 67.5825 83.7412 57.6124 74.9616 56.0511C67.6528 54.7513 62.6173 55.3381 61.241 46.7498C59.8646 38.1616 54.3342 33.3472 46.1017 34.8244C37.4414 36.3787 29.1771 26.2257 22.4104 30.7296C10.6207 38.577 23.8305 56.3195 39.5229 60.0814C55.2152 63.8434 47.0612 70.0133 47.3737 77.1357C47.47 78.1057 47.6812 79.0608 48.0028 79.9809C50.526 87.1605 58.3694 87.5386 64.5751 92.9379C73.0391 100.304 73.2339 112.458 74.5835 112.125Z" fill="url(#paint2_linear)"/>
<g style="mix-blend-mode:soft-light" opacity="0.5">
<g style="mix-blend-mode:soft-light" opacity="0.5">
<path d="M76.6744 92.033L77.0719 91.9078C68.1875 64.7065 45.3275 42.0776 17.4102 32.8518L17.2656 33.2235C45.0652 42.41 67.8292 64.9445 76.6744 92.033Z" fill="#FCFDFE"/>
</g>
<g style="mix-blend-mode:soft-light" opacity="0.5">
<path d="M70.4833 77.6297L70.8948 77.58C69.7146 66.391 78.9141 56.4591 79.007 56.3627L78.7019 56.1058C78.6075 56.2037 69.2848 66.2638 70.4833 77.6297Z" fill="#FCFDFE"/>
</g>
<g style="mix-blend-mode:soft-light" opacity="0.5">
<path d="M74.8964 87.0746L75.2388 86.8465C68.4965 77.5432 46.5741 78.7328 46.3535 78.7472L46.3689 79.1392C46.5871 79.1243 68.2818 77.9482 74.8964 87.0746Z" fill="#FCFDFE"/>
</g>
<g style="mix-blend-mode:soft-light" opacity="0.5">
<path d="M53.3161 55.1364L53.6774 54.9376C49.0234 47.1364 53.3763 33.7497 53.421 33.6155L53.0269 33.5062C52.9817 33.6429 48.5762 47.1901 53.3161 55.1364Z" fill="#FCFDFE"/>
</g>
<g style="mix-blend-mode:soft-light" opacity="0.5">
<path d="M38.8087 43.5667L38.9891 43.2094C29.1949 38.9431 15.2148 43.6179 15.0742 43.6656L15.2049 44.0348C15.345 43.9876 29.167 39.367 38.8087 43.5667Z" fill="#FCFDFE"/>
</g>
</g>
<path d="M93.31 156.858L102.879 162.086C102.879 162.086 107.361 158.16 106.909 153.416C105.986 143.735 114.53 143.603 118.1 143.012C123.484 142.121 127.229 139.215 124.045 134.264C120.443 128.661 129.036 123.68 137.939 123.496C146.651 123.314 151.355 107.723 132.462 106.386C121.181 105.587 117.367 115.927 114.199 120.692C111.032 125.457 103.367 121.805 102.572 129.306C101.895 135.713 103.948 141.778 98.8344 143.642C93.7209 145.505 91.1992 149.351 93.31 156.858Z" fill="url(#paint3_linear)"/>
<g style="mix-blend-mode:soft-light" opacity="0.5">
<g style="mix-blend-mode:soft-light" opacity="0.5">
<path d="M96.9668 160.009L97.1854 160.081C97.2302 159.945 101.752 146.407 110.282 134.338C118.139 123.219 131.105 111.107 148.253 116.553L148.323 116.333C140.689 113.91 133.236 114.703 126.17 118.691C120.525 121.877 115.115 127.098 110.091 134.209C101.543 146.306 97.0115 159.873 96.9668 160.009Z" fill="#BEB8F2"/>
</g>
<g style="mix-blend-mode:soft-light" opacity="0.5">
<path d="M123.289 120.485L123.503 120.569C126.318 113.444 134.037 105.356 134.114 105.275L133.948 105.116C133.87 105.197 126.12 113.318 123.289 120.485Z" fill="#BEB8F2"/>
</g>
<g style="mix-blend-mode:soft-light" opacity="0.5">
<path d="M128.069 117.957C137.183 117.435 142.425 122.939 142.478 122.995L142.647 122.838C142.594 122.781 137.283 117.199 128.057 117.727L128.069 117.957Z" fill="#BEB8F2"/>
</g>
<g style="mix-blend-mode:soft-light" opacity="0.5">
<path d="M105.132 142.532C112.594 134.243 126.823 138.984 126.957 139.041L127.062 138.837C126.935 138.767 112.489 134.017 104.961 142.378L105.132 142.532Z" fill="#BEB8F2"/>
</g>
<g style="mix-blend-mode:soft-light" opacity="0.5">
<path d="M107.276 138.465L107.497 138.532C109.565 131.725 105.231 123.891 105.187 123.813L104.988 123.925C105.03 124.001 109.316 131.748 107.276 138.465Z" fill="#BEB8F2"/>
</g>
<g style="mix-blend-mode:soft-light" opacity="0.5">
<path d="M97.9438 157.966C100.26 154.419 107.156 154.375 107.226 154.375V154.145C106.937 154.145 100.137 154.188 97.752 157.84L97.9438 157.966Z" fill="#BEB8F2"/>
</g>
<g style="mix-blend-mode:soft-light" opacity="0.5">
<path d="M98.9719 154.746L99.1896 154.821C100.278 151.652 97.6611 146.031 96.8015 144.184C96.6797 143.922 96.5749 143.697 96.5644 143.653L96.3398 143.703C96.3543 143.765 96.4238 143.915 96.5928 144.279C97.442 146.107 100.029 151.665 98.9719 154.746Z" fill="#BEB8F2"/>
</g>
</g>
<path d="M113.361 119.64C114.596 121.777 113.709 123.998 112.814 125.504C112.578 125.515 112.444 125.581 112.209 125.645C110.082 126.221 109.052 126.013 106.867 126.25C106.396 126.3 104.969 126.031 104.394 125.883L103.325 125.59C103.325 125.59 101.106 120.364 103.921 118.783C106.736 117.201 105.263 111.969 104.819 109.102C104.549 107.341 104.988 106.449 104.993 105.786C105.038 98.7673 102.821 96.8051 104.238 94.5323C105.802 92.0225 108.953 93.6955 110.797 91.0541C112.884 88.0727 110.264 83.9386 112.866 81.5585C113.313 81.15 113.782 80.7431 114.543 80.4762C116.422 79.8174 118.03 80.8479 119.309 79.2072C121.881 75.9093 126.328 74.5831 129.25 77.7513C132.132 80.8782 129.339 87.4486 121.648 92.9502C116.626 97.4863 116.629 98.7832 117.265 101.916C117.708 104.11 120.365 109.767 117.3 112.191C114.234 114.616 111.949 117.198 113.361 119.64Z" fill="url(#paint4_linear)"/>
<g style="mix-blend-mode:soft-light" opacity="0.5">
<g style="mix-blend-mode:soft-light" opacity="0.5">
<path d="M108.015 126.288L107.854 126.276C107.912 125.382 107.983 124.484 108.064 123.603C108.666 117.08 109.902 110.857 111.741 105.108C113.298 100.238 115.308 95.6344 117.714 91.4317C119.652 88.0528 121.851 84.9105 124.256 82.0941C125.88 80.1833 127.643 78.3955 129.53 76.7456C129.845 76.4718 130.184 76.2089 130.512 75.954C130.949 75.6152 131.4 75.2649 131.799 74.8867L131.915 74.9931C131.511 75.3762 131.057 75.729 130.617 76.0703C130.291 76.3237 129.954 76.5856 129.642 76.8559C127.76 78.5013 126.003 80.2839 124.385 82.189C121.985 84.9979 119.789 88.1323 117.859 91.5042C115.457 95.6985 113.451 100.29 111.896 105.153C110.061 110.893 108.826 117.106 108.225 123.619C108.146 124.499 108.075 125.397 108.015 126.288Z" fill="#FCFDFE"/>
</g>
<g style="mix-blend-mode:soft-light" opacity="0.5">
<path d="M115.162 96.7336L115.013 96.6754C117.56 90.7217 114.237 80.0475 114.203 79.9406L114.359 79.9009C114.39 80.0082 117.729 90.7316 115.162 96.7336Z" fill="#FCFDFE"/>
</g>
<g style="mix-blend-mode:soft-light" opacity="0.5">
<path d="M109.623 113.997L109.467 113.956C110.684 109.712 118.888 106.142 118.971 106.105L119.041 106.242C118.959 106.278 110.821 109.82 109.623 113.997Z" fill="#FCFDFE"/>
</g>
<g style="mix-blend-mode:soft-light" opacity="0.5">
<path d="M109.157 116.465L108.995 116.45C109.244 113.583 107.936 109.519 105.306 105.006C105.174 104.779 105.174 104.779 105.176 104.75L105.338 104.764L105.257 104.757L105.334 104.735C105.341 104.751 105.39 104.834 105.448 104.934C108.094 109.475 109.411 113.571 109.157 116.465Z" fill="#FCFDFE"/>
</g>
<g style="mix-blend-mode:soft-light" opacity="0.5">
<path d="M108.147 124.661L107.998 124.604C109.24 121.672 114.071 120.336 114.119 120.322L114.169 120.467C114.118 120.48 109.359 121.794 108.147 124.661Z" fill="#FCFDFE"/>
</g>
<g style="mix-blend-mode:soft-light" opacity="0.5">
<path d="M107.773 126.309C106.994 123.841 105.43 121.486 102.992 119.108L103.108 119.006C105.565 121.401 107.141 123.776 107.928 126.27L107.773 126.309Z" fill="#FCFDFE"/>
</g>
<g style="mix-blend-mode:soft-light" opacity="0.5">
<path d="M122.999 83.8696L122.85 83.804C124.466 80.5707 125.349 76.8112 125.64 75.576C125.71 75.2778 125.735 75.1715 125.75 75.1367L125.9 75.1963C125.888 75.2232 125.85 75.3951 125.797 75.6108C125.508 76.8505 124.623 80.6214 122.999 83.8696Z" fill="#FCFDFE"/>
</g>
<g style="mix-blend-mode:soft-light" opacity="0.5">
<path d="M119.525 88.7504L119.404 88.6481C121.824 86.1824 129.07 85.9647 129.377 85.9563L129.385 86.1054C129.31 86.1084 121.899 86.331 119.525 88.7504Z" fill="#FCFDFE"/>
</g>
</g>
<path d="M107.902 142.631C107.355 142.497 108.339 139.723 107.156 135.89C106.858 134.932 105.611 129.596 101.537 128.976L99.1649 128.616C98.6883 126.753 98.5845 124.909 101.073 124.505C104.937 123.878 105.665 117.634 104.86 115.301C103.866 112.414 101.69 105.651 107.646 104.591C112.604 103.71 116.02 104.108 116.954 98.2809C117.887 92.4538 121.641 89.1877 127.224 90.19C133.099 91.2444 138.706 84.3565 143.296 87.4119C151.296 92.7356 142.333 104.772 131.687 107.324C121.041 109.875 126.573 114.062 126.362 118.894C126.296 119.552 126.152 120.199 125.934 120.823C124.224 125.692 118.902 125.951 114.692 129.614C108.95 134.611 108.818 142.857 107.902 142.631Z" fill="url(#paint5_linear)"/>
<g style="mix-blend-mode:soft-light" opacity="0.5">
<g style="mix-blend-mode:soft-light" opacity="0.5">
<path d="M106.483 129.001L106.215 128.916C112.241 110.463 127.749 95.111 146.687 88.8527L146.786 89.1046C127.926 95.3346 112.484 110.624 106.483 129.001Z" fill="#FCFDFE"/>
</g>
<g style="mix-blend-mode:soft-light" opacity="0.5">
<path d="M110.683 119.23L110.404 119.196C111.204 111.605 104.963 104.868 104.9 104.801L105.108 104.627C105.171 104.695 111.494 111.519 110.683 119.23Z" fill="#FCFDFE"/>
</g>
<g style="mix-blend-mode:soft-light" opacity="0.5">
<path d="M107.69 125.637L107.457 125.482C112.028 119.172 126.903 119.977 127.052 119.986L127.042 120.252C126.894 120.244 112.176 119.445 107.69 125.637Z" fill="#FCFDFE"/>
</g>
<g style="mix-blend-mode:soft-light" opacity="0.5">
<path d="M122.327 103.972L122.082 103.836C125.239 98.5417 122.286 89.4621 122.256 89.3712L122.523 89.2971C122.556 89.389 125.545 98.58 122.327 103.972Z" fill="#FCFDFE"/>
</g>
<g style="mix-blend-mode:soft-light" opacity="0.5">
<path d="M132.17 96.1218L132.047 95.8793C138.691 92.9848 148.175 96.1561 148.271 96.1889L148.182 96.4373C148.088 96.407 138.71 93.2725 132.17 96.1218Z" fill="#FCFDFE"/>
</g>
</g>
<path d="M146.218 135.957L46.3086 135.094V137.649C46.3086 138.344 46.7444 138.932 47.3347 139.037L75.5859 144.069C75.9203 144.128 76.2611 144.144 76.5996 144.116L145.134 138.379C145.746 138.329 146.22 137.736 146.22 137.023L146.218 135.957Z" fill="#BFC8D6"/>
<path d="M109.451 131.862L45.9488 136.537C44.8124 136.62 43.8887 135.732 43.8887 134.549V87.2644C43.8887 86.0838 44.8124 85.1278 45.9488 85.1278H109.451C110.388 85.1278 111.144 85.9924 111.144 87.0597V129.806C111.147 130.872 110.388 131.793 109.451 131.862Z" fill="#BFC8D6"/>
<path d="M110.463 131.862L46.9629 136.537C45.8266 136.62 44.9023 135.732 44.9023 134.549V87.2644C44.9023 86.0838 45.8266 85.1278 46.9629 85.1278H110.466C111.402 85.1278 112.159 85.9924 112.159 87.0597V129.806C112.156 130.872 111.399 131.793 110.463 131.862Z" fill="white"/>
<path d="M108.485 128.848L49.3406 132.909C48.4159 132.972 47.6641 132.243 47.6641 131.279V89.8794C47.6641 88.9159 48.4159 88.1313 49.3406 88.1274L108.485 87.8724C109.257 87.869 109.881 88.578 109.881 89.4555V127.163C109.881 128.041 109.257 128.795 108.485 128.848Z" fill="url(#paint6_linear)"/>
<path d="M80.955 86.4205C80.955 86.8598 80.6281 87.2156 80.2246 87.218C79.8211 87.2205 79.4922 86.8638 79.4922 86.423C79.4922 85.9823 79.8201 85.6255 80.2246 85.6255C80.6291 85.6255 80.955 85.9808 80.955 86.4205Z" fill="white"/>
<g style="mix-blend-mode:soft-light" opacity="0.48">
<path d="M46.9625 136.537L110.142 131.886L110.463 131.862C110.892 131.83 111.283 131.618 111.582 131.296C107.035 131.047 104.211 129.434 102.389 127.768C98.731 124.42 99.3656 121.118 95.4207 118.917C90.5015 116.171 86.6312 119.65 82.8991 116.218C80.6353 114.137 81.7468 112.585 78.9612 109.475C75.8765 106.031 73.8681 107.19 70.7675 104.089C66.8475 100.169 68.8078 97.1191 65.4314 94.3052C61.3345 90.8911 56.9167 94.0508 53.0171 90.7773C51.3356 89.3652 50.4124 87.312 49.9309 85.1287H46.9629C45.8266 85.1287 44.9023 86.0852 44.9023 87.2653V134.552C44.9023 135.732 45.8261 136.62 46.9625 136.537Z" fill="white"/>
</g>
<path d="M113.456 131.603L46.3086 136.522L75.5859 141.737C75.9203 141.796 76.2611 141.812 76.5996 141.784L146.218 135.956L114.524 131.633C114.17 131.586 113.812 131.576 113.456 131.603Z" fill="url(#paint7_linear)"/>
<path d="M56.1055 136.565L112.007 132.408L129.308 134.748L73.8882 139.192L56.1055 136.565Z" fill="#D8DEE8"/>
<path d="M113.629 95.3761C113.629 95.3761 114.568 94.2531 116.33 94.1999C118.092 94.1468 120.492 93.1018 121.523 93.0074C121.771 92.9855 121.895 92.914 121.916 92.823C121.959 92.6362 120.815 92.3639 119.799 92.3301C118 92.27 116.95 92.9607 116.707 92.6059C116.435 92.2084 117.598 91.1256 117.385 90.8827C117.22 90.6948 116.43 91.2986 115.584 91.6668C114.984 91.9281 112.637 94.7351 112.637 94.7351L113.629 95.3761Z" fill="url(#paint8_linear)"/>
<path d="M113.688 93.3379L114.998 95.9823C114.387 99.3653 113.282 102.64 111.718 105.701C109.6 109.835 104.77 119.258 96.2651 120.111C89.7792 120.763 84.3397 116.119 82.2786 114.342C80.3736 112.699 78.6647 111.25 77.8349 108.938C76.5266 105.291 77.8479 100.795 81.0175 96.5612C82.5778 94.4743 85.8249 94.9254 86.7477 97.3602C88.2031 101.202 90.6567 103.869 93.4766 104.391C96.6467 104.977 100.177 102.83 101.68 101.918C103.916 100.562 104.484 99.5182 107.263 97.3696C109.268 95.8191 111.419 94.4688 113.688 93.3379Z" fill="url(#paint9_linear)"/>
<g style="mix-blend-mode:multiply" opacity="0.3">
<path style="mix-blend-mode:multiply" opacity="0.3" d="M87.8711 113.103C90.2999 112.557 91.2166 110.301 94.5463 110.098C98.7565 109.843 100.565 113.25 103.258 112.351C105.457 111.618 105.822 108.823 107.354 105.227C108.543 102.437 110.605 98.7674 114.448 94.8704L114.999 95.9824C114.388 99.3654 113.283 102.64 111.719 105.702C109.601 109.835 104.771 119.258 96.2661 120.111C89.7801 120.763 84.3407 116.119 82.2796 114.342C80.3745 112.699 78.6657 111.25 77.8359 108.938C77.6074 108.294 77.4573 107.625 77.3887 106.946C82.4073 112.681 85.6902 113.594 87.8711 113.103Z" fill="url(#paint10_linear)"/>
</g>
<path d="M57.0985 129.256C57.0488 126.743 56.9121 112.882 63.6236 102.913C65.164 100.628 67.8835 96.586 73.1088 93.9112C74.7377 93.0794 76.4626 92.4505 78.2446 92.0385L82.7166 92.7028C84.7071 94.5145 86.4174 96.6118 87.7919 98.9259C88.8751 100.752 90.6679 103.775 91.0833 107.677C91.5672 112.225 89.7596 114.017 88.2753 121.099C87.641 124.124 87.2569 127.195 87.127 130.283L71.6603 131.612C71.57 128.902 71.3279 126.199 70.9354 123.516C70.531 120.747 69.9669 118.003 69.2459 115.299C67.8871 120.709 67.2571 126.276 67.3727 131.853C66.7466 132.102 63.2197 133.422 59.8199 131.612C58.7504 131.036 57.8211 130.232 57.0985 129.256Z" fill="url(#paint11_linear)"/>
<path d="M81.8894 83.5441C84.2869 79.806 85.4854 77.9372 85.5361 76.0341C85.6474 71.8761 82.4737 68.2488 79.5361 66.5216C75.4119 64.0973 70.8067 64.8575 67.8915 65.3385C64.1454 65.9566 64.1941 66.8704 62.298 66.699C57.0568 66.225 56.4774 59.2288 50.5768 55.6472C44.0675 51.6954 35.688 54.6986 33.5995 55.5413C22.4731 60.0302 19.862 71.7931 19.615 73.0026C17.3264 84.209 23.6235 94.7604 31.2587 99.5221C33.442 100.884 39.0276 104.367 43.516 102.368C47.8389 100.442 47.4737 95.068 53.4265 92.2163C54.2583 91.8188 56.7785 90.6104 60.0351 90.7754C63.7096 90.9637 64.8515 92.7267 68.7282 92.7987C71.8721 92.8573 74.2263 91.7552 74.6954 91.5291C77.64 90.1046 79.0968 87.8979 81.8894 83.5441Z" fill="url(#paint12_linear)"/>
<g style="mix-blend-mode:multiply" opacity="0.3">
<path style="mix-blend-mode:multiply" opacity="0.3" d="M18.9885 76.4718C21.5226 87.3796 24.014 90.7539 26.1934 90.8533C29.2408 90.9924 30.9427 84.6884 35.6045 84.6183C39.7972 84.5552 41.0206 89.6161 44.8407 89.4789C49.672 89.3055 50.0948 81.1346 55.4573 79.7543C61.8393 78.1145 66.3228 88.3783 73.874 87.8163C76.1597 87.6464 78.9746 86.4613 82.0802 82.6725L81.7945 83.1391C79.0944 87.5505 77.6842 89.7875 74.7674 91.2757C74.3038 91.5122 71.9729 92.6625 68.8286 92.6699C64.9528 92.6794 63.7727 90.9408 60.0947 90.8315C56.8381 90.7321 54.3437 91.9932 53.5204 92.4091C47.6278 95.3845 48.1058 100.751 43.8245 102.765C39.3794 104.858 33.7218 101.493 31.5101 100.178C24.3673 95.931 18.2625 86.7192 18.9885 76.4718Z" fill="url(#paint13_linear)"/>
</g>
<path d="M81.9778 85.313C81.9778 85.313 82.1036 88.5428 81.9778 90.7092C81.8859 92.2958 83.2583 93.1996 83.2583 93.1996C83.2583 93.1996 84.0116 94.4915 79.9371 94.7062C75.8626 94.9208 71.8984 94.7062 71.8984 94.7062C71.8984 94.7062 75.8815 92.0568 76.7918 91.3527C77.7021 90.6486 78.1901 85.3845 77.6072 82.0509L81.9778 85.313Z" fill="url(#paint14_linear)"/>
<path d="M83.0221 74.8947C83.0221 74.8947 85.0957 79.8944 85.0847 82.9155C85.0738 85.9366 82.9615 87.6702 81.3581 86.9239C79.7546 86.1776 77.3417 83.0362 77.3417 83.0362C77.3417 83.0362 77.0177 83.8809 75.7889 83.0362C74.5601 82.1915 73.6473 77.4408 76.0374 78.7883C76.0374 78.7883 75.6592 77.4572 76.2486 75.5262C76.8379 73.5953 82.3215 71.5109 83.0221 74.8947Z" fill="url(#paint15_linear)"/>
<g style="mix-blend-mode:multiply" opacity="0.3">
<path style="mix-blend-mode:multiply" opacity="0.3" d="M65.7975 122.839C67.5948 120.018 64.8535 117.572 66.0187 113.11C67.0124 109.3 70.2467 106.327 71.4348 106.807C73.0775 107.471 69.8497 114.34 73.0934 117.532C75.2464 119.651 78.0534 117.986 80.9443 119.853C82.8503 121.085 84.7649 123.837 84.9144 130.472L71.6584 131.612C71.568 128.902 71.326 126.199 70.9334 123.516C70.529 120.747 69.9649 118.003 69.244 115.299C67.8852 120.709 67.2552 126.276 67.3707 131.853C66.7446 132.102 63.2177 133.422 59.818 131.612C59.6281 131.512 59.4488 131.404 59.2773 131.294C59.3643 129.831 59.7395 128.159 60.8237 126.708C62.5842 124.353 64.4972 124.879 65.7975 122.839Z" fill="url(#paint16_linear)"/>
</g>
<path d="M79.5988 85.5491C76.6965 85.5491 75.6033 81.3901 75.5919 81.3449C75.5816 81.294 75.5913 81.2412 75.619 81.1973C75.6466 81.1534 75.6901 81.1218 75.7404 81.109C75.7907 81.0962 75.8439 81.1033 75.8892 81.1287C75.9344 81.1541 75.9682 81.1959 75.9834 81.2455C75.9948 81.2908 77.1715 85.7612 80.2408 85.0716C80.2925 85.0614 80.3461 85.0719 80.3903 85.1007C80.4344 85.1295 80.4655 85.1744 80.477 85.2258C80.4886 85.2772 80.4796 85.3311 80.452 85.376C80.4244 85.4209 80.3803 85.4532 80.3292 85.4661C80.0895 85.5205 79.8446 85.5484 79.5988 85.5491Z" fill="white"/>
<path d="M81.3005 85.6929C81.8584 85.5478 82.2463 85.1821 82.1667 84.8762C82.0871 84.5702 81.5703 84.4399 81.0123 84.585C80.4543 84.7301 80.0665 85.0958 80.146 85.4017C80.2256 85.7077 80.7425 85.838 81.3005 85.6929Z" fill="white"/>
<path d="M75.822 82.44C76.3442 82.3054 76.5929 81.5182 76.3773 80.6819C76.1617 79.8455 75.5636 79.2766 75.0413 79.4112C74.5191 79.5458 74.2704 80.3329 74.486 81.1693C74.7016 82.0057 75.2997 82.5746 75.822 82.44Z" fill="white"/>
<path d="M74.9358 79.8363L74.8657 79.6683C74.8225 79.559 74.7624 79.399 74.6923 79.1928C74.5025 78.6243 74.3589 78.0414 74.263 77.4497C74.1199 76.6103 74.1022 75.7543 74.2103 74.9096C74.2727 74.4309 74.3922 73.9613 74.5661 73.5109C74.9237 72.5747 75.5271 71.7521 76.3127 71.1298L76.6019 70.9052L76.904 70.7065L77.0531 70.6071L77.2086 70.5201L77.5166 70.3502C77.6265 70.2911 77.7244 70.2508 77.8282 70.2011C77.9375 70.1599 78.0453 70.1127 78.1532 70.0784C78.748 69.8771 79.3781 69.8018 80.0036 69.8573C80.0951 69.8637 80.1861 69.875 80.2764 69.8911C80.3645 69.9026 80.452 69.9192 80.5382 69.9408C80.6217 69.9626 80.7042 69.978 80.7817 70.0034L81.0068 70.0814C81.077 70.1066 81.1456 70.1363 81.212 70.1703C81.2766 70.2026 81.3417 70.2275 81.3989 70.2623C81.5112 70.3348 81.6205 70.3924 81.7079 70.461L81.9385 70.6478C82.0011 70.7065 82.0488 70.7621 82.0905 70.8049L82.2157 70.937C82.2255 70.9472 82.2332 70.9593 82.2383 70.9725C82.2435 70.9856 82.246 70.9997 82.2457 71.0138C82.2454 71.028 82.2423 71.0419 82.2366 71.0549C82.2309 71.0678 82.2227 71.0795 82.2125 71.0893C82.2023 71.0991 82.1903 71.1068 82.1771 71.1119C82.1639 71.1171 82.1498 71.1195 82.1357 71.1192C82.1216 71.1189 82.1076 71.1159 82.0947 71.1102C82.0817 71.1045 82.07 71.0963 82.0602 71.0861L82.0503 71.0762L81.933 70.9549C81.8943 70.9162 81.8495 70.865 81.7914 70.8113L81.5802 70.6394C81.4992 70.5768 81.3974 70.5256 81.2935 70.459C81.2403 70.4272 81.1792 70.4054 81.1196 70.376C81.0577 70.3453 80.9939 70.3182 80.9288 70.295L80.7186 70.225C80.6461 70.2021 80.5696 70.1887 80.49 70.1688C80.4102 70.1493 80.3292 70.1347 80.2476 70.1251C80.1616 70.1104 80.0748 70.1004 79.9877 70.0953C79.3959 70.0492 78.8011 70.1264 78.2406 70.3219C78.1412 70.3552 78.0419 70.3994 77.9425 70.4377C77.8431 70.4873 77.7328 70.534 77.6444 70.5867L77.3492 70.7542L77.2001 70.8391L77.057 70.9355L76.7688 71.1298L76.4945 71.348C75.7543 71.9445 75.1887 72.7297 74.8573 73.6207C74.6969 74.0502 74.5881 74.4972 74.5333 74.9524C74.4383 75.7646 74.4642 76.5865 74.6103 77.3911C74.709 77.9625 74.8537 78.525 75.0431 79.0731C75.1122 79.2718 75.1718 79.4239 75.2136 79.5272C75.2553 79.6306 75.2801 79.6818 75.2801 79.6818L75.2831 79.6892C75.3029 79.7353 75.3035 79.7874 75.2849 79.834C75.2663 79.8806 75.2299 79.9179 75.1837 79.9377C75.1376 79.9574 75.0855 79.9581 75.0389 79.9394C74.9924 79.9208 74.9551 79.8844 74.9353 79.8383L74.9358 79.8363Z" fill="white"/>
<path d="M145.679 49.3967L142.403 48.4322C142.811 46.2439 142.917 44.0099 142.717 41.7928L145.961 41.0072C146.848 40.7925 147.402 39.8797 147.196 38.9665L146.652 36.5317C146.447 35.6125 145.559 35.0341 144.665 35.2398L141.471 35.9816C140.723 33.8124 139.681 31.756 138.374 29.8699L140.747 27.6339C141.428 26.9924 141.462 25.8948 140.823 25.1753L139.115 23.2568C138.469 22.5318 137.385 22.4617 136.695 23.1077L134.326 25.3144C132.541 23.7374 130.545 22.4178 128.394 21.3939L129.333 18.2233C129.61 17.2876 129.076 16.2665 128.137 15.941L125.623 15.07C124.672 14.74 123.671 15.2384 123.391 16.1845L122.441 19.3895C120.045 18.8911 117.59 18.7356 115.149 18.9273L114.305 15.5256C114.056 14.5259 113.045 13.8665 112.041 14.0553L109.358 14.5602C108.343 14.751 107.725 15.7249 107.981 16.7336L108.865 20.2203C106.533 21.0111 104.327 22.1334 102.315 23.5529L99.6668 20.8051C98.9145 20.026 97.6763 19.9475 96.9021 20.6332L94.8355 22.4627C94.0559 23.1529 94.0445 24.345 94.8087 25.1216L97.5665 27.9241C96.0011 29.7891 94.7217 31.8765 93.7702 34.1178L89.8115 32.9526C88.7462 32.6386 87.6411 33.1891 87.3464 34.1829L86.5633 36.8259C86.2692 37.8196 86.8997 38.8711 87.9685 39.1737L92.043 40.3265C91.7083 42.6911 91.7237 45.0922 92.0887 47.4524L87.9004 48.4248C86.8326 48.6732 86.1921 49.6834 86.4719 50.6792L87.2142 53.3192C87.4925 54.3085 88.5787 54.9008 89.6376 54.6444L93.887 53.6158C94.83 55.7619 96.0676 57.7661 97.564 59.5705L94.4226 62.4977C93.6569 63.2113 93.6455 64.3601 94.3968 65.0607L96.3844 66.9131C97.1267 67.6058 98.3396 67.5889 99.0934 66.8783L102.224 63.9308C104.089 65.2818 106.128 66.3756 108.286 67.1824L107.11 71.1526C106.829 72.0967 107.4 73.0502 108.382 73.2783L110.975 73.881C111.944 74.1061 112.952 73.5297 113.229 72.5945L114.393 68.6691C116.633 68.937 118.899 68.9101 121.132 68.5891L122.097 72.3948C122.328 73.3041 123.279 73.8229 124.218 73.555L126.703 72.847C127.633 72.5821 128.204 71.6375 127.98 70.7352L127.055 67.0006C129.111 66.1764 131.051 65.0891 132.827 63.7658L135.432 66.4122C136.071 67.0617 137.135 67.0468 137.809 66.3814L139.598 64.6175C140.268 63.9561 140.302 62.8937 139.672 62.2413L137.165 59.6451C138.567 57.9502 139.735 56.0748 140.638 54.069L144.013 55.023C144.883 55.2714 145.802 54.7447 146.065 53.8518L146.768 51.4787C147.033 50.5818 146.547 49.6521 145.679 49.3967ZM113.381 61.0826C103.586 58.5723 97.7051 48.6504 100.561 39.0037C103.417 29.3571 113.785 24.1358 123.404 27.2418C132.7 30.2421 137.828 39.9463 135.145 49.0076C132.462 58.0689 122.845 63.5084 113.381 61.0826Z" fill="#97A6B7"/>
<path d="M115.279 14.8787L112.97 14.1071L111.547 15.96L115.279 14.8787Z" fill="#97A6B7"/>
<path d="M138.117 22.6943L140.798 23.5177L140.211 25.5013L138.117 22.6943Z" fill="#97A6B7"/>
<path d="M145.531 35.2985L148.18 36.2013L147.065 37.5037L145.531 35.2985Z" fill="#97A6B7"/>
<path d="M145.904 49.4937L148.548 50.5103L147.274 51.5617L145.904 49.4937Z" fill="#97A6B7"/>
<path d="M135.898 66.7357L138.414 67.889L139.371 65.8398L135.898 66.7357Z" fill="#97A6B7"/>
<path d="M122.979 73.4344L125.211 74.5623L125.914 72.8754L122.979 73.4344Z" fill="#97A6B7"/>
<path d="M109.946 74.1221L107.939 73.1193L110.565 70.9524L109.946 74.1221Z" fill="#97A6B7"/>
<path d="M99.1476 68.4451L96.832 67.2049L99.4185 65.4637L99.1476 68.4451Z" fill="#97A6B7"/>
<path d="M98.377 20.1636L100.927 21.0063L99.3519 22.5809L98.377 20.1636Z" fill="#97A6B7"/>
<path d="M87.2773 38.8318L89.5331 39.8788L89.9172 37.8932L87.2773 38.8318Z" fill="#97A6B7"/>
<path d="M88.1582 54.4591L90.3522 55.517L90.9927 54.0447L88.1582 54.4591Z" fill="#97A6B7"/>
<path d="M148.264 50.3931L144.96 49.4221C145.371 47.2159 145.478 44.9637 145.277 42.7285L148.548 41.937C149.442 41.7203 149.998 40.8001 149.793 39.8793L149.246 37.4227C149.04 36.496 148.144 35.9127 147.243 36.1219L144.023 36.8697C143.269 34.6828 142.218 32.6097 140.901 30.7082L143.291 28.4533C143.977 27.8074 144.012 26.6983 143.368 25.9748L141.645 24.0409C140.994 23.3095 139.901 23.2405 139.205 23.8889L136.82 26.1135C135.02 24.5235 133.006 23.193 130.838 22.1607L131.785 18.9642C132.064 18.0201 131.525 16.9916 130.578 16.6631L128.044 15.7851C127.085 15.4527 126.076 15.955 125.793 16.9086L124.836 20.1384C122.419 19.6354 119.943 19.4783 117.482 19.6718L116.632 16.2432C116.384 15.2355 115.362 14.5712 114.35 14.761L111.643 15.2713C110.62 15.4641 109.997 16.446 110.255 17.4626L111.149 20.9776C108.798 21.7747 106.574 22.9061 104.545 24.3371L101.869 21.5664C101.111 20.7808 99.8618 20.7018 99.0812 21.393L96.9948 23.236C96.2087 23.9316 96.1997 25.1331 96.9679 25.9162L99.7505 28.742C98.1729 30.6216 96.8835 32.7252 95.9245 34.984L91.9324 33.8088C90.8582 33.4928 89.7461 34.0478 89.448 35.0511L88.6589 37.7154C88.3608 38.7176 88.9978 39.7775 90.0755 40.0821L94.1863 41.2448C93.8491 43.6288 93.8646 46.0494 94.2325 48.4289L90.009 49.4092C88.9322 49.6577 88.2862 50.6778 88.568 51.682L89.3168 54.3414C89.597 55.3386 90.6927 55.9359 91.7605 55.6775L96.0447 54.6405C96.9961 56.8045 98.2446 58.8252 99.754 60.6444L96.5873 63.5969C95.8151 64.3164 95.8037 65.4747 96.561 66.1808L98.5635 68.0486C99.3123 68.7467 100.535 68.7298 101.296 68.0133L104.451 65.0424C106.332 66.4049 108.387 67.5079 110.562 68.3219L109.376 72.3248C109.094 73.2779 109.669 74.2379 110.659 74.4679L113.274 75.0751C114.251 75.3022 115.267 74.7213 115.546 73.7782L116.719 69.819C118.978 70.0893 121.263 70.0622 123.515 69.7385L124.488 73.5755C124.72 74.4923 125.68 75.0165 126.627 74.7452L129.134 74.0312C130.071 73.7643 130.647 72.8123 130.422 71.9025L129.489 68.137C131.561 67.3059 133.517 66.2096 135.307 64.8754L137.933 67.5433C138.579 68.1982 139.65 68.1832 140.33 67.5124L142.133 65.7346C142.809 65.0677 142.842 63.9954 142.207 63.3391L139.679 60.7214C141.093 59.0128 142.271 57.122 143.181 55.0996L146.584 56.0621C147.462 56.3105 148.386 55.7808 148.653 54.8815L149.362 52.4885C149.629 51.5881 149.138 50.6505 148.264 50.3931ZM115.7 62.1734C105.824 59.6417 99.8941 49.6393 102.776 39.9126C105.657 30.186 116.108 24.9254 125.807 28.0558C135.176 31.0814 140.347 40.8647 137.641 50C134.934 59.1354 125.241 64.619 115.7 62.1734H115.7Z" fill="#D8DEE8"/>
<path d="M110.07 28.3321L111.09 27.6364C111.09 27.6364 111.226 26.3197 111.792 25.8675C112.358 25.4153 113.891 24.9294 114.063 25.6687C114.236 26.4081 113.44 28.7495 112.468 29.0094C111.496 29.2692 110.499 29.8824 110.499 29.8824L110.07 28.3321Z" fill="url(#paint17_linear)"/>
<path d="M114.487 30.9039C114.487 30.9039 111.493 30.1924 109.158 32.4816C106.823 34.7708 104.076 38.4294 103.831 37.9027C103.587 37.376 108.236 31.4699 111.164 29.7452C110.795 28.6376 109.995 27.4441 109.995 27.4441C109.995 27.4441 96.4466 31.2702 96.8038 37.5712C97.1611 43.8723 100.747 44.7881 101.718 44.7881C102.69 44.7881 105.11 45.9881 111.904 42.7886C118.698 39.5891 114.487 30.9039 114.487 30.9039Z" fill="url(#paint18_linear)"/>
<path d="M113.235 24.7978L110.572 28.5617C110.502 28.6607 110.526 28.7978 110.625 28.8678L112.889 30.4701C112.988 30.5401 113.125 30.5167 113.195 30.4176L115.858 26.6538C115.928 26.5548 115.905 26.4177 115.806 26.3477L113.541 24.7454C113.442 24.6753 113.305 24.6988 113.235 24.7978Z" fill="url(#paint19_linear)"/>
<path d="M113.309 24.8514L110.646 28.6153C110.576 28.7143 110.6 28.8513 110.699 28.9214L112.964 30.5237C113.063 30.5937 113.2 30.5703 113.27 30.4712L115.933 26.7074C116.003 26.6084 115.979 26.4713 115.88 26.4012L113.616 24.799C113.517 24.7289 113.379 24.7524 113.309 24.8514Z" fill="url(#paint20_linear)"/>
<path d="M113.639 25.0023L111.444 28.1054C111.373 28.2049 111.397 28.3426 111.496 28.4129L113.32 29.7026C113.419 29.7729 113.557 29.7493 113.627 29.6499L115.822 26.5467C115.893 26.4473 115.869 26.3096 115.77 26.2393L113.946 24.9496C113.847 24.8792 113.709 24.9028 113.639 25.0023Z" fill="white"/>
<path d="M114.315 25.4967L114.295 25.5251C114.271 25.5587 114.279 25.6052 114.313 25.629L114.791 25.9671C114.824 25.9908 114.871 25.9829 114.895 25.9493L114.915 25.9209C114.938 25.8873 114.93 25.8408 114.897 25.817L114.419 25.4789C114.385 25.4551 114.339 25.4631 114.315 25.4967Z" fill="white"/>
<path d="M121.41 106.692L121.211 108.954C121.267 109.063 121.94 109.39 122.474 109.11L122.984 106.886L121.41 106.692Z" fill="url(#paint21_linear)"/>
<path d="M106.361 106.703C106.685 107.061 106.758 107.72 106.476 108.045C106.195 108.369 105.781 108.124 104.601 108.159C103.336 108.197 103.005 108.496 102.145 108.259C101.797 108.163 101.184 107.93 101.195 107.682C101.204 107.508 101.516 107.417 102.56 107.068C104.041 106.571 104.034 106.545 104.349 106.492C105.139 106.362 105.932 106.231 106.361 106.703Z" fill="url(#paint22_linear)"/>
<path d="M121.386 108.44C120.904 108.455 120.378 108.859 120.34 109.287C120.302 109.715 120.765 109.843 121.558 110.718C122.409 111.655 122.422 112.101 123.19 112.556C123.5 112.74 124.094 113.019 124.264 112.839C124.384 112.712 124.233 112.425 123.76 111.43C123.091 110.019 123.114 110.006 122.934 109.743C122.48 109.083 122.024 108.421 121.386 108.44Z" fill="url(#paint23_linear)"/>
<path d="M105.549 104.639L104.914 106.75C104.964 106.864 105.61 107.242 106.161 107.002L107.105 104.952L105.549 104.639Z" fill="url(#paint24_linear)"/>
<path d="M111.19 58.391C111.087 66.3339 110.507 74.2634 109.451 82.1364C108.407 89.925 106.9 97.6445 104.938 105.254L107.367 105.907C109.422 103.992 112.014 100.975 113.265 96.7147C114.041 94.0692 113.782 92.7098 114.275 89.4556C115.059 84.275 116.647 81.5605 118.288 77.3812C119.763 73.6267 121.507 68.1171 122.441 60.7527L111.19 58.391Z" fill="url(#paint25_linear)"/>
<path style="mix-blend-mode:multiply" opacity="0.3" d="M110.586 92.4682C111.398 90.2227 112.388 89.5316 112.83 87.1788C113.215 85.1266 112.686 84.4598 112.67 82.3699C112.637 78.2045 114.707 76.8251 115.394 73.3936C115.768 71.5332 113.325 66.8346 111.083 62.778C111.135 61.2814 111.171 59.8192 111.189 58.3915L122.443 60.7512C121.508 68.1156 119.765 73.6251 118.29 77.3796C116.65 81.557 115.06 84.2715 114.276 89.454C113.784 92.7082 114.042 94.0677 113.266 96.7131C112.016 100.975 109.423 103.992 107.368 105.906L107.139 105.844C109.21 103.144 109.854 100.851 109.945 99.0366C110.039 97.1668 109.57 95.2736 110.586 92.4682Z" fill="url(#paint26_linear)"/>
<path d="M118.988 59.2252C119.485 68.2507 119.889 77.4432 120.201 86.8027C120.433 93.8254 120.604 100.757 120.716 107.597L123.198 107.903C124.335 105.792 125.204 103.548 125.787 101.223C126.67 97.6806 126.465 95.5768 126.853 91.9057C127.288 87.788 127.919 86.8906 129.039 81.6966C131.309 71.1546 132.445 65.8836 129.912 62.6051C129.089 61.5392 126.511 58.8689 118.988 59.2252Z" fill="url(#paint27_linear)"/>
<path d="M130.445 32.3142C127.471 31.4771 124.413 30.9664 121.328 30.7912C115.663 30.4712 112.831 30.3296 111.169 31.6315C106.013 35.6692 110.9 50.1014 109.062 57.685C107.516 64.0655 107.459 64.1768 107.459 64.1768C107.094 64.8899 106.502 65.8812 106.738 67.0618C106.923 67.9905 107.626 69.0578 108.581 69.3862C110.565 70.069 111.703 66.8963 114.991 65.9398C118.43 64.9401 122.278 66.9266 127.144 69.4379C130.241 71.0364 131.298 72.056 132.383 71.5502C134.472 70.5758 133.898 65.2352 133.665 63.0534C132.741 54.3911 131.698 44.2441 130.445 32.3142Z" fill="url(#paint28_linear)"/>
<path style="mix-blend-mode:multiply" opacity="0.3" d="M110.184 66.3407C110.744 65.3707 110.721 63.9059 111.948 63.2147C112.663 62.8117 113.221 63.0001 114.192 62.9742C117.086 62.8972 117.64 61.0766 119.642 60.9708C122.742 60.8068 124.232 65.0244 125.973 64.4172C127.111 64.0197 127.843 61.7459 127.256 60.0088C126.438 57.5875 123.634 57.9189 119.962 54.6389C118.392 53.2362 116.136 50.704 116.756 49.59C117.407 48.4198 120.491 50.1366 122.769 48.3875C124.097 47.3669 123.928 46.1058 125.013 43.8191C125.601 42.5804 127.754 39.359 130.957 37.1871C131.987 47.035 132.871 55.5949 133.669 63.0547C133.902 65.2351 134.476 70.5757 132.386 71.5515C131.301 72.0574 130.244 71.0378 127.147 69.4393C122.281 66.928 118.433 64.9414 114.994 65.9412C111.704 66.8977 110.567 70.0703 108.584 69.3876C107.965 69.1744 107.454 68.6487 107.119 68.0529C108.886 67.7329 109.763 67.0711 110.184 66.3407Z" fill="url(#paint29_linear)"/>
<path d="M119.9 26.4812C119.897 26.9115 119.507 29.0685 120.951 30.1144C122.408 31.1693 124.242 31.1122 124.788 31.2473C126.054 31.5614 126.217 31.5529 126.245 31.6786C126.381 32.2918 122.928 34.3812 119.36 33.8774C117.176 33.5693 115.19 32.3236 115.312 31.6692C115.434 31.0148 116.796 31.3641 117.446 30.1731C117.898 29.3448 118.211 28.1681 117.612 27.1942C118.193 26.1065 119.32 27.5684 119.9 26.4812Z" fill="url(#paint30_linear)"/>
<path d="M115.28 26.3912C114.665 25.7502 114.485 24.5229 115.001 23.6712C115.449 22.9383 116.264 22.743 116.753 22.6277C118.17 22.2889 120.055 22.6705 120.845 23.9167C121.313 24.6556 120.701 26.3813 120.61 26.6893C120.506 27.0372 120.262 27.1827 120.05 27.462C119.759 27.8491 119.305 28.4637 118.563 29.4893C118.443 29.1651 118.294 28.852 118.119 28.5537C118.041 28.4205 117.727 27.9008 117.299 27.4903C116.44 26.6645 115.867 26.9989 115.28 26.3912Z" fill="url(#paint31_linear)"/>
<path d="M119.684 28.5651C119.684 28.5651 118.925 30.2287 117.03 30.3325C115.333 30.4259 114.631 26.6793 115.611 25.7481C115.937 25.4376 116.643 25.2403 117.246 25.3337C117.603 25.3889 117.737 25.5181 118.322 25.5966C118.862 25.6696 119.002 25.5936 119.176 25.7074C119.393 25.85 119.587 26.2401 119.39 27.3834C119.673 27.0197 120.043 26.8483 120.335 26.9447C120.433 26.9844 120.519 27.0506 120.583 27.136C120.87 27.539 120.542 28.1372 119.684 28.5651Z" fill="url(#paint32_linear)"/>
<path d="M119.225 25.472C119.151 25.5425 119.436 25.8153 119.506 26.2421C119.643 27.0699 118.92 28.1706 118.071 28.3589C117.569 28.4702 117.392 28.181 116.541 28.1934C116.127 28.2004 115.716 28.274 115.325 28.4115C115.171 29.3556 115.529 30.2366 116.19 30.5854C116.901 30.9611 117.707 30.5854 118.045 30.4264C118.27 30.3211 118.992 29.9847 119.302 29.2478C119.625 28.4796 119.171 28.0945 119.583 27.5519C119.79 27.2781 120.088 27.1345 120.334 26.6232C120.387 26.5135 120.432 26.3997 120.467 26.2829C119.977 25.8754 119.333 25.3726 119.225 25.472Z" fill="url(#paint33_linear)"/>
<path d="M126.052 34.7639C126.916 33.4521 128.635 32.1651 130.219 32.2794C134.84 32.6128 140.536 45.0609 136.629 49.9916C133.648 53.7555 124.437 53.9379 116.031 47.4271V45.2622C120.167 45.9856 123.596 46.4656 126.13 46.7846C127.709 46.9834 129.283 47.1633 129.576 46.5442C130.019 45.608 126.855 44.2689 125.651 40.7738C125.487 40.2923 124.429 37.2275 126.052 34.7639Z" fill="url(#paint34_linear)"/>
<path d="M113.045 45.7222C113.007 45.7287 110.922 44.3841 111.218 45.1756C111.513 45.9672 112.117 46.2464 112.117 46.2464C112.117 46.2464 111.018 46.6156 110.278 47.5259C109.539 48.4363 109.331 48.9784 109.811 49.0519C110.291 49.1254 114.255 47.278 115.277 47.3098C116.298 47.3416 116.519 47.2924 116.519 47.2924L116.581 45.8405C116.581 45.8405 113.989 45.5652 113.045 45.7222Z" fill="url(#paint35_linear)"/>
<path d="M111.295 27.4342C111.295 27.4342 111.655 27.4243 111.835 27.633C112.016 27.8417 112.898 27.232 113.236 26.5537C113.574 25.8754 113.158 25.1624 112.856 25.3115C112.555 25.4605 111.024 26.022 111.244 27.3636L111.295 27.4342Z" fill="url(#paint36_linear)"/>
<path d="M98.6781 53.7078C98.6416 53.7173 98.604 53.7218 98.5663 53.7212L85.0395 53.5145L79.4634 53.4276L74.8806 53.358L49.6664 52.798C47.258 52.7612 45.3231 50.801 45.3559 48.4254L45.7206 22.7699C45.7534 20.518 47.569 18.7719 49.8209 18.7391C49.9203 18.7352 50.0197 18.757 50.1191 18.763L50.4261 18.7983H50.4296L85.1384 21.1714C87.2859 21.2817 89.0141 23.1545 89.0086 25.3677L88.9639 45.7173L98.8063 52.9088C99.1204 53.1364 99.0145 53.6229 98.6781 53.7078Z" fill="url(#paint37_linear)"/>
<path d="M99.7723 52.9033L89.9289 45.7103L89.9736 25.3557C89.9785 23.143 88.2494 21.2603 86.1023 21.1485L51.0854 18.7421C48.6954 18.6173 46.7217 20.4186 46.6879 22.7669L46.3227 48.4233C46.2889 50.8015 48.2238 52.7612 50.6332 52.796L80.4293 53.4265L86.0034 53.514L99.5313 53.7222C99.9531 53.7286 100.12 53.1577 99.7723 52.9033Z" fill="url(#paint38_linear)"/>
<path d="M68.4743 46.0119C67.5381 46.0616 66.6671 45.7193 66.1821 45.1116L58.0435 34.8994C57.2808 33.9424 57.6917 32.6316 58.9608 31.9717C60.2298 31.3119 61.875 31.5534 62.6378 32.5099L68.2825 39.5985L75.7299 27.7467C76.3982 26.6828 78.0042 26.1949 79.3159 26.656C80.6277 27.1171 81.149 28.3529 80.4812 29.4157L70.8569 44.7449C70.4161 45.4465 69.5401 45.9294 68.5712 46.006L68.4743 46.0119Z" fill="white"/>
<path style="mix-blend-mode:multiply" opacity="0.2" d="M87.0662 53.3579L50.6337 52.7979C48.2253 52.7611 46.2899 50.8009 46.3227 48.4253L46.6879 22.7698C46.7207 20.5179 48.5363 18.7718 50.7882 18.739C50.8325 18.7678 50.8747 18.7991 50.9174 18.8319C52.99 20.3499 54.7703 22.7544 55.2593 26.565C56.6108 37.0887 61.9221 36.7016 67.3297 37.3784C70.0472 37.7183 72.5212 38.3265 74.9818 39.8892C77.4166 41.436 79.8464 43.9175 82.4889 48.0004C84.1783 50.6076 85.5805 52.2707 87.0429 53.3425C87.0503 53.3482 87.0581 53.3533 87.0662 53.3579Z" fill="url(#paint39_linear)"/>
</g>
<defs>
<linearGradient id="paint0_linear" x1="25.4502" y1="64.6388" x2="97.2578" y2="129.306" gradientUnits="userSpaceOnUse">
<stop stop-color="#AA80F9"/>
<stop offset="1" stop-color="#6165D7"/>
</linearGradient>
<linearGradient id="paint1_linear" x1="-199428" y1="-16612.8" x2="-127635" y2="85385.7" gradientUnits="userSpaceOnUse">
<stop stop-color="#AA80F9"/>
<stop offset="1" stop-color="#6165D7"/>
</linearGradient>
<linearGradient id="paint2_linear" x1="39.5434" y1="62.6909" x2="174.833" y2="184.373" gradientUnits="userSpaceOnUse">
<stop stop-color="#FF9797"/>
<stop offset="1" stop-color="#F67171"/>
</linearGradient>
<linearGradient id="paint3_linear" x1="308011" y1="147657" x2="252995" y2="195548" gradientUnits="userSpaceOnUse">
<stop stop-color="#AA80F9"/>
<stop offset="1" stop-color="#6165D7"/>
</linearGradient>
<linearGradient id="paint4_linear" x1="127153" y1="52463.3" x2="94174.3" y2="99446.7" gradientUnits="userSpaceOnUse">
<stop stop-color="#AA80F9"/>
<stop offset="1" stop-color="#6165D7"/>
</linearGradient>
<linearGradient id="paint5_linear" x1="113.588" y1="109.095" x2="205.369" y2="191.644" gradientUnits="userSpaceOnUse">
<stop stop-color="#FF9797"/>
<stop offset="1" stop-color="#F67171"/>
</linearGradient>
<linearGradient id="paint6_linear" x1="81.2574" y1="105.209" x2="-25.0078" y2="247.028" gradientUnits="userSpaceOnUse">
<stop stop-color="#FFC444"/>
<stop offset="1" stop-color="#F36F56"/>
</linearGradient>
<linearGradient id="paint7_linear" x1="46.3086" y1="136.694" x2="146.218" y2="136.694" gradientUnits="userSpaceOnUse">
<stop offset="0.49" stop-color="#EBEFF2"/>
<stop offset="1" stop-color="white"/>
</linearGradient>
<linearGradient id="paint8_linear" x1="2742.32" y1="1910.78" x2="-230.083" y2="5024.93" gradientUnits="userSpaceOnUse">
<stop stop-color="#FFDCC5"/>
<stop offset="1" stop-color="#FFCBEA"/>
</linearGradient>
<linearGradient id="paint9_linear" x1="77.3345" y1="106.755" x2="114.998" y2="106.755" gradientUnits="userSpaceOnUse">
<stop stop-color="#FF2F2F"/>
<stop offset="1" stop-color="#FF7070"/>
</linearGradient>
<linearGradient id="paint10_linear" x1="-113229" y1="8518.53" x2="-89952.7" y2="8518.53" gradientUnits="userSpaceOnUse">
<stop stop-color="#FF9085"/>
<stop offset="1" stop-color="#FB6FBB"/>
</linearGradient>
<linearGradient id="paint11_linear" x1="57.0884" y1="112.294" x2="91.1637" y2="112.294" gradientUnits="userSpaceOnUse">
<stop stop-color="#FF2F2F"/>
<stop offset="1" stop-color="#FF7070"/>
</linearGradient>
<linearGradient id="paint12_linear" x1="82.173" y1="64.7019" x2="20.1366" y2="84.9453" gradientUnits="userSpaceOnUse">
<stop stop-color="#311944"/>
<stop offset="1" stop-color="#6B3976"/>
</linearGradient>
<linearGradient id="paint13_linear" x1="100922" y1="7000.35" x2="22906" y2="34389.1" gradientUnits="userSpaceOnUse">
<stop stop-color="#311944"/>
<stop offset="1" stop-color="#6B3976"/>
</linearGradient>
<linearGradient id="paint14_linear" x1="3306.44" y1="5206.01" x2="-3034.36" y2="8108.28" gradientUnits="userSpaceOnUse">
<stop stop-color="#FFBB8E"/>
<stop offset="1" stop-color="#FFCBEA"/>
</linearGradient>
<linearGradient id="paint15_linear" x1="3061.17" y1="5698.89" x2="-3106.36" y2="8072.95" gradientUnits="userSpaceOnUse">
<stop stop-color="#FFDCC5"/>
<stop offset="1" stop-color="#FFCBEA"/>
</linearGradient>
<linearGradient id="paint16_linear" x1="72393.5" y1="59624.7" x2="54812.6" y2="59624.7" gradientUnits="userSpaceOnUse">
<stop stop-color="#FF9085"/>
<stop offset="1" stop-color="#FB6FBB"/>
</linearGradient>
<linearGradient id="paint17_linear" x1="1248.25" y1="1871.8" x2="-1001.1" y2="2877.12" gradientUnits="userSpaceOnUse">
<stop stop-color="#FFBB8E"/>
<stop offset="1" stop-color="#FFCBEA"/>
</linearGradient>
<linearGradient id="paint18_linear" x1="-33314.8" y1="21059.1" x2="-42724" y2="37153.5" gradientUnits="userSpaceOnUse">
<stop stop-color="#FFC444"/>
<stop offset="1" stop-color="#F36F56"/>
</linearGradient>
<linearGradient id="paint19_linear" x1="113.798" y1="22.4849" x2="113.221" y2="27.537" gradientUnits="userSpaceOnUse">
<stop stop-color="#311944"/>
<stop offset="1" stop-color="#893976"/>
</linearGradient>
<linearGradient id="paint20_linear" x1="5430.41" y1="5385.36" x2="5697.05" y2="5574.02" gradientUnits="userSpaceOnUse">
<stop stop-color="#311944"/>
<stop offset="1" stop-color="#893976"/>
</linearGradient>
<linearGradient id="paint21_linear" x1="623.589" y1="1122.95" x2="-431.953" y2="1501.29" gradientUnits="userSpaceOnUse">
<stop stop-color="#FFBB8E"/>
<stop offset="1" stop-color="#FFCBEA"/>
</linearGradient>
<linearGradient id="paint22_linear" x1="100.043" y1="107.996" x2="105.087" y2="109.414" gradientUnits="userSpaceOnUse">
<stop stop-color="#444B8C"/>
<stop offset="1" stop-color="#26264F"/>
</linearGradient>
<linearGradient id="paint23_linear" x1="124.838" y1="113.887" x2="120.317" y2="111.238" gradientUnits="userSpaceOnUse">
<stop stop-color="#444B8C"/>
<stop offset="1" stop-color="#26264F"/>
</linearGradient>
<linearGradient id="paint24_linear" x1="725.814" y1="1085.72" x2="-490.283" y2="1643.77" gradientUnits="userSpaceOnUse">
<stop stop-color="#FFBB8E"/>
<stop offset="1" stop-color="#FFCBEA"/>
</linearGradient>
<linearGradient id="paint25_linear" x1="75751.8" y1="89079" x2="93522.7" y2="74322.1" gradientUnits="userSpaceOnUse">
<stop stop-color="#AB316D"/>
<stop offset="1" stop-color="#792D3D"/>
</linearGradient>
<linearGradient id="paint26_linear" x1="66204.1" y1="89075.1" x2="83393.7" y2="76594.2" gradientUnits="userSpaceOnUse">
<stop stop-color="#AB316D"/>
<stop offset="1" stop-color="#792D3D"/>
</linearGradient>
<linearGradient id="paint27_linear" x1="51131.4" y1="70123.2" x2="68046.2" y2="62989.5" gradientUnits="userSpaceOnUse">
<stop stop-color="#AB316D"/>
<stop offset="1" stop-color="#792D3D"/>
</linearGradient>
<linearGradient id="paint28_linear" x1="104.976" y1="26.9597" x2="134.002" y2="69.1254" gradientUnits="userSpaceOnUse">
<stop stop-color="#FFC444"/>
<stop offset="1" stop-color="#F36F56"/>
</linearGradient>
<linearGradient id="paint29_linear" x1="130086" y1="40720.8" x2="118951" y2="31386.4" gradientUnits="userSpaceOnUse">
<stop stop-color="#AA80F9"/>
<stop offset="1" stop-color="#6165D7"/>
</linearGradient>
<linearGradient id="paint30_linear" x1="3216.02" y1="3029.9" x2="-1495.66" y2="6556.92" gradientUnits="userSpaceOnUse">
<stop stop-color="#FFBB8E"/>
<stop offset="1" stop-color="#FFCBEA"/>
</linearGradient>
<linearGradient id="paint31_linear" x1="39417" y1="10325.8" x2="38599.4" y2="8932.79" gradientUnits="userSpaceOnUse">
<stop stop-color="#311944"/>
<stop offset="1" stop-color="#6B3976"/>
</linearGradient>
<linearGradient id="paint32_linear" x1="1679.51" y1="2044.17" x2="-1139.69" y2="3628.1" gradientUnits="userSpaceOnUse">
<stop stop-color="#FFDCC5"/>
<stop offset="1" stop-color="#FFCBEA"/>
</linearGradient>
<linearGradient id="paint33_linear" x1="32036.5" y1="7608.18" x2="31439.2" y2="6522.3" gradientUnits="userSpaceOnUse">
<stop stop-color="#311944"/>
<stop offset="1" stop-color="#6B3976"/>
</linearGradient>
<linearGradient id="paint34_linear" x1="-38435" y1="24390.3" x2="-49352.4" y2="42994.4" gradientUnits="userSpaceOnUse">
<stop stop-color="#FFC444"/>
<stop offset="1" stop-color="#F36F56"/>
</linearGradient>
<linearGradient id="paint35_linear" x1="2100.98" y1="1703.8" x2="-585.399" y2="4042.13" gradientUnits="userSpaceOnUse">
<stop stop-color="#FFBB8E"/>
<stop offset="1" stop-color="#FFCBEA"/>
</linearGradient>
<linearGradient id="paint36_linear" x1="717.482" y1="982.947" x2="-469.813" y2="1527.94" gradientUnits="userSpaceOnUse">
<stop stop-color="#FFBB8E"/>
<stop offset="1" stop-color="#FFCBEA"/>
</linearGradient>
<linearGradient id="paint37_linear" x1="30564" y1="22005" x2="88465.6" y2="22005" gradientUnits="userSpaceOnUse">
<stop stop-color="#311944"/>
<stop offset="1" stop-color="#893976"/>
</linearGradient>
<linearGradient id="paint38_linear" x1="46.323" y1="36.2288" x2="99.9607" y2="36.2288" gradientUnits="userSpaceOnUse">
<stop stop-color="#FF2F2F"/>
<stop offset="1" stop-color="#FF7070"/>
</linearGradient>
<linearGradient id="paint39_linear" x1="24020.5" y1="21650" x2="57429.7" y2="21650" gradientUnits="userSpaceOnUse">
<stop stop-color="#FF9085"/>
<stop offset="1" stop-color="#FB6FBB"/>
</linearGradient>
<clipPath id="clip0">
<rect width="140" height="157.086" fill="white" transform="translate(15 5)"/>
</clipPath>
</defs>
</svg>
