<svg width="40" height="40" viewBox="0 0 40 40" fill="none" xmlns="http://www.w3.org/2000/svg">
<rect width="40" height="40" rx="20" transform="matrix(-1 0 0 1 40 0)" fill="url(#paint0_linear)"/>
<path d="M23.1928 19.6799L17.4833 14.2987C17.2962 14.1225 16.9933 14.1228 16.8066 14.2996C16.62 14.4764 16.6205 14.7628 16.8075 14.9391L22.1772 20.0001L16.8073 25.061C16.6203 25.2374 16.6198 25.5236 16.8064 25.7005C16.9 25.7891 17.0226 25.8334 17.1453 25.8334C17.2676 25.8334 17.3898 25.7894 17.4832 25.7014L23.1928 20.3203C23.2829 20.2355 23.3334 20.1202 23.3334 20.0001C23.3334 19.88 23.2827 19.7648 23.1928 19.6799Z" fill="#121747"/>
<defs>
<linearGradient id="paint0_linear" x1="-24.171" y1="23.5856" x2="23.0002" y2="63.5856" gradientUnits="userSpaceOnUse">
<stop stop-color="#CBA054"/>
<stop offset="1" stop-color="#FFE381"/>
</linearGradient>
</defs>
</svg>
