<svg width="54" height="54" viewBox="0 0 54 54" fill="none" xmlns="http://www.w3.org/2000/svg">
<path d="M53.6673 33.0069V29.8819H45.2298V23.6666H42.8526C41.9969 17.5333 37.6534 12.5023 31.8965 10.6486V4.32627H28.5632V0.333252H25.4382V4.32627H22.1048V10.6486C16.3478 12.5023 12.0044 17.5333 11.1487 23.6666H8.77148V29.8819H0.333984V33.0069H2.86003V50.5416H0.333984V53.6666H53.6673V50.5416H51.1413V33.0069H53.6673ZM13.0076 47.8333H9.88263V43.3888H13.0076V47.8333ZM13.0076 40.1596H9.88263V35.7151H13.0076V40.1596ZM29.8826 19.2221H33.0076V23.6666H29.8826V19.2221ZM20.9937 19.2221H24.1187V23.6666H20.9937V19.2221ZM35.5857 50.5416H32.4607V41.4582L27.0007 38.7447L21.5405 41.4582V50.5416H18.4155V39.5215L27.0007 35.2551L35.5857 39.5215V50.5416ZM44.1187 47.8333H40.9937V43.3888H44.1187V47.8333ZM44.1187 40.1597H40.9937V35.7152H44.1187V40.1597Z" fill="url(#paint0_linear)"/>
<defs>
<linearGradient id="paint0_linear" x1="0.33158" y1="0.325217" x2="54.3272" y2="1.00435" gradientUnits="userSpaceOnUse">
<stop stop-color="#EF6161"/>
<stop offset="1" stop-color="#FF8080"/>
</linearGradient>
</defs>
</svg>
