<svg width="12" height="12" viewBox="0 0 12 12" fill="none" xmlns="http://www.w3.org/2000/svg">
<path d="M1.216 5.55423L5.52393 1.18449C5.76743 0.938502 6.16325 0.938502 6.40675 1.18449C6.65087 1.43049 6.65087 1.83004 6.40675 2.07603L2.53834 5.99997L6.40675 9.92391C6.65087 10.1699 6.65087 10.5695 6.40675 10.8155C6.16263 11.0614 5.76743 11.0614 5.52393 10.8155L1.21662 6.44572C0.981268 6.20917 0.980646 5.7915 1.216 5.55423Z" fill="#888888"/>
<path d="M5.58709 5.55423L9.8944 1.18449C10.1385 0.938502 10.5337 0.938502 10.7772 1.18449C11.0213 1.43049 11.0213 1.83004 10.7772 2.07603L6.90943 5.99997L10.7778 9.92391C11.022 10.1699 11.022 10.5695 10.7778 10.8155C10.5337 11.0614 10.1385 11.0614 9.89502 10.8155L5.58772 6.44572C5.35236 6.20917 5.35174 5.7915 5.58709 5.55423Z" fill="#888888"/>
</svg>
