<svg width="24" height="24" viewBox="0 0 24 24" fill="none" xmlns="http://www.w3.org/2000/svg">
<g clip-path="url(#clip0)">
<path d="M21.0826 20.1775H2.90892C2.4068 20.1775 2 20.5843 2 21.0868C2 21.5885 2.4068 21.9953 2.90892 21.9953H21.0821C21.5843 21.9953 21.9911 21.5885 21.9911 21.0868C21.9906 20.5843 21.5838 20.1775 21.0826 20.1775Z" fill="#888888"/>
<path d="M4.04368 17.8146C3.54157 17.8146 3.13477 18.2213 3.13477 18.7235C3.13477 19.2256 3.54157 19.6328 4.04368 19.6328H19.9455C20.4476 19.6328 20.8544 19.2256 20.8544 18.7235C20.8544 18.2213 20.4476 17.8146 19.9455 17.8146H19.7187V9.636H19.9455C20.197 9.636 20.3995 9.4326 20.3995 9.18197C20.3995 8.93134 20.1961 8.72794 19.9455 8.72794H4.04368C3.79262 8.72794 3.58965 8.93134 3.58965 9.18197C3.58965 9.4326 3.79305 9.636 4.04368 9.636H4.27091V17.8141H4.04368V17.8146ZM17.9008 9.636V17.8141H15.1749V9.636H17.9008ZM13.3571 9.636V17.8141H10.6312V9.636H13.3571ZM6.08789 9.636H8.81379V17.8141H6.08789V9.636Z" fill="#888888"/>
<path d="M2.90893 7.91093H21.0822C21.0851 7.91093 21.0886 7.91093 21.0911 7.91093C21.5936 7.91093 22 7.50413 22 7.00201C22 6.60287 21.743 6.26458 21.386 6.14203L12.3692 2.08467C12.1321 1.97829 11.8611 1.97829 11.6236 2.08467L2.53618 6.17352C2.14512 6.34968 1.93023 6.77436 2.02044 7.19307C2.11023 7.61178 2.48043 7.91093 2.90893 7.91093Z" fill="#888888"/>
</g>
<defs>
<clipPath id="clip0">
<rect width="20" height="20" fill="white" transform="translate(2 2)"/>
</clipPath>
</defs>
</svg>
