<svg width="64" height="64" viewBox="0 0 64 64" fill="none" xmlns="http://www.w3.org/2000/svg">
<g clip-path="url(#clip0)">
<path d="M35.3178 26.2807H35.3188C39.1298 16.1474 31.591 5.33325 20.8205 5.33325C12.2809 5.33325 5.33398 12.2844 5.33398 20.8292C5.33398 31.652 16.2011 39.1532 26.2888 35.3275C28.1387 31.3536 31.3491 28.1369 35.3178 26.2807ZM22.3891 29.2684V31.0326C22.3891 31.8985 21.6874 32.6012 20.8205 32.6012C19.9546 32.6012 19.2519 31.8985 19.2519 31.0326V29.2684C18.593 29.2684 17.1062 29.3706 15.4224 28.2007C14.7112 27.7071 14.5345 26.7293 15.0291 26.0182C15.5227 25.3061 16.5005 25.1304 17.2116 25.624C17.638 25.9232 18.1782 26.1252 18.7112 26.1312H22.7332C23.7448 26.1312 24.5967 25.3138 24.5967 24.2645C24.5967 23.2355 23.7601 22.3978 22.7322 22.3978C21.4483 22.3978 20.4116 22.3978 18.9089 22.3978C16.1512 22.3978 13.9071 20.1536 13.9071 17.3939C13.9071 14.879 15.7793 12.39 19.2519 12.39V10.6268C19.2519 9.75992 19.9546 9.05822 20.8205 9.05822C21.6874 9.05822 22.3891 9.75992 22.3891 10.6268V12.39C24.2375 12.39 25.7192 13.0883 26.8127 14.2556C27.4046 14.8883 27.3722 15.8807 26.7405 16.4736C26.116 17.0576 25.1278 17.0422 24.5235 16.4004C24.009 15.8525 23.3073 15.5346 22.5962 15.5272H18.9089C17.8769 15.5272 17.0443 16.3662 17.0443 17.3939C17.0443 18.4229 17.8809 19.2606 18.9089 19.2606H22.4937C25.7387 19.2606 27.734 21.6768 27.734 24.2645C27.734 26.8341 25.8072 29.2684 22.3891 29.2684Z" fill="url(#paint0_linear)"/>
<path d="M43.1818 27.6748C34.6524 27.6748 27.6953 34.6135 27.6953 43.1707C27.6953 51.7156 34.6422 58.6667 43.1818 58.6667C51.7215 58.6667 58.6684 51.7156 58.6684 43.1707C58.6684 34.6259 51.7215 27.6748 43.1818 27.6748ZM50.1643 51.5148C49.9041 52.3379 49.0238 52.7989 48.1952 52.5354C44.9161 51.4953 42.0895 51.7014 39.0762 52.5501C37.7351 52.9268 36.6029 51.4942 37.2807 50.2766C38.1936 48.639 38.7855 46.8748 39.0449 45.0541H37.6937C36.8279 45.0541 36.1251 44.3514 36.1251 43.4855C36.1251 42.6186 36.8279 41.9169 37.6937 41.9169H39.162C39.1327 41.4796 39.1123 41.3317 38.9664 40.0042C38.5997 36.6532 41.2275 33.7328 44.5852 33.7328C46.2009 33.7328 47.7424 34.4262 48.8153 35.6361C49.3905 36.2845 49.3309 37.2758 48.6825 37.85C48.0286 38.4299 47.0375 38.3597 46.4676 37.7171C44.864 35.9062 41.8178 37.2051 42.0849 39.6622C42.2326 41.0061 42.2697 41.285 42.3055 41.9169H44.4974C45.3633 41.9169 46.066 42.6186 46.066 43.4855C46.066 44.3514 45.3633 45.0541 44.4974 45.0541H42.2093C42.0587 46.3456 41.768 47.6162 41.3434 48.8481C44.0455 48.4946 46.7174 48.7718 49.1437 49.5456C49.9698 49.8071 50.4268 50.6897 50.1643 51.5148Z" fill="url(#paint1_linear)"/>
<path d="M44.262 10.3277C47.3572 10.3277 50.5867 12.6677 50.5867 16.9285V18.3925L49.1822 16.9881C48.5725 16.3783 47.5777 16.3745 46.9632 16.9881C46.3514 17.6009 46.3514 18.5944 46.9632 19.2072L51.0458 23.2898C51.6655 23.9091 52.6586 23.8953 53.2638 23.2898L53.2649 23.2887L57.3464 19.2072C57.9592 18.5944 57.9592 17.6009 57.3464 16.9881C56.7347 16.3763 55.7412 16.3763 55.1284 16.9881L53.7239 18.3925V16.9285C53.7239 11.224 49.3883 7.19043 44.262 7.19043C43.3961 7.19043 42.6934 7.89213 42.6934 8.75906C42.6934 9.62494 43.3961 10.3277 44.262 10.3277Z" fill="url(#paint2_linear)"/>
<path d="M19.7394 53.672C16.6441 53.672 13.4147 51.3321 13.4147 47.0712V45.6072L14.8191 47.0116C15.4256 47.6182 16.4186 47.629 17.0382 47.0116C17.65 46.3988 17.65 45.4054 17.0382 44.7925L12.9556 40.711V40.7099C12.3228 40.0776 11.3365 40.1108 10.7365 40.7099V40.711L6.65492 44.7925C6.04211 45.4054 6.04211 46.3988 6.65492 47.0116C7.26669 47.6234 8.26015 47.6234 8.87296 47.0116L10.2774 45.6072V47.0712C10.2774 52.7757 14.6131 56.8093 19.7394 56.8093C20.6052 56.8093 21.308 56.1076 21.308 55.2407C21.308 54.3748 20.6052 53.672 19.7394 53.672Z" fill="url(#paint3_linear)"/>
</g>
<defs>
<linearGradient id="paint0_linear" x1="5.33259" y1="5.32858" x2="36.7043" y2="5.72292" gradientUnits="userSpaceOnUse">
<stop stop-color="#EF6161"/>
<stop offset="1" stop-color="#FF8080"/>
</linearGradient>
<linearGradient id="paint1_linear" x1="27.6939" y1="27.6701" x2="59.0516" y2="28.0643" gradientUnits="userSpaceOnUse">
<stop stop-color="#EF6161"/>
<stop offset="1" stop-color="#FF8080"/>
</linearGradient>
<linearGradient id="paint2_linear" x1="42.6927" y1="7.18793" x2="57.9934" y2="7.36358" gradientUnits="userSpaceOnUse">
<stop stop-color="#EF6161"/>
<stop offset="1" stop-color="#FF8080"/>
</linearGradient>
<linearGradient id="paint3_linear" x1="6.19463" y1="40.2456" x2="21.4954" y2="40.4212" gradientUnits="userSpaceOnUse">
<stop stop-color="#EF6161"/>
<stop offset="1" stop-color="#FF8080"/>
</linearGradient>
<clipPath id="clip0">
<rect width="53.3333" height="53.3333" fill="white" transform="translate(5.33398 5.33325)"/>
</clipPath>
</defs>
</svg>
