<svg width="24" height="24" viewBox="0 0 24 24" fill="none" xmlns="http://www.w3.org/2000/svg">
<g clip-path="url(#clip0)">
<path d="M21.5833 10.3333H2.41668C2.16668 10.3333 2 10.5 2 10.75V16.5833C2 17.75 2.91668 18.6666 4.08332 18.6666H19.9166C21.0833 18.6666 22 17.75 22 16.5833V10.75C22 10.5 21.8333 10.3333 21.5833 10.3333ZM4.91668 13.6667H8.25C8.5 13.6667 8.66668 13.8334 8.66668 14.0834C8.66668 14.3334 8.5 14.5 8.25 14.5H4.91668C4.66668 14.5 4.5 14.3333 4.5 14.0833C4.5 13.8333 4.66668 13.6667 4.91668 13.6667ZM10.75 16.1667H4.91668C4.66668 16.1667 4.5 16 4.5 15.75C4.5 15.5 4.66668 15.3333 4.91668 15.3333H10.75C11 15.3333 11.1667 15.5 11.1667 15.75C11.1667 16 11 16.1667 10.75 16.1667ZM17.8333 16.1667C17.5 16.1667 17.25 16.0834 17 15.9167C16.75 16.0834 16.5 16.1667 16.1667 16.1667C15.25 16.1667 14.5 15.4167 14.5 14.5C14.5 13.5833 15.25 12.8333 16.1667 12.8333C16.5 12.8333 16.75 12.9166 17 13.0833C17.25 12.9166 17.5 12.8333 17.8333 12.8333C18.75 12.8333 19.5 13.5833 19.5 14.5C19.5 15.4167 18.75 16.1667 17.8333 16.1667Z" fill="#888888"/>
<path d="M19.9167 5.33331H4.08332C2.91668 5.33331 2 6.24999 2 7.41667V8.24999C2 8.49999 2.16668 8.66667 2.41668 8.66667H21.5834C21.8334 8.66667 22 8.49999 22 8.24999V7.41667C22 6.24999 21.0833 5.33331 19.9167 5.33331Z" fill="#888888"/>
</g>
<defs>
<clipPath id="clip0">
<rect width="20" height="20" fill="white" transform="translate(2 2)"/>
</clipPath>
</defs>
</svg>
