<svg width="48" height="48" viewBox="0 0 48 48" fill="none" xmlns="http://www.w3.org/2000/svg">
<g filter="url(#filter0_d)">
<circle cx="24" cy="22" r="20" fill="white"/>
</g>
<g clip-path="url(#clip0)">
<path d="M30.5 27.1999L25.3 22L30.5001 16.8C30.8588 16.4413 30.8588 15.8588 30.5 15.5C30.1412 15.1412 29.5588 15.1412 29.2 15.5L24 20.7L18.8 15.5C18.4412 15.1412 17.8588 15.1412 17.5 15.5C17.1412 15.8588 17.1412 16.4413 17.4999 16.8L22.7 22L17.5 27.1999C17.1412 27.5588 17.1412 28.1413 17.4999 28.5C17.8588 28.8588 18.4412 28.8588 18.8001 28.5L24 23.3001L29.1999 28.5C29.5588 28.8588 30.1412 28.8588 30.5001 28.5C30.8588 28.1413 30.8588 27.5588 30.5 27.1999Z" fill="#888888"/>
</g>
<defs>
<filter id="filter0_d" x="0" y="0" width="48" height="48" filterUnits="userSpaceOnUse" color-interpolation-filters="sRGB">
<feFlood flood-opacity="0" result="BackgroundImageFix"/>
<feColorMatrix in="SourceAlpha" type="matrix" values="0 0 0 0 0 0 0 0 0 0 0 0 0 0 0 0 0 0 127 0"/>
<feOffset dy="2"/>
<feGaussianBlur stdDeviation="2"/>
<feColorMatrix type="matrix" values="0 0 0 0 0 0 0 0 0 0 0 0 0 0 0 0 0 0 0.15 0"/>
<feBlend mode="normal" in2="BackgroundImageFix" result="effect1_dropShadow"/>
<feBlend mode="normal" in="SourceGraphic" in2="effect1_dropShadow" result="shape"/>
</filter>
<clipPath id="clip0">
<rect width="20" height="20" fill="white" transform="translate(14 12)"/>
</clipPath>
</defs>
</svg>
