<svg width="64" height="64" viewBox="0 0 64 64" fill="none" xmlns="http://www.w3.org/2000/svg">
<g clip-path="url(#clip0)">
<path d="M55.0476 25.1104C53.505 26.5608 51.7887 27.8148 49.9381 28.8437C46.3314 30.9475 39.6933 33.2056 34.36 35.0199L32.6305 35.6094L39.3228 31.8485C39.3447 31.837 39.3809 31.8123 39.4133 31.7904L41.0905 30.7999L41.1857 30.7437C43.2887 29.5171 45.3205 28.1724 47.2714 26.7161C49.0629 25.4018 50.7616 23.9653 52.3552 22.417C54.6766 20.1904 56.4295 17.439 57.4667 14.3942C57.5977 13.9563 57.703 13.5111 57.7819 13.0608C58.2337 14.3129 58.4626 15.6345 58.4581 16.9656C58.4477 20.0257 57.2207 22.9559 55.0476 25.1104ZM29.0476 39.9818L28.28 40.7494C28.0142 39.5205 27.3835 38.4005 26.4705 37.5361C25.5855 36.6419 24.4644 36.0179 23.2381 35.737L24.0171 34.9561C24.0463 34.9334 24.074 34.9089 24.1 34.8827C24.7872 34.1907 25.7288 33.8119 26.7038 33.8351C27.6098 33.8341 28.4782 34.1976 29.1133 34.8437C29.1429 34.8748 29.1748 34.9038 29.2086 34.9304C30.5268 36.3397 30.4846 38.5421 29.1133 39.8999C29.0898 39.9258 29.0679 39.9532 29.0476 39.9818ZM14.4981 54.5265C13.6314 55.3923 11.7505 54.9742 10.3876 53.6123C9.74994 52.9809 9.29851 52.1861 9.08284 51.3151C8.89561 50.6854 9.04127 50.0038 9.4695 49.5056L21 37.9818L21.0162 37.9665C21.3357 37.6598 21.767 37.4973 22.2095 37.517H22.2143C23.3281 37.5992 24.371 38.0948 25.1381 38.9065C26.2743 39.9675 26.9352 41.9542 26.0905 42.9313L26.0362 42.9932L14.4981 54.5265ZM31.0981 34.258L55.6838 9.66275C56.179 11.0131 56.1662 12.4974 55.6476 13.8389C54.7025 16.5849 53.113 19.0643 51.0124 21.0694C49.482 22.5534 47.8515 23.9307 46.1324 25.1913C44.2523 26.5944 42.2953 27.8914 40.2705 29.0761L40.1752 29.1323L38.4133 30.1704C38.3981 30.1789 38.3724 30.1961 38.3486 30.2132L31.1143 34.278L31.0981 34.258ZM54.3362 8.31894L29.7571 32.9056C29.7 32.8656 29.6457 32.8227 29.5866 32.7846L34.8971 23.7789C36.0888 21.736 37.395 19.762 38.8095 17.8666C40.0717 16.1496 41.4485 14.5198 42.9305 12.9885C46.8952 9.03037 51.7838 7.11227 54.3343 8.31894H54.3362ZM35.1571 14.0589C36.1894 12.2106 37.4442 10.4956 38.8933 8.95227C41.0461 6.77977 43.9748 5.55305 47.0333 5.54275H47.0905C48.403 5.5449 49.7053 5.77365 50.94 6.21894C47.3554 7.06942 44.1011 8.95762 41.5838 11.6475C40.0386 13.2428 38.603 14.9406 37.2866 16.7294C35.8188 18.6935 34.4636 20.7393 33.2276 22.857L28.68 30.5713L32.1086 20.8161C32.1152 20.7989 32.1209 20.7808 32.1266 20.7637C32.9295 18.4408 33.944 16.1964 35.1571 14.0589ZM8.92093 13.2018C8.25712 12.8275 7.61903 12.4656 7.0476 12.1056C6.10067 11.5044 5.47914 10.5046 5.35903 9.38941C5.19272 7.84398 6.01967 6.36181 7.42212 5.69164C8.82458 5.02147 10.4973 5.30917 11.5952 6.40942C11.787 6.60305 11.9575 6.81665 12.1038 7.04656C12.4657 7.61799 12.8276 8.25703 13.2038 8.92084C14.2234 11.0067 15.6147 12.8892 17.3095 14.4761C16.8162 14.9094 16.3247 15.3608 15.8409 15.8447C15.3571 16.3285 14.9057 16.8199 14.4724 17.3132C12.887 15.6174 11.0058 14.2248 8.92093 13.2037V13.2018ZM15.1343 19.4694C16.4223 17.876 17.8748 16.4229 19.4676 15.1342C20.3897 14.276 21.4922 13.6353 22.6943 13.2589L30.1324 20.6961L26.1781 31.9465C25.2109 32.0265 24.2828 32.3642 23.4905 32.9246L13.2609 22.6942C13.6362 21.4932 14.2764 20.3918 15.1343 19.4713V19.4694ZM6.37236 57.6294C4.98693 56.2252 4.99971 53.9645 6.40093 52.5761L7.23427 51.7437C7.52807 52.9618 8.15454 54.0742 9.04379 54.957C9.91679 55.8576 11.0302 56.4883 12.2514 56.7742L11.4247 57.6008C10.0363 59.0039 7.77382 59.0176 6.36855 57.6313L6.37236 57.6294ZM31.0666 40.4999C31.6177 39.7117 31.9503 38.7916 32.0305 37.8332C32.9466 37.5151 33.9247 37.1799 34.9743 36.8237C37.6057 35.9285 40.5495 34.9256 43.3143 33.8799L50.7428 41.3084C50.6828 41.9513 49.5266 44.1046 46.8095 46.8123C44.0924 49.5199 41.9524 50.6818 41.3086 50.7418L31.0666 40.4999ZM57.5905 57.5903C56.8084 58.3751 55.7115 58.7607 54.6105 58.638C53.4961 58.5177 52.4971 57.8965 51.8962 56.9503C51.5343 56.3789 51.1724 55.7399 50.7962 55.0761C49.7767 52.9933 48.3871 51.1132 46.6952 49.5275C47.3705 48.9342 47.9 48.4161 48.1581 48.157C48.4162 47.898 48.9362 47.3675 49.5305 46.6913C51.1159 48.3838 52.9961 49.7737 55.079 50.7932C55.7457 51.1742 56.3828 51.5313 56.9505 51.8923C57.1816 52.0385 57.3962 52.2093 57.5905 52.4018C59.0218 53.8351 59.0218 56.157 57.5905 57.5903Z" fill="url(#paint0_linear)"/>
</g>
<defs>
<linearGradient id="paint0_linear" x1="5.33549" y1="5.32546" x2="59.3238" y2="6.00447" gradientUnits="userSpaceOnUse">
<stop stop-color="#EF6161"/>
<stop offset="1" stop-color="#FF8080"/>
</linearGradient>
<clipPath id="clip0">
<rect width="53.3333" height="53.3333" fill="white" transform="translate(5.33398 5.33325)"/>
</clipPath>
</defs>
</svg>
