<svg width="24" height="24" viewBox="0 0 24 24" fill="none" xmlns="http://www.w3.org/2000/svg">
<path fill-rule="evenodd" clip-rule="evenodd" d="M7.31475 6.42477C7.31475 6.77064 7.59355 7.051 7.9375 7.051C8.28145 7.051 8.56025 6.77064 8.56025 6.42477V2.62623C8.56025 2.28036 8.28145 2 7.9375 2C7.59355 2 7.31475 2.28036 7.31475 2.62623V6.42477ZM15.4397 6.42477C15.4397 6.77064 15.7185 7.051 16.0625 7.051C16.4064 7.051 16.6852 6.77064 16.6852 6.42477V2.62623C16.6852 2.28036 16.4064 2 16.0625 2C15.7185 2 15.4397 2.28036 15.4397 2.62623V6.42477ZM3 10.688V19.3287C3 20.8017 4.19167 22 5.65644 22H18.3436C19.8083 22 21 20.8017 21 19.3287V10.688H3ZM21 6.5706V9.4355H3V6.57056C3 5.09758 4.19167 3.89925 5.65644 3.89925H6.06929V6.42473C6.06929 7.46067 6.90735 8.30343 7.93753 8.30343C8.96771 8.30343 9.80577 7.46067 9.80577 6.42473V3.89925H14.1942V6.42477C14.1942 7.46071 15.0323 8.30346 16.0625 8.30346C17.0927 8.30346 17.9307 7.46071 17.9307 6.42477V3.89929H18.3435C19.8083 3.89929 21 5.09762 21 6.5706Z" fill="#C4C4C4"/>
</svg>
