<svg width="64" height="64" viewBox="0 0 64 64" fill="none" xmlns="http://www.w3.org/2000/svg">
<g clip-path="url(#clip0)">
<path d="M32.0007 5.33325C17.3538 5.33325 5.33398 17.353 5.33398 31.9999C5.33398 46.6468 17.3538 58.6666 32.0007 58.6666C46.6475 58.6666 58.6673 46.6468 58.6673 31.9999C58.6673 17.353 46.6475 5.33325 32.0007 5.33325ZM32.0007 11.5833C41.2127 11.5833 49.1044 17.8577 51.5828 26.2783C51.441 25.917 51.1707 25.6049 50.7908 25.4295C46.4847 23.4367 39.6438 21.0624 32.0007 21.0624C24.3575 21.0624 17.5166 23.4367 13.2105 25.4295C12.8307 25.605 12.5603 25.917 12.4185 26.2783C14.8969 17.8577 22.7886 11.5833 32.0007 11.5833ZM11.9876 36.023C12.1442 36.6101 12.6368 37.0767 13.2762 37.168L17.0302 37.6899C21.8109 38.372 25.6286 42.1897 26.3107 46.9703L26.8325 50.7244C26.9117 51.2783 27.2785 51.7113 27.7551 51.9217C19.8913 50.2348 13.5814 43.9213 11.9876 36.023ZM32.0007 36.6874C29.4159 36.6874 27.3132 34.5847 27.3132 31.9999C27.3132 29.4151 29.4159 27.3124 32.0007 27.3124C34.5854 27.3124 36.6882 29.4151 36.6882 31.9999C36.6882 34.5847 34.5854 36.6874 32.0007 36.6874ZM36.2462 51.9216C36.7228 51.7112 37.0896 51.2783 37.1688 50.7243L37.6907 46.9702C38.3727 42.1896 42.1904 38.3719 46.9711 37.6898L50.7251 37.1679C51.3645 37.0766 51.8571 36.61 52.0138 36.0229C50.4199 43.9213 44.11 50.2348 36.2462 51.9216Z" fill="url(#paint0_linear)"/>
<path d="M32 30.4375C31.1379 30.4375 30.4375 31.1379 30.4375 32C30.4375 32.8621 31.1379 33.5625 32 33.5625C32.8621 33.5625 33.5625 32.8621 33.5625 32C33.5625 31.1379 32.8621 30.4375 32 30.4375Z" fill="url(#paint1_linear)"/>
</g>
<defs>
<linearGradient id="paint0_linear" x1="5.33158" y1="5.32522" x2="59.3272" y2="6.00435" gradientUnits="userSpaceOnUse">
<stop stop-color="#EF6161"/>
<stop offset="1" stop-color="#FF8080"/>
</linearGradient>
<linearGradient id="paint1_linear" x1="30.4374" y1="30.437" x2="33.6012" y2="30.4768" gradientUnits="userSpaceOnUse">
<stop stop-color="#EF6161"/>
<stop offset="1" stop-color="#FF8080"/>
</linearGradient>
<clipPath id="clip0">
<rect width="53.3333" height="53.3333" fill="white" transform="translate(5.33398 5.33325)"/>
</clipPath>
</defs>
</svg>
