<svg width="64" height="64" viewBox="0 0 64 64" fill="none" xmlns="http://www.w3.org/2000/svg">
<g clip-path="url(#clip0)">
<path d="M35.0178 5.50521C33.3609 5.31799 32.0037 6.68768 32.0037 8.35512C32.0037 10.0225 33.3633 11.351 35.013 11.5933C44.9651 13.0547 52.6305 21.6516 52.6305 32.0041C52.6305 43.3788 43.3768 52.634 32.0037 52.634C21.654 52.634 13.06 44.9729 11.5927 35.0233H19.5029C20.8645 40.6661 25.9457 44.8733 32.0007 44.8733H35.0198V40.1921H40.5599C42.2274 40.1921 43.5791 38.8404 43.5791 37.1729C43.5791 35.5055 42.2274 34.1538 40.5599 34.1538H35.0198V29.8454H40.5599C42.2274 29.8454 43.5791 28.4937 43.5791 26.8263C43.5791 25.1589 42.2274 23.8071 40.5599 23.8071H35.0198V19.1275H32.0007C25.9442 19.1275 20.8645 23.3346 19.5029 28.9774H5.33398V31.9966C5.33398 46.6999 17.2974 58.6648 32.0022 58.6648C46.7054 58.6648 58.6673 46.6999 58.6673 31.9966C58.6673 18.315 48.3072 7.00679 35.0178 5.50521Z" fill="url(#paint0_linear)"/>
</g>
<defs>
<linearGradient id="paint0_linear" x1="5.33158" y1="5.48003" x2="59.3271" y2="6.16116" gradientUnits="userSpaceOnUse">
<stop stop-color="#EF6161"/>
<stop offset="1" stop-color="#FF8080"/>
</linearGradient>
<clipPath id="clip0">
<rect width="53.3333" height="53.3333" fill="white" transform="translate(5.33398 5.33325)"/>
</clipPath>
</defs>
</svg>
