<svg width="24" height="24" viewBox="0 0 24 24" fill="none" xmlns="http://www.w3.org/2000/svg">
<path fill-rule="evenodd" clip-rule="evenodd" d="M12 2C6.47715 2 2 6.47715 2 12C2 17.5228 6.47715 22 12 22C17.5228 22 22 17.5228 22 12C22 6.47715 17.5228 2 12 2ZM14.5525 8.25251C14.8824 7.92267 15.4176 7.92267 15.7475 8.25251C16.0773 8.58239 16.0774 9.11763 15.7475 9.4475L13.195 12L15.7475 14.5525C16.0773 14.8824 16.0774 15.4176 15.7475 15.7475C15.4176 16.0774 14.8824 16.0774 14.5525 15.7475L12 13.195L9.44756 15.7475C9.11765 16.0774 8.5824 16.0774 8.2525 15.7475C7.92263 15.4176 7.92269 14.8824 8.25256 14.5525L10.805 12L8.2525 9.4475C7.92263 9.11763 7.92269 8.58239 8.25256 8.25251C8.5824 7.92267 9.11765 7.92267 9.44749 8.25251L12 10.805L14.5525 8.25251Z" fill="#C4C4C4"/>
</svg>
