<svg width="64" height="64" viewBox="0 0 64 64" fill="none" xmlns="http://www.w3.org/2000/svg">
<g clip-path="url(#clip0)">
<path d="M53.2998 29.8924C51.6976 31.6909 50.1281 33.6282 49.0327 36.3011C48.5341 37.5355 47.3489 38.3366 46.0163 38.3366C44.6757 38.3366 43.4905 37.5355 42.9837 36.293C41.7165 33.1866 39.7956 31.0696 37.9318 29.0259C37.4659 28.511 36.9999 27.996 36.5422 27.4646C36.5177 27.4728 36.5012 27.481 36.4769 27.4891C34.6622 28.0367 33.2642 30.4401 34.1062 32.3938C34.6784 33.7344 38.6921 33.481 38.3489 36.3665C38.0628 38.7289 41.1525 39.3501 42.2479 39.2358C43.3434 39.105 45.0273 41.0342 44.1771 41.8843C43.3353 42.7345 41.7411 42.7672 41.9863 44.958C42.0517 45.5955 43.981 45.5139 43.981 46.4784C43.981 47.4511 42.9838 48.5548 43.7521 49.6747C43.9157 49.9198 44.0872 50.1079 44.2671 50.255C40.5723 53.6556 35.6431 55.74 30.2398 55.74C18.8201 55.74 9.53387 46.4538 9.53387 35.0341C9.53387 31.5682 10.3923 28.2984 11.9045 25.421C11.8963 29.1404 13.8827 32.2303 14.8146 33.1622C17.8554 36.1948 22.2615 35.2384 22.8255 37.7806C23.3977 40.3148 19.8009 40.3229 20.038 42.2602C20.2832 44.2057 24.9672 44.7208 23.9209 46.5109C22.5394 48.8897 24.8527 49.0613 24.1825 51.9959C23.8228 53.5982 26.1361 53.9087 26.9945 52.6908C27.6485 51.7589 27.5177 50.6144 28.8337 49.2167C30.4441 47.5 34.1799 47.2221 33.7629 44.3855C33.0518 39.6771 28.4741 38.9413 26.4795 37.8377C24.2152 36.5953 24.7711 33.6116 24.2805 32.1893C23.5939 30.1702 21.2642 32.7533 20.0216 31.5762C17.9781 29.647 20.3895 26.9167 22.1061 26.974C25.7273 27.0884 26.8391 30.6116 28.1714 30.4889C29.4712 30.3745 30.3132 28.5598 30.5421 27.5953C31.0244 25.4944 29.7246 26.4345 29.2015 25.3391C28.4985 23.8759 31.6702 22.478 32.8963 21.399C33.0844 21.2355 33.2233 21.0802 33.2968 20.933C33.6649 20.2137 33.1825 19.666 32.365 19.1674C30.7302 18.1782 27.7465 17.3935 27.6076 15.8486C27.5258 14.9003 29.3406 14.4426 31.4086 14.3608C31.7519 14.3772 32.0871 14.4099 32.4305 14.4426C32.6021 13.4698 32.88 12.5133 33.2561 11.5979C32.2669 11.4671 31.2615 11.4016 30.2397 11.4016C17.2096 11.4016 6.60742 22.0038 6.60742 35.0339C6.60733 48.0644 17.2096 58.6666 30.2397 58.6666C43.2697 58.6666 53.8721 48.0643 53.8721 35.0342C53.8721 33.2686 53.6758 31.5438 53.2998 29.8924ZM44.9043 5.38575C38.2331 6.01633 33.6639 12.4806 34.8283 19.0797C36.0106 25.7831 42.1912 27.8464 45.2584 35.371C45.5348 36.049 46.4895 36.0524 46.7658 35.3743C50.1659 27.0286 57.3954 25.4 57.3954 16.7158C57.3953 10.0637 51.689 4.74444 44.9043 5.38575ZM46.0127 22.7269C42.6928 22.7269 40.0015 20.0357 40.0015 16.7158C40.0015 13.3959 42.6928 10.7047 46.0127 10.7047C49.3327 10.7047 52.0238 13.3959 52.0238 16.7158C52.0238 20.0356 49.3325 22.7269 46.0127 22.7269Z" fill="url(#paint0_linear)"/>
</g>
<defs>
<linearGradient id="paint0_linear" x1="6.60513" y1="5.32522" x2="58.0245" y2="5.94108" gradientUnits="userSpaceOnUse">
<stop stop-color="#EF6161"/>
<stop offset="1" stop-color="#FF8080"/>
</linearGradient>
<clipPath id="clip0">
<rect width="53.3333" height="53.3333" fill="white" transform="translate(5.33398 5.33325)"/>
</clipPath>
</defs>
</svg>
