<svg width="64" height="64" viewBox="0 0 64 64" fill="none" xmlns="http://www.w3.org/2000/svg">
<g clip-path="url(#clip0)">
<path d="M47.7298 42.5207C44.4271 42.5207 41.7402 39.8338 41.7402 36.5311C41.7402 33.2284 44.4271 30.5415 47.7298 30.5415C51.0325 30.5415 53.7194 33.2284 53.7194 36.5311C53.7194 39.8338 51.0325 42.5207 47.7298 42.5207Z" fill="url(#paint0_linear)"/>
<path d="M16.2708 42.5207C12.9681 42.5207 10.2812 39.8338 10.2812 36.5311C10.2812 33.2284 12.9681 30.5415 16.2708 30.5415C19.5735 30.5415 22.2604 33.2284 22.2604 36.5311C22.2604 39.8338 19.5735 42.5207 16.2708 42.5207Z" fill="url(#paint1_linear)"/>
<path d="M42.4173 9.49992C40.4428 9.49992 38.6677 8.40284 37.7848 6.637L37.5649 6.19711C37.3002 5.66763 36.7592 5.33325 36.1673 5.33325H27.834C27.2421 5.33325 26.7011 5.66763 26.4364 6.197L26.2165 6.63679C25.3336 8.40284 23.5585 9.49992 21.584 9.49992C20.7211 9.49992 20.0215 10.1995 20.0215 11.0624V19.9788C20.0215 23.4844 21.1276 26.8241 23.2202 29.6367C25.3128 32.4492 28.1939 34.4684 31.5517 35.4756C31.6982 35.5196 31.8494 35.5416 32.0007 35.5416C32.1519 35.5416 32.3032 35.5196 32.4496 35.4756C35.8074 34.4684 38.6885 32.4492 40.7811 29.6367C42.8737 26.8241 43.9798 23.4844 43.9798 19.9788V11.0624C43.9798 10.1995 43.2802 9.49992 42.4173 9.49992ZM37.5249 18.596L31.6324 24.4885C31.3273 24.7936 30.9274 24.9462 30.5276 24.9462C30.1278 24.9462 29.7278 24.7937 29.4228 24.4885L26.4766 21.5422C25.8664 20.932 25.8664 19.9427 26.4766 19.3325C27.0867 18.7223 28.0761 18.7223 28.6863 19.3325L30.5277 21.1739L35.3154 16.3863C35.9255 15.7761 36.9149 15.7761 37.5251 16.3863C38.1351 16.9965 38.1351 17.9858 37.5249 18.596Z" fill="url(#paint2_linear)"/>
<path d="M54.1203 43.0244C52.4741 44.6445 50.2173 45.6459 47.7307 45.6459C45.2401 45.6459 42.9799 44.6414 41.3332 43.0166C40.459 43.6464 39.681 44.4017 39.0273 45.2587L39.8859 46.0107C42.4882 48.2899 43.9807 51.574 43.9807 55.0209V58.6667H57.1057C57.9686 58.6667 58.6682 57.9671 58.6682 57.1042V51.8959C58.6682 48.2484 56.8731 45.0126 54.1203 43.0244Z" fill="url(#paint3_linear)"/>
<path d="M9.8819 43.0244C7.12909 45.0126 5.33398 48.2484 5.33398 51.8959V57.1042C5.33398 57.9671 6.03357 58.6667 6.89648 58.6667H20.0215V55.0209C20.0215 51.574 21.514 48.2899 24.1163 46.0107L24.9748 45.2587C24.3212 44.4017 23.5432 43.6464 22.669 43.0166C21.0222 44.6414 18.7621 45.6459 16.2715 45.6459C13.7848 45.6459 11.528 44.6445 9.8819 43.0244Z" fill="url(#paint4_linear)"/>
<path d="M37.8261 48.3616C36.3557 49.8959 34.2886 50.8543 32.0007 50.8543C29.7127 50.8543 27.6457 49.8959 26.1752 48.3616C24.3209 49.9857 23.1465 52.368 23.1465 55.0209V58.6668H40.8548V55.0209C40.8548 52.368 39.6804 49.9857 37.8261 48.3616Z" fill="url(#paint5_linear)"/>
<path d="M32.0007 47.7291C29.2723 47.7291 27.0527 45.5095 27.0527 42.7812C27.0527 40.0528 29.2723 37.8333 32.0007 37.8333C34.729 37.8333 36.9486 40.0528 36.9486 42.7812C36.9486 45.5095 34.729 47.7291 32.0007 47.7291Z" fill="url(#paint6_linear)"/>
</g>
<defs>
<linearGradient id="paint0_linear" x1="41.7397" y1="30.5397" x2="53.8676" y2="30.6922" gradientUnits="userSpaceOnUse">
<stop stop-color="#EF6161"/>
<stop offset="1" stop-color="#FF8080"/>
</linearGradient>
<linearGradient id="paint1_linear" x1="10.2807" y1="30.5397" x2="22.4086" y2="30.6922" gradientUnits="userSpaceOnUse">
<stop stop-color="#EF6161"/>
<stop offset="1" stop-color="#FF8080"/>
</linearGradient>
<linearGradient id="paint2_linear" x1="20.0204" y1="5.3287" x2="44.2777" y2="5.57067" gradientUnits="userSpaceOnUse">
<stop stop-color="#EF6161"/>
<stop offset="1" stop-color="#FF8080"/>
</linearGradient>
<linearGradient id="paint3_linear" x1="39.0265" y1="43.0142" x2="58.9094" y2="43.3281" gradientUnits="userSpaceOnUse">
<stop stop-color="#EF6161"/>
<stop offset="1" stop-color="#FF8080"/>
</linearGradient>
<linearGradient id="paint4_linear" x1="5.3331" y1="43.0142" x2="25.216" y2="43.3281" gradientUnits="userSpaceOnUse">
<stop stop-color="#EF6161"/>
<stop offset="1" stop-color="#FF8080"/>
</linearGradient>
<linearGradient id="paint5_linear" x1="23.1457" y1="48.36" x2="41.0684" y2="48.7474" gradientUnits="userSpaceOnUse">
<stop stop-color="#EF6161"/>
<stop offset="1" stop-color="#FF8080"/>
</linearGradient>
<linearGradient id="paint6_linear" x1="27.0523" y1="37.8318" x2="37.071" y2="37.9578" gradientUnits="userSpaceOnUse">
<stop stop-color="#EF6161"/>
<stop offset="1" stop-color="#FF8080"/>
</linearGradient>
<clipPath id="clip0">
<rect width="53.3333" height="53.3333" fill="white" transform="translate(5.33398 5.33325)"/>
</clipPath>
</defs>
</svg>
