<svg width="24" height="24" viewBox="0 0 24 24" fill="none" xmlns="http://www.w3.org/2000/svg">
<path fill-rule="evenodd" clip-rule="evenodd" d="M12 2C6.47715 2 2 6.47715 2 12C2 17.5228 6.47715 22 12 22C17.5228 22 22 17.5228 22 12C22 6.47715 17.5228 2 12 2ZM16.3978 10.7612C16.765 10.3941 16.765 9.79874 16.3978 9.43155C16.0306 9.06435 15.4353 9.06439 15.0681 9.43155L10.989 13.296L8.9945 11.3015C8.62731 10.9343 8.03198 10.9343 7.66483 11.3015C7.29768 11.6686 7.29764 12.264 7.66483 12.6312L10.3242 15.2905C10.6914 15.6577 11.2867 15.6577 11.6539 15.2905L16.3978 10.7612Z" fill="#C4C4C4"/>
</svg>
