<svg width="40" height="40" viewBox="0 0 40 40" fill="none" xmlns="http://www.w3.org/2000/svg">
<path d="M20 40C31.0457 40 40 31.0457 40 20C40 8.9543 31.0457 0 20 0C8.9543 0 0 8.9543 0 20C0 31.0457 8.9543 40 20 40Z" fill="url(#paint0_linear)"/>
<path d="M20.0003 8.01157C15.0851 8.01157 10.4177 7.57467 8.63487 12.1465C7.89848 14.0348 8.00542 16.4871 8.00542 19.9985C8.00542 23.0797 7.9066 25.9757 8.63487 27.8491C10.4136 32.4236 15.119 31.9854 19.9976 31.9854C24.7043 31.9854 29.5572 32.475 31.3617 27.8491C32.0994 25.9419 31.9911 23.5261 31.9911 19.9985C31.9911 15.3157 32.2497 12.2926 29.9769 10.0229C27.6756 7.72346 24.5635 8.01157 19.9949 8.01157H20.0003ZM18.9255 10.1717C29.1782 10.1555 30.4831 9.01656 29.763 24.8381C29.5071 30.4339 25.2431 29.8198 20.0017 29.8198C10.4447 29.8198 10.1699 29.5466 10.1699 19.9931C10.1699 10.3286 10.928 10.1771 18.9255 10.169V10.1717ZM26.4032 12.1614C25.6086 12.1614 24.9642 12.8052 24.9642 13.5992C24.9642 14.3932 25.6086 15.0371 26.4032 15.0371C27.1978 15.0371 27.8421 14.3932 27.8421 13.5992C27.8421 12.8052 27.1978 12.1614 26.4032 12.1614ZM20.0003 13.8427C16.5985 13.8427 13.8411 16.5993 13.8411 19.9985C13.8411 23.3976 16.5985 26.1529 20.0003 26.1529C23.4021 26.1529 26.1581 23.3976 26.1581 19.9985C26.1581 16.5993 23.4021 13.8427 20.0003 13.8427ZM20.0003 16.0028C25.2864 16.0028 25.2932 23.9941 20.0003 23.9941C14.7156 23.9941 14.7074 16.0028 20.0003 16.0028Z" fill="white"/>
<defs>
<linearGradient id="paint0_linear" x1="2.68567" y1="37.394" x2="37.4433" y2="2.64749" gradientUnits="userSpaceOnUse">
<stop stop-color="#FFDD55"/>
<stop offset="0.5" stop-color="#FF543E"/>
<stop offset="1" stop-color="#C837AB"/>
</linearGradient>
</defs>
</svg>
