<svg width="24" height="24" viewBox="0 0 24 24" fill="none" xmlns="http://www.w3.org/2000/svg">
<path d="M20.2941 16.0224C20.0104 15.8665 19.6542 15.9702 19.4984 16.2538C19.3426 16.5374 19.4462 16.8937 19.7298 17.0494C20.4278 17.4329 20.8281 17.858 20.8281 18.2157C20.8281 18.6532 20.2082 19.3314 18.4682 19.9225C16.7493 20.5066 14.4521 20.8282 12 20.8282C9.54785 20.8282 7.2507 20.5066 5.53176 19.9225C3.7918 19.3314 3.17188 18.6532 3.17188 18.2157C3.17188 17.858 3.57219 17.4329 4.27016 17.0494C4.55379 16.8936 4.65738 16.5374 4.50156 16.2537C4.34574 15.9701 3.98961 15.8665 3.7059 16.0223C2.9277 16.4499 2 17.1775 2 18.2157C2 19.0116 2.54734 20.1462 5.15477 21.0321C6.99195 21.6563 9.42297 22 12 22C14.577 22 17.008 21.6563 18.8452 21.0321C21.4527 20.1462 22 19.0116 22 18.2157C22 17.1775 21.0723 16.4499 20.2941 16.0224Z" fill="#C4C4C4"/>
<path d="M7.57623 19.0754C8.76568 19.4114 10.3367 19.5965 12 19.5965C13.6632 19.5965 15.2343 19.4115 16.4237 19.0754C17.8789 18.6644 18.6168 18.0693 18.6168 17.3069C18.6168 16.5444 17.8789 15.9494 16.4237 15.5383C16.1007 15.4471 15.7494 15.367 15.3758 15.2988C15.173 15.6492 14.9604 16.01 14.7382 16.3811C15.1517 16.4431 15.5398 16.5192 15.8923 16.609C16.9633 16.8818 17.3545 17.1888 17.4349 17.3069C17.3545 17.425 16.9633 17.732 15.8924 18.0048C14.8787 18.2629 13.5746 18.4102 12.201 18.4234C12.1345 18.4283 12.0675 18.4311 12 18.4311C11.9324 18.4311 11.8654 18.4283 11.7989 18.4234C10.4253 18.4102 9.12119 18.263 8.10755 18.0048C7.03662 17.732 6.64541 17.4249 6.56498 17.3069C6.64541 17.1888 7.03666 16.8818 8.10759 16.609C8.46009 16.5192 8.84826 16.4431 9.26173 16.3811C9.03951 16.01 8.82697 15.6492 8.62412 15.2988C8.2506 15.3671 7.89923 15.4471 7.57623 15.5383C6.12103 15.9494 5.38318 16.5444 5.38318 17.3069C5.38318 18.0693 6.12103 18.6643 7.57623 19.0754Z" fill="#C4C4C4"/>
<path d="M12 17.2591C12.5216 17.2591 12.9954 16.9934 13.2675 16.5482C15.1741 13.4288 17.4468 9.31758 17.4468 7.44684C17.4468 4.44344 15.0034 2 12 2C8.99654 2 6.5531 4.44344 6.5531 7.44684C6.5531 9.31758 8.82587 13.4288 10.7325 16.5482C11.0046 16.9934 11.4784 17.2591 12 17.2591ZM9.81064 7.07285C9.81064 5.8657 10.7928 4.88359 12 4.88359C13.2072 4.88359 14.1893 5.8657 14.1893 7.07285C14.1893 8.28004 13.2072 9.26215 12 9.26215C10.7928 9.26215 9.81064 8.28008 9.81064 7.07285Z" fill="#C4C4C4"/>
</svg>
