<svg width="64" height="64" viewBox="0 0 64 64" fill="none" xmlns="http://www.w3.org/2000/svg">
<g clip-path="url(#clip0)">
<path d="M52.9218 27.0903H32.8384C29.6698 27.0903 27.0921 29.6681 27.0921 32.8366V43.748L21.8887 47.4647C21.4781 47.7577 21.2344 48.2313 21.2344 48.7358C21.2344 49.2408 21.4781 49.7144 21.8887 50.0074L27.1548 53.7688C27.5662 56.5365 29.9583 58.6667 32.8384 58.6667H52.9218C56.0903 58.6667 58.6681 56.0889 58.6681 52.92V32.8366C58.6681 29.6681 56.0903 27.0903 52.9218 27.0903ZM46.1689 49.0459C45.8006 49.0459 45.5162 48.9291 45.4328 48.6109L44.7964 46.3848H40.9634L40.3278 48.6109C40.244 48.9291 39.9596 49.0459 39.5913 49.0459C39.0054 49.0459 38.2188 48.6781 38.2188 48.1426C38.2188 48.1088 38.2355 48.0421 38.2522 47.9749L41.4826 37.4476C41.6331 36.9455 42.2524 36.7107 42.8717 36.7107C43.5077 36.7107 44.127 36.9455 44.2776 37.4476L47.508 47.9749C47.5247 48.0421 47.5413 48.0921 47.5413 48.1426C47.5413 48.661 46.7548 49.0459 46.1689 49.0459Z" fill="url(#paint0_linear)"/>
<path d="M41.4141 44.6772H44.3267L42.87 39.5393L41.4141 44.6772Z" fill="url(#paint1_linear)"/>
<path d="M23.9664 32.8365C23.9664 30.7385 24.7 28.8098 25.922 27.2892C24.1393 27.2892 22.4853 26.7314 21.1217 25.7837C19.7582 26.7318 18.1042 27.2892 16.3211 27.2892C15.8349 27.2892 15.4402 26.8945 15.4402 26.4079C15.4402 25.9212 15.8349 25.5269 16.3211 25.5269C17.5699 25.5269 18.7385 25.1811 19.7391 24.5821C18.5322 23.2796 17.7298 21.5979 17.5357 19.7367H16.3215C15.8349 19.7367 15.4402 19.3424 15.4402 18.8558C15.4402 18.3691 15.8349 17.9744 16.3215 17.9744H20.2412V15.835C20.2412 15.3479 20.6355 14.9536 21.1222 14.9536C21.6088 14.9536 22.0031 15.3479 22.0031 15.835V17.9744H25.9228C26.4094 17.9744 26.8041 18.3691 26.8041 18.8558C26.8041 19.3424 26.4094 19.7367 25.9228 19.7367H24.7086C24.5145 21.5979 23.7121 23.2796 22.5052 24.5821C23.5054 25.1819 24.6744 25.5269 25.9228 25.5269C26.3879 25.5269 26.7679 25.8875 26.8009 26.3444C28.3857 24.8698 30.5077 23.9653 32.8381 23.9653H36.9103V20.2519L42.1138 16.5352C42.5239 16.2423 42.7677 15.7686 42.7677 15.2641C42.7677 14.7591 42.5239 14.2855 42.1138 13.9925L36.8477 10.2311C36.4359 7.46338 34.0437 5.33325 31.1637 5.33325H11.0806C7.9117 5.33325 5.33398 7.91097 5.33398 11.0795V31.1633C5.33398 34.3319 7.9117 36.9096 11.0806 36.9096H23.9664V32.8365Z" fill="url(#paint2_linear)"/>
<path d="M21.1209 23.481C22.0852 22.4804 22.7399 21.1812 22.9316 19.7371H19.3105C19.5022 21.1812 20.1573 22.4804 21.1209 23.481Z" fill="url(#paint3_linear)"/>
</g>
<defs>
<linearGradient id="paint0_linear" x1="21.2327" y1="27.0856" x2="59.1288" y2="27.6506" gradientUnits="userSpaceOnUse">
<stop stop-color="#EF6161"/>
<stop offset="1" stop-color="#FF8080"/>
</linearGradient>
<linearGradient id="paint1_linear" x1="41.4139" y1="39.5385" x2="44.363" y2="39.5596" gradientUnits="userSpaceOnUse">
<stop stop-color="#EF6161"/>
<stop offset="1" stop-color="#FF8080"/>
</linearGradient>
<linearGradient id="paint2_linear" x1="5.3323" y1="5.32849" x2="43.2284" y2="5.89355" gradientUnits="userSpaceOnUse">
<stop stop-color="#EF6161"/>
<stop offset="1" stop-color="#FF8080"/>
</linearGradient>
<linearGradient id="paint3_linear" x1="19.3104" y1="19.7365" x2="22.9764" y2="19.7811" gradientUnits="userSpaceOnUse">
<stop stop-color="#EF6161"/>
<stop offset="1" stop-color="#FF8080"/>
</linearGradient>
<clipPath id="clip0">
<rect width="53.3333" height="53.3333" fill="white" transform="translate(5.33398 5.33325)"/>
</clipPath>
</defs>
</svg>
