<svg width="24" height="24" viewBox="0 0 24 24" fill="none" xmlns="http://www.w3.org/2000/svg">
<path d="M12 2C8.48574 2 5.55469 4.83086 5.55469 8.44531C5.55469 9.82039 5.96789 11.0466 6.7609 12.1955L11.5068 19.601C11.737 19.961 12.2635 19.9603 12.4932 19.601L17.2597 12.1704C18.0356 11.0734 18.4453 9.78543 18.4453 8.44531C18.4453 4.89137 15.5539 2 12 2ZM12 11.375C10.3846 11.375 9.07031 10.0607 9.07031 8.44531C9.07031 6.82996 10.3846 5.51562 12 5.51562C13.6154 5.51562 14.9297 6.82996 14.9297 8.44531C14.9297 10.0607 13.6154 11.375 12 11.375Z" fill="#C4C4C4"/>
<path d="M16.5806 15.4647L13.6302 20.0774C12.8665 21.2681 11.1293 21.2642 10.3692 20.0786L7.41398 15.4659C4.81383 16.067 3.21094 17.1683 3.21094 18.4844C3.21094 20.7681 7.73938 22 12 22C16.2606 22 20.7891 20.7681 20.7891 18.4844C20.7891 17.1674 19.1839 16.0655 16.5806 15.4647Z" fill="#C4C4C4"/>
</svg>
