<svg width="24" height="24" viewBox="0 0 24 24" fill="none" xmlns="http://www.w3.org/2000/svg">
<path d="M12 2C6.4775 2 2 6.4775 2 12C2 17.5225 6.4775 22 12 22C17.5225 22 22 17.5225 22 12C22 6.4775 17.5225 2 12 2ZM12 18.3833C11.2183 18.3833 10.6833 17.7808 10.6833 17C10.6833 16.1967 11.2408 15.6167 12 15.6167C12.8025 15.6167 13.3167 16.1967 13.3167 17C13.3167 17.7817 12.8025 18.3833 12 18.3833ZM12.5183 13.1008C12.3192 13.78 11.6917 13.7917 11.4825 13.1008C11.2417 12.3042 10.3858 9.28 10.3858 7.31583C10.3858 4.72417 13.6283 4.71167 13.6283 7.31583C13.6275 9.29167 12.7258 12.3942 12.5183 13.1008Z" fill="#888888"/>
</svg>
