<svg width="24" height="24" viewBox="0 0 24 24" fill="none" xmlns="http://www.w3.org/2000/svg">
<g clip-path="url(#clip0)">
<path d="M12.2084 3.66667H11.2917C11.0167 2.70833 10.1334 2 9.08337 2C8.03337 2 7.15004 2.70833 6.87504 3.66667H5.95837C5.61671 3.66667 5.33337 3.95 5.33337 4.29167V5.54167C5.33337 6.34167 5.99171 7 6.79171 7H11.375C12.175 7 12.8334 6.34167 12.8334 5.54167V4.29167C12.8334 3.95 12.55 3.66667 12.2084 3.66667Z" fill="#C4C4C4"/>
<path d="M13.875 4.5H13.6667V5.54167C13.6667 6.80833 12.6417 7.83333 11.375 7.83333H6.79167C5.525 7.83333 4.5 6.80833 4.5 5.54167V4.5H4.29167C3.025 4.5 2 5.525 2 6.79167V17.2083C2 18.475 3.025 19.5 4.29167 19.5H10.4417L10.625 18.475C10.7083 18.0083 10.925 17.5917 11.2583 17.25L11.925 16.5833H5.125C4.78333 16.5833 4.5 16.3 4.5 15.9583C4.5 15.6167 4.78333 15.3333 5.125 15.3333H13.0417C13.0833 15.3333 13.1167 15.3333 13.1583 15.35H13.1667L16.1667 12.35V6.79167C16.1667 5.525 15.1417 4.5 13.875 4.5ZM13.0417 13.875H5.125C4.78333 13.875 4.5 13.5917 4.5 13.25C4.5 12.9083 4.78333 12.625 5.125 12.625H13.0417C13.3833 12.625 13.6667 12.9083 13.6667 13.25C13.6667 13.5917 13.3833 13.875 13.0417 13.875ZM13.0417 11.1667H5.125C4.78333 11.1667 4.5 10.8833 4.5 10.5417C4.5 10.2 4.78333 9.91666 5.125 9.91666H13.0417C13.3833 9.91666 13.6667 10.2 13.6667 10.5417C13.6667 10.8833 13.3833 11.1667 13.0417 11.1667Z" fill="#C4C4C4"/>
<path d="M12.4391 22C12.275 22 12.115 21.935 11.9975 21.8167C11.8533 21.6725 11.7883 21.4675 11.8241 21.2658L12.2658 18.7617C12.2875 18.6358 12.3491 18.5192 12.4391 18.4283L18.6266 12.2417C19.3866 11.48 20.1333 11.6858 20.5416 12.0942L21.5725 13.125C22.1416 13.6933 22.1416 14.6183 21.5725 15.1875L15.385 21.375C15.295 21.4658 15.1783 21.5267 15.0516 21.5483L12.5475 21.99C12.5116 21.9967 12.475 22 12.4391 22ZM14.9433 20.9333H14.9516H14.9433Z" fill="#C4C4C4"/>
</g>
<defs>
<clipPath id="clip0">
<rect width="20" height="20" fill="white" transform="translate(2 2)"/>
</clipPath>
</defs>
</svg>
