<svg width="64" height="64" viewBox="0 0 64 64" fill="none" xmlns="http://www.w3.org/2000/svg">
<g clip-path="url(#clip0)">
<path d="M24.5411 12.7921C24.5411 8.67291 27.8808 5.33325 32.0005 5.33325C36.1191 5.33325 39.4588 8.67291 39.4588 12.7921C39.4588 16.9112 36.1191 20.2509 32.0005 20.2509C27.8808 20.2509 24.5411 16.9112 24.5411 12.7921ZM35.5846 25.3326C35.6601 23.7087 36.2185 22.2052 37.1185 20.962C36.4869 20.8298 35.8349 20.7596 35.1653 20.7596H28.8363C28.1691 20.7596 27.5171 20.8292 26.889 20.9602C27.8463 22.2882 28.4194 23.9093 28.4287 25.6647C29.5913 25.0244 30.9263 24.6601 32.345 24.6601C33.4958 24.6601 34.5911 24.8999 35.5846 25.3326ZM36.8477 26.0016C39.0143 27.36 40.5336 29.6588 40.8102 32.3271C41.6938 32.74 42.6745 32.9774 43.7142 32.9774C47.51 32.9774 50.5865 29.9009 50.5865 26.1057C50.5865 22.3099 47.51 19.2334 43.7142 19.2334C39.9547 19.234 36.9051 22.2555 36.8477 26.0016ZM32.345 40.073C36.1408 40.073 39.2173 36.9954 39.2173 33.2002C39.2173 29.4056 36.1402 26.3285 32.345 26.3285C28.5498 26.3285 25.4715 29.4056 25.4715 33.2002C25.4715 36.996 28.5504 40.073 32.345 40.073ZM35.2601 40.5409H29.4287C24.5768 40.5409 20.6296 44.4887 20.6296 49.34V56.4719L20.6477 56.583L21.1389 56.7374C25.7692 58.1836 29.7918 58.6666 33.1028 58.6666C39.5699 58.6666 43.3183 56.8234 43.5493 56.7052L44.0083 56.4725H44.0574V49.34C44.0592 44.4887 40.112 40.5409 35.2601 40.5409ZM46.6305 33.4469H40.8441C40.7815 35.7621 39.7933 37.8462 38.2302 39.3462C42.5429 40.6286 45.6983 44.6273 45.6983 49.3511V51.5493C51.4116 51.3393 54.7039 49.7201 54.9208 49.6119L55.3799 49.3792H55.429V42.2455C55.429 37.3942 51.4818 33.4469 46.6305 33.4469ZM20.2869 32.9774C21.6313 32.9774 22.8821 32.5856 23.9417 31.9172C24.2786 29.7202 25.4563 27.8003 27.1387 26.4928C27.1457 26.3641 27.158 26.2367 27.158 26.1068C27.158 22.3111 24.0809 19.2345 20.2869 19.2345C16.4905 19.2345 13.4146 22.3111 13.4146 26.1068C13.414 29.9014 16.4905 32.9774 20.2869 32.9774ZM26.458 39.3462C24.9025 37.8544 23.9178 35.7802 23.8458 33.4803C23.6312 33.4645 23.4189 33.4469 23.2002 33.4469H17.3694C12.5176 33.4469 8.57031 37.3942 8.57031 42.2455V49.3774L8.58844 49.4879L9.07965 49.6423C12.7942 50.8025 16.1092 51.3364 18.9887 51.5054V49.3511C18.9899 44.6273 22.1447 40.6286 26.458 39.3462Z" fill="url(#paint0_linear)"/>
</g>
<defs>
<linearGradient id="paint0_linear" x1="8.5682" y1="5.32522" x2="56.0105" y2="5.84948" gradientUnits="userSpaceOnUse">
<stop stop-color="#EF6161"/>
<stop offset="1" stop-color="#FF8080"/>
</linearGradient>
<clipPath id="clip0">
<rect width="53.3333" height="53.3333" fill="white" transform="translate(5.33398 5.33325)"/>
</clipPath>
</defs>
</svg>
