<svg width="64" height="64" viewBox="0 0 64 64" fill="none" xmlns="http://www.w3.org/2000/svg">
<g clip-path="url(#clip0)">
<path d="M5.90018 33.268L13.2353 36.2971L11.6796 37.0221C11.2423 37.2452 11.0485 37.7648 11.2423 38.2168L13.3556 42.7575C13.4583 42.9806 13.6491 43.1567 13.8781 43.2389C14.1041 43.3358 14.3624 43.3358 14.5884 43.2389L30.6675 35.6984L30.87 33.5586L31.1518 30.6968C31.1841 30.3152 31.5216 30.0363 31.9003 30.0716C32.1468 30.0921 32.3611 30.2447 32.4638 30.4737C32.5225 30.5794 32.549 30.7026 32.5402 30.8259L30.6763 50.574C31.0931 50.8793 31.6156 50.9908 32.1204 50.894C32.8307 50.7061 33.4618 49.8754 33.9843 48.5076L41.4426 26.3116L41.6569 25.6805C41.7655 25.3107 42.153 25.0993 42.5257 25.2079C42.8956 25.3195 43.1069 25.7069 42.9983 26.0767C42.9895 26.0944 42.9866 26.112 42.9807 26.1266L42.2528 28.2547L41.4338 30.6968L54.0259 24.797C57.6626 23.0975 59.5324 19.6574 58.2761 16.9747C57.5628 15.5716 56.198 14.6177 54.6335 14.4298C52.8958 14.1686 51.12 14.4416 49.5409 15.2135L35.2816 21.8677L19.9745 15.8916C18.0461 15.1666 16.5168 15.1842 15.4455 15.9591C14.5473 16.6958 14.0366 17.8053 14.0571 18.9706C14.0659 19.2612 14.2156 19.5371 14.4563 19.7044L24.7677 26.7695L18.8562 29.5667L8.94693 27.0865C8.54187 26.9896 8.1192 27.1716 7.91373 27.5326L5.45403 31.953C5.2016 32.4021 5.3601 32.9686 5.80919 33.221C5.83854 33.2387 5.87083 33.2533 5.90018 33.268Z" fill="url(#paint0_linear)"/>
</g>
<defs>
<linearGradient id="paint0_linear" x1="5.33158" y1="14.328" x2="59.3168" y2="15.3176" gradientUnits="userSpaceOnUse">
<stop stop-color="#EF6161"/>
<stop offset="1" stop-color="#FF8080"/>
</linearGradient>
<clipPath id="clip0">
<rect width="53.3333" height="53.3333" fill="white" transform="translate(5.33398 5.3335)"/>
</clipPath>
</defs>
</svg>
