<svg width="24" height="24" viewBox="0 0 24 24" fill="none" xmlns="http://www.w3.org/2000/svg">
<path fill-rule="evenodd" clip-rule="evenodd" d="M19.5 20L16.5 20C15.121 20 14 18.878 14 17.5L14 10C14 6.691 16.691 4 20 4L21 4C21.553 4 22 4.448 22 5C22 5.552 21.553 6 21 6L20 6C17.794 6 16 7.794 16 10L16 12.051C16.162 12.018 16.329 12 16.5 12L19.5 12C20.879 12 22 13.122 22 14.5L22 17.5C22 18.878 20.879 20 19.5 20ZM7.5 20L4.5 20C3.121 20 2 18.878 2 17.5L2 10C2 6.69099 4.691 3.99999 8 3.99999L9 4C9.553 4 10 4.448 10 5C10 5.552 9.553 5.99999 9 5.99999L8 5.99999C5.794 5.99999 4 7.794 4 10L4 12.051C4.162 12.018 4.329 12 4.5 12L7.5 12C8.879 12 10 13.122 10 14.5L10 17.5C10 18.878 8.879 20 7.5 20Z" fill="white"/>
</svg>
