<svg width="24" height="24" viewBox="0 0 24 24" fill="none" xmlns="http://www.w3.org/2000/svg">
<path d="M17.4589 2H6.54101C5.47821 2 4.60864 2.86957 4.60864 3.93237V20.7923C4.60864 21.2512 4.87434 21.686 5.28497 21.8792C5.71975 22.0725 6.20285 22.0242 6.56516 21.7343L6.58932 21.7101L11.9999 17.1449L17.4106 21.7101L17.4347 21.7343C17.6521 21.9034 17.9178 22 18.1835 22C18.3526 22 18.5458 21.9517 18.7149 21.8551C19.1256 21.6618 19.3913 21.2271 19.3913 20.7681V3.93237C19.3913 2.86957 18.5217 2 17.4589 2Z" fill="url(#paint0_linear)"/>
<defs>
<linearGradient id="paint0_linear" x1="4.60798" y1="1.99699" x2="19.5752" y2="2.13613" gradientUnits="userSpaceOnUse">
<stop stop-color="#EF6161"/>
<stop offset="1" stop-color="#FF8080"/>
</linearGradient>
</defs>
</svg>
