<svg width="64" height="64" viewBox="0 0 64 64" fill="none" xmlns="http://www.w3.org/2000/svg">
<g clip-path="url(#clip0)">
<path d="M52.0007 5.33325H12.0007C8.319 5.33325 5.33398 8.31826 5.33398 11.9999V51.9999C5.33398 55.6816 8.319 58.6666 12.0007 58.6666H52.0007C55.6823 58.6666 58.6673 55.6816 58.6673 51.9999V11.9999C58.6673 8.31826 55.6823 5.33325 52.0007 5.33325ZM25.334 45.3333C26.254 45.3333 27.0007 46.0799 27.0007 46.9999C27.0007 47.9199 26.254 48.6666 25.334 48.6666H17.0474C16.5807 48.6666 16.1623 48.4732 15.8607 48.1649C15.5374 47.8915 15.3341 47.4933 15.3341 46.9999V38.6666C15.3341 37.7466 16.0807 36.9999 17.0007 36.9999C17.9207 36.9999 18.6673 37.7466 18.6673 38.6666L18.6306 42.9433L26.5939 34.9799L28.9506 37.3366L20.9539 45.3333H25.334ZM26.5939 29.0216L18.6306 21.0567L18.6673 25.3333C18.6673 26.2533 17.9207 26.9999 17.0007 26.9999C16.0807 26.9999 15.334 26.2533 15.334 25.3333V16.9999C15.334 16.5066 15.5373 16.1082 15.8606 15.8332C16.1622 15.5265 16.5823 15.3333 17.0473 15.3333H25.334C26.254 15.3333 27.0007 16.0799 27.0007 16.9999C27.0007 17.9199 26.254 18.6666 25.334 18.6666H20.9539L28.9523 26.6649L26.5939 29.0216ZM48.6673 46.9999C48.6673 47.4933 48.464 47.8915 48.1406 48.1666C47.839 48.475 47.419 48.6666 46.954 48.6666H38.6673C37.7473 48.6666 37.0007 47.9199 37.0007 46.9999C37.0007 46.0799 37.7473 45.3333 38.6673 45.3333H43.0474L35.049 37.3349L37.4057 34.9783L45.369 42.9416L45.334 38.6666C45.334 37.7466 46.0807 36.9999 47.0007 36.9999C47.9207 36.9999 48.6673 37.7466 48.6673 38.6666V46.9999ZM48.6673 25.3333C48.6673 26.2533 47.9207 26.9999 47.0007 26.9999C46.0807 26.9999 45.334 26.2533 45.334 25.3333L45.3707 21.0566L37.4073 29.0199L35.0507 26.6632L43.0474 18.6666H38.6673C37.7473 18.6666 37.0007 17.9199 37.0007 16.9999C37.0007 16.0799 37.7473 15.3333 38.6673 15.3333H46.954C47.419 15.3333 47.839 15.5266 48.1406 15.835C48.464 16.1082 48.6673 16.5066 48.6673 16.9999V25.3333Z" fill="url(#paint0_linear)"/>
</g>
<defs>
<linearGradient id="paint0_linear" x1="5.33158" y1="5.32522" x2="59.3272" y2="6.00435" gradientUnits="userSpaceOnUse">
<stop stop-color="#EF6161"/>
<stop offset="1" stop-color="#FF8080"/>
</linearGradient>
<clipPath id="clip0">
<rect width="53.3333" height="53.3333" fill="white" transform="translate(5.33398 5.33325)"/>
</clipPath>
</defs>
</svg>
