<svg width="64" height="64" viewBox="0 0 64 64" fill="none" xmlns="http://www.w3.org/2000/svg">
<g clip-path="url(#clip0)">
<path d="M41.4798 30.542H6.89648C6.03284 30.542 5.33398 31.2408 5.33398 32.1045V53.9795C5.33398 56.5643 7.43669 58.667 10.0215 58.667H38.3548C40.9396 58.667 43.0423 56.5643 43.0423 53.9795V32.1045C43.0423 31.2408 42.3435 30.542 41.4798 30.542ZM33.459 39.917C33.459 45.0867 29.2537 49.292 24.084 49.292C18.9143 49.292 14.709 45.0867 14.709 39.917V38.3545C14.709 37.4908 15.4078 36.792 16.2715 36.792C17.1351 36.792 17.834 37.4908 17.834 38.3545V39.917C17.834 43.364 20.637 46.167 24.084 46.167C27.531 46.167 30.334 43.364 30.334 39.917V38.3545C30.334 37.4908 31.0328 36.792 31.8965 36.792C32.7601 36.792 33.459 37.4908 33.459 38.3545V39.917Z" fill="url(#paint0_linear)"/>
<path d="M57.1042 18.0418H49.0833V14.7085C49.0833 9.53881 44.878 5.3335 39.7083 5.3335C34.5386 5.3335 30.3333 9.53881 30.3333 14.7085V18.0418H22.3125C21.4489 18.0418 20.75 18.7407 20.75 19.6043V27.4168H41.4792C44.064 27.4168 46.1667 29.5195 46.1667 32.1043V53.9793C46.1667 55.7447 45.5557 57.357 44.5643 58.6668H53.9792C56.564 58.6668 58.6667 56.5641 58.6667 53.9793V19.6043C58.6667 18.7407 57.9678 18.0418 57.1042 18.0418ZM45.9583 18.0418H33.4583V14.7085C33.4583 11.2615 36.2614 8.4585 39.7083 8.4585C43.1553 8.4585 45.9583 11.2615 45.9583 14.7085V18.0418Z" fill="url(#paint1_linear)"/>
</g>
<defs>
<linearGradient id="paint0_linear" x1="5.33228" y1="30.5378" x2="43.504" y2="31.1815" gradientUnits="userSpaceOnUse">
<stop stop-color="#EF6161"/>
<stop offset="1" stop-color="#FF8080"/>
</linearGradient>
<linearGradient id="paint1_linear" x1="20.7483" y1="5.32546" x2="59.1388" y2="5.66874" gradientUnits="userSpaceOnUse">
<stop stop-color="#EF6161"/>
<stop offset="1" stop-color="#FF8080"/>
</linearGradient>
<clipPath id="clip0">
<rect width="53.3333" height="53.3333" fill="white" transform="translate(5.33398 5.3335)"/>
</clipPath>
</defs>
</svg>
