<svg width="24" height="24" viewBox="0 0 24 24" fill="none" xmlns="http://www.w3.org/2000/svg">
<path d="M11.4179 9.64114C11.6043 9.59537 11.799 9.57089 11.9995 9.57089C13.3411 9.57089 14.4286 10.6585 14.4286 12C14.4286 13.3416 13.3411 14.4291 11.9995 14.4291C10.658 14.4291 9.57043 13.3416 9.57043 12C9.57043 11.7995 9.59491 11.6048 9.64069 11.4184C9.8616 11.6093 10.1493 11.725 10.4642 11.725C11.1603 11.725 11.7245 11.1607 11.7245 10.4646C11.7245 10.1497 11.6088 9.86206 11.4179 9.64114Z" fill="#C4C4C4"/>
<path fill-rule="evenodd" clip-rule="evenodd" d="M12 5.78604C16.2845 5.78604 20.0112 8.17416 21.9218 11.6919C22.0261 11.8839 22.0261 12.1161 21.9218 12.308C20.0112 15.8258 16.2845 18.214 12 18.214C7.71542 18.214 3.9888 15.8258 2.07819 12.308C1.97394 12.1161 1.97394 11.8839 2.07819 11.6919C3.98877 8.17422 7.71548 5.78604 12 5.78604ZM7.23349 12C7.23349 14.6324 9.36749 16.7665 12 16.7665C14.6325 16.7665 16.7665 14.6325 16.7665 12C16.7665 9.36752 14.6325 7.23346 12 7.23346C9.36749 7.23346 7.23349 9.36755 7.23349 12Z" fill="#C4C4C4"/>
</svg>
