<svg width="24" height="24" viewBox="0 0 24 24" fill="none" xmlns="http://www.w3.org/2000/svg">
<path d="M21.361 20.2168L16.601 15.2662C17.8249 13.8113 18.4954 11.9807 18.4954 10.075C18.4954 5.62251 14.8729 2 10.4205 2C5.96797 2 2.34546 5.62251 2.34546 10.075C2.34546 14.5275 5.96797 18.15 10.4205 18.15C12.092 18.15 13.6849 17.6458 15.0467 16.6888L19.8429 21.677C20.0434 21.8852 20.313 22 20.602 22C20.8755 22 21.1349 21.8957 21.3319 21.7061C21.7504 21.3034 21.7637 20.6357 21.361 20.2168ZM10.4205 4.10652C13.7115 4.10652 16.3889 6.78391 16.3889 10.075C16.3889 13.3661 13.7115 16.0435 10.4205 16.0435C7.12937 16.0435 4.45198 13.3661 4.45198 10.075C4.45198 6.78391 7.12937 4.10652 10.4205 4.10652Z" fill="#888888"/>
</svg>
