<svg width="64" height="64" viewBox="0 0 64 64" fill="none" xmlns="http://www.w3.org/2000/svg">
<g clip-path="url(#clip0)">
<path d="M45.5478 31.9999C45.5478 31.137 46.2474 30.4374 47.1103 30.4374H50.4007C49.6482 21.4984 42.5016 14.3519 33.5626 13.5994V16.8898C33.5626 17.7527 32.863 18.4523 32.0001 18.4523C31.1372 18.4523 30.4376 17.7527 30.4376 16.8898V13.5994C21.4987 14.3519 14.3521 21.4984 13.5996 30.4374H16.8899C17.7528 30.4374 18.4524 31.137 18.4524 31.9999C18.4524 32.8628 17.7528 33.5624 16.8899 33.5624H13.5996C14.3521 42.5013 21.4987 49.6479 30.4376 50.4004V47.11C30.4376 46.2471 31.1372 45.5475 32.0001 45.5475C32.863 45.5475 33.5626 46.2471 33.5626 47.11V50.4004C42.5016 49.6479 49.6482 42.5013 50.4007 33.5624H47.1103C46.2474 33.5624 45.5478 32.8628 45.5478 31.9999ZM41.4367 24.5385L33.1202 33.0892C32.5413 33.6845 31.5975 33.7232 30.9718 33.1762L24.7637 27.749C24.114 27.1811 24.0477 26.1939 24.6158 25.5444C25.1837 24.8947 26.1708 24.8282 26.8205 25.3963L31.9132 29.8483L39.1966 22.3597C39.7983 21.7411 40.7875 21.7275 41.4061 22.3289C42.0246 22.9308 42.0384 23.92 41.4367 24.5385Z" fill="url(#paint0_linear)"/>
<path d="M32.0007 5.33325C17.2966 5.33325 5.33398 17.2959 5.33398 31.9999C5.33398 46.704 17.2966 58.6666 32.0007 58.6666C46.7047 58.6666 58.6673 46.704 58.6673 31.9999C58.6673 17.2959 46.7047 5.33325 32.0007 5.33325ZM32.0007 53.5922C20.0946 53.5922 10.4084 43.906 10.4084 31.9999C10.4084 20.0939 20.0946 10.4076 32.0007 10.4076C43.9067 10.4076 53.5929 20.0939 53.5929 31.9999C53.5929 43.906 43.9067 53.5922 32.0007 53.5922Z" fill="url(#paint1_linear)"/>
</g>
<defs>
<linearGradient id="paint0_linear" x1="13.598" y1="13.5938" x2="50.856" y2="14.0624" gradientUnits="userSpaceOnUse">
<stop stop-color="#EF6161"/>
<stop offset="1" stop-color="#FF8080"/>
</linearGradient>
<linearGradient id="paint1_linear" x1="5.33158" y1="5.32522" x2="59.3272" y2="6.00435" gradientUnits="userSpaceOnUse">
<stop stop-color="#EF6161"/>
<stop offset="1" stop-color="#FF8080"/>
</linearGradient>
<clipPath id="clip0">
<rect width="53.3333" height="53.3333" fill="white" transform="translate(5.33398 5.33325)"/>
</clipPath>
</defs>
</svg>
