<svg width="24" height="24" viewBox="0 0 24 24" fill="none" xmlns="http://www.w3.org/2000/svg">
<path d="M21.3797 10.2068H21.4141C21.7377 10.2068 22 9.94449 22 9.6209V5.29102C22 4.96742 21.7377 4.70508 21.4141 4.70508H7.70154V19.2949H21.4141C21.7377 19.2949 22 19.0326 22 18.709V14.3791C22 14.0555 21.7377 13.7932 21.4141 13.7932H21.3797C20.6897 13.7932 20.1283 13.2318 20.1283 12.5418V11.4582C20.1283 10.7682 20.6897 10.2068 21.3797 10.2068ZM10.3543 12.7044H14.8059C15.1295 12.7044 15.3918 12.9667 15.3918 13.2903C15.3918 13.6139 15.1295 13.8763 14.8059 13.8763H10.3543C10.0307 13.8763 9.76834 13.6139 9.76834 13.2903C9.76834 12.9667 10.0307 12.7044 10.3543 12.7044ZM9.76834 10.7097C9.76834 10.3861 10.0307 10.1238 10.3543 10.1238H14.8059C15.1295 10.1238 15.3918 10.3861 15.3918 10.7097C15.3918 11.0333 15.1295 11.2956 14.8059 11.2956H10.3543C10.0307 11.2956 9.76834 11.0333 9.76834 10.7097ZM10.3543 15.285H15.9895C16.3131 15.285 16.5754 15.5474 16.5754 15.871C16.5754 16.1946 16.3131 16.4569 15.9895 16.4569H10.3543C10.0307 16.4569 9.76834 16.1946 9.76834 15.871C9.76834 15.5474 10.0307 15.285 10.3543 15.285ZM10.3543 8.71496C10.0307 8.71496 9.76834 8.45262 9.76834 8.12902C9.76834 7.80543 10.0307 7.54309 10.3543 7.54309H16.8717C17.1953 7.54309 17.4577 7.80543 17.4577 8.12902C17.4577 8.45262 17.1953 8.71496 16.8717 8.71496H10.3543Z" fill="#C4C4C4"/>
<path d="M6.52965 4.70508H2.58594C2.26234 4.70508 2 4.96742 2 5.29102V9.6209C2 9.94449 2.26234 10.2068 2.58594 10.2068C3.27594 10.2068 3.83727 10.7682 3.83727 11.4582V12.5418C3.83727 13.2318 3.2759 13.7932 2.58594 13.7932C2.26234 13.7932 2 14.0555 2 14.3791V18.709C2 19.0326 2.26234 19.2949 2.58594 19.2949H6.52965V4.70508Z" fill="#C4C4C4"/>
</svg>
