<svg width="64" height="64" viewBox="0 0 64 64" fill="none" xmlns="http://www.w3.org/2000/svg">
<g clip-path="url(#clip0)">
<path d="M17 40.7498C15.7639 40.7498 14.5555 41.1163 13.5277 41.8031C12.4999 42.4898 11.6988 43.4659 11.2258 44.608C10.7527 45.75 10.6289 47.0067 10.8701 48.2191C11.1113 49.4314 11.7065 50.5451 12.5806 51.4192C13.4547 52.2932 14.5683 52.8885 15.7807 53.1296C16.9931 53.3708 18.2497 53.247 19.3918 52.774C20.5338 52.3009 21.5099 51.4999 22.1967 50.4721C22.8834 49.4443 23.25 48.2359 23.25 46.9997C23.2481 45.3427 22.589 43.7541 21.4173 42.5824C20.2457 41.4107 18.657 40.7516 17 40.7498ZM17 50.3331C16.3407 50.3331 15.6963 50.1376 15.1481 49.7713C14.5999 49.405 14.1727 48.8844 13.9204 48.2754C13.6681 47.6663 13.6021 46.996 13.7307 46.3494C13.8593 45.7028 14.1768 45.1089 14.643 44.6427C15.1092 44.1766 15.7031 43.8591 16.3497 43.7305C16.9963 43.6019 17.6665 43.6679 18.2756 43.9202C18.8847 44.1724 19.4053 44.5997 19.7716 45.1478C20.1378 45.696 20.3333 46.3405 20.3333 46.9997C20.3333 47.8838 19.9821 48.7316 19.357 49.3568C18.7319 49.9819 17.8841 50.3331 17 50.3331Z" fill="url(#paint0_linear)"/>
<path d="M48.666 40.7498C47.4299 40.7498 46.2215 41.1163 45.1937 41.8031C44.1659 42.4898 43.3648 43.4659 42.8918 44.608C42.4187 45.75 42.295 47.0067 42.5361 48.2191C42.7773 49.4314 43.3725 50.5451 44.2466 51.4192C45.1207 52.2932 46.2343 52.8885 47.4467 53.1296C48.6591 53.3708 49.9157 53.247 51.0578 52.774C52.1998 52.3009 53.1759 51.4999 53.8627 50.4721C54.5494 49.4443 54.916 48.2359 54.916 46.9997C54.9141 45.3427 54.255 43.7541 53.0834 42.5824C51.9117 41.4107 50.323 40.7516 48.666 40.7498ZM48.666 50.3331C48.0067 50.3331 47.3623 50.1376 46.8141 49.7713C46.2659 49.405 45.8387 48.8844 45.5864 48.2754C45.3341 47.6663 45.2681 46.996 45.3967 46.3494C45.5253 45.7028 45.8428 45.1089 46.309 44.6427C46.7752 44.1766 47.3691 43.8591 48.0157 43.7305C48.6623 43.6019 49.3325 43.6679 49.9416 43.9202C50.5507 44.1724 51.0713 44.5997 51.4376 45.1478C51.8038 45.696 51.9993 46.3405 51.9993 46.9997C51.9993 47.8838 51.6482 48.7316 51.023 49.3568C50.3979 49.9819 49.5501 50.3331 48.666 50.3331Z" fill="url(#paint1_linear)"/>
<path d="M57.4775 36.6471C53.341 34.9406 47 31.9999 47 31.9999L41.9497 23.8019C41.5988 23.3684 41.1553 23.0189 40.6516 22.7791C40.148 22.5394 39.597 22.4155 39.0393 22.4165H14.0601C13.2083 22.4137 12.3728 22.6495 11.6482 23.0973C10.9236 23.5451 10.339 24.1869 9.96063 24.9501L6.23385 32.4038C5.91564 33.0402 5.74999 33.7419 5.75 34.4534V44.4999C5.75 45.4944 6.14509 46.4483 6.84835 47.1515C7.55161 47.8548 8.50544 48.2499 9.5 48.2499H9.60615C9.42319 47.174 9.47723 46.0711 9.7645 45.0183C10.0518 43.9655 10.5653 42.988 11.2694 42.1541C11.9734 41.3203 12.8509 40.6501 13.8407 40.1904C14.8305 39.7307 15.9087 39.4925 17 39.4925C18.0913 39.4925 19.1695 39.7307 20.1593 40.1904C21.1491 40.6501 22.0266 41.3203 22.7306 42.1541C23.4347 42.988 23.9482 43.9655 24.2355 45.0183C24.5228 46.0711 24.5768 47.174 24.3939 48.2499H41.2728C41.0915 47.1888 41.1407 46.1012 41.417 45.0608C41.6933 44.0205 42.1903 43.0518 42.8743 42.2206C43.5582 41.3894 44.4131 40.7151 45.3808 40.2436C46.3484 39.7721 47.4062 39.5145 48.4823 39.4881C49.5584 39.4617 50.6276 39.6673 51.6172 40.0908C52.6068 40.5143 53.4937 41.1459 54.2175 41.9426C54.9414 42.7392 55.4853 43.6824 55.8122 44.708C56.1392 45.7335 56.2416 46.8175 56.1125 47.8861C56.7524 47.5814 57.2928 47.1015 57.6711 46.5022C58.0494 45.9029 58.2501 45.2086 58.25 44.4999V37.8019C58.2501 37.5546 58.1767 37.3128 58.0392 37.1072C57.9016 36.9016 57.7062 36.7414 57.4775 36.6471ZM11.625 31.0879C11.4858 31.3623 11.2733 31.5928 11.0111 31.7537C10.7489 31.9147 10.4472 31.9999 10.1395 31.9999H8.51917C8.51917 31.9999 11.165 26.7563 12.1597 24.8577C12.2655 24.6555 12.4246 24.4862 12.6199 24.368C12.8151 24.2498 13.0389 24.1874 13.2671 24.1874H14.2906C14.3795 24.1873 14.4669 24.21 14.5445 24.2533C14.6221 24.2965 14.6873 24.3589 14.734 24.4345C14.7807 24.5101 14.8073 24.5964 14.8112 24.6852C14.8151 24.7739 14.7963 24.8622 14.7565 24.9416L14.7523 24.9501C14.7523 24.9501 12.5921 29.1816 11.625 31.0879ZM17 36.5832H15.3333C15.0018 36.5832 14.6839 36.4515 14.4494 36.2171C14.215 35.9827 14.0833 35.6647 14.0833 35.3332C14.0833 35.0017 14.215 34.6837 14.4494 34.4493C14.6839 34.2149 15.0018 34.0832 15.3333 34.0832H17C17.3315 34.0832 17.6495 34.2149 17.8839 34.4493C18.1183 34.6837 18.25 35.0017 18.25 35.3332C18.25 35.6647 18.1183 35.9827 17.8839 36.2171C17.6495 36.4515 17.3315 36.5832 17 36.5832ZM28.25 30.7499C28.25 31.0813 28.1184 31.3991 27.8841 31.6335C27.6498 31.8679 27.332 31.9997 27.0006 31.9999H15.8125C15.5983 31.9998 15.3877 31.9447 15.2009 31.8398C15.0142 31.735 14.8575 31.5839 14.7459 31.401C14.6343 31.2182 14.5716 31.0097 14.5637 30.7957C14.5559 30.5816 14.6032 30.3691 14.701 30.1786C15.578 28.4738 16.8481 26.0192 17.4712 24.8501C17.5777 24.65 17.7366 24.4827 17.9308 24.3659C18.1251 24.2492 18.3474 24.1875 18.5741 24.1874H27C27.3315 24.1874 27.6495 24.3191 27.8839 24.5535C28.1183 24.7879 28.25 25.1058 28.25 25.4374V30.7499ZM35.3333 36.5832H33.7708C33.4393 36.5832 33.1214 36.4515 32.8869 36.2171C32.6525 35.9827 32.5208 35.6647 32.5208 35.3332C32.5208 35.0017 32.6525 34.6837 32.8869 34.4493C33.1214 34.2149 33.4393 34.0832 33.7708 34.0832H35.3333C35.6649 34.0832 35.9828 34.2149 36.2172 34.4493C36.4516 34.6837 36.5833 35.0017 36.5833 35.3332C36.5833 35.6647 36.4516 35.9827 36.2172 36.2171C35.9828 36.4515 35.6649 36.5832 35.3333 36.5832ZM33.25 31.9999C32.9185 31.9999 32.6005 31.8682 32.3661 31.6337C32.1317 31.3993 32 31.0814 32 30.7499V25.4374C32 25.1058 32.1317 24.7879 32.3661 24.5535C32.6005 24.3191 32.9185 24.1874 33.25 24.1874H40.1042L44.9167 31.9999H33.25Z" fill="url(#paint2_linear)"/>
</g>
<defs>
<linearGradient id="paint0_linear" x1="10.7494" y1="40.7479" x2="23.4047" y2="40.907" gradientUnits="userSpaceOnUse">
<stop stop-color="#EF6161"/>
<stop offset="1" stop-color="#FF8080"/>
</linearGradient>
<linearGradient id="paint1_linear" x1="42.4155" y1="40.7479" x2="55.0707" y2="40.907" gradientUnits="userSpaceOnUse">
<stop stop-color="#EF6161"/>
<stop offset="1" stop-color="#FF8080"/>
</linearGradient>
<linearGradient id="paint2_linear" x1="5.74763" y1="22.4126" x2="58.8732" y2="23.7705" gradientUnits="userSpaceOnUse">
<stop stop-color="#EF6161"/>
<stop offset="1" stop-color="#FF8080"/>
</linearGradient>
<clipPath id="clip0">
<rect width="53.3333" height="53.3333" fill="white" transform="translate(5.33398 5.33325)"/>
</clipPath>
</defs>
</svg>
