<svg width="64" height="64" viewBox="0 0 64 64" fill="none" xmlns="http://www.w3.org/2000/svg">
<g clip-path="url(#clip0)">
<path d="M41.3265 42.033C41.3265 35.8208 36.2726 30.7661 30.0626 30.7661V28.8679C37.3214 28.8664 43.2278 34.7719 43.2278 42.0292L41.3265 42.033ZM39.9435 42.0292C39.9397 36.5849 35.5092 32.1506 30.0588 32.1506L30.0626 34.0534C34.4604 34.0534 38.0384 37.6337 38.0384 42.0292H39.9435ZM30.0603 35.5445L30.0634 37.445C32.5911 37.4419 34.6469 39.4993 34.6469 42.0285H36.5466C36.5504 38.4542 33.6407 35.546 30.0603 35.5445ZM54.8813 29.8338H48.8585C47.2838 29.8338 46.0097 31.1079 46.0097 32.6842V32.9932C46.0097 34.5733 47.2838 35.8459 48.8585 35.8459H54.8813C56.4538 35.8459 57.7317 34.5664 57.7317 32.9932L57.7286 32.6811C57.7317 31.1086 56.4538 29.8338 54.8813 29.8338ZM57.7317 25.57V25.8866C57.7317 27.4621 56.4576 28.737 54.8828 28.737H48.8563C47.2868 28.737 46.0089 27.4659 46.0089 25.8866V25.5776C46.0089 24.0005 47.2868 22.7256 48.8593 22.7256H49.5649V22.7218H51.1198V12.3786C51.1198 11.6423 50.523 11.0454 49.7867 11.0453L26.4846 11.0419C25.7482 11.0418 25.1511 11.6387 25.1511 12.3752V17.4168C27.6362 16.0217 29.8176 14.8107 30.8786 14.2612C34.2488 12.5137 36.1866 14.6448 35.6028 17.174C35.1545 19.1255 31.8444 21.275 28.3547 23.9701C27.6651 24.5059 26.4595 25.2998 25.1519 26.1286V50.6658C25.1519 51.4022 25.7488 51.9992 26.4852 51.9992H49.788C50.5244 51.9992 51.1214 51.4022 51.1214 50.6658V50.069H48.8578C47.2845 50.069 46.0104 48.7895 46.0104 47.2201V46.9019C46.0104 45.3294 47.2815 44.0553 48.8578 44.0553H54.8813C56.4553 44.0553 57.7302 45.3264 57.7332 46.9019L57.7302 47.2132C57.7332 48.7895 56.4553 50.0652 54.8775 50.0652H54.1742V50.069H53.6232V55.0672C53.6232 57.0446 52.0035 58.6666 50.0215 58.6666H26.2471C24.2652 58.6666 22.644 57.0446 22.644 55.0672V50.9701H18.3147C18.3147 50.9701 11.9182 50.9465 8.44982 45.7047C8.41252 45.6506 8.37675 45.6019 8.33945 45.5487C8.19408 45.3188 8.06164 45.0745 7.92921 44.8279C7.81732 44.6201 7.70696 44.3978 7.59964 44.1718C7.49841 43.9571 7.40023 43.7478 7.30813 43.5195C7.12546 43.0583 6.96715 42.5749 6.82634 42.0559C6.78753 41.9014 6.7586 41.7347 6.71979 41.5748C6.61475 41.1265 6.5295 40.6562 6.46024 40.1637C6.4336 39.9742 6.40925 39.7854 6.38717 39.5891C6.31944 38.9185 6.27148 38.2221 6.27148 37.4724C6.27148 29.0521 10.2057 25.4862 12.891 24.3819C12.9016 24.375 17.8481 21.5429 22.644 18.8317V8.9364C22.644 6.95444 24.2652 5.33325 26.2471 5.33325H50.0231C52.0027 5.33325 53.6239 6.9552 53.6239 8.9364V22.7264H54.8805C56.4576 22.7226 57.7317 24.0005 57.7317 25.57ZM36.335 55.0642C36.335 56.0643 37.1411 56.8696 38.1351 56.8696C39.1337 56.8696 39.9389 56.0643 39.9389 55.0642C39.9389 54.0671 39.1329 53.2626 38.1351 53.2626C37.1411 53.2626 36.335 54.0709 36.335 55.0642ZM42.3738 8.3648C42.3738 8.12048 42.1805 7.92716 41.9399 7.92716H34.3333C34.0928 7.92716 33.8964 8.12048 33.8964 8.3648C33.8964 8.60455 34.0928 8.79864 34.3333 8.79864H41.9399C42.1789 8.79864 42.3738 8.60455 42.3738 8.3648ZM54.8813 36.9457H48.8585C47.2876 36.9457 46.0097 38.2236 46.0097 39.7961V40.1082C46.0097 41.6844 47.2838 42.9593 48.8585 42.9593H54.8821C56.4583 42.9593 57.7294 41.6844 57.7325 40.1082L57.7294 39.7961C57.7286 38.2236 56.4576 36.9457 54.8813 36.9457Z" fill="url(#paint0_linear)"/>
</g>
<defs>
<linearGradient id="paint0_linear" x1="6.26916" y1="5.32522" x2="58.3705" y2="5.95753" gradientUnits="userSpaceOnUse">
<stop stop-color="#EF6161"/>
<stop offset="1" stop-color="#FF8080"/>
</linearGradient>
<clipPath id="clip0">
<rect width="53.3333" height="53.3333" fill="white" transform="translate(5.33398 5.33325)"/>
</clipPath>
</defs>
</svg>
