<svg width="64" height="64" viewBox="0 0 64 64" fill="none" xmlns="http://www.w3.org/2000/svg">
<g clip-path="url(#clip0)">
<path d="M55.8661 16.61H48.0418V8.4585H48.6068C49.4697 8.4585 50.1693 7.75891 50.1693 6.896C50.1693 6.03308 49.4697 5.3335 48.6068 5.3335H35.9198C35.0569 5.3335 34.3573 6.03308 34.3573 6.896C34.3573 7.75891 35.0569 8.4585 35.9198 8.4585H36.4848V16.61H28.9825C28.1195 16.61 27.42 17.3095 27.42 18.1725V24.889H23.0276V15.0153H23.1147C23.9777 15.0153 24.6772 14.3157 24.6772 13.4528C24.6772 12.5899 23.9777 11.8903 23.1147 11.8903H13.7549C12.892 11.8903 12.1924 12.5899 12.1924 13.4528C12.1924 14.3157 12.892 15.0153 13.7549 15.0153H13.842V24.889H8.13672C7.2738 24.889 6.57422 25.5886 6.57422 26.4515V55.035C6.57422 55.8979 7.2738 56.5975 8.13672 56.5975H10.1482V57.1043C10.1482 57.9672 10.8478 58.6668 11.7107 58.6668C12.5736 58.6668 13.2732 57.9672 13.2732 57.1043V56.5976H23.8461V57.1043C23.8461 57.9672 24.5457 58.6668 25.4086 58.6668C26.2715 58.6668 26.9711 57.9672 26.9711 57.1043V56.5976H32.0291V57.1043C32.0291 57.9672 32.7287 58.6668 33.5916 58.6668C34.4545 58.6668 35.1541 57.9672 35.1541 57.1043V56.5976H49.6945V57.1043C49.6945 57.9672 50.3941 58.6668 51.257 58.6668C52.12 58.6668 52.8195 57.9672 52.8195 57.1043V56.5976H55.8661C56.729 56.5976 57.4286 55.898 57.4286 55.0351V18.1725C57.4286 17.3095 56.729 16.61 55.8661 16.61ZM13.4354 33.7028C13.4354 32.8399 14.1349 32.1403 14.9979 32.1403C15.8608 32.1403 16.5604 32.8399 16.5604 33.7028V47.7839C16.5604 48.6468 15.8608 49.3464 14.9979 49.3464C14.1349 49.3464 13.4354 48.6468 13.4354 47.7839V33.7028ZM20.5589 33.7028C20.5589 32.8399 21.2585 32.1403 22.1214 32.1403C22.9843 32.1403 23.6839 32.8399 23.6839 33.7028V47.7839C23.6839 48.6468 22.9843 49.3464 22.1214 49.3464C21.2585 49.3464 20.5589 48.6468 20.5589 47.7839V33.7028ZM47.0177 25.9614C47.8806 25.9614 48.5802 26.661 48.5802 27.5239V45.6835C48.5802 46.5464 47.8806 47.246 47.0177 47.246C46.1547 47.246 45.4552 46.5464 45.4552 45.6835V27.5239C45.4552 26.661 46.1547 25.9614 47.0177 25.9614ZM39.3933 27.5239V45.6835C39.3933 46.5464 38.6937 47.246 37.8308 47.246C36.9679 47.246 36.2683 46.5464 36.2683 45.6835V27.5239C36.2683 26.661 36.9679 25.9614 37.8308 25.9614C38.6937 25.9614 39.3933 26.661 39.3933 27.5239ZM39.6098 8.4585H44.9168V16.61H39.6098V8.4585ZM16.9671 15.0153H19.9026V24.889H16.9671V15.0153Z" fill="url(#paint0_linear)"/>
</g>
<defs>
<linearGradient id="paint0_linear" x1="6.57193" y1="5.32546" x2="58.0585" y2="5.94293" gradientUnits="userSpaceOnUse">
<stop stop-color="#EF6161"/>
<stop offset="1" stop-color="#FF8080"/>
</linearGradient>
<clipPath id="clip0">
<rect width="53.3333" height="53.3333" fill="white" transform="translate(5.33398 5.3335)"/>
</clipPath>
</defs>
</svg>
