<svg width="40" height="40" viewBox="0 0 40 40" fill="none" xmlns="http://www.w3.org/2000/svg">
<path d="M20 40C31.0457 40 40 31.0457 40 20C40 8.9543 31.0457 0 20 0C8.9543 0 0 8.9543 0 20C0 31.0457 8.9543 40 20 40Z" fill="url(#paint0_linear)"/>
<path d="M30.2143 14.9999C29.51 15.3234 28.7542 15.5428 27.9602 15.6408C28.771 15.1375 29.3916 14.3391 29.6857 13.3908C28.9252 13.8569 28.0858 14.1953 27.1913 14.3788C26.475 13.5867 25.4562 13.0933 24.3262 13.0933C22.1582 13.0933 20.4004 14.9156 20.4004 17.1619C20.4004 17.4805 20.4351 17.7917 20.5021 18.0892C17.24 17.9193 14.3474 16.2991 12.4114 13.837C12.073 14.4371 11.8805 15.1362 11.8805 15.8825C11.8805 17.2945 12.574 18.5404 13.6263 19.2693C12.983 19.247 12.3779 19.0636 11.8482 18.7586V18.8094C11.8482 20.7805 13.2018 22.4256 14.9967 22.8C14.6678 22.8917 14.3211 22.9425 13.9623 22.9425C13.7089 22.9425 13.4637 22.9165 13.2233 22.8669C13.7232 24.4847 15.1725 25.6611 16.8896 25.6934C15.5468 26.7843 13.8535 27.4327 12.0144 27.4327C11.6975 27.4327 11.3854 27.4128 11.0781 27.3769C12.8156 28.5335 14.8783 29.2079 17.0953 29.2079C24.3167 29.2079 28.264 23.007 28.264 17.6293L28.2508 17.1024C29.0221 16.5321 29.6893 15.8156 30.2143 14.9999Z" fill="white"/>
<defs>
<linearGradient id="paint0_linear" x1="0" y1="0" x2="40" y2="40" gradientUnits="userSpaceOnUse">
<stop stop-color="#3F98EB"/>
<stop offset="1" stop-color="#71E5FF"/>
</linearGradient>
</defs>
</svg>
