<svg width="64" height="64" viewBox="0 0 64 64" fill="none" xmlns="http://www.w3.org/2000/svg">
<g clip-path="url(#clip0)">
<path d="M31.9996 31.9979C39.3312 31.9979 45.2746 26.0288 45.2746 18.6657C45.2746 11.3025 39.3312 5.3335 31.9996 5.3335C24.668 5.3335 18.7246 11.3025 18.7246 18.6657C18.7246 26.0289 24.668 31.9979 31.9996 31.9979ZM26.0121 17.0354H26.6296C27.388 13.6353 30.4179 11.0859 34.0321 11.0859C34.9507 11.0859 35.6952 11.8305 35.6952 12.749C35.6952 13.6676 34.9507 14.4121 34.0321 14.4121C32.2687 14.4121 30.7521 15.4955 30.1052 17.0353H34.0321C34.9507 17.0353 35.6952 17.7799 35.6952 18.6984C35.6952 19.6169 34.9507 20.3615 34.0321 20.3615H30.1052C30.7521 21.9013 32.2687 22.9846 34.0321 22.9846C34.9507 22.9846 35.6952 23.7292 35.6952 24.6478C35.6952 25.5663 34.9507 26.3109 34.0321 26.3109C30.4179 26.3109 27.388 23.7615 26.6296 20.3614H26.0121C25.0936 20.3614 24.349 19.6168 24.349 18.6983C24.349 17.7797 25.0936 17.0354 26.0121 17.0354Z" fill="url(#paint0_linear)"/>
<path d="M9.01065 41.9966C6.98013 41.9966 5.33398 43.6497 5.33398 45.6891V54.9742C5.33398 57.0135 6.98013 58.6667 9.01065 58.6667C11.0413 58.6667 12.6873 57.0135 12.7509 54.9698V45.6847C12.6873 43.6497 11.0412 41.9966 9.01065 41.9966Z" fill="url(#paint1_linear)"/>
<path d="M57.6345 41.6266C57.5928 41.5957 57.55 41.5667 57.5078 41.5375C55.9728 40.4727 54.5907 40.8064 53.742 41.8208L47.092 49.7696C46.7944 50.1252 46.3545 50.3307 45.8909 50.3307H31.005C30.712 50.3307 30.4287 50.2063 30.2434 49.9792C29.175 48.6701 30.0844 47.1984 31.3374 47.1984L43.1197 47.1988C44.456 47.1988 45.5392 46.1156 45.5392 44.7794C45.5392 43.4431 44.456 42.3599 43.1197 42.3599H35.5847C35.0584 42.3599 34.5336 42.2599 34.0558 42.0394C34.0523 42.0377 34.0487 42.0361 34.0453 42.0345L31.2238 40.7227C29.5126 39.9272 27.6437 39.6149 25.8102 39.7828C23.9259 39.9553 22.1528 40.7519 20.7296 41.9986L18.9556 43.5526C18.3692 44.0663 17.6143 44.3465 16.8347 44.34L15.5375 44.329C15.6285 44.7407 15.6822 45.1634 15.6955 45.5927C15.6965 45.6233 15.697 45.654 15.697 45.6848V54.9699C15.697 55.0004 15.6966 55.0309 15.6955 55.0615C15.6801 55.557 15.6101 56.043 15.4922 56.514H45.7421C47.7889 56.514 49.7255 55.5863 51.0083 53.9914L57.833 45.718C58.9322 44.3852 59.0218 42.6566 57.6345 41.6266Z" fill="url(#paint2_linear)"/>
</g>
<defs>
<linearGradient id="paint0_linear" x1="18.7234" y1="5.32948" x2="45.6031" y2="5.66611" gradientUnits="userSpaceOnUse">
<stop stop-color="#EF6161"/>
<stop offset="1" stop-color="#FF8080"/>
</linearGradient>
<linearGradient id="paint1_linear" x1="5.33365" y1="41.9941" x2="12.8436" y2="42.0361" gradientUnits="userSpaceOnUse">
<stop stop-color="#EF6161"/>
<stop offset="1" stop-color="#FF8080"/>
</linearGradient>
<linearGradient id="paint2_linear" x1="15.4902" y1="39.7362" x2="59.162" y2="41.1499" gradientUnits="userSpaceOnUse">
<stop stop-color="#EF6161"/>
<stop offset="1" stop-color="#FF8080"/>
</linearGradient>
<clipPath id="clip0">
<rect width="53.3333" height="53.3333" fill="white" transform="translate(5.33398 5.3335)"/>
</clipPath>
</defs>
</svg>
