<svg width="40" height="40" viewBox="0 0 40 40" fill="none" xmlns="http://www.w3.org/2000/svg">
<path d="M20 40C31.0457 40 40 31.0457 40 20C40 8.9543 31.0457 0 20 0C8.9543 0 0 8.9543 0 20C0 31.0457 8.9543 40 20 40Z" fill="url(#paint0_linear)"/>
<path fill-rule="evenodd" clip-rule="evenodd" d="M27.7853 15.4641C23.2973 11.5602 16.7026 11.5588 12.2147 15.4641H8.75C8.4155 15.4641 8.123 15.6846 8.03 16.0056C7.937 16.3281 8.0675 16.6716 8.351 16.8486L8.35345 16.8502C8.39262 16.8767 8.88386 17.2088 9.2675 17.7966C8.447 18.8391 8 20.1201 8 21.4641C8 24.7731 10.691 27.464 14 27.464C15.6779 27.464 17.197 26.7721 18.2868 25.6585L19.4705 27.1761C19.613 27.3576 19.8305 27.4641 20.0615 27.4641H20.075C20.3105 27.4596 20.531 27.3456 20.6675 27.1551L21.7361 25.6818C22.8243 26.7817 24.3338 27.464 26 27.464C29.309 27.464 32 24.7731 32 21.4641C32 20.1216 31.553 18.8391 30.731 17.7966C31.1285 17.1891 31.6445 16.8501 31.649 16.8486C31.9325 16.6701 32.063 16.3266 31.97 16.0056C31.8785 15.6846 31.5845 15.4641 31.25 15.4641H27.7853ZM25.3001 15.5046C22.0334 13.5477 17.9679 13.5477 14.7004 15.5047C17.6805 15.8525 20 18.3919 20 21.4641C20 22.5375 19.7168 23.546 19.2211 24.4186L20.039 25.4676L20.7882 24.435C20.2868 23.5586 20 22.5443 20 21.4641C20 18.3918 22.3198 15.8522 25.3001 15.5046ZM22.3086 24.0346C22.3065 24.0317 22.3045 24.0288 22.3024 24.0259C21.7967 23.2983 21.5 22.4151 21.5 21.4641C21.5 18.9831 23.519 16.9641 26 16.9641H29.4845C29.36 17.1516 29.243 17.3601 29.141 17.5851C29.0165 17.8641 29.0705 18.1911 29.282 18.4116C30.068 19.2381 30.5 20.3211 30.5 21.4641C30.5 23.9451 28.481 25.9641 26 25.9641C24.478 25.9641 23.1299 25.2042 22.3151 24.0441C22.3129 24.0409 22.3108 24.0377 22.3086 24.0346ZM17.6967 24.0272L17.6868 24.0414C16.8722 25.2031 15.5231 25.9641 14 25.9641C11.519 25.9641 9.5 23.9451 9.5 21.4641C9.5 20.3211 9.9335 19.2366 10.718 18.4116C10.9295 18.1896 10.985 17.8641 10.859 17.5851C10.757 17.3601 10.64 17.1516 10.5155 16.9641H14C16.481 16.9641 18.5 18.9831 18.5 21.4641C18.5 22.4157 18.203 23.2993 17.6967 24.0272ZM11 21.4641C11 19.8096 12.3455 18.4641 14 18.4641C15.6545 18.4641 17 19.8096 17 21.4641C17 23.1186 15.6545 24.4641 14 24.4641C12.3455 24.4641 11 23.1186 11 21.4641ZM12.5 21.4641C12.5 22.2921 13.1735 22.9641 14 22.9641C14.8265 22.9641 15.5 22.2921 15.5 21.4641C15.5 20.6376 14.8265 19.9641 14 19.9641C13.1735 19.9641 12.5 20.6376 12.5 21.4641ZM14.03 20.7141H14.015C13.601 20.7141 13.2725 21.0501 13.2725 21.4641C13.2725 21.8781 13.616 22.2141 14.03 22.2141C14.444 22.2141 14.78 21.8781 14.78 21.4641C14.78 21.0501 14.444 20.7141 14.03 20.7141ZM26 18.4641C24.3455 18.4641 23 19.8096 23 21.4641C23 23.1186 24.3455 24.4641 26 24.4641C27.6545 24.4641 29 23.1186 29 21.4641C29 19.8096 27.6545 18.4641 26 18.4641ZM26 22.9641C25.172 22.9641 24.5 22.2921 24.5 21.4641C24.5 20.6376 25.172 19.9641 26 19.9641C26.828 19.9641 27.5 20.6376 27.5 21.4641C27.5 22.2921 26.828 22.9641 26 22.9641ZM26.015 20.7141H26.03C26.444 20.7141 26.78 21.0501 26.78 21.4641C26.78 21.8781 26.444 22.2141 26.03 22.2141C25.6175 22.2141 25.2725 21.8781 25.2725 21.4641C25.2725 21.0501 25.601 20.7141 26.015 20.7141Z" fill="white"/>
<defs>
<linearGradient id="paint0_linear" x1="0" y1="0" x2="40" y2="40" gradientUnits="userSpaceOnUse">
<stop stop-color="#1ECD79"/>
<stop offset="1" stop-color="#69EDFF"/>
</linearGradient>
</defs>
</svg>
