<svg width="64" height="64" viewBox="0 0 64 64" fill="none" xmlns="http://www.w3.org/2000/svg">
<g clip-path="url(#clip0)">
<path d="M53.4288 41.0098L47.1015 45.2281C46.562 48.1292 44.0135 50.3333 40.9584 50.3333H31.5834C30.7205 50.3333 30.0209 49.6337 30.0209 48.7708C30.0209 47.9101 30.7169 47.2123 31.5767 47.2086V47.2083H40.9583C42.6843 47.2083 44.0833 45.8092 44.0833 44.0833C44.0833 42.3573 42.6843 40.9583 40.9583 40.9583H31.5833L30.5642 40.194C28.5346 38.6717 26.0196 37.8333 23.4824 37.8333C21.3435 37.8333 19.2436 38.4148 17.4097 39.5152L15.4375 40.6986V56.5991L29.7999 58.6509C29.8764 58.6616 29.9521 58.6673 30.0272 58.6666H40.7116C42.944 58.6666 45.0768 57.8328 46.7171 56.3185L57.5827 46.2887C58.2736 45.6509 58.6667 44.7534 58.6667 43.8131C58.6667 41.1222 55.6677 39.5171 53.4288 41.0098Z" fill="url(#paint0_linear)"/>
<path d="M6.89648 36.7915C6.03357 36.7915 5.33398 37.4911 5.33398 38.354V57.104C5.33398 57.9669 6.03357 58.6665 6.89648 58.6665H10.7507C11.6136 58.6665 12.3132 57.9669 12.3132 57.104V38.354C12.3132 37.4911 11.6136 36.7915 10.7507 36.7915H6.89648Z" fill="url(#paint1_linear)"/>
<path d="M34.084 37.1041C28.9146 37.1041 24.709 32.8984 24.709 27.7291C24.709 25.5756 26.0828 22.6185 28.9092 18.6884C30.8888 15.9356 32.839 13.7562 32.9211 13.6647C33.2174 13.3345 33.6402 13.1458 34.084 13.1458C34.5277 13.1458 34.9505 13.3345 35.2469 13.6647C35.329 13.7562 37.2791 15.9356 39.2588 18.6884C42.0851 22.6185 43.459 25.5756 43.459 27.7291C43.459 32.8984 39.2534 37.1041 34.084 37.1041Z" fill="url(#paint2_linear)"/>
<path d="M48.1465 20.9582C44.7002 20.9582 41.8965 18.1545 41.8965 14.7082C41.8965 13.2806 42.7593 11.387 44.5342 8.91887C45.7414 7.24012 46.9334 5.90804 46.9836 5.85221C47.2799 5.5219 47.7027 5.33325 48.1465 5.33325C48.5902 5.33325 49.013 5.5219 49.3094 5.85221C49.3595 5.90815 50.5515 7.24023 51.7588 8.91887C53.5337 11.3869 54.3965 13.2806 54.3965 14.7082C54.3965 18.1545 51.5927 20.9582 48.1465 20.9582Z" fill="url(#paint3_linear)"/>
<path d="M20.0215 20.9582C16.5752 20.9582 13.7715 18.1545 13.7715 14.7082C13.7715 13.2806 14.6343 11.387 16.4092 8.91887C17.6164 7.24012 18.8084 5.90804 18.8586 5.85221C19.1549 5.5219 19.5777 5.33325 20.0215 5.33325C20.4652 5.33325 20.888 5.5219 21.1844 5.85221C21.2345 5.90815 22.4265 7.24023 23.6338 8.91887C25.4087 11.3869 26.2715 13.2806 26.2715 14.7082C26.2715 18.1545 23.4677 20.9582 20.0215 20.9582Z" fill="url(#paint4_linear)"/>
</g>
<defs>
<linearGradient id="paint0_linear" x1="15.4356" y1="37.8301" x2="59.1786" y2="38.9717" gradientUnits="userSpaceOnUse">
<stop stop-color="#EF6161"/>
<stop offset="1" stop-color="#FF8080"/>
</linearGradient>
<linearGradient id="paint1_linear" x1="5.33367" y1="36.7882" x2="12.4005" y2="36.8166" gradientUnits="userSpaceOnUse">
<stop stop-color="#EF6161"/>
<stop offset="1" stop-color="#FF8080"/>
</linearGradient>
<linearGradient id="paint2_linear" x1="24.7081" y1="13.1421" x2="43.6921" y2="13.329" gradientUnits="userSpaceOnUse">
<stop stop-color="#EF6161"/>
<stop offset="1" stop-color="#FF8080"/>
</linearGradient>
<linearGradient id="paint3_linear" x1="41.8959" y1="5.3309" x2="54.5519" y2="5.45824" gradientUnits="userSpaceOnUse">
<stop stop-color="#EF6161"/>
<stop offset="1" stop-color="#FF8080"/>
</linearGradient>
<linearGradient id="paint4_linear" x1="13.7709" y1="5.3309" x2="26.4269" y2="5.45824" gradientUnits="userSpaceOnUse">
<stop stop-color="#EF6161"/>
<stop offset="1" stop-color="#FF8080"/>
</linearGradient>
<clipPath id="clip0">
<rect width="53.3333" height="53.3333" fill="white" transform="translate(5.33398 5.33325)"/>
</clipPath>
</defs>
</svg>
