<svg width="16" height="20" viewBox="0 0 16 20" fill="none" xmlns="http://www.w3.org/2000/svg">
<path d="M13.4589 0H2.54101C1.47821 0 0.608643 0.869565 0.608643 1.93237V18.7923C0.608643 19.2512 0.874343 19.686 1.28497 19.8792C1.71975 20.0725 2.20285 20.0242 2.56516 19.7343L2.58932 19.7101L7.99995 15.1449L13.4106 19.7101L13.4347 19.7343C13.6521 19.9034 13.9178 20 14.1835 20C14.3526 20 14.5458 19.9517 14.7149 19.8551C15.1256 19.6618 15.3913 19.2271 15.3913 18.7681V1.93237C15.3913 0.869565 14.5217 0 13.4589 0Z" fill="url(#paint0_linear)"/>
<defs>
<linearGradient id="paint0_linear" x1="0.607976" y1="-0.00301319" x2="15.5752" y2="0.136129" gradientUnits="userSpaceOnUse">
<stop stop-color="#EF6161"/>
<stop offset="1" stop-color="#FF8080"/>
</linearGradient>
</defs>
</svg>
