<svg width="96" height="96" viewBox="0 0 96 96" fill="none" xmlns="http://www.w3.org/2000/svg">
<path d="M52.9453 46.2522C58.604 45.5417 64.184 47.8191 67.7626 52.2273C68.0253 52.5509 68.494 52.6217 68.8306 52.3759C70.4517 51.1914 71.8473 49.7116 72.9417 48.0033C79.7617 37.3625 72.1882 23 59.2495 23C50.8064 23 43.8473 29.4705 43.0728 37.7136C43.0415 38.0466 43.2254 38.3645 43.5314 38.4997C47.0634 40.0619 50.0809 42.6358 52.2006 45.9081C52.3612 46.1564 52.652 46.2889 52.9453 46.2522Z" fill="url(#paint0_linear)"/>
<path d="M59.25 20.5C60.6308 20.5 61.75 19.3806 61.75 18V13C61.75 11.6194 60.6308 10.5 59.25 10.5C57.8692 10.5 56.75 11.6194 56.75 13V18C56.75 19.3806 57.8692 20.5 59.25 20.5Z" fill="url(#paint1_linear)"/>
<path d="M85.5 36.75H80.5C79.1192 36.75 78 37.8694 78 39.25C78 40.6306 79.1192 41.75 80.5 41.75H85.5C86.8808 41.75 88 40.6306 88 39.25C88 37.8694 86.8808 36.75 85.5 36.75Z" fill="url(#paint2_linear)"/>
<path d="M76.0441 52.5083C75.068 51.5321 73.4851 51.5321 72.5087 52.5083C71.5323 53.4847 71.5323 55.0675 72.5087 56.0438L76.0441 59.5792C76.5322 60.0675 77.1719 60.3116 77.8118 60.3116C80.0193 60.3116 81.1588 57.623 79.5794 56.0439L76.0441 52.5083Z" fill="url(#paint3_linear)"/>
<path d="M42.4562 25.9917C43.4325 26.9681 45.0153 26.9681 45.9917 25.9917C46.9681 25.0153 46.9681 23.4325 45.9917 22.4563L42.4562 18.9208C41.4803 17.9445 39.8973 17.9445 38.9208 18.9208C37.9444 19.8972 37.9444 21.48 38.9208 22.4563L42.4562 25.9917Z" fill="url(#paint4_linear)"/>
<path d="M74.2762 26.7239C74.9161 26.7239 75.5558 26.4798 76.0439 25.9915L79.5793 22.4561C80.5558 21.4797 80.5558 19.8968 79.5793 18.9206C78.6031 17.9444 77.0201 17.9442 76.0439 18.9206L72.5086 22.4562C70.9289 24.0357 72.0691 26.7239 74.2762 26.7239Z" fill="url(#paint5_linear)"/>
<path d="M66.2078 64.8751C68.1352 55.3791 58.1905 48.0578 49.757 52.3854C47.9034 46.2683 42.2222 41.8152 35.5 41.8152C26.7759 41.8152 19.8884 49.2869 20.6641 58.0427C13.5778 58.5963 8 64.5216 8 71.7501C8 79.3229 14.1352 85.5001 21.75 85.5001H66.4375C72.133 85.5001 76.75 80.883 76.75 75.1876C76.75 69.7441 72.4667 64.8751 66.2078 64.8751Z" fill="url(#paint6_linear)"/>
<defs>
<linearGradient id="paint0_linear" x1="23.4716" y1="40.4079" x2="58.6733" y2="73.1992" gradientUnits="userSpaceOnUse">
<stop stop-color="#CBA054"/>
<stop offset="1" stop-color="#FFE381"/>
</linearGradient>
<linearGradient id="paint1_linear" x1="53.7286" y1="16.3964" x2="62.3204" y2="20.0392" gradientUnits="userSpaceOnUse">
<stop stop-color="#CBA054"/>
<stop offset="1" stop-color="#FFE381"/>
</linearGradient>
<linearGradient id="paint2_linear" x1="71.9573" y1="39.6982" x2="77.1872" y2="48.5679" gradientUnits="userSpaceOnUse">
<stop stop-color="#CBA054"/>
<stop offset="1" stop-color="#FFE381"/>
</linearGradient>
<linearGradient id="paint3_linear" x1="66.617" y1="56.809" x2="76.6832" y2="65.3475" gradientUnits="userSpaceOnUse">
<stop stop-color="#CBA054"/>
<stop offset="1" stop-color="#FFE381"/>
</linearGradient>
<linearGradient id="paint4_linear" x1="33.0307" y1="23.2214" x2="43.0963" y2="31.757" gradientUnits="userSpaceOnUse">
<stop stop-color="#CBA054"/>
<stop offset="1" stop-color="#FFE381"/>
</linearGradient>
<linearGradient id="paint5_linear" x1="66.614" y1="23.2212" x2="76.6803" y2="31.7599" gradientUnits="userSpaceOnUse">
<stop stop-color="#CBA054"/>
<stop offset="1" stop-color="#FFE381"/>
</linearGradient>
<linearGradient id="paint6_linear" x1="-33.5439" y1="67.5735" x2="16.5736" y2="134.456" gradientUnits="userSpaceOnUse">
<stop stop-color="#CBA054"/>
<stop offset="1" stop-color="#FFE381"/>
</linearGradient>
</defs>
</svg>
