<svg width="96" height="96" viewBox="0 0 96 96" fill="none" xmlns="http://www.w3.org/2000/svg">
<path d="M71.5938 63.7812C66.6397 63.7812 62.6094 59.7509 62.6094 54.7969C62.6094 49.8428 66.6397 45.8125 71.5938 45.8125C76.5478 45.8125 80.5781 49.8428 80.5781 54.7969C80.5781 59.7509 76.5478 63.7812 71.5938 63.7812Z" fill="url(#paint0_linear)"/>
<path d="M24.4062 63.7812C19.4522 63.7812 15.4219 59.7509 15.4219 54.7969C15.4219 49.8428 19.4522 45.8125 24.4062 45.8125C29.3603 45.8125 33.3906 49.8428 33.3906 54.7969C33.3906 59.7509 29.3603 63.7812 24.4062 63.7812Z" fill="url(#paint1_linear)"/>
<path d="M63.625 14.25C60.6633 14.25 58.0006 12.6044 56.6763 9.95562L56.3464 9.29578C55.9494 8.50156 55.1378 8 54.25 8H41.75C40.8622 8 40.0506 8.50156 39.6536 9.29562L39.3237 9.95531C37.9994 12.6044 35.3367 14.25 32.375 14.25C31.0806 14.25 30.0312 15.2994 30.0312 16.5938V29.9683C30.0312 35.2267 31.6905 40.2363 34.8294 44.4552C37.9683 48.6739 42.2898 51.7027 47.3266 53.2136C47.5463 53.2795 47.7731 53.3125 48 53.3125C48.2269 53.3125 48.4537 53.2795 48.6734 53.2136C53.7102 51.7027 58.0317 48.6739 61.1706 44.4552C64.3095 40.2363 65.9688 35.2267 65.9688 29.9683V16.5938C65.9688 15.2994 64.9194 14.25 63.625 14.25ZM56.2864 27.8941L47.4477 36.7328C46.99 37.1905 46.3902 37.4194 45.7905 37.4194C45.1908 37.4194 44.5908 37.1906 44.1333 36.7328L39.7139 32.3134C38.7986 31.3981 38.7986 29.9142 39.7139 28.9989C40.6291 28.0836 42.1131 28.0836 43.0284 28.9989L45.7906 31.7609L52.9722 24.5795C53.8873 23.6642 55.3714 23.6642 56.2867 24.5795C57.2017 25.4948 57.2017 26.9788 56.2864 27.8941Z" fill="url(#paint2_linear)"/>
<path d="M81.1784 64.5366C78.7092 66.9667 75.3241 68.4687 71.5941 68.4687C67.8581 68.4687 64.468 66.962 61.9978 64.5248C60.6866 65.4695 59.5195 66.6025 58.5391 67.888L59.8269 69.0159C63.7303 72.4348 65.9691 77.3609 65.9691 82.5312V88H85.6566C86.9509 88 88.0003 86.9506 88.0003 85.6562V77.8437C88.0003 72.3725 85.3077 67.5189 81.1784 64.5366Z" fill="url(#paint3_linear)"/>
<path d="M14.8219 64.5366C10.6927 67.5189 8 72.3725 8 77.8437V85.6562C8 86.9506 9.04937 88 10.3438 88H30.0312V82.5312C30.0312 77.3609 32.27 72.4348 36.1734 69.0159L37.4613 67.888C36.4808 66.6025 35.3137 65.4695 34.0025 64.5248C31.5323 66.962 28.1422 68.4687 24.4062 68.4687C20.6763 68.4687 17.2911 66.9667 14.8219 64.5366Z" fill="url(#paint4_linear)"/>
<path d="M56.7381 72.5422C54.5325 74.8437 51.4319 76.2812 48 76.2812C44.5681 76.2812 41.4675 74.8437 39.2619 72.5422C36.4803 74.9784 34.7188 78.5519 34.7188 82.5312V88H61.2812V82.5312C61.2812 78.5519 59.5197 74.9784 56.7381 72.5422Z" fill="url(#paint5_linear)"/>
<path d="M48 71.5938C43.9075 71.5938 40.5781 68.2644 40.5781 64.1719C40.5781 60.0794 43.9075 56.75 48 56.75C52.0925 56.75 55.4219 60.0794 55.4219 64.1719C55.4219 68.2644 52.0925 71.5938 48 71.5938Z" fill="url(#paint6_linear)"/>
<defs>
<linearGradient id="paint0_linear" x1="51.7513" y1="56.4076" x2="72.9415" y2="74.3763" gradientUnits="userSpaceOnUse">
<stop stop-color="#CBA054"/>
<stop offset="1" stop-color="#FFE381"/>
</linearGradient>
<linearGradient id="paint1_linear" x1="4.56381" y1="56.4076" x2="25.754" y2="74.3763" gradientUnits="userSpaceOnUse">
<stop stop-color="#CBA054"/>
<stop offset="1" stop-color="#FFE381"/>
</linearGradient>
<linearGradient id="paint2_linear" x1="8.31513" y1="34.718" x2="58.48" y2="68.4556" gradientUnits="userSpaceOnUse">
<stop stop-color="#CBA054"/>
<stop offset="1" stop-color="#FFE381"/>
</linearGradient>
<linearGradient id="paint3_linear" x1="40.7364" y1="78.3667" x2="68.7431" y2="108.172" gradientUnits="userSpaceOnUse">
<stop stop-color="#CBA054"/>
<stop offset="1" stop-color="#FFE381"/>
</linearGradient>
<linearGradient id="paint4_linear" x1="-9.80269" y1="78.3667" x2="18.2041" y2="108.172" gradientUnits="userSpaceOnUse">
<stop stop-color="#CBA054"/>
<stop offset="1" stop-color="#FFE381"/>
</linearGradient>
<linearGradient id="paint5_linear" x1="18.6677" y1="81.6567" x2="35.9088" y2="106.78" gradientUnits="userSpaceOnUse">
<stop stop-color="#CBA054"/>
<stop offset="1" stop-color="#FFE381"/>
</linearGradient>
<linearGradient id="paint6_linear" x1="31.6084" y1="65.5025" x2="49.1133" y2="80.3462" gradientUnits="userSpaceOnUse">
<stop stop-color="#CBA054"/>
<stop offset="1" stop-color="#FFE381"/>
</linearGradient>
</defs>
</svg>
