<svg width="96" height="96" viewBox="0 0 96 96" fill="none" xmlns="http://www.w3.org/2000/svg">
<g clip-path="url(#clip0)">
<path d="M16.9774 8C12.8955 8 9.42283 10.6087 8.13595 14.25C7.88236 14.9675 7.99283 15.7633 8.43236 16.3845C8.87189 17.0058 9.58533 17.375 10.3463 17.375H26.3524C26.3524 12.1973 22.155 8 16.9774 8Z" fill="url(#paint0_linear)"/>
<path d="M51.5227 78.6249C50.9917 82.2882 49.222 85.5312 46.6992 88H77.5409C81.8683 88 85.6549 85.6417 87.6841 82.1427C88.1047 81.4174 88.1061 80.5227 87.6872 79.7963C87.2683 79.07 86.4936 78.6247 85.6552 78.6247H51.5227V78.6249Z" fill="url(#paint1_linear)"/>
<path d="M68.1658 8H27.3807C28.9655 9.75734 33.5265 13.6838 29.5644 34.0722C26.9687 48.0747 21.5852 62.5561 21.7112 76.757C21.9671 82.9938 27.0835 88 33.3819 88C39.8433 88 45.1007 82.7427 45.1007 76.2812C45.1007 74.9858 46.149 73.9375 47.4444 73.9375H70.5576C70.9055 65.4803 73.0479 56.9773 75.126 48.7284C77.498 39.3095 79.8846 29.4745 79.8846 19.7188C79.8846 13.2573 74.6271 8 68.1658 8V8ZM63.453 59.5625H33.8043C32.5099 59.5625 31.4605 58.5131 31.4605 57.2188C31.4605 55.9244 32.5099 54.875 33.8043 54.875H63.453C64.7474 54.875 65.7968 55.9244 65.7968 57.2188C65.7968 58.5131 64.7476 59.5625 63.453 59.5625ZM65.6813 50.1875H36.0944C34.8001 50.1875 33.7507 49.1381 33.7507 47.8438C33.7507 46.5494 34.8001 45.5 36.0944 45.5H65.6812C66.9755 45.5 68.0249 46.5494 68.0249 47.8438C68.0249 49.1381 66.9757 50.1875 65.6813 50.1875ZM67.9715 40.8125H38.2552C36.9608 40.8125 35.9115 39.7631 35.9115 38.4688C35.9115 37.1744 36.9608 36.125 38.2552 36.125H67.9715C69.2658 36.125 70.3152 37.1744 70.3152 38.4688C70.3152 39.7631 69.266 40.8125 67.9715 40.8125ZM69.7594 31.4375H39.8774C38.583 31.4375 37.5337 30.3881 37.5337 29.0938C37.5337 27.7994 38.583 26.75 39.8774 26.75H69.7596C71.054 26.75 72.1033 27.7994 72.1033 29.0938C72.1033 30.3881 71.0538 31.4375 69.7594 31.4375Z" fill="url(#paint2_linear)"/>
</g>
<defs>
<linearGradient id="paint0_linear" x1="-3.08673" y1="13.5279" x2="6.82041" y2="29.9718" gradientUnits="userSpaceOnUse">
<stop stop-color="#CBA054"/>
<stop offset="1" stop-color="#FFE381"/>
</linearGradient>
<linearGradient id="paint1_linear" x1="21.7419" y1="84.1528" x2="27.3406" y2="105.067" gradientUnits="userSpaceOnUse">
<stop stop-color="#CBA054"/>
<stop offset="1" stop-color="#FFE381"/>
</linearGradient>
<linearGradient id="paint2_linear" x1="-13.4451" y1="55.1712" x2="72.0009" y2="107.861" gradientUnits="userSpaceOnUse">
<stop stop-color="#CBA054"/>
<stop offset="1" stop-color="#FFE381"/>
</linearGradient>
<clipPath id="clip0">
<rect width="80" height="80" fill="white" transform="translate(8 8)"/>
</clipPath>
</defs>
</svg>
