<svg width="96" height="96" viewBox="0 0 96 96" fill="none" xmlns="http://www.w3.org/2000/svg">
<g clip-path="url(#clip0)">
<path d="M61.7949 81.1957H24.4514C23.1572 81.1957 22.108 80.1465 22.108 78.8522C22.108 77.558 23.1572 76.5088 24.4514 76.5088H61.7949C63.0871 76.5088 64.1386 75.4573 64.1386 74.165C64.1386 72.8727 63.0873 71.8212 61.7949 71.8212H43.4128C39.5361 71.8212 36.3821 68.6672 36.3821 64.7905C36.3821 60.9138 39.5361 57.7598 43.4128 57.7598H66.482C67.7744 57.7598 68.8258 56.7086 68.8258 55.4162C68.8258 54.1239 67.7745 53.0724 66.482 53.0724H48.1001C44.2234 53.0724 41.0694 49.9185 41.0694 46.0417C41.0694 42.165 44.2234 39.011 48.1001 39.011H73.6693C74.9635 39.011 76.0127 40.0602 76.0127 41.3545C76.0127 42.6488 74.9635 43.698 73.6693 43.698H48.1001C46.8077 43.698 45.7563 44.7494 45.7563 46.0417C45.7563 47.3341 46.8076 48.3855 48.1001 48.3855H66.482C70.3587 48.3855 73.5127 51.5395 73.5127 55.4162C73.5127 59.2929 70.3587 62.4468 66.482 62.4468H43.4128C42.1205 62.4468 41.0691 63.4982 41.0691 64.7905C41.0691 66.0829 42.1203 67.1343 43.4128 67.1343H61.7949C65.6715 67.1343 68.8255 70.2883 68.8255 74.165C68.8255 78.0417 65.6716 81.1957 61.7949 81.1957Z" fill="url(#paint0_linear)"/>
<path d="M75.6695 14.8043C74.5649 14.8043 73.6695 15.6998 73.6695 16.8043V33.1048C73.6695 34.2094 74.5649 35.1048 75.6695 35.1048H76.3564C77.461 35.1048 78.3564 34.2094 78.3564 33.1048V28.0597H86.0003C87.1048 28.0597 88.0003 27.1643 88.0003 26.0597V16.8043C88.0003 15.6998 87.1048 14.8043 86.0003 14.8043H75.6695Z" fill="url(#paint1_linear)"/>
<path d="M22.108 38.0046C14.3288 38.0046 8 44.3333 8 52.1124C8 55.8735 10.1716 60.2865 14.4545 65.2292C17.4879 68.7297 20.4871 71.2245 20.6133 71.3289L22.1078 72.5664L23.6023 71.3289C23.7285 71.2245 26.7277 68.7297 29.7609 65.2292C34.0438 60.2865 36.2154 55.8735 36.2154 52.1124C36.2157 44.3333 29.887 38.0046 22.108 38.0046ZM22.108 56.4584C19.7115 56.4584 17.7619 54.5088 17.7619 52.1124C17.7619 49.716 19.7115 47.7662 22.108 47.7662C24.5044 47.7662 26.454 49.7158 26.454 52.1124C26.454 54.5088 24.5044 56.4584 22.108 56.4584Z" fill="url(#paint2_linear)"/>
</g>
<defs>
<linearGradient id="paint0_linear" x1="-40.3421" y1="53.9513" x2="39.0003" y2="135.023" gradientUnits="userSpaceOnUse">
<stop stop-color="#CBA054"/>
<stop offset="1" stop-color="#FFE381"/>
</linearGradient>
<linearGradient id="paint1_linear" x1="-40.3421" y1="53.9513" x2="39.0003" y2="135.023" gradientUnits="userSpaceOnUse">
<stop stop-color="#CBA054"/>
<stop offset="1" stop-color="#FFE381"/>
</linearGradient>
<linearGradient id="paint2_linear" x1="-40.3421" y1="53.9513" x2="39.0003" y2="135.023" gradientUnits="userSpaceOnUse">
<stop stop-color="#CBA054"/>
<stop offset="1" stop-color="#FFE381"/>
</linearGradient>
<clipPath id="clip0">
<rect width="80" height="80" fill="white" transform="translate(8 8)"/>
</clipPath>
</defs>
</svg>
