<svg width="96" height="96" viewBox="0 0 96 96" fill="none" xmlns="http://www.w3.org/2000/svg">
<g clip-path="url(#clip0)">
<path d="M17.5312 48C17.5312 38.2142 22.4202 29.55 29.8827 24.3177C17.6031 25.4931 8 35.8364 8 48.4238C8 61.4961 18.3575 72.1477 31.3136 72.624C23.0511 67.5307 17.5312 58.3985 17.5312 48Z" fill="url(#paint0_linear)"/>
<path d="M66.1175 24.3177C73.58 29.55 78.4689 38.2142 78.4689 48C78.4689 58.3985 72.949 67.5307 64.6865 72.6241C77.6426 72.1479 88.0001 61.4963 88.0001 48.4239C88.0001 35.8364 78.397 25.4931 66.1175 24.3177Z" fill="url(#paint1_linear)"/>
<path d="M64.4062 19.0938C64.4062 16.5048 62.3077 14.4062 59.7188 14.4062H50.3438V10.3438C50.3438 9.04937 49.2944 8 48 8C46.7056 8 45.6562 9.04937 45.6562 10.3438V14.4062H36.2812C33.6923 14.4062 31.5938 16.5048 31.5938 19.0938H64.4062Z" fill="url(#paint2_linear)"/>
<path d="M31.5938 85.6562C31.5938 86.9506 32.6431 88 33.9375 88C35.2319 88 36.2812 86.9506 36.2812 85.6562V81.5938H40.9688V85.6562C40.9688 86.9506 42.0181 88 43.3125 88C44.6069 88 45.6562 86.9506 45.6562 85.6562V81.5938H50.3438V85.6562C50.3438 86.9506 51.3931 88 52.6875 88C53.9819 88 55.0312 86.9506 55.0312 85.6562V81.5938H59.7188V85.6562C59.7188 86.9506 60.7681 88 62.0625 88C63.3569 88 64.4062 86.9506 64.4062 85.6562V76.9062H31.5938V85.6562Z" fill="url(#paint3_linear)"/>
<path d="M38.5628 25.0914C29.0531 28.3597 22.2188 37.3812 22.2188 48C22.2188 58.6187 29.0531 67.6403 38.5628 70.9086C37.8409 69.7964 37.1444 68.4851 36.4956 66.9379C34.3422 61.8029 33.1562 55.0772 33.1562 48C33.1562 40.9228 34.3422 34.197 36.4956 29.062C37.1445 27.5148 37.8409 26.2036 38.5628 25.0914Z" fill="url(#paint4_linear)"/>
<path d="M73.7816 48C73.7816 37.3812 66.9472 28.3597 57.4375 25.0914C58.1594 26.2036 58.8559 27.5148 59.5047 29.062C61.6581 34.197 62.8441 40.9228 62.8441 48C62.8441 55.0772 61.6581 61.8029 59.5047 66.9379C58.8558 68.4851 58.1594 69.7964 57.4375 70.9086C66.9472 67.6403 73.7816 58.6187 73.7816 48Z" fill="url(#paint5_linear)"/>
<path d="M48 72.2188C53.6091 72.2188 58.1562 61.3756 58.1562 48C58.1562 34.6244 53.6091 23.7812 48 23.7812C42.3909 23.7812 37.8438 34.6244 37.8438 48C37.8438 61.3756 42.3909 72.2188 48 72.2188Z" fill="url(#paint6_linear)"/>
</g>
<defs>
<linearGradient id="paint0_linear" x1="-6.08782" y1="52.801" x2="34.3946" y2="69.3684" gradientUnits="userSpaceOnUse">
<stop stop-color="#CBA054"/>
<stop offset="1" stop-color="#FFE381"/>
</linearGradient>
<linearGradient id="paint1_linear" x1="50.5987" y1="52.8011" x2="91.0811" y2="69.3684" gradientUnits="userSpaceOnUse">
<stop stop-color="#CBA054"/>
<stop offset="1" stop-color="#FFE381"/>
</linearGradient>
<linearGradient id="paint2_linear" x1="11.766" y1="14.5413" x2="20.89" y2="37.4253" gradientUnits="userSpaceOnUse">
<stop stop-color="#CBA054"/>
<stop offset="1" stop-color="#FFE381"/>
</linearGradient>
<linearGradient id="paint3_linear" x1="11.766" y1="83.4476" x2="20.89" y2="106.332" gradientUnits="userSpaceOnUse">
<stop stop-color="#CBA054"/>
<stop offset="1" stop-color="#FFE381"/>
</linearGradient>
<linearGradient id="paint4_linear" x1="12.3424" y1="52.107" x2="42.6984" y2="61.2895" gradientUnits="userSpaceOnUse">
<stop stop-color="#CBA054"/>
<stop offset="1" stop-color="#FFE381"/>
</linearGradient>
<linearGradient id="paint5_linear" x1="47.5612" y1="52.107" x2="77.9171" y2="61.2895" gradientUnits="userSpaceOnUse">
<stop stop-color="#CBA054"/>
<stop offset="1" stop-color="#FFE381"/>
</linearGradient>
<linearGradient id="paint6_linear" x1="25.5694" y1="52.3419" x2="62.1254" y2="65.3413" gradientUnits="userSpaceOnUse">
<stop stop-color="#CBA054"/>
<stop offset="1" stop-color="#FFE381"/>
</linearGradient>
<clipPath id="clip0">
<rect width="80" height="80" fill="white" transform="translate(8 8)"/>
</clipPath>
</defs>
</svg>
