<svg width="96" height="96" viewBox="0 0 96 96" fill="none" xmlns="http://www.w3.org/2000/svg">
<path d="M8.85027 49.902L19.8529 54.4457L17.5194 55.5332C16.8634 55.8678 16.5728 56.6471 16.8634 57.3252L20.0334 64.1363C20.1875 64.4709 20.4737 64.7351 20.8171 64.8584C21.1561 65.0037 21.5436 65.0037 21.8826 64.8584L46.0012 53.5475L46.305 50.3379L46.7277 46.0451C46.7761 45.4728 47.2825 45.0545 47.8504 45.1073C48.2203 45.1382 48.5417 45.3671 48.6958 45.7105C48.7838 45.869 48.8234 46.054 48.8102 46.2389L46.0144 75.861C46.6396 76.3189 47.4233 76.4862 48.1806 76.3409C49.2461 76.0591 50.1927 74.8132 50.9764 72.7614L62.164 39.4673L62.4854 38.5207C62.6483 37.966 63.2295 37.649 63.7886 37.8119C64.3434 37.9792 64.6604 38.5604 64.4975 39.1151C64.4843 39.1415 64.4799 39.1679 64.471 39.19L63.3791 42.382L62.1508 46.0451L81.0388 37.1955C86.4939 34.6463 89.2985 29.4862 87.4141 25.462C86.3442 23.3574 84.2969 21.9265 81.9502 21.6447C79.3438 21.2529 76.6801 21.6624 74.3113 22.8203L52.9225 32.8015L29.9618 23.8373C27.0691 22.7498 24.7753 22.7763 23.1682 23.9386C21.821 25.0437 21.0549 26.708 21.0857 28.4559C21.0989 28.8918 21.3234 29.3056 21.6845 29.5566L37.1516 40.1542L28.2843 44.3501L13.4204 40.6297C12.8128 40.4844 12.1788 40.7574 11.8706 41.2989L8.18104 47.9296C7.8024 48.6032 8.04015 49.4529 8.71378 49.8316C8.75781 49.858 8.80624 49.88 8.85027 49.902Z" fill="url(#paint0_linear)"/>
<defs>
<linearGradient id="paint0_linear" x1="-40.3403" y1="53.8665" x2="23.8303" y2="133.171" gradientUnits="userSpaceOnUse">
<stop stop-color="#CBA054"/>
<stop offset="1" stop-color="#FFE381"/>
</linearGradient>
</defs>
</svg>
