<svg width="96" height="96" viewBox="0 0 96 96" fill="none" xmlns="http://www.w3.org/2000/svg">
<path d="M47.9975 47.9966C58.9948 47.9966 67.91 39.043 67.91 27.9983C67.91 16.9534 58.9948 8 47.9975 8C37.0001 8 28.085 16.9534 28.085 27.9983C28.085 39.0431 37.0001 47.9966 47.9975 47.9966ZM39.0162 25.5528H39.9425C41.0801 20.4527 45.625 16.6286 51.0462 16.6286C52.424 16.6286 53.5409 17.7455 53.5409 19.1233C53.5409 20.5011 52.424 21.618 51.0462 21.618C48.4011 21.618 46.1262 23.243 45.1559 25.5527H51.0462C52.424 25.5527 53.5409 26.6695 53.5409 28.0473C53.5409 29.4252 52.424 30.542 51.0462 30.542H45.1559C46.1262 32.8517 48.4011 34.4767 51.0462 34.4767C52.424 34.4767 53.5409 35.5936 53.5409 36.9714C53.5409 38.3492 52.424 39.4661 51.0462 39.4661C45.625 39.4661 41.0801 35.642 39.9425 30.5419H39.0162C37.6384 30.5419 36.5215 29.425 36.5215 28.0472C36.5215 26.6694 37.6384 25.5528 39.0162 25.5528Z" fill="url(#paint0_linear)"/>
<path d="M13.515 62.9948C10.4692 62.9948 8 65.4745 8 68.5336V82.4612C8 85.5201 10.4692 88 13.515 88C16.5609 88 19.03 85.5202 19.1253 82.4547V68.527C19.03 65.4745 16.5608 62.9948 13.515 62.9948Z" fill="url(#paint1_linear)"/>
<path d="M86.4518 62.4395C86.3893 62.3931 86.3251 62.3497 86.2618 62.3058C83.9593 60.7086 81.886 61.2092 80.613 62.7308L70.638 74.6539C70.1916 75.1873 69.5318 75.4956 68.8363 75.4956H46.5075C46.0679 75.4956 45.6431 75.3091 45.3651 74.9684C43.7625 73.0047 45.1265 70.7972 47.0061 70.7972L64.6796 70.7978C66.684 70.7978 68.3088 69.173 68.3088 67.1686C68.3088 65.1642 66.684 63.5394 64.6796 63.5394H53.377C52.5876 63.5394 51.8004 63.3894 51.0837 63.0586C51.0784 63.0561 51.0731 63.0538 51.0679 63.0513L46.8357 61.0836C44.2689 59.8903 41.4656 59.4219 38.7153 59.6738C35.8889 59.9325 33.2292 61.1274 31.0944 62.9975L28.4334 65.3284C27.5537 66.0991 26.4214 66.5194 25.252 66.5095L23.3062 66.4931C23.4428 67.1106 23.5233 67.7447 23.5433 68.3886C23.5447 68.4345 23.5455 68.4806 23.5455 68.5267V82.4544C23.5455 82.5002 23.5448 82.5459 23.5433 82.5919C23.5202 83.335 23.4152 84.0641 23.2383 84.7706H68.6132C71.6834 84.7706 74.5882 83.3791 76.5124 80.9867L86.7494 68.5766C88.3983 66.5774 88.5327 63.9845 86.4518 62.4395Z" fill="url(#paint2_linear)"/>
<defs>
<linearGradient id="paint0_linear" x1="4.01972" y1="31.5836" x2="51.1533" y2="71.3802" gradientUnits="userSpaceOnUse">
<stop stop-color="#CBA054"/>
<stop offset="1" stop-color="#FFE381"/>
</linearGradient>
<linearGradient id="paint1_linear" x1="1.27725" y1="77.7389" x2="21.0208" y2="85.1877" gradientUnits="userSpaceOnUse">
<stop stop-color="#CBA054"/>
<stop offset="1" stop-color="#FFE381"/>
</linearGradient>
<linearGradient id="paint2_linear" x1="-15.8956" y1="74.4448" x2="6.88565" y2="124.163" gradientUnits="userSpaceOnUse">
<stop stop-color="#CBA054"/>
<stop offset="1" stop-color="#FFE381"/>
</linearGradient>
</defs>
</svg>
