<svg width="96" height="96" viewBox="0 0 96 96" fill="none" xmlns="http://www.w3.org/2000/svg">
<path d="M25.5 61.125C23.6458 61.125 21.8332 61.6748 20.2915 62.705C18.7498 63.7351 17.5482 65.1993 16.8386 66.9123C16.1291 68.6254 15.9434 70.5104 16.3051 72.329C16.6669 74.1475 17.5598 75.818 18.8709 77.1291C20.182 78.4402 21.8525 79.3331 23.671 79.6948C25.4896 80.0566 27.3746 79.8709 29.0877 79.1613C30.8007 78.4518 32.2649 77.2502 33.295 75.7085C34.3252 74.1667 34.875 72.3542 34.875 70.5C34.8722 68.0144 33.8836 65.6315 32.126 63.874C30.3685 62.1164 27.9855 61.1278 25.5 61.125ZM25.5 75.5C24.5111 75.5 23.5444 75.2067 22.7222 74.6573C21.8999 74.1079 21.259 73.327 20.8806 72.4134C20.5022 71.4998 20.4032 70.4944 20.5961 69.5245C20.789 68.5546 21.2652 67.6637 21.9645 66.9645C22.6637 66.2652 23.5546 65.789 24.5246 65.5961C25.4945 65.4031 26.4998 65.5022 27.4134 65.8806C28.3271 66.259 29.1079 66.8999 29.6574 67.7221C30.2068 68.5444 30.5 69.5111 30.5 70.5C30.5 71.8261 29.9732 73.0978 29.0355 74.0355C28.0979 74.9732 26.8261 75.5 25.5 75.5Z" fill="url(#paint0_linear)"/>
<path d="M73 61.125C71.1458 61.125 69.3332 61.6748 67.7915 62.705C66.2498 63.7351 65.0482 65.1993 64.3386 66.9123C63.6291 68.6254 63.4434 70.5104 63.8051 72.329C64.1669 74.1475 65.0598 75.818 66.3709 77.1291C67.682 78.4402 69.3525 79.3331 71.171 79.6948C72.9896 80.0566 74.8746 79.8709 76.5876 79.1613C78.3007 78.4518 79.7649 77.2502 80.795 75.7085C81.8251 74.1667 82.375 72.3542 82.375 70.5C82.3722 68.0144 81.3835 65.6315 79.626 63.874C77.8685 62.1164 75.4855 61.1278 73 61.125ZM73 75.5C72.0111 75.5 71.0444 75.2067 70.2221 74.6573C69.3999 74.1079 68.759 73.327 68.3806 72.4134C68.0022 71.4998 67.9031 70.4944 68.0961 69.5245C68.289 68.5546 68.7652 67.6637 69.4645 66.9645C70.1637 66.2652 71.0546 65.789 72.0245 65.5961C72.9944 65.4031 73.9998 65.5022 74.9134 65.8806C75.827 66.259 76.6079 66.8999 77.1573 67.7221C77.7067 68.5444 78 69.5111 78 70.5C78 71.8261 77.4732 73.0978 76.5355 74.0355C75.5978 74.9732 74.3261 75.5 73 75.5Z" fill="url(#paint1_linear)"/>
<path d="M86.2163 54.9708C80.0116 52.4111 70.5 48 70.5 48L62.9245 35.7031C62.3982 35.0528 61.7329 34.5285 60.9774 34.1689C60.222 33.8093 59.3956 33.6234 58.5589 33.625H21.0902C19.8125 33.6207 18.5592 33.9744 17.4723 34.6461C16.3854 35.3178 15.5085 36.2806 14.9409 37.4253L9.35078 48.6059C8.87347 49.5605 8.62498 50.6131 8.625 51.6803V66.75C8.625 68.2419 9.21763 69.6726 10.2725 70.7275C11.3274 71.7824 12.7582 72.375 14.25 72.375H14.4092C14.1348 70.7612 14.2158 69.1069 14.6467 67.5277C15.0777 65.9484 15.848 64.4822 16.9041 63.2314C17.9601 61.9806 19.2764 60.9754 20.7611 60.2858C22.2457 59.5962 23.863 59.239 25.5 59.239C27.137 59.239 28.7543 59.5962 30.2389 60.2858C31.7236 60.9754 33.0399 61.9806 34.0959 63.2314C35.152 64.4822 35.9223 65.9484 36.3533 67.5277C36.7842 69.1069 36.8652 70.7612 36.5908 72.375H61.9092C61.6372 70.7834 61.711 69.152 62.1255 67.5915C62.54 66.0309 63.2855 64.5779 64.3115 63.3311C65.3374 62.0843 66.6196 61.0729 68.0711 60.3657C69.5226 59.6584 71.1094 59.2719 72.7235 59.2323C74.3377 59.1928 75.9414 59.5011 77.4258 60.1364C78.9102 60.7717 80.2405 61.719 81.3263 62.914C82.4121 64.1091 83.2279 65.5238 83.7184 67.0622C84.2088 68.6005 84.3624 70.2264 84.1688 71.8294C85.1286 71.3722 85.9392 70.6525 86.5066 69.7535C87.0741 68.8545 87.3752 67.8131 87.375 66.75V56.7031C87.3751 56.3321 87.2651 55.9694 87.0588 55.661C86.8525 55.3525 86.5592 55.1123 86.2163 54.9708ZM17.4375 46.632C17.2287 47.0436 16.91 47.3894 16.5166 47.6308C16.1233 47.8723 15.6708 48.0001 15.2092 48H12.7787C12.7787 48 16.7475 40.1347 18.2395 37.2867C18.3983 36.9835 18.637 36.7295 18.9298 36.5522C19.2226 36.375 19.5583 36.2813 19.9006 36.2813H21.4359C21.5692 36.2812 21.7003 36.3152 21.8167 36.3801C21.9331 36.445 22.031 36.5386 22.101 36.652C22.171 36.7654 22.2109 36.8948 22.2168 37.0279C22.2227 37.1611 22.1944 37.2935 22.1347 37.4127L22.1284 37.4253C22.1284 37.4253 18.8881 43.7727 17.4375 46.632ZM25.5 54.875H23C22.5027 54.875 22.0258 54.6775 21.6742 54.3258C21.3225 53.9742 21.125 53.4973 21.125 53C21.125 52.5027 21.3225 52.0258 21.6742 51.6742C22.0258 51.3226 22.5027 51.125 23 51.125H25.5C25.9973 51.125 26.4742 51.3226 26.8258 51.6742C27.1775 52.0258 27.375 52.5027 27.375 53C27.375 53.4973 27.1775 53.9742 26.8258 54.3258C26.4742 54.6775 25.9973 54.875 25.5 54.875ZM42.375 46.125C42.375 46.6221 42.1776 47.0989 41.8262 47.4505C41.4747 47.8021 40.9981 47.9998 40.5009 48H23.7188C23.3974 47.9999 23.0816 47.9173 22.8014 47.76C22.5212 47.6027 22.2862 47.376 22.1188 47.1018C21.9514 46.8275 21.8573 46.5148 21.8456 46.1937C21.8338 45.8726 21.9047 45.5539 22.0516 45.2681C23.367 42.7109 25.2722 39.0291 26.2069 37.2753C26.3666 36.9752 26.6049 36.7242 26.8963 36.5491C27.1876 36.374 27.5212 36.2814 27.8611 36.2813H40.5C40.9973 36.2813 41.4742 36.4788 41.8258 36.8304C42.1775 37.1821 42.375 37.659 42.375 38.1563V46.125ZM53 54.875H50.6562C50.159 54.875 49.6821 54.6775 49.3304 54.3258C48.9788 53.9742 48.7812 53.4973 48.7812 53C48.7812 52.5027 48.9788 52.0258 49.3304 51.6742C49.6821 51.3226 50.159 51.125 50.6562 51.125H53C53.4973 51.125 53.9742 51.3226 54.3258 51.6742C54.6775 52.0258 54.875 52.5027 54.875 53C54.875 53.4973 54.6775 53.9742 54.3258 54.3258C53.9742 54.6775 53.4973 54.875 53 54.875ZM49.875 48C49.3777 48 48.9008 47.8025 48.5492 47.4508C48.1975 47.0992 48 46.6223 48 46.125V38.1563C48 37.659 48.1975 37.1821 48.5492 36.8304C48.9008 36.4788 49.3777 36.2813 49.875 36.2813H60.1562L67.375 48H49.875Z" fill="url(#paint2_linear)"/>
<defs>
<linearGradient id="paint0_linear" x1="4.79485" y1="72.1807" x2="26.9063" y2="90.9307" gradientUnits="userSpaceOnUse">
<stop stop-color="#CBA054"/>
<stop offset="1" stop-color="#FFE381"/>
</linearGradient>
<linearGradient id="paint1_linear" x1="52.2949" y1="72.1807" x2="74.4063" y2="90.9307" gradientUnits="userSpaceOnUse">
<stop stop-color="#CBA054"/>
<stop offset="1" stop-color="#FFE381"/>
</linearGradient>
<linearGradient id="paint2_linear" x1="-38.9616" y1="56.4735" x2="1.2538" y2="125.777" gradientUnits="userSpaceOnUse">
<stop stop-color="#CBA054"/>
<stop offset="1" stop-color="#FFE381"/>
</linearGradient>
</defs>
</svg>
